<?xml version="1.0" encoding="UTF-8"?>
<svg id="a" data-name="Layer 1" xmlns="http://www.w3.org/2000/svg" viewBox="0 0 409.45 200.56">
  <defs>
    <style>
      .b {
        fill: #262262;
      }
    </style>
  </defs>
  <path class="b" d="M309.69,69.9c-32.75,0-55.83,14.3-78.03,36.47-24.9,24.86-61.47,73.47-92.71,86.29C55.93,226.73-26.19,144.67,7.92,61.63,35.92-6.52,128.48-20.93,175.64,35.39c-19.39,22.01-48.39,35.55-77.96,34.5v-22l-57.04,52.5,57.04,52.5v-22h14.5c53.78,0,102.31-88.18,145.59-115.41,82.32-51.81,181.71,35.76,143.09,125.09-29.02,67.11-120.44,80.85-167.04,24.64,17.58-21.95,47.1-33.61,74.87-34.31v20.5l2,1.01,55.98-52.01-56.48-52.48"/>
</svg>