<?xml version="1.0" encoding="utf-8"?>
<!-- Generator: Adobe Illustrator 22.0.0, SVG Export Plug-In . SVG Version: 6.00 Build 0)  -->
<svg version="1.1" id="Layer_1" xmlns="http://www.w3.org/2000/svg" xmlns:xlink="http://www.w3.org/1999/xlink" x="0px" y="0px"
	 viewBox="0 0 512 256" style="enable-background:new 0 0 512 256;" xml:space="preserve">
<g>
	<path d="M148.4,65.2c0,7-1.2,13.7-3.4,20c-2.3,6.3-5.5,12.1-9.5,17.2c4,5.2,7.2,10.9,9.5,17.2c2.3,6.3,3.4,13,3.4,20
		c0,8.3-1.6,16-4.7,23.2c-3.1,7.2-7.4,13.4-12.7,18.8c-5.3,5.3-11.6,9.6-18.8,12.7c-7.2,3.1-14.9,4.7-23.2,4.7H44.4H0V5.9h44.4h44.7
		c8.3,0,16,1.6,23.2,4.7c7.2,3.1,13.4,7.4,18.8,12.7c5.3,5.3,9.6,11.6,12.7,18.8C146.9,49.2,148.4,56.9,148.4,65.2z M44.4,50.6v29.5
		h44.7c4.2,0,7.8-1.4,10.6-4.3c2.8-2.8,4.3-6.4,4.3-10.6c0-4-1.4-7.5-4.3-10.3c-2.9-2.8-6.4-4.3-10.6-4.3H44.4z M89.1,154.6
		c4.2,0,7.8-1.5,10.6-4.4c2.8-2.9,4.3-6.4,4.3-10.5c0-4.2-1.4-7.8-4.3-10.6c-2.9-2.8-6.4-4.3-10.6-4.3H44.4v29.8H89.1z"/>
	<path d="M293.2,5.9c8.3,0,16,1.6,23.2,4.7c7.2,3.1,13.4,7.4,18.8,12.7c5.3,5.3,9.6,11.6,12.7,18.8c3.1,7.2,4.7,14.9,4.7,23.2V199
		h-44.4V65.2c0-4-1.4-7.5-4.3-10.3c-2.9-2.8-6.4-4.3-10.6-4.3c-4.2,0-7.8,1.4-10.6,4.3c-2.9,2.9-4.3,6.3-4.3,10.3V199h-44.4V65.2
		c0-4-1.4-7.5-4.3-10.3c-2.9-2.8-6.4-4.3-10.6-4.3c-4.2,0-7.8,1.4-10.6,4.3c-2.9,2.9-4.3,6.3-4.3,10.3V199h-44.7V65.2
		c0-8.3,1.6-16,4.7-23.2c3.1-7.2,7.4-13.4,12.8-18.8c5.4-5.3,11.7-9.6,18.9-12.7c7.2-3.1,14.9-4.7,23.2-4.7c7,0,13.7,1.2,20,3.4
		c6.3,2.3,12,5.5,17,9.5c5.1-4,10.9-7.2,17.2-9.5C279.6,7.1,286.3,5.9,293.2,5.9z"/>
	<path d="M475.9,84.8c7.2,3.1,13.4,7.4,18.8,12.8c5.3,5.4,9.6,11.7,12.7,18.9c3.1,7.2,4.7,14.9,4.7,23.2c0,8.3-1.6,16-4.7,23.2
		c-3.1,7.2-7.4,13.4-12.7,18.8c-5.3,5.3-11.6,9.6-18.8,12.7c-7.2,3.1-14.9,4.7-23.2,4.7h-89.1v-44.4h89.1c4.2-0.2,7.8-1.7,10.6-4.6
		c2.8-2.8,4.3-6.3,4.3-10.3c0-4.2-1.4-7.8-4.3-10.6c-2.9-2.8-6.4-4.3-10.6-4.3h-29.8c-8.3,0-16-1.6-23.2-4.7
		c-7.2-3.1-13.4-7.4-18.8-12.8c-5.3-5.4-9.6-11.7-12.7-18.9c-3.1-7.2-4.7-14.9-4.7-23.2c0-8.3,1.6-16,4.7-23.2
		c3.1-7.2,7.4-13.4,12.7-18.8c5.3-5.3,11.6-9.6,18.8-12.7c7.2-3.1,14.9-4.7,23.2-4.7h59.3v44.7h-59.3c-4.2,0-7.8,1.4-10.6,4.3
		c-2.9,2.9-4.3,6.3-4.3,10.3c0,4.2,1.4,7.8,4.3,10.6c2.8,2.9,6.4,4.3,10.6,4.3h29.8C461,80.1,468.7,81.7,475.9,84.8z"/>
</g>
<g>
	<path d="M23.1,226.3c0,1.1-0.2,2.1-0.5,3.1c-0.4,1-0.9,1.9-1.5,2.7c0.6,0.8,1.1,1.7,1.5,2.7c0.4,1,0.5,2,0.5,3.1
		c0,1.3-0.2,2.5-0.7,3.6c-0.5,1.1-1.1,2.1-2,2.9c-0.8,0.8-1.8,1.5-2.9,2c-1.1,0.5-2.3,0.7-3.6,0.7H6.9H0v-30h6.9h6.9
		c1.3,0,2.5,0.2,3.6,0.7c1.1,0.5,2.1,1.1,2.9,2c0.8,0.8,1.5,1.8,2,2.9S23.1,225.1,23.1,226.3z M6.9,224.1v4.6h6.9
		c0.7,0,1.2-0.2,1.7-0.7c0.4-0.4,0.7-1,0.7-1.6c0-0.6-0.2-1.2-0.7-1.6c-0.4-0.4-1-0.7-1.7-0.7H6.9z M13.9,240.2
		c0.7,0,1.2-0.2,1.7-0.7c0.4-0.5,0.7-1,0.7-1.6c0-0.7-0.2-1.2-0.7-1.7c-0.4-0.4-1-0.7-1.7-0.7H6.9v4.6H13.9z"/>
	<path d="M38.6,217.1c1.3,0,2.5,0.2,3.6,0.7c1.1,0.5,2.1,1.1,2.9,2c0.8,0.8,1.5,1.8,2,2.9c0.5,1.1,0.7,2.3,0.7,3.6v11.6
		c0,1.3-0.2,2.5-0.7,3.6c-0.5,1.1-1.1,2.1-2,2.9c-0.8,0.8-1.8,1.5-2.9,2c-1.1,0.5-2.3,0.7-3.6,0.7H34c-1.3,0-2.5-0.2-3.6-0.7
		c-1.1-0.5-2.1-1.1-2.9-2c-0.8-0.8-1.5-1.8-2-2.9c-0.5-1.1-0.7-2.3-0.7-3.6v-11.6c0-1.3,0.2-2.5,0.7-3.6c0.5-1.1,1.1-2.1,2-2.9
		c0.8-0.8,1.8-1.5,2.9-2c1.1-0.5,2.3-0.7,3.6-0.7H38.6z M41,226.3c0-0.6-0.2-1.2-0.7-1.6c-0.4-0.4-1-0.7-1.7-0.7H34
		c-0.7,0-1.2,0.2-1.7,0.7c-0.4,0.4-0.7,1-0.7,1.6v11.6c0,0.6,0.2,1.2,0.7,1.6c0.4,0.5,1,0.7,1.7,0.7h4.6c0.7,0,1.2-0.2,1.7-0.7
		c0.4-0.5,0.7-1,0.7-1.6V226.3z"/>
	<path d="M49.6,226.3c0-1.3,0.2-2.5,0.7-3.6c0.5-1.1,1.1-2.1,2-2.9c0.8-0.8,1.8-1.5,2.9-2c1.1-0.5,2.3-0.7,3.6-0.7h4.6
		c1.3,0,2.5,0.2,3.6,0.7c1.1,0.5,2.1,1.1,2.9,2c0.8,0.8,1.5,1.8,2,2.9c0.5,1.1,0.7,2.3,0.7,3.6v20.8h-6.9v-20.8
		c0-0.6-0.2-1.2-0.7-1.6c-0.4-0.5-1-0.7-1.7-0.7h-4.6c-0.7,0-1.2,0.2-1.7,0.7c-0.4,0.5-0.7,1-0.7,1.6v20.8h-6.9V226.3z"/>
	<path d="M88.2,228.7h9.2v6.9v2.3c0,1.3-0.2,2.5-0.7,3.6c-0.5,1.1-1.1,2.1-2,2.9c-0.8,0.8-1.8,1.5-2.9,2c-1.1,0.5-2.3,0.7-3.6,0.7
		h-4.6c-1.3,0-2.5-0.2-3.6-0.7c-1.1-0.5-2.1-1.1-2.9-2c-0.8-0.8-1.5-1.8-2-2.9c-0.5-1.1-0.7-2.3-0.7-3.6v-11.6
		c0-1.3,0.2-2.5,0.7-3.6s1.1-2.1,2-2.9c0.8-0.8,1.8-1.5,2.9-2c1.1-0.5,2.3-0.7,3.6-0.7h4.6c1.3,0,2.5,0.2,3.6,0.7
		c1.1,0.5,2.1,1.1,2.9,2c0.8,0.8,1.5,1.8,2,2.9s0.7,2.3,0.7,3.6h-6.9c0-0.6-0.2-1.2-0.7-1.6c-0.4-0.4-1-0.7-1.7-0.7h-4.6
		c-0.7,0-1.2,0.2-1.7,0.7c-0.4,0.4-0.7,1-0.7,1.6v11.6c0,0.6,0.2,1.2,0.7,1.6c0.4,0.5,1,0.7,1.7,0.7h4.6c0.7,0,1.2-0.2,1.7-0.7
		c0.4-0.5,0.7-1,0.7-1.6v-2.3h-2.3V228.7z"/>
	<path d="M128.6,217.1c1.3,0,2.5,0.2,3.6,0.7c1.1,0.5,2.1,1.1,2.9,2c0.8,0.8,1.5,1.8,2,2.9c0.5,1.1,0.7,2.3,0.7,3.6v20.8h-6.9v-20.8
		c0-0.6-0.2-1.2-0.7-1.6c-0.4-0.4-1-0.7-1.7-0.7c-0.7,0-1.2,0.2-1.7,0.7c-0.4,0.4-0.7,1-0.7,1.6v20.8h-6.9v-20.8
		c0-0.6-0.2-1.2-0.7-1.6c-0.4-0.4-1-0.7-1.7-0.7c-0.7,0-1.2,0.2-1.7,0.7c-0.4,0.4-0.7,1-0.7,1.6v20.8h-6.9v-20.8
		c0-1.3,0.2-2.5,0.7-3.6c0.5-1.1,1.2-2.1,2-2.9c0.8-0.8,1.8-1.5,2.9-2c1.1-0.5,2.3-0.7,3.6-0.7c1.1,0,2.1,0.2,3.1,0.5
		c1,0.4,1.9,0.8,2.6,1.5c0.8-0.6,1.7-1.1,2.7-1.5S127.5,217.1,128.6,217.1z"/>
	<path d="M155.7,247.1l-4.6-17.2l-4.6,17.2h-6.9l8-30h0.1h6.9h0.1l8,30H155.7z"/>
	<path d="M164.3,226.3c0-1.3,0.2-2.5,0.7-3.6s1.1-2.1,2-2.9c0.8-0.8,1.8-1.5,2.9-2c1.1-0.5,2.3-0.7,3.6-0.7h4.6
		c1.3,0,2.5,0.2,3.6,0.7c1.1,0.5,2.1,1.1,2.9,2c0.8,0.8,1.5,1.8,2,2.9c0.5,1.1,0.7,2.3,0.7,3.6v20.8h-6.9v-20.8
		c0-0.6-0.2-1.2-0.7-1.6c-0.4-0.5-1-0.7-1.7-0.7h-4.6c-0.7,0-1.2,0.2-1.7,0.7c-0.4,0.5-0.7,1-0.7,1.6v20.8h-6.9V226.3z"/>
	<path d="M205.2,247.1l-4.6-17.2l-4.6,17.2h-6.9l8-30h0.1h6.9h0.1l8,30H205.2z"/>
	<path d="M226.4,228.7h9.2v6.9v2.3c0,1.3-0.2,2.5-0.7,3.6c-0.5,1.1-1.1,2.1-2,2.9c-0.8,0.8-1.8,1.5-2.9,2c-1.1,0.5-2.3,0.7-3.6,0.7
		h-4.6c-1.3,0-2.5-0.2-3.6-0.7c-1.1-0.5-2.1-1.1-2.9-2c-0.8-0.8-1.5-1.8-2-2.9c-0.5-1.1-0.7-2.3-0.7-3.6v-11.6
		c0-1.3,0.2-2.5,0.7-3.6c0.5-1.1,1.1-2.1,2-2.9c0.8-0.8,1.8-1.5,2.9-2c1.1-0.5,2.3-0.7,3.6-0.7h4.6c1.3,0,2.5,0.2,3.6,0.7
		c1.1,0.5,2.1,1.1,2.9,2c0.8,0.8,1.5,1.8,2,2.9c0.5,1.1,0.7,2.3,0.7,3.6h-6.9c0-0.6-0.2-1.2-0.7-1.6c-0.4-0.4-1-0.7-1.6-0.7h-4.6
		c-0.7,0-1.2,0.2-1.7,0.7c-0.4,0.4-0.7,1-0.7,1.6v11.6c0,0.6,0.2,1.2,0.7,1.6c0.4,0.5,1,0.7,1.7,0.7h4.6c0.7,0,1.2-0.2,1.6-0.7
		c0.4-0.5,0.7-1,0.7-1.6v-2.3h-2.3V228.7z"/>
	<path d="M244.9,224.7c-0.4,0.4-0.7,1-0.7,1.6v2.3h16.2v6.9h-16.2v2.3c0,0.6,0.2,1.2,0.7,1.6c0.4,0.5,1,0.7,1.6,0.7h13.9v6.9h-13.9
		c-1.3,0-2.5-0.2-3.6-0.7c-1.1-0.5-2.1-1.1-2.9-2c-0.8-0.8-1.5-1.8-2-2.9c-0.5-1.1-0.7-2.3-0.7-3.6v-11.6c0-1.3,0.2-2.5,0.7-3.6
		s1.1-2.1,2-2.9c0.8-0.8,1.8-1.5,2.9-2c1.1-0.5,2.3-0.7,3.6-0.7h13.9v6.9h-13.9C245.9,224.1,245.4,224.3,244.9,224.7z"/>
	<path d="M283,217.1c1.3,0,2.5,0.2,3.6,0.7c1.1,0.5,2.1,1.1,2.9,2c0.8,0.8,1.5,1.8,2,2.9c0.5,1.1,0.7,2.3,0.7,3.6v20.8h-6.9v-20.8
		c0-0.6-0.2-1.2-0.7-1.6c-0.4-0.4-1-0.7-1.7-0.7c-0.7,0-1.2,0.2-1.6,0.7c-0.4,0.4-0.7,1-0.7,1.6v20.8h-6.9v-20.8
		c0-0.6-0.2-1.2-0.7-1.6c-0.4-0.4-1-0.7-1.7-0.7c-0.7,0-1.2,0.2-1.7,0.7c-0.4,0.4-0.7,1-0.7,1.6v20.8h-6.9v-20.8
		c0-1.3,0.2-2.5,0.7-3.6c0.5-1.1,1.2-2.1,2-2.9c0.8-0.8,1.8-1.5,2.9-2c1.1-0.5,2.3-0.7,3.6-0.7c1.1,0,2.1,0.2,3.1,0.5
		c1,0.4,1.9,0.8,2.6,1.5c0.8-0.6,1.7-1.1,2.7-1.5C280.8,217.3,281.9,217.1,283,217.1z"/>
	<path d="M301.5,224.7c-0.4,0.4-0.7,1-0.7,1.6v2.3H317v6.9h-16.2v2.3c0,0.6,0.2,1.2,0.7,1.6c0.4,0.5,1,0.7,1.7,0.7H317v6.9h-13.9
		c-1.3,0-2.5-0.2-3.6-0.7c-1.1-0.5-2.1-1.1-2.9-2c-0.8-0.8-1.5-1.8-2-2.9c-0.5-1.1-0.7-2.3-0.7-3.6v-11.6c0-1.3,0.2-2.5,0.7-3.6
		c0.5-1.1,1.1-2.1,2-2.9c0.8-0.8,1.8-1.5,2.9-2c1.1-0.5,2.3-0.7,3.6-0.7H317v6.9h-13.9C302.5,224.1,301.9,224.3,301.5,224.7z"/>
	<path d="M318.7,226.3c0-1.3,0.2-2.5,0.7-3.6s1.1-2.1,2-2.9c0.8-0.8,1.8-1.5,2.9-2c1.1-0.5,2.3-0.7,3.6-0.7h4.6
		c1.3,0,2.5,0.2,3.6,0.7c1.1,0.5,2.1,1.1,2.9,2c0.8,0.8,1.5,1.8,2,2.9c0.5,1.1,0.7,2.3,0.7,3.6v20.8h-6.9v-20.8
		c0-0.6-0.2-1.2-0.7-1.6c-0.4-0.5-1-0.7-1.7-0.7h-4.6c-0.7,0-1.2,0.2-1.7,0.7c-0.4,0.5-0.7,1-0.7,1.6v20.8h-6.9V226.3z"/>
	<path d="M364.3,224.1h-6.9v23.1h-6.9v-23.1h-6.9v-6.9h20.8V224.1z"/>
	<path d="M392.1,229.4c1.1,0.5,2.1,1.2,2.9,2c0.8,0.8,1.5,1.8,2,2.9c0.5,1.1,0.7,2.3,0.7,3.6c0,1.3-0.2,2.5-0.7,3.6
		c-0.5,1.1-1.1,2.1-2,2.9c-0.8,0.8-1.8,1.5-2.9,2c-1.1,0.5-2.3,0.7-3.6,0.7h-13.9v-6.9h13.9c0.7,0,1.2-0.3,1.6-0.7
		c0.4-0.4,0.7-1,0.7-1.6c0-0.7-0.2-1.2-0.7-1.7c-0.4-0.4-1-0.7-1.6-0.7h-4.6c-1.3,0-2.5-0.2-3.6-0.7c-1.1-0.5-2.1-1.2-2.9-2
		s-1.5-1.8-2-2.9c-0.5-1.1-0.7-2.3-0.7-3.6c0-1.3,0.2-2.5,0.7-3.6c0.5-1.1,1.1-2.1,2-2.9c0.8-0.8,1.8-1.5,2.9-2
		c1.1-0.5,2.3-0.7,3.6-0.7h9.2v6.9h-9.2c-0.7,0-1.2,0.2-1.7,0.7c-0.4,0.4-0.7,1-0.7,1.6c0,0.7,0.2,1.2,0.7,1.6
		c0.4,0.4,1,0.7,1.7,0.7h4.6C389.7,228.7,390.9,228.9,392.1,229.4z"/>
	<path d="M415.5,217.1l-6.9,16.2v13.9h-6.9v-13.9l-6.9-16.2h7.1l3.3,9.2l3.3-9.2H415.5z"/>
	<path d="M431.2,229.4c1.1,0.5,2.1,1.2,2.9,2c0.8,0.8,1.5,1.8,2,2.9c0.5,1.1,0.7,2.3,0.7,3.6c0,1.3-0.2,2.5-0.7,3.6
		c-0.5,1.1-1.1,2.1-2,2.9c-0.8,0.8-1.8,1.5-2.9,2c-1.1,0.5-2.3,0.7-3.6,0.7h-13.9v-6.9h13.9c0.7,0,1.2-0.3,1.7-0.7
		c0.4-0.4,0.7-1,0.7-1.6c0-0.7-0.2-1.2-0.7-1.7c-0.4-0.4-1-0.7-1.7-0.7H423c-1.3,0-2.5-0.2-3.6-0.7c-1.1-0.5-2.1-1.2-2.9-2
		s-1.5-1.8-2-2.9s-0.7-2.3-0.7-3.6c0-1.3,0.2-2.5,0.7-3.6s1.1-2.1,2-2.9c0.8-0.8,1.8-1.5,2.9-2c1.1-0.5,2.3-0.7,3.6-0.7h9.2v6.9H423
		c-0.7,0-1.2,0.2-1.7,0.7c-0.4,0.4-0.7,1-0.7,1.6c0,0.7,0.2,1.2,0.7,1.6c0.4,0.4,1,0.7,1.7,0.7h4.6
		C428.9,228.7,430.1,228.9,431.2,229.4z"/>
	<path d="M455.5,224.1h-6.9v23.1h-6.9v-23.1h-6.9v-6.9h20.8V224.1z"/>
	<path d="M464.8,224.7c-0.4,0.4-0.7,1-0.7,1.6v2.3h16.2v6.9h-16.2v2.3c0,0.6,0.2,1.2,0.7,1.6c0.4,0.5,1,0.7,1.7,0.7h13.9v6.9h-13.9
		c-1.3,0-2.5-0.2-3.6-0.7c-1.1-0.5-2.1-1.1-2.9-2c-0.8-0.8-1.5-1.8-2-2.9c-0.5-1.1-0.7-2.3-0.7-3.6v-11.6c0-1.3,0.2-2.5,0.7-3.6
		s1.1-2.1,2-2.9c0.8-0.8,1.8-1.5,2.9-2c1.1-0.5,2.3-0.7,3.6-0.7h13.9v6.9h-13.9C465.8,224.1,465.2,224.3,464.8,224.7z"/>
	<path d="M502.8,217.1c1.3,0,2.5,0.2,3.6,0.7c1.1,0.5,2.1,1.1,2.9,2c0.8,0.8,1.5,1.8,2,2.9s0.7,2.3,0.7,3.6v20.8h-6.9v-20.8
		c0-0.6-0.2-1.2-0.7-1.6c-0.4-0.4-1-0.7-1.6-0.7c-0.7,0-1.2,0.2-1.7,0.7c-0.4,0.4-0.7,1-0.7,1.6v20.8h-6.9v-20.8
		c0-0.6-0.2-1.2-0.7-1.6c-0.4-0.4-1-0.7-1.6-0.7c-0.7,0-1.2,0.2-1.7,0.7c-0.4,0.4-0.7,1-0.7,1.6v20.8H482v-20.8
		c0-1.3,0.2-2.5,0.7-3.6s1.2-2.1,2-2.9c0.8-0.8,1.8-1.5,2.9-2c1.1-0.5,2.3-0.7,3.6-0.7c1.1,0,2.1,0.2,3.1,0.5c1,0.4,1.9,0.8,2.6,1.5
		c0.8-0.6,1.7-1.1,2.7-1.5S501.7,217.1,502.8,217.1z"/>
</g>
</svg>
