<?xml version="1.0" encoding="utf-8"?>
<!-- Generator: Adobe Illustrator 22.0.0, SVG Export Plug-In . SVG Version: 6.00 Build 0)  -->
<svg version="1.1" id="Layer_1" xmlns="http://www.w3.org/2000/svg" xmlns:xlink="http://www.w3.org/1999/xlink" x="0px" y="0px"
	 viewBox="0 0 512 256" style="enable-background:new 0 0 512 256;" xml:space="preserve">
<g>
	<path d="M139.9,142.3c0,10.6-2.1,20-6.3,28.1c-4.2,8.1-10.5,15.1-18.8,20.7c-7.2,4.9-15.3,8.6-24.4,11s-19.3,3.6-30.5,3.6
		c-7.2,0-14.7-0.5-22.7-1.4c-7.9-0.9-16.2-2.5-24.9-4.6L4,1.8c3.7-0.4,7.4-0.7,11.1-0.9c3.6-0.2,7.1-0.3,10.5-0.3
		c9.6,0,18.6,0.9,26.8,2.6c8.2,1.7,15.8,4.4,22.6,8c8.7,4.5,15.2,10.1,19.5,16.7c4.3,6.6,6.5,14.3,6.5,23c0,3.8-0.5,7.7-1.4,11.6
		c-0.9,3.9-2.4,7.9-4.3,11.9c13.3,5.7,24.1,14.8,32.3,27.5C135.8,114.3,139.9,127.9,139.9,142.3z M98.9,123.5c0-7-1.3-13.4-3.9-19.1
		c-2.6-5.8-6.5-11-11.8-15.6c-6.2,5.5-13.1,10.1-20.6,13.8c-7.5,3.7-15.6,6.3-24.4,8.1l-6.9,74.2c9-0.3,17.3-1.9,25-4.9
		c7.7-3,14.9-7.2,21.5-12.6c7.1-5.8,12.4-12.4,15.8-19.7C97.2,140.2,98.9,132.2,98.9,123.5z M68.3,79.2l-5.1-59.9
		c-1.1-1.1-2.9-2.2-5.4-3.2c-2.5-1.1-5.8-2.1-9.7-3.1l-8.6,83.8c6.5-2.1,12.2-4.6,17.1-7.6C61.3,86.3,65.3,83,68.3,79.2z M82,115.3
		c-7.1,8.4-13.5,17.2-19.2,26.3c-5.7,9.1-10.7,18.6-15.1,28.4l-6.9,0.2c3.6-10.3,8-20.5,13.2-30.6c5.2-10.1,11.2-20.1,17.9-30
		L82,115.3z M90.4,186.1c0-2.7-0.7-4.8-2.1-6.2c-1.4-1.4-3.5-2.1-6.3-2.1c-2.7,0-4.8,0.7-6.2,2.1c-1.4,1.4-2.1,3.5-2.1,6.2
		c0,2.8,0.7,4.9,2.1,6.3c1.4,1.4,3.5,2.1,6.2,2.1c2.8,0,4.9-0.7,6.3-2.1C89.7,191,90.4,188.9,90.4,186.1z M116.6,168.3
		c0-2.9-1-5.4-3.1-7.5c-2.1-2.1-4.6-3.2-7.6-3.2s-5.6,1.1-7.6,3.2c-2.1,2.1-3.1,4.6-3.1,7.5c0,3,1,5.6,3.1,7.6
		c2.1,2.1,4.6,3.1,7.6,3.1s5.6-1,7.6-3.1C115.5,173.8,116.6,171.3,116.6,168.3z M125.2,140.9c0-2.7-0.7-4.8-2-6.2
		c-1.4-1.4-3.4-2.1-6.2-2.1s-4.9,0.7-6.3,2.1c-1.4,1.4-2.1,3.5-2.1,6.2c0,2.8,0.7,4.9,2.1,6.2c1.4,1.4,3.5,2,6.3,2s4.9-0.7,6.2-2
		C124.5,145.8,125.2,143.7,125.2,140.9z"/>
	<path d="M361,203l-58,6.5L307.7,79l-61,102.4l-52.2-63.1c-2.8,12.8-5.8,24.3-9.1,34.4c-3.3,10.1-6.7,18.8-10.4,26.2
		c-4.8,9.8-10.7,18.6-17.5,26.4c-6.8,7.8-14.7,14.7-23.5,20.6l-4.7-9.9c11-8.2,20.3-19.6,27.9-34.4c7.6-14.8,13.6-32.9,17.9-54.3
		L200.5,2.8l60.8,113.7l54.2-110l26.1,0.9L361,203z M248.2,138.2l-42-72.6l-6,31l41.1,53.8L248.2,138.2z M336.3,114.4v-4.6l-6.3,2.3
		c-0.6,11.1-2.1,21.8-4.4,32.4c-2.3,10.5-5.4,20.8-9.3,30.8l11.7,1.9c2.9-11.7,5-22.9,6.3-33.3C335.6,133.5,336.3,123.6,336.3,114.4
		z"/>
	<path d="M508,42.3c0,12.2-3.7,22.1-11.1,29.5c-7.4,7.4-17.2,11.1-29.3,11.1c-5.1,0-9.7-0.6-14.1-1.8c-4.3-1.2-8.3-3.1-11.8-5.7
		c-4-2.8-6.9-6.2-8.9-10.1c-2-3.9-3-8.3-3-13.1c0-4,0.7-7.6,2.2-10.8c1.5-3.1,3.7-5.8,6.8-8c2.7-1.9,5.8-3.4,9.2-4.4
		c3.4-1,7.2-1.5,11.4-1.5c2.6,0,5,0.3,7.4,0.9c2.3,0.6,4.4,1.6,6.2,2.9c2.1,1.6,3.7,3.3,4.7,5.3c1.1,2,1.6,4.3,1.6,6.8
		c0,3.7-1.4,6.8-4.3,9.3c-2.8,2.5-6.2,3.7-10.1,3.7c-2.5,0-4.6-0.4-6.3-1.3c-1.7-0.9-3-2.2-4-4.1c0.6,0.2,1.3,0.3,2,0.3
		c0.7,0.1,1.3,0.1,1.9,0.1c2.7,0,4.7-0.5,6.1-1.5c1.3-1,2-2.5,2-4.6c0-2-0.7-3.6-2.1-4.6c-1.4-1.1-3.5-1.6-6.3-1.6
		c-1.9,0-3.7,0.3-5.4,0.8c-1.7,0.5-3.2,1.3-4.4,2.3c-1.5,1.2-2.6,2.5-3.4,4c-0.8,1.5-1.2,3.2-1.2,5c0,5.8,1.9,10,5.6,12.8
		c3.7,2.8,9.3,4.2,16.8,4.2c7.3,0,13.2-2.5,17.7-7.5c4.5-5,6.8-11.2,6.8-18.6c0-4.4-1-8.4-3.1-11.9c-2.1-3.5-5.1-6.5-9.2-9.1
		c-3.3-2.2-7.1-3.8-11.1-4.8c-4.1-1-8.5-1.5-13.2-1.5c-5.8,0-11,0.7-15.8,2.1c-4.7,1.4-8.9,3.5-12.6,6.4c-4,3.1-7,6.8-9,11.2
		c-2,4.4-3,9.3-3,14.9c0,5.7,1.9,11.2,5.6,16.5c3.7,5.3,9.3,10.5,16.8,15.6c7,4.7,14,9.5,20.9,14.1c6.9,4.7,13.8,9.3,20.8,14
		c7.5,6.6,13.1,13.9,16.8,21.8c3.7,7.9,5.6,16.4,5.6,25.6c0,8.6-1.5,16.4-4.6,23.2c-3.1,6.8-7.7,12.7-13.9,17.6
		c-5.8,4.5-12.2,8-19.4,10.4c-7.2,2.4-15.2,3.6-24,3.6c-6.9,0-13.3-0.6-19.1-1.9c-5.8-1.2-11.2-3.2-16.1-5.7
		c-6-3.2-10.5-7.1-13.6-11.9c-3-4.7-4.6-10.2-4.6-16.5c0-9.6,2.6-17.3,7.8-23.1c5.2-5.9,12.5-8.8,21.9-8.8c3.8,0,7.3,0.5,10.4,1.6
		s6,2.6,8.5,4.7c2.8,2.2,4.9,4.7,6.2,7.7c1.4,3,2,6.2,2,9.8c0,6.7-1.6,11.7-4.8,15c-3.2,3.3-8.1,5-14.6,5c-3.5,0-6.6-1-9.2-3
		c-2.6-2-3.9-4.6-3.9-7.9c0-3,0.7-5.2,2-6.7c1.4-1.5,3.4-2.2,6.1-2.2c0.3,0,0.7,0,1.1,0.1c0.4,0,0.8,0.1,1.2,0.1
		c-0.9,0.7-1.6,1.4-2.1,2.2c-0.5,0.8-0.7,1.6-0.7,2.3c0,1.6,0.5,2.7,1.4,3.4c0.9,0.7,2.3,1.1,4.1,1.1c2,0,3.5-0.6,4.5-1.9
		c1-1.3,1.5-3.2,1.5-5.9c0-1.8-0.4-3.4-1.2-4.8c-0.8-1.4-2.1-2.7-3.8-3.9c-1.4-0.9-3-1.6-4.7-2.1s-3.6-0.7-5.5-0.7
		c-5.4,0-9.4,1.5-12.1,4.6c-2.7,3.1-4.1,7.6-4.1,13.6c0,3.5,0.8,6.6,2.5,9.3c1.6,2.7,4,5.1,7.2,7c2.6,1.6,5.6,2.8,8.9,3.6
		c3.3,0.8,6.8,1.2,10.5,1.2c4.7,0,9.1-0.8,13.1-2.5c4-1.6,7.5-4.1,10.6-7.5c3-3.3,5.3-6.9,6.8-10.9c1.5-4,2.3-8.4,2.3-13.3
		c0-5.1-1.6-10.6-4.7-16.4c-3.2-5.8-8-11.9-14.4-18.3c-5.8-5.7-11.6-11.3-17.6-16.8c-6-5.5-11.9-11.1-17.8-16.7
		c-6.3-6.8-11-13.4-14.2-20c-3.2-6.6-4.8-13-4.8-19.3c0-9.3,1.6-17.6,4.9-24.7c3.3-7.2,8.1-13.1,14.6-18c5.8-4.4,12.6-7.6,20.4-9.7
		c7.7-2.1,16.5-3.2,26.2-3.2c7.2,0,13.9,0.8,20.2,2.5c6.3,1.7,12.2,4.2,17.5,7.6c6.4,4,11.1,8.7,14.3,14.1
		C506.4,29.6,508,35.6,508,42.3z"/>
</g>
<g>
	<path d="M22.7,243.9c0,1.5-0.3,2.7-0.9,3.9c-0.6,1.1-1.4,2.1-2.6,2.9c-1,0.7-2.1,1.2-3.4,1.5c-1.3,0.3-2.7,0.5-4.2,0.5
		c-1,0-2-0.1-3.1-0.2c-1.1-0.1-2.2-0.3-3.4-0.6L4,224.6c0.5-0.1,1-0.1,1.5-0.1c0.5,0,1,0,1.4,0c1.3,0,2.6,0.1,3.7,0.4
		c1.1,0.2,2.2,0.6,3.1,1.1c1.2,0.6,2.1,1.4,2.7,2.3c0.6,0.9,0.9,2,0.9,3.2c0,0.5-0.1,1.1-0.2,1.6c-0.1,0.5-0.3,1.1-0.6,1.6
		c1.8,0.8,3.3,2,4.4,3.8C22.1,240,22.7,241.9,22.7,243.9z M17.1,241.3c0-1-0.2-1.8-0.5-2.6c-0.4-0.8-0.9-1.5-1.6-2.2
		c-0.9,0.8-1.8,1.4-2.8,1.9c-1,0.5-2.2,0.9-3.4,1.1l-0.9,10.2c1.2,0,2.4-0.3,3.4-0.7c1.1-0.4,2-1,3-1.7c1-0.8,1.7-1.7,2.2-2.7
		C16.8,243.6,17.1,242.5,17.1,241.3z M12.9,235.2l-0.7-8.2c-0.2-0.2-0.4-0.3-0.7-0.4c-0.3-0.1-0.8-0.3-1.3-0.4l-1.2,11.5
		c0.9-0.3,1.7-0.6,2.4-1C11.9,236.2,12.4,235.7,12.9,235.2z M14.7,240.2c-1,1.2-1.9,2.4-2.6,3.6s-1.5,2.6-2.1,3.9l-0.9,0
		c0.5-1.4,1.1-2.8,1.8-4.2c0.7-1.4,1.5-2.8,2.5-4.1L14.7,240.2z M15.9,249.9c0-0.4-0.1-0.7-0.3-0.9c-0.2-0.2-0.5-0.3-0.9-0.3
		c-0.4,0-0.7,0.1-0.9,0.3c-0.2,0.2-0.3,0.5-0.3,0.9c0,0.4,0.1,0.7,0.3,0.9c0.2,0.2,0.5,0.3,0.9,0.3c0.4,0,0.7-0.1,0.9-0.3
		C15.8,250.6,15.9,250.3,15.9,249.9z M19.5,247.5c0-0.4-0.1-0.7-0.4-1c-0.3-0.3-0.6-0.4-1.1-0.4c-0.4,0-0.8,0.1-1.1,0.4
		c-0.3,0.3-0.4,0.6-0.4,1c0,0.4,0.1,0.8,0.4,1.1c0.3,0.3,0.6,0.4,1.1,0.4c0.4,0,0.8-0.1,1.1-0.4C19.4,248.2,19.5,247.9,19.5,247.5z
		 M20.7,243.7c0-0.4-0.1-0.7-0.3-0.9c-0.2-0.2-0.5-0.3-0.9-0.3c-0.4,0-0.7,0.1-0.9,0.3c-0.2,0.2-0.3,0.5-0.3,0.9
		c0,0.4,0.1,0.7,0.3,0.9c0.2,0.2,0.5,0.3,0.9,0.3c0.4,0,0.7-0.1,0.9-0.3C20.6,244.4,20.7,244.1,20.7,243.7z"/>
	<path d="M47.8,238.6c0,1.7-0.2,3.3-0.7,4.8c-0.5,1.5-1.2,2.9-2.2,4.2c-1.1,1.4-2.3,2.5-3.6,3.2c-1.3,0.7-2.8,1.1-4.5,1.1
		c-1.6,0-3.1-0.4-4.5-1.1c-1.3-0.7-2.6-1.8-3.6-3.2c-1-1.3-1.7-2.7-2.2-4.2c-0.5-1.5-0.7-3.1-0.7-4.8s0.2-3.3,0.7-4.7
		c0.5-1.5,1.2-2.8,2.1-4.1c1-1.4,2.2-2.4,3.6-3.1c1.3-0.7,2.8-1,4.5-1c1.6,0,3.1,0.3,4.5,1c1.4,0.7,2.6,1.7,3.7,3
		c1,1.3,1.7,2.6,2.2,4.1C47.5,235.4,47.8,236.9,47.8,238.6z M44.3,240.1c0-0.1,0-0.3,0-0.4c0-0.1,0-0.3,0-0.5l-2.5,0.2l-0.3-1.3
		l2.6-0.4c-0.1-0.7-0.3-1.4-0.6-2c-0.3-0.6-0.6-1.2-0.9-1.7l-2.1,2.6l-0.9-0.8l1.9-3.1c-0.6-0.5-1.3-0.9-2.1-1.2
		c-0.7-0.3-1.6-0.4-2.5-0.4l1,3.9l-1.1,0.4l-1.4-3.9c-0.8,0.3-1.5,0.7-2.2,1.3c-0.7,0.6-1.3,1.3-1.8,2.1l2.6,2.9l-0.9,1.1l-2.5-2.6
		c-0.3,0.8-0.6,1.6-0.8,2.3c-0.2,0.8-0.2,1.5-0.2,2.2l0,0.6l2.8,0.2v1.4l-2.7-0.2c0.1,0.5,0.2,1.1,0.4,1.6s0.4,1.1,0.7,1.6l2.2-2
		l0.9,0.8l-2.2,2.4c0.5,0.6,1,1.1,1.5,1.5c0.6,0.4,1.2,0.7,1.8,0.9l0.4-3.2l1.1,0.2l-0.1,3.2h0.2c0.7,0,1.3-0.1,2-0.3
		c0.6-0.2,1.3-0.5,1.9-1l-1.8-3.6l1.1-0.6l1.9,3.2c0.4-0.4,0.7-0.9,1-1.3c0.3-0.5,0.6-0.9,0.8-1.4l-2.7-2.3l0.7-0.7l2.5,1.5
		c0.2-0.4,0.3-0.9,0.4-1.4C44.3,241.3,44.3,240.7,44.3,240.1z"/>
	<path d="M75.1,235.5c0,0.3,0,0.7,0,1c0,0.3,0,0.7,0,1L74.2,254l-17.6-17.9l-0.7,15.3l-6.5,0l1.9-5.2l3.1-0.2l1.3-22.5l15.5,19.1
		c0.1-1,0.2-2,0.3-3.1c0.1-1,0.2-2,0.3-3.1c0.1-1.2,0.2-2.3,0.3-3.4c0.1-1,0.1-2,0.1-2.8c0-1.7-0.2-3.3-0.6-4.7
		c-0.4-1.4-1-2.6-1.8-3.6l1.1-0.7c1.4,1.6,2.5,3.5,3.2,5.8C74.7,229.7,75.1,232.4,75.1,235.5z M61.5,235.1c0-0.4-0.1-0.7-0.3-0.9
		c-0.2-0.2-0.5-0.3-0.9-0.3c-0.4,0-0.7,0.1-0.9,0.3s-0.3,0.5-0.3,0.9c0,0.4,0.1,0.7,0.3,0.9c0.2,0.2,0.5,0.3,0.9,0.3
		c0.4,0,0.7-0.1,0.9-0.3C61.4,235.8,61.5,235.5,61.5,235.1z M66,240c0-0.4-0.1-0.8-0.4-1.1c-0.3-0.3-0.6-0.4-1-0.4
		c-0.4,0-0.8,0.1-1.1,0.4c-0.3,0.3-0.4,0.7-0.4,1.1c0,0.4,0.1,0.8,0.4,1c0.3,0.3,0.7,0.4,1.1,0.4c0.4,0,0.7-0.1,1-0.4
		C65.9,240.8,66,240.4,66,240z M70,244.9c0-0.4-0.1-0.7-0.3-0.9c-0.2-0.2-0.5-0.3-0.9-0.3c-0.4,0-0.7,0.1-0.9,0.3
		c-0.2,0.2-0.3,0.5-0.3,0.9c0,0.4,0.1,0.7,0.3,0.9c0.2,0.2,0.5,0.3,0.9,0.3c0.4,0,0.7-0.1,0.9-0.3C69.9,245.6,70,245.3,70,244.9z"/>
	<path d="M101.4,239c-0.1,1.8-0.3,3.4-0.7,4.9c-0.4,1.5-0.9,2.8-1.6,4c-0.9,1.4-1.9,2.5-3.2,3.3c-1.2,0.7-2.7,1.1-4.3,1.1
		c-1.8,0-3.4-0.4-4.9-1.1c-1.5-0.8-2.8-1.9-4-3.4c-1.1-1.4-1.9-2.9-2.5-4.5c-0.6-1.6-0.8-3.3-0.8-5.1c0-1.7,0.2-3.4,0.7-4.9
		c0.5-1.5,1.2-2.9,2.2-4.1c1.1-1.3,2.3-2.3,3.7-2.9c1.4-0.7,2.9-1,4.7-1c0.8,0,1.6,0.1,2.4,0.3c0.8,0.2,1.5,0.6,2.2,1
		c0.7,0.4,1.3,1,1.9,1.6c0.5,0.6,1,1.3,1.4,2l-1.1,0.3c-0.4-0.4-0.8-0.7-1.3-0.8c-0.5-0.2-1.1-0.3-1.8-0.3c-1.4,0-2.7,0.4-4,1.2
		c-1.2,0.8-2.3,2-3.3,3.5c-0.9,1.4-1.5,2.8-2,4.2c-0.4,1.5-0.7,2.9-0.7,4.5c0,1.1,0.1,2.1,0.4,3c0.3,0.9,0.7,1.8,1.2,2.5
		c0.6,0.8,1.4,1.4,2.2,1.8c0.8,0.4,1.8,0.6,2.9,0.6c0.8,0,1.6-0.2,2.3-0.7c0.7-0.4,1.3-1.1,1.8-2c0.4-0.7,0.7-1.5,1-2.3
		c0.2-0.8,0.4-1.7,0.4-2.7l-7.4,0.7l-0.4-2.4l6.9-0.7l-5.9-1.4l0.2-2.6L101.4,239z M83.9,235.7c0-0.4-0.1-0.7-0.3-0.9
		c-0.2-0.2-0.5-0.3-0.9-0.3c-0.4,0-0.7,0.1-0.9,0.3c-0.2,0.2-0.3,0.5-0.3,0.9c0,0.3,0.1,0.6,0.3,0.8c0.2,0.2,0.5,0.4,0.8,0.4
		c0.3,0,0.6-0.1,0.8-0.4C83.8,236.3,83.9,236,83.9,235.7z M85.7,231.9c0-0.4-0.1-0.7-0.4-1c-0.3-0.3-0.6-0.4-1-0.4
		c-0.4,0-0.8,0.1-1,0.4c-0.3,0.3-0.4,0.6-0.4,1c0,0.4,0.1,0.8,0.4,1.1c0.3,0.3,0.6,0.4,1,0.4c0.4,0,0.8-0.1,1-0.4
		C85.6,232.6,85.7,232.3,85.7,231.9z M88.7,229.5c0-0.4-0.1-0.7-0.3-0.9c-0.2-0.2-0.5-0.3-0.9-0.3c-0.4,0-0.7,0.1-0.9,0.3
		c-0.2,0.2-0.3,0.5-0.3,0.9c0,0.3,0.1,0.6,0.3,0.8s0.5,0.4,0.8,0.4c0.4,0,0.7-0.1,0.9-0.3C88.6,230.1,88.7,229.9,88.7,229.5z"/>
	<path d="M139.8,252.2l-8,0.9l0.6-18l-8.4,14.1l-7.2-8.7c-0.4,1.8-0.8,3.3-1.3,4.7c-0.4,1.4-0.9,2.6-1.4,3.6
		c-0.7,1.3-1.5,2.6-2.4,3.6c-0.9,1.1-2,2-3.2,2.8l-0.7-1.4c1.5-1.1,2.8-2.7,3.8-4.7c1-2,1.9-4.5,2.5-7.5l3.5-17.1l8.4,15.6l7.5-15.1
		l3.6,0.1L139.8,252.2z M124.3,243.3l-5.8-10l-0.8,4.3l5.7,7.4L124.3,243.3z M136.4,240.1v-0.6l-0.9,0.3c-0.1,1.5-0.3,3-0.6,4.5
		c-0.3,1.5-0.7,2.9-1.3,4.2l1.6,0.3c0.4-1.6,0.7-3.1,0.9-4.6C136.3,242.7,136.4,241.3,136.4,240.1z"/>
	<path d="M167.1,251.5l-2.8,0.7l-1.9-5.9l-11.5-0.2l-2.9,7.8l-6.2-4.3l12.1-24.8l4.5-0.4L167.1,251.5z M149.5,241.8l-0.6-0.7
		c-0.8,1.3-1.5,2.6-2.1,4.1c-0.6,1.4-1.1,2.9-1.5,4.5l1.5,0.6c0.2-1.5,0.5-2.9,1-4.3C148.2,244.5,148.8,243.1,149.5,241.8z
		 M161.4,243.5l-0.9-2.8l-8.6,2.1l-0.5,1.3L161.4,243.5z M159.8,238.7l-3-10.8l-4.1,12.4L159.8,238.7z"/>
	<path d="M193.6,235.5c0,0.3,0,0.7,0,1c0,0.3,0,0.7,0,1l-0.8,16.5l-17.6-17.9l-0.7,15.3l-6.5,0l1.9-5.2l3.1-0.2l1.3-22.5l15.5,19.1
		c0.1-1,0.2-2,0.3-3.1c0.1-1,0.2-2,0.3-3.1c0.1-1.2,0.2-2.3,0.3-3.4c0.1-1,0.1-2,0.1-2.8c0-1.7-0.2-3.3-0.6-4.7
		c-0.4-1.4-1-2.6-1.8-3.6l1.1-0.7c1.4,1.6,2.5,3.5,3.2,5.8C193.2,229.7,193.6,232.4,193.6,235.5z M180,235.1c0-0.4-0.1-0.7-0.3-0.9
		c-0.2-0.2-0.5-0.3-0.9-0.3c-0.4,0-0.7,0.1-0.9,0.3c-0.2,0.2-0.3,0.5-0.3,0.9c0,0.4,0.1,0.7,0.3,0.9c0.2,0.2,0.5,0.3,0.9,0.3
		c0.4,0,0.7-0.1,0.9-0.3C179.9,235.8,180,235.5,180,235.1z M184.5,240c0-0.4-0.1-0.8-0.4-1.1c-0.3-0.3-0.6-0.4-1-0.4
		c-0.4,0-0.8,0.1-1.1,0.4c-0.3,0.3-0.4,0.7-0.4,1.1c0,0.4,0.1,0.8,0.4,1c0.3,0.3,0.7,0.4,1.1,0.4c0.4,0,0.7-0.1,1-0.4
		C184.3,240.8,184.5,240.4,184.5,240z M188.5,244.9c0-0.4-0.1-0.7-0.3-0.9c-0.2-0.2-0.5-0.3-0.9-0.3c-0.4,0-0.7,0.1-0.9,0.3
		c-0.2,0.2-0.3,0.5-0.3,0.9c0,0.4,0.1,0.7,0.3,0.9c0.2,0.2,0.5,0.3,0.9,0.3c0.4,0,0.7-0.1,0.9-0.3
		C188.4,245.6,188.5,245.3,188.5,244.9z"/>
	<path d="M221.7,251.5l-2.8,0.7l-1.9-5.9l-11.5-0.2l-2.9,7.8l-6.2-4.3l12.1-24.8l4.5-0.4L221.7,251.5z M204.1,241.8l-0.6-0.7
		c-0.8,1.3-1.5,2.6-2.1,4.1c-0.6,1.4-1.1,2.9-1.5,4.5l1.5,0.6c0.2-1.5,0.5-2.9,1-4.3C202.8,244.5,203.4,243.1,204.1,241.8z
		 M216,243.5l-0.9-2.8l-8.6,2.1l-0.5,1.3L216,243.5z M214.4,238.7l-3-10.8l-4.1,12.4L214.4,238.7z"/>
	<path d="M246,239c-0.1,1.8-0.3,3.4-0.7,4.9c-0.4,1.5-0.9,2.8-1.6,4c-0.9,1.4-1.9,2.5-3.2,3.3c-1.2,0.7-2.7,1.1-4.3,1.1
		c-1.8,0-3.4-0.4-4.9-1.1c-1.5-0.8-2.8-1.9-4-3.4c-1.1-1.4-1.9-2.9-2.5-4.5s-0.8-3.3-0.8-5.1c0-1.7,0.2-3.4,0.7-4.9
		c0.5-1.5,1.2-2.9,2.2-4.1c1.1-1.3,2.3-2.3,3.7-2.9c1.4-0.7,2.9-1,4.7-1c0.8,0,1.6,0.1,2.4,0.3c0.8,0.2,1.5,0.6,2.2,1
		c0.7,0.4,1.3,1,1.9,1.6c0.5,0.6,1,1.3,1.4,2l-1.1,0.3c-0.4-0.4-0.8-0.7-1.3-0.8c-0.5-0.2-1.1-0.3-1.8-0.3c-1.4,0-2.7,0.4-4,1.2
		c-1.2,0.8-2.3,2-3.3,3.5c-0.9,1.4-1.5,2.8-2,4.2c-0.4,1.5-0.7,2.9-0.7,4.5c0,1.1,0.1,2.1,0.4,3c0.3,0.9,0.7,1.8,1.2,2.5
		c0.6,0.8,1.4,1.4,2.2,1.8c0.8,0.4,1.8,0.6,2.9,0.6c0.8,0,1.6-0.2,2.3-0.7c0.7-0.4,1.3-1.1,1.8-2c0.4-0.7,0.7-1.5,1-2.3
		c0.2-0.8,0.4-1.7,0.4-2.7l-7.4,0.7l-0.4-2.4l6.9-0.7l-5.9-1.4l0.2-2.6L246,239z M228.5,235.7c0-0.4-0.1-0.7-0.3-0.9
		c-0.2-0.2-0.5-0.3-0.9-0.3c-0.4,0-0.7,0.1-0.9,0.3c-0.2,0.2-0.3,0.5-0.3,0.9c0,0.3,0.1,0.6,0.3,0.8c0.2,0.2,0.5,0.4,0.8,0.4
		c0.3,0,0.6-0.1,0.8-0.4C228.4,236.3,228.5,236,228.5,235.7z M230.4,231.9c0-0.4-0.1-0.7-0.4-1c-0.3-0.3-0.6-0.4-1-0.4
		c-0.4,0-0.8,0.1-1,0.4c-0.3,0.3-0.4,0.6-0.4,1c0,0.4,0.1,0.8,0.4,1.1c0.3,0.3,0.6,0.4,1,0.4c0.4,0,0.8-0.1,1-0.4
		C230.2,232.6,230.4,232.3,230.4,231.9z M233.3,229.5c0-0.4-0.1-0.7-0.3-0.9c-0.2-0.2-0.5-0.3-0.9-0.3c-0.4,0-0.7,0.1-0.9,0.3
		c-0.2,0.2-0.3,0.5-0.3,0.9c0,0.3,0.1,0.6,0.3,0.8c0.2,0.2,0.5,0.4,0.8,0.4c0.4,0,0.7-0.1,0.9-0.3
		C233.2,230.1,233.3,229.9,233.3,229.5z"/>
	<path d="M266.8,231.7l-2.6,0.7c-0.1-1.1-0.3-2.1-0.7-2.8c-0.4-0.7-1-1.3-1.7-1.7c-0.4-0.2-1-0.4-1.9-0.5c-0.9-0.2-2-0.3-3.4-0.4
		l-1.2,10.6l8.2-0.4l-2.1,4.6l-6.6-1.4l-1.4,10.7l6,0.1l2.1-3.1l3.4-0.2l0.1,5.1l-15.5-0.9l0.9-16.8l2.2,0.1l0.4-1.4l-2.5,0l0.1-1.9
		l2.3,0.2l0.2-1.7h-2.5l0.1-1.9l2.3,0.2l0.3-1.5l-2.6-0.1l0.2-2.9c1.1,0.1,2.1,0.2,3.2,0.2c1.1,0.1,2.1,0.2,3.2,0.2
		c1.3,0.2,2.4,0.4,3.4,0.7c1,0.3,1.8,0.6,2.6,1.1c0.9,0.6,1.7,1.3,2.3,2.1C266.2,229.6,266.6,230.6,266.8,231.7z M261.2,230.6
		l-0.5,4.3L257,234l1.3-2.6L261.2,230.6z"/>
	<path d="M296.2,252.2l-8,0.9l0.6-18l-8.4,14.1l-7.2-8.7c-0.4,1.8-0.8,3.3-1.3,4.7c-0.4,1.4-0.9,2.6-1.4,3.6
		c-0.7,1.3-1.5,2.6-2.4,3.6c-0.9,1.1-2,2-3.2,2.8l-0.7-1.4c1.5-1.1,2.8-2.7,3.8-4.7c1-2,1.9-4.5,2.5-7.5l3.5-17.1l8.4,15.6l7.5-15.1
		l3.6,0.1L296.2,252.2z M280.7,243.3l-5.8-10l-0.8,4.3l5.7,7.4L280.7,243.3z M292.8,240.1v-0.6l-0.9,0.3c-0.1,1.5-0.3,3-0.6,4.5
		c-0.3,1.5-0.7,2.9-1.3,4.2l1.6,0.3c0.4-1.6,0.7-3.1,0.9-4.6C292.7,242.7,292.8,241.3,292.8,240.1z"/>
	<path d="M317.7,231.7l-2.6,0.7c-0.1-1.1-0.3-2.1-0.7-2.8c-0.4-0.7-1-1.3-1.7-1.7c-0.4-0.2-1-0.4-1.9-0.5c-0.9-0.2-2-0.3-3.4-0.4
		l-1.2,10.6l8.2-0.4l-2.1,4.6l-6.6-1.4l-1.4,10.7l6,0.1l2.1-3.1l3.4-0.2l0.1,5.1l-15.5-0.9l0.9-16.8l2.2,0.1l0.4-1.4l-2.5,0l0.1-1.9
		l2.3,0.2l0.2-1.7h-2.5l0.1-1.9l2.3,0.2l0.3-1.5l-2.6-0.1l0.2-2.9c1.1,0.1,2.1,0.2,3.2,0.2c1.1,0.1,2.1,0.2,3.2,0.2
		c1.3,0.2,2.4,0.4,3.4,0.7c1,0.3,1.8,0.6,2.6,1.1c0.9,0.6,1.7,1.3,2.3,2.1C317,229.6,317.4,230.6,317.7,231.7z M312.1,230.6
		l-0.5,4.3l-3.7-0.9l1.3-2.6L312.1,230.6z"/>
	<path d="M343.8,235.5c0,0.3,0,0.7,0,1c0,0.3,0,0.7,0,1l-0.8,16.5l-17.6-17.9l-0.7,15.3l-6.5,0l1.9-5.2l3.1-0.2l1.3-22.5l15.5,19.1
		c0.1-1,0.2-2,0.3-3.1c0.1-1,0.2-2,0.3-3.1c0.1-1.2,0.2-2.3,0.3-3.4c0.1-1,0.1-2,0.1-2.8c0-1.7-0.2-3.3-0.6-4.7
		c-0.4-1.4-1-2.6-1.8-3.6l1.1-0.7c1.4,1.6,2.5,3.5,3.2,5.8C343.4,229.7,343.8,232.4,343.8,235.5z M330.2,235.1
		c0-0.4-0.1-0.7-0.3-0.9c-0.2-0.2-0.5-0.3-0.9-0.3c-0.4,0-0.7,0.1-0.9,0.3c-0.2,0.2-0.3,0.5-0.3,0.9c0,0.4,0.1,0.7,0.3,0.9
		c0.2,0.2,0.5,0.3,0.9,0.3c0.4,0,0.7-0.1,0.9-0.3C330.1,235.8,330.2,235.5,330.2,235.1z M334.7,240c0-0.4-0.1-0.8-0.4-1.1
		c-0.3-0.3-0.6-0.4-1-0.4c-0.4,0-0.8,0.1-1.1,0.4c-0.3,0.3-0.4,0.7-0.4,1.1c0,0.4,0.1,0.8,0.4,1c0.3,0.3,0.7,0.4,1.1,0.4
		c0.4,0,0.7-0.1,1-0.4C334.5,240.8,334.7,240.4,334.7,240z M338.7,244.9c0-0.4-0.1-0.7-0.3-0.9c-0.2-0.2-0.5-0.3-0.9-0.3
		c-0.4,0-0.7,0.1-0.9,0.3c-0.2,0.2-0.3,0.5-0.3,0.9c0,0.4,0.1,0.7,0.3,0.9c0.2,0.2,0.5,0.3,0.9,0.3c0.4,0,0.7-0.1,0.9-0.3
		C338.6,245.6,338.7,245.3,338.7,244.9z"/>
	<path d="M369.1,225.7l-0.4,2.6c-0.7-0.1-1.4-0.2-2.1-0.3c-0.7-0.1-1.4-0.1-2-0.1c-0.8,0-1.7,0.1-2.6,0.2s-1.7,0.3-2.6,0.5l1.5,23.8
		l-7.3-0.9l1.8-22.6l-1.1,0c-1.2,0-2.2,0-3.1-0.2s-1.6-0.3-2.2-0.6c-0.8-0.4-1.4-1-1.8-1.7c-0.4-0.7-0.6-1.6-0.6-2.7v-0.4l1.1-0.4
		c0,1.2,0.5,2.1,1.4,2.7c0.9,0.6,2.1,0.9,3.8,0.9c1.4,0,3.5-0.2,6.3-0.6c2.8-0.4,4.9-0.6,6.3-0.6c0.7,0,1.4,0.1,2,0.2
		C368.1,225.4,368.6,225.5,369.1,225.7z M358.7,240.6c0-0.4-0.1-0.7-0.4-1c-0.3-0.3-0.6-0.4-1-0.4c-0.4,0-0.8,0.1-1,0.4
		c-0.3,0.3-0.4,0.6-0.4,1c0,0.4,0.1,0.8,0.4,1.1c0.3,0.3,0.6,0.4,1,0.4c0.4,0,0.8-0.1,1-0.4C358.6,241.3,358.7,241,358.7,240.6z
		 M358.4,245.6c0-0.4-0.1-0.7-0.3-0.9c-0.2-0.2-0.5-0.3-0.9-0.3c-0.4,0-0.7,0.1-0.9,0.3c-0.2,0.2-0.3,0.5-0.3,0.9
		c0,0.4,0.1,0.7,0.3,0.9c0.2,0.2,0.5,0.3,0.9,0.3c0.4,0,0.7-0.1,0.9-0.3C358.3,246.3,358.4,246,358.4,245.6z M358.5,235.8
		c0-0.4-0.1-0.7-0.3-0.9c-0.2-0.2-0.5-0.3-0.9-0.3c-0.4,0-0.7,0.1-0.9,0.3c-0.2,0.2-0.3,0.5-0.3,0.9c0,0.4,0.1,0.7,0.3,0.9
		c0.2,0.2,0.5,0.3,0.9,0.3c0.4,0,0.7-0.1,0.9-0.3C358.4,236.5,358.5,236.2,358.5,235.8z"/>
	<path d="M394.5,230.1c0,1.7-0.5,3-1.5,4.1c-1,1-2.4,1.5-4,1.5c-0.7,0-1.3-0.1-1.9-0.2c-0.6-0.2-1.1-0.4-1.6-0.8
		c-0.5-0.4-1-0.8-1.2-1.4c-0.3-0.5-0.4-1.1-0.4-1.8c0-0.6,0.1-1,0.3-1.5c0.2-0.4,0.5-0.8,0.9-1.1c0.4-0.3,0.8-0.5,1.3-0.6
		c0.5-0.1,1-0.2,1.6-0.2c0.4,0,0.7,0,1,0.1c0.3,0.1,0.6,0.2,0.9,0.4c0.3,0.2,0.5,0.5,0.7,0.7c0.1,0.3,0.2,0.6,0.2,0.9
		c0,0.5-0.2,0.9-0.6,1.3s-0.9,0.5-1.4,0.5c-0.3,0-0.6-0.1-0.9-0.2c-0.2-0.1-0.4-0.3-0.5-0.6c0.1,0,0.2,0,0.3,0c0.1,0,0.2,0,0.3,0
		c0.4,0,0.7-0.1,0.8-0.2c0.2-0.1,0.3-0.3,0.3-0.6c0-0.3-0.1-0.5-0.3-0.6c-0.2-0.1-0.5-0.2-0.9-0.2c-0.3,0-0.5,0-0.7,0.1
		c-0.2,0.1-0.4,0.2-0.6,0.3c-0.2,0.2-0.4,0.3-0.5,0.6s-0.2,0.4-0.2,0.7c0,0.8,0.3,1.4,0.8,1.8c0.5,0.4,1.3,0.6,2.3,0.6
		c1,0,1.8-0.3,2.4-1c0.6-0.7,0.9-1.5,0.9-2.6c0-0.6-0.1-1.2-0.4-1.6c-0.3-0.5-0.7-0.9-1.3-1.3c-0.5-0.3-1-0.5-1.5-0.7
		c-0.6-0.1-1.2-0.2-1.8-0.2c-0.8,0-1.5,0.1-2.2,0.3c-0.7,0.2-1.2,0.5-1.7,0.9c-0.5,0.4-1,0.9-1.2,1.5c-0.3,0.6-0.4,1.3-0.4,2.1
		c0,0.8,0.3,1.5,0.8,2.3c0.5,0.7,1.3,1.4,2.3,2.1c1,0.7,1.9,1.3,2.9,1.9c1,0.6,1.9,1.3,2.9,1.9c1,0.9,1.8,1.9,2.3,3
		c0.5,1.1,0.8,2.3,0.8,3.5c0,1.2-0.2,2.3-0.6,3.2c-0.4,0.9-1.1,1.7-1.9,2.4c-0.8,0.6-1.7,1.1-2.7,1.4c-1,0.3-2.1,0.5-3.3,0.5
		c-1,0-1.8-0.1-2.6-0.3s-1.5-0.4-2.2-0.8c-0.8-0.4-1.4-1-1.9-1.6c-0.4-0.6-0.6-1.4-0.6-2.3c0-1.3,0.4-2.4,1.1-3.2
		c0.7-0.8,1.7-1.2,3-1.2c0.5,0,1,0.1,1.4,0.2c0.4,0.2,0.8,0.4,1.2,0.6c0.4,0.3,0.7,0.7,0.9,1.1c0.2,0.4,0.3,0.9,0.3,1.3
		c0,0.9-0.2,1.6-0.7,2.1c-0.4,0.5-1.1,0.7-2,0.7c-0.5,0-0.9-0.1-1.3-0.4c-0.4-0.3-0.5-0.6-0.5-1.1c0-0.4,0.1-0.7,0.3-0.9
		c0.2-0.2,0.5-0.3,0.8-0.3c0,0,0.1,0,0.1,0c0.1,0,0.1,0,0.2,0c-0.1,0.1-0.2,0.2-0.3,0.3c-0.1,0.1-0.1,0.2-0.1,0.3
		c0,0.2,0.1,0.4,0.2,0.5c0.1,0.1,0.3,0.1,0.6,0.1c0.3,0,0.5-0.1,0.6-0.3c0.1-0.2,0.2-0.4,0.2-0.8c0-0.2-0.1-0.5-0.2-0.7
		c-0.1-0.2-0.3-0.4-0.5-0.5c-0.2-0.1-0.4-0.2-0.7-0.3c-0.2-0.1-0.5-0.1-0.8-0.1c-0.7,0-1.3,0.2-1.7,0.6c-0.4,0.4-0.6,1-0.6,1.9
		c0,0.5,0.1,0.9,0.3,1.3c0.2,0.4,0.6,0.7,1,1c0.4,0.2,0.8,0.4,1.2,0.5c0.4,0.1,0.9,0.2,1.4,0.2c0.7,0,1.3-0.1,1.8-0.3
		c0.5-0.2,1-0.6,1.5-1c0.4-0.4,0.7-0.9,0.9-1.5c0.2-0.5,0.3-1.2,0.3-1.8c0-0.7-0.2-1.5-0.7-2.3c-0.4-0.8-1.1-1.6-2-2.5
		c-0.8-0.8-1.6-1.6-2.4-2.3c-0.8-0.8-1.6-1.5-2.4-2.3c-0.9-0.9-1.5-1.9-2-2.8c-0.4-0.9-0.7-1.8-0.7-2.7c0-1.3,0.2-2.4,0.7-3.4
		c0.5-1,1.1-1.8,2-2.5c0.8-0.6,1.7-1,2.8-1.3c1.1-0.3,2.3-0.4,3.6-0.4c1,0,1.9,0.1,2.8,0.3c0.9,0.2,1.7,0.6,2.4,1.1
		c0.9,0.6,1.5,1.2,2,1.9C394.3,228.4,394.5,229.2,394.5,230.1z"/>
	<path d="M398.1,229.2c0,0.4-0.1,0.6-0.3,0.8c-0.2,0.2-0.4,0.3-0.8,0.3s-0.6-0.1-0.8-0.3c-0.2-0.2-0.3-0.4-0.3-0.8
		c0-0.4,0.1-0.6,0.3-0.8c0.2-0.2,0.4-0.3,0.8-0.3s0.6,0.1,0.8,0.3C398.1,228.6,398.1,228.8,398.1,229.2z M399.8,232.3
		c0,0.4-0.1,0.6-0.3,0.8c-0.2,0.2-0.4,0.3-0.8,0.3c-0.3,0-0.6-0.1-0.8-0.3c-0.2-0.2-0.3-0.4-0.3-0.8c0-0.4,0.1-0.6,0.3-0.8
		c0.2-0.2,0.4-0.3,0.8-0.3c0.4,0,0.6,0.1,0.8,0.3C399.7,231.7,399.8,232,399.8,232.3z M419.7,223.9c-1,0.1-2,0.5-2.8,1.1
		c-0.8,0.6-1.6,1.4-2.2,2.4c0.6-0.3,1.1-0.5,1.6-0.7c0.5-0.1,0.9-0.2,1.2-0.2c0.2,0,0.4,0,0.6,0c0.2,0,0.5,0.1,0.8,0.1l-0.4,1.3
		h-0.3c-1.7,0-3.2,0.7-4.5,2.1c-1.3,1.4-2.5,3.5-3.5,6.3c-0.3,0.8-0.5,1.5-0.7,2c-0.1,0.5-0.2,0.8-0.2,0.9
		c-0.2,4.3-0.4,8.6-0.6,12.9l-2.7,0.6l-0.9-14.6l-6.9-11.7l5.7-2.2l4.5,11.7c0.7-2,1.4-3.7,2.1-5.1c0.6-1.4,1.2-2.5,1.7-3.4
		c1-1.6,2.1-2.8,3.3-3.6c1.2-0.8,2.5-1.2,3.9-1.2L419.7,223.9z M401.7,235.6c0,0.4-0.1,0.6-0.3,0.8c-0.2,0.2-0.4,0.3-0.8,0.3
		c-0.3,0-0.6-0.1-0.8-0.3c-0.2-0.2-0.3-0.5-0.3-0.8c0-0.3,0.1-0.6,0.3-0.8c0.2-0.2,0.4-0.3,0.8-0.3c0.4,0,0.6,0.1,0.8,0.3
		C401.6,235,401.7,235.3,401.7,235.6z M403.7,238.9c0,0.4-0.1,0.6-0.3,0.8c-0.2,0.2-0.4,0.3-0.8,0.3c-0.4,0-0.6-0.1-0.8-0.3
		c-0.2-0.2-0.3-0.4-0.3-0.8c0-0.4,0.1-0.6,0.3-0.8c0.2-0.2,0.4-0.3,0.8-0.3c0.4,0,0.6,0.1,0.8,0.3
		C403.6,238.3,403.7,238.6,403.7,238.9z"/>
	<path d="M436.6,230.1c0,1.7-0.5,3-1.5,4.1c-1,1-2.4,1.5-4,1.5c-0.7,0-1.3-0.1-1.9-0.2c-0.6-0.2-1.1-0.4-1.6-0.8
		c-0.5-0.4-1-0.8-1.2-1.4c-0.3-0.5-0.4-1.1-0.4-1.8c0-0.6,0.1-1,0.3-1.5c0.2-0.4,0.5-0.8,0.9-1.1c0.4-0.3,0.8-0.5,1.3-0.6
		c0.5-0.1,1-0.2,1.6-0.2c0.4,0,0.7,0,1,0.1c0.3,0.1,0.6,0.2,0.9,0.4c0.3,0.2,0.5,0.5,0.7,0.7c0.1,0.3,0.2,0.6,0.2,0.9
		c0,0.5-0.2,0.9-0.6,1.3s-0.9,0.5-1.4,0.5c-0.3,0-0.6-0.1-0.9-0.2c-0.2-0.1-0.4-0.3-0.5-0.6c0.1,0,0.2,0,0.3,0c0.1,0,0.2,0,0.3,0
		c0.4,0,0.7-0.1,0.8-0.2c0.2-0.1,0.3-0.3,0.3-0.6c0-0.3-0.1-0.5-0.3-0.6c-0.2-0.1-0.5-0.2-0.9-0.2c-0.3,0-0.5,0-0.7,0.1
		c-0.2,0.1-0.4,0.2-0.6,0.3c-0.2,0.2-0.4,0.3-0.5,0.6c-0.1,0.2-0.2,0.4-0.2,0.7c0,0.8,0.3,1.4,0.8,1.8c0.5,0.4,1.3,0.6,2.3,0.6
		c1,0,1.8-0.3,2.4-1c0.6-0.7,0.9-1.5,0.9-2.6c0-0.6-0.1-1.2-0.4-1.6c-0.3-0.5-0.7-0.9-1.3-1.3c-0.5-0.3-1-0.5-1.5-0.7
		c-0.6-0.1-1.2-0.2-1.8-0.2c-0.8,0-1.5,0.1-2.2,0.3c-0.7,0.2-1.2,0.5-1.7,0.9c-0.5,0.4-1,0.9-1.2,1.5c-0.3,0.6-0.4,1.3-0.4,2.1
		c0,0.8,0.3,1.5,0.8,2.3c0.5,0.7,1.3,1.4,2.3,2.1c1,0.7,1.9,1.3,2.9,1.9c1,0.6,1.9,1.3,2.9,1.9c1,0.9,1.8,1.9,2.3,3
		c0.5,1.1,0.8,2.3,0.8,3.5c0,1.2-0.2,2.3-0.6,3.2c-0.4,0.9-1.1,1.7-1.9,2.4c-0.8,0.6-1.7,1.1-2.7,1.4c-1,0.3-2.1,0.5-3.3,0.5
		c-1,0-1.8-0.1-2.6-0.3s-1.5-0.4-2.2-0.8c-0.8-0.4-1.4-1-1.9-1.6c-0.4-0.6-0.6-1.4-0.6-2.3c0-1.3,0.4-2.4,1.1-3.2
		c0.7-0.8,1.7-1.2,3-1.2c0.5,0,1,0.1,1.4,0.2c0.4,0.2,0.8,0.4,1.2,0.6c0.4,0.3,0.7,0.7,0.9,1.1c0.2,0.4,0.3,0.9,0.3,1.3
		c0,0.9-0.2,1.6-0.7,2.1c-0.4,0.5-1.1,0.7-2,0.7c-0.5,0-0.9-0.1-1.3-0.4c-0.4-0.3-0.5-0.6-0.5-1.1c0-0.4,0.1-0.7,0.3-0.9
		c0.2-0.2,0.5-0.3,0.8-0.3c0,0,0.1,0,0.1,0c0.1,0,0.1,0,0.2,0c-0.1,0.1-0.2,0.2-0.3,0.3c-0.1,0.1-0.1,0.2-0.1,0.3
		c0,0.2,0.1,0.4,0.2,0.5c0.1,0.1,0.3,0.1,0.6,0.1c0.3,0,0.5-0.1,0.6-0.3c0.1-0.2,0.2-0.4,0.2-0.8c0-0.2-0.1-0.5-0.2-0.7
		c-0.1-0.2-0.3-0.4-0.5-0.5c-0.2-0.1-0.4-0.2-0.7-0.3c-0.2-0.1-0.5-0.1-0.8-0.1c-0.7,0-1.3,0.2-1.7,0.6c-0.4,0.4-0.6,1-0.6,1.9
		c0,0.5,0.1,0.9,0.3,1.3c0.2,0.4,0.6,0.7,1,1c0.4,0.2,0.8,0.4,1.2,0.5s0.9,0.2,1.4,0.2c0.7,0,1.3-0.1,1.8-0.3c0.5-0.2,1-0.6,1.5-1
		c0.4-0.4,0.7-0.9,0.9-1.5c0.2-0.5,0.3-1.2,0.3-1.8c0-0.7-0.2-1.5-0.7-2.3c-0.4-0.8-1.1-1.6-2-2.5c-0.8-0.8-1.6-1.6-2.4-2.3
		c-0.8-0.8-1.6-1.5-2.4-2.3c-0.9-0.9-1.5-1.9-2-2.8c-0.4-0.9-0.7-1.8-0.7-2.7c0-1.3,0.2-2.4,0.7-3.4c0.5-1,1.1-1.8,2-2.5
		c0.8-0.6,1.7-1,2.8-1.3c1.1-0.3,2.3-0.4,3.6-0.4c1,0,1.9,0.1,2.8,0.3c0.9,0.2,1.7,0.6,2.4,1.1c0.9,0.6,1.5,1.2,2,1.9
		C436.4,228.4,436.6,229.2,436.6,230.1z"/>
	<path d="M460.1,225.7l-0.4,2.6c-0.7-0.1-1.4-0.2-2.1-0.3c-0.7-0.1-1.4-0.1-2-0.1c-0.8,0-1.7,0.1-2.6,0.2s-1.7,0.3-2.6,0.5l1.5,23.8
		l-7.3-0.9l1.8-22.6l-1.1,0c-1.2,0-2.2,0-3.1-0.2s-1.6-0.3-2.2-0.6c-0.8-0.4-1.4-1-1.8-1.7c-0.4-0.7-0.6-1.6-0.6-2.7v-0.4l1.1-0.4
		c0,1.2,0.5,2.1,1.4,2.7c0.9,0.6,2.1,0.9,3.8,0.9c1.4,0,3.5-0.2,6.3-0.6c2.8-0.4,4.9-0.6,6.3-0.6c0.7,0,1.4,0.1,2,0.2
		C459.1,225.4,459.7,225.5,460.1,225.7z M449.8,240.6c0-0.4-0.1-0.7-0.4-1c-0.3-0.3-0.6-0.4-1-0.4c-0.4,0-0.8,0.1-1,0.4
		c-0.3,0.3-0.4,0.6-0.4,1c0,0.4,0.1,0.8,0.4,1.1c0.3,0.3,0.6,0.4,1,0.4c0.4,0,0.8-0.1,1-0.4C449.6,241.3,449.8,241,449.8,240.6z
		 M449.4,245.6c0-0.4-0.1-0.7-0.3-0.9c-0.2-0.2-0.5-0.3-0.9-0.3c-0.4,0-0.7,0.1-0.9,0.3c-0.2,0.2-0.3,0.5-0.3,0.9
		c0,0.4,0.1,0.7,0.3,0.9c0.2,0.2,0.5,0.3,0.9,0.3c0.4,0,0.7-0.1,0.9-0.3C449.3,246.3,449.4,246,449.4,245.6z M449.5,235.8
		c0-0.4-0.1-0.7-0.3-0.9c-0.2-0.2-0.5-0.3-0.9-0.3s-0.7,0.1-0.9,0.3c-0.2,0.2-0.3,0.5-0.3,0.9c0,0.4,0.1,0.7,0.3,0.9
		c0.2,0.2,0.5,0.3,0.9,0.3s0.7-0.1,0.9-0.3C449.4,236.5,449.5,236.2,449.5,235.8z"/>
	<path d="M478.6,231.7l-2.6,0.7c-0.1-1.1-0.3-2.1-0.7-2.8c-0.4-0.7-1-1.3-1.7-1.7c-0.4-0.2-1-0.4-1.9-0.5c-0.9-0.2-2-0.3-3.4-0.4
		l-1.2,10.6l8.2-0.4l-2.1,4.6l-6.6-1.4l-1.4,10.7l6,0.1l2.1-3.1l3.4-0.2l0.1,5.1l-15.5-0.9l0.9-16.8l2.2,0.1l0.4-1.4l-2.5,0l0.1-1.9
		l2.3,0.2l0.2-1.7h-2.5l0.1-1.9l2.3,0.2l0.3-1.5l-2.6-0.1l0.2-2.9c1.1,0.1,2.1,0.2,3.2,0.2c1.1,0.1,2.1,0.2,3.2,0.2
		c1.3,0.2,2.4,0.4,3.4,0.7c1,0.3,1.8,0.6,2.6,1.1c0.9,0.6,1.7,1.3,2.3,2.1C477.9,229.6,478.3,230.6,478.6,231.7z M473,230.6
		l-0.5,4.3l-3.7-0.9l1.3-2.6L473,230.6z"/>
	<path d="M508,252.2l-8,0.9l0.6-18l-8.4,14.1l-7.2-8.7c-0.4,1.8-0.8,3.3-1.3,4.7c-0.4,1.4-0.9,2.6-1.4,3.6c-0.7,1.3-1.5,2.6-2.4,3.6
		c-0.9,1.1-2,2-3.2,2.8l-0.7-1.4c1.5-1.1,2.8-2.7,3.8-4.7c1-2,1.9-4.5,2.5-7.5l3.5-17.1l8.4,15.6l7.5-15.1l3.6,0.1L508,252.2z
		 M492.5,243.3l-5.8-10l-0.8,4.3l5.7,7.4L492.5,243.3z M504.6,240.1v-0.6l-0.9,0.3c-0.1,1.5-0.3,3-0.6,4.5c-0.3,1.5-0.7,2.9-1.3,4.2
		l1.6,0.3c0.4-1.6,0.7-3.1,0.9-4.6C504.5,242.7,504.6,241.3,504.6,240.1z"/>
</g>
</svg>
