<?xml version="1.0" encoding="utf-8"?>
<!-- Generator: Adobe Illustrator 22.0.0, SVG Export Plug-In . SVG Version: 6.00 Build 0)  -->
<svg version="1.1" id="Layer_1" xmlns="http://www.w3.org/2000/svg" xmlns:xlink="http://www.w3.org/1999/xlink" x="0px" y="0px"
	 viewBox="0 0 512 512" style="enable-background:new 0 0 512 512;" xml:space="preserve">
<g>
	<path d="M425.3,55c-3-6.7-7.8-12.3-13.1-17.3c-10.9-10.1-23.3-18.5-37-24.4c-6.7-2.9-13.7-5.2-20.9-6.9c-7.4-1.8-15.1-3.2-22.7-3.2
		c-7.2,0-15.1,1.5-21.1,5.8c-4.7,3.4-7.3,8.6-7.3,14.4c0,1.5,0.2,3,0.5,4.5c0.4,1.7,1.1,3.3,1.5,5c0.4,1.9-0.3,3.5-1.1,5.2
		c-1,2-1.9,4-2.9,6c-3.8,8-7.7,16-11.5,23.9c-7.7,16-15.4,32.1-23.1,48.1c-7.7,16-15.3,31.9-23,47.9c-7.7,16-15.4,32.1-23.1,48.1
		c-3.8,8-7.6,16-11.5,24c-0.7,1.4-1.3,3.2-2.6,4.1c-1.3,1-3,1-4.5,1.3c-3.5,0.7-7.1,1.6-10.5,2.6c-6.9,2.1-13.6,4.9-19.9,8.3
		c-6,3.3-11.4,7.5-17.1,11.3c-0.3-2.4-0.7-4.6-0.5-7c0.2-2,0.1-3.9-0.4-5.8c-1-3.9-3.8-6.7-7.2-8.6c-2.5-1.4-2.5-4.1-2.8-6.6
		c-0.4-3-0.7-6-1.1-9c-0.3-2.3-0.6-4.6-2-6.5c-1.2-1.6-2.9-2.6-4.9-2.9c-5.1-0.9-10.3-0.2-15.1,1.5c-8.9,3.1-16.7,8.6-22.7,15.8
		c-4.9,5.8-12.6,18.5-3.1,23.9c2.6,1.5,5.4,2.6,8.1,3.9c1.5,0.7,2.9,1.3,4.4,2c0.9,0.4,1.8,0.7,2.5,1.4c0.7,0.7,0.9,1.7,1,2.7
		c0.1,1,0.3,2,0.6,3c0.6,1.9,1.7,3.6,3.1,5c1.5,1.4,3.3,2.5,5.3,3c2.1,0.6,4.2,0.7,6.1,2c2,1.4,2.9,3.4,4.3,5.3c0.7,0.9,1.8,1.8,2,3
		c0.1,1-0.4,2-0.9,2.8c-5.7,10-10,20.8-11.9,32.2c-1.5,9-1.9,18.2-1.4,27.2c1,16.5,6,32.6,14.8,46.7c4.5,7.2,9.9,13.8,16,19.8
		c3.3,3.2,6.7,6.3,10.3,9.1c1.7,1.4,2.5,2.6,2.3,4.8c-0.2,2.2-1.4,2.3-3.2,2.8c-2.8,0.8-5.1,2.1-7.6,3.6c-2.6,1.6-5.2,3.2-7.8,4.9
		c-4.3,2.7-9.8,4.9-11.5,10.1c-0.9,2.7-1,5.6-1.5,8.3c-0.4,2.6-1.1,5.1-0.9,7.7c0.5,5,3.8,9.1,7.2,12.4c3.9,3.7,8.5,6.7,13.2,9.3
		c5.1,2.8,10.3,5.3,15.8,7.3c10.8,4.1,22.1,6.7,33.5,8.4c11.5,1.7,23.1,2.3,34.7,1.3c10.8-0.9,22.3-2.7,31.6-8.6
		c3.9-2.5,7.1-5.9,7.9-10.6c0.5-2.8,0.7-5.7,1.3-8.6c0.4-2.5,0.9-4.9,0.1-7.3c-0.7-2.5-2.4-4.3-4-6.2c-1.9-2.3-3.8-4.6-5.7-6.9
		c-1.8-2.2-3.6-4.5-5.7-6.5c-2-2-4.2-3.7-6.2-5.6c0.3-1,0.2-2.1,0.6-3.1c0.6-1.3,1.9-1.9,3.2-2.3c2.8-1,5.6-2.1,8.3-3.3
		c10.7-4.7,20.6-11.2,29.1-19.2c8.2-7.7,15.2-16.7,20.5-26.6c5.3-9.9,9.1-20.6,11-31.6c2-11.2,2.1-22.7,0.4-33.9
		c-1.8-11.7-5.6-23.1-11.2-33.6c-0.8-1.5-1.5-2.9-1.3-4.6c0.3-2,1.6-3.8,2.4-5.6c1.9-4,3.8-7.9,5.7-11.9c3.8-8,7.7-15.9,11.5-23.9
		c7.7-16,15.4-32,23.1-48c7.7-16,15.4-32,23.1-48.1c7.6-16,15.3-31.9,22.9-47.9c1.9-4,3.9-8,5.8-12.1c1.4-3,2.5-7,5.8-8.5
		c3-1.3,6-2.4,8.6-4.5c2.2-1.8,4-4.1,5-6.7C429.3,67.1,427.9,60.6,425.3,55z M263.8,467.3C263.8,467.4,263.8,467.4,263.8,467.3
		c0.1,0.1,0.1,0.1,0.1,0.2c0.6,0.7,1.1,1.4,1.7,2.2c0.6,0.8,1.2,1.6,1.8,2.4c0,0.1,0.1,0.1,0.1,0.2l0.4,0.5c0.1,0.2,0.3,0.3,0.4,0.5
		c0.2,0.2,0.3,0.4,0.4,0.6c0.1,0.1,0.2,0.2,0.2,0.3c0.1,0.2,0.3,0.4,0.4,0.6c0.1,0.2,0.2,0.4,0.3,0.6c0.2,0.4,0.3,0.8,0.4,1.2
		c0.1,0.4,0.2,0.7,0.2,1.1c0.1,0.4,0.1,0.8,0.2,1.2c0,0.4,0.1,0.8,0.1,1.2c0,0.1,0,0.2,0,0.2c0,0.3,0,0.6,0,0.9c0,0.2,0,0.5,0,0.7
		c0,0.3,0,0.6,0,0.8c0,0.2,0,0.4,0,0.6c0,0.2,0,0.4-0.1,0.6c0,0,0,0.1,0,0.1c0,0.2,0,0.5-0.1,0.7c0,0.4-0.1,0.8-0.2,1.2
		c-0.1,0.4-0.1,0.8-0.2,1.3c0,0.2-0.1,0.5-0.1,0.7c-0.1,0.4-0.2,0.9-0.3,1.3c-0.1,0.2-0.1,0.4-0.2,0.7c-0.1,0.2-0.1,0.4-0.2,0.6
		c-0.1,0.2-0.2,0.4-0.2,0.6c-0.2,0.4-0.3,0.7-0.6,1.1c0,0,0,0,0,0c0,0,0,0.1-0.1,0.1c0,0.1-0.1,0.1-0.1,0.2
		c-0.2,0.3-0.3,0.5-0.5,0.7c-0.1,0.2-0.3,0.4-0.4,0.5c-0.1,0.2-0.3,0.4-0.4,0.5c0,0.1-0.1,0.1-0.2,0.2c0,0.1-0.1,0.2-0.2,0.3
		c0,0.1-0.1,0.1-0.1,0.2c0,0.1-0.1,0.1-0.1,0.1c-0.1,0.1-0.2,0.2-0.2,0.2c-0.2,0-1-0.5-1.3-0.6l2.1-13c-1.8,0.7-3.7,1.5-5.6,2.2
		c-0.9,0.4-1.8,0.7-2.7,1.1l-0.5,0.2c-0.3,0.2-0.9,0.4-1.3,0.5c-0.2,0.1-0.5,0.1-0.6,0c0,0,0,0,0-0.1c0,0,0-0.1,0-0.1
		c0-0.3,0.5-0.6,1-1c0.1,0,0.1-0.1,0.2-0.1c0.4-0.3,0.9-0.6,1.1-0.7c0.6-0.5,1.3-1,1.9-1.5c0.2-0.1,0.3-0.2,0.3-0.2
		c0.1-0.1,0.3-0.2,0.4-0.3c0,0,0.1-0.1,0.1-0.1l0.2-0.1c0.7-0.5,1.5-1,2.2-1.7c0.1-0.1,0.2-0.2,0.3-0.2c0.1-0.1,0.2-0.2,0.2-0.2
		c0.3-0.3,0.6-0.7,0.8-1.1c0.1-0.3,0.2-0.6,0.3-0.8c0-0.2,0-0.3,0-0.5c0-0.6-0.2-1.2-0.5-1.8c-0.1-0.2-0.2-0.4-0.3-0.6
		c-0.1-0.2-0.3-0.5-0.4-0.7c0,0,0-0.1-0.1-0.1c0,0,0-0.1-0.1-0.1c-0.4-0.8-0.9-1.6-1.3-2.3c-0.5-0.8-0.9-1.7-1.3-2.5
		c-1.8-3.5-3.5-7.1-4.9-10.8C258.8,461.2,261.3,464.2,263.8,467.3z M110.7,248.7c-0.1,0.3-0.2,0.6-0.3,1c-0.1,0.3-0.2,0.7-0.3,1
		c-0.2,0.7-0.3,1.3-0.5,2c-0.1,0.4-0.2,0.9-0.4,1.3c-0.1,0-0.3-0.1-0.5-0.1c-0.3-0.1-0.5-0.2-0.6-0.3c0-0.1-0.1-0.1-0.1-0.1
		c0,0,0,0,0,0c0,0,0,0,0-0.1c0-0.1,0-0.2,0.1-0.4c0.2-0.7,0.3-1.4,0.5-2.1c0.3-1.5,0.7-3.1,1-4.6c-0.8,0.9-1.6,1.8-2.4,2.7
		c-0.3,0.4-0.6,0.7-1,1.1c0,0,0,0-0.1,0.1c0,0,0,0-0.1,0c-0.1,0.1-0.1,0.2-0.2,0.3c-0.2,0.3-0.5,0.7-0.7,0.8c0,0-0.1,0-0.1,0
		c-0.1,0-0.2,0-0.2-0.1c0,0-0.1-0.1-0.1-0.1c0,0,0-0.1,0-0.1c0-0.3,0.2-0.7,0.2-0.9c0.2-0.6,0.4-1.2,0.6-1.8c0.2-0.7,0.4-1.3,0.6-2
		c0-0.2,0.1-0.3,0.2-0.5c0.1-0.3,0.2-0.6,0.2-0.9c0-0.2-0.1-0.4-0.2-0.5c0,0-0.1,0.1-0.1,0.2c0,0.1-0.1,0.1-0.1,0.2
		c-0.8,1-1.5,1.9-2.3,2.8c-0.4,0.5-0.8,1-1.2,1.5c-0.1,0.1-0.2,0.3-0.3,0.5c0,0,0,0,0,0c-0.2,0.3-0.5,0.6-0.8,0.4
		c-0.3-0.3,0.8-3.1,1-3.6c0-0.1,0.1-0.2,0.2-0.4c0.2-0.4,0.3-0.9,0.5-1.4c0-0.1,0.1-0.3,0.1-0.4c0.2-0.7,0.3-1.3,0.1-1.5
		c-0.1-0.2-0.2-0.2-0.3-0.3c-0.1,0-0.2,0-0.2,0.1c-0.1,0-0.1,0.1-0.1,0.2c0,0-0.1,0.1-0.1,0.1c-0.1,0.2-0.2,0.4-0.3,0.5l-0.8,1.4
		c-0.1,0.1-0.2,0.3-0.2,0.4c-0.5,0.8-1,1.7-1.5,2.5c-1.3,2.1-2.5,4.2-3.8,6.2c0-0.2,0-0.4-0.1-0.6c-0.2-2-0.5-3.7,0.1-5.7
		c0-0.2,0.1-0.3,0.1-0.5l0,0c0-0.2,0.1-0.3,0.2-0.5c0.6-1.7,1.5-3.2,2.4-4.7c0.1-0.2,0.2-0.3,0.4-0.5c0.1-0.2,0.3-0.3,0.4-0.5
		c1.8-2.4,3.7-4.6,5.8-6.7c0.4-0.3,0.7-0.7,1.1-1c0.2-0.2,0.4-0.3,0.6-0.5c0.2-0.2,0.4-0.3,0.6-0.5c0.4-0.4,0.9-0.7,1.3-1.1
		c0.3-0.2,0.5-0.4,0.8-0.6c0.6-0.5,1.3-0.9,1.9-1.4c0.2-0.2,0.4-0.3,0.7-0.5c0.4-0.3,0.9-0.6,1.3-0.8c0.4-0.2,0.8-0.5,1.2-0.7
		c0.4-0.2,0.7-0.4,1.1-0.6c2.8-1.6,5.9-2.9,9.1-3.8c0.3-0.1,0.5-0.2,0.8-0.2c0.2-0.1,0.4-0.1,0.6-0.2c1.2-0.3,2.4-0.4,3.6-0.5
		c0.3,0,0.6,0,0.8,0c0.3,0,0.6,0,0.9,0c0.3,0,0.6,0,1,0c2.1,0,3.3,1.1,5.1,2c-4.8,1.1-9.5,2.3-14.3,3.4c0,0.1,0.1,0.3,0.1,0.4
		c0,0.2,0,0.2,0.2,0.3c0.1,0,0.2,0.1,0.4,0.1c0.1,0,0.1,0,0.2,0c0,0,0.1,0,0.1,0c0.2,0,0.4,0,0.5,0c0.6,0,1.2,0,1.8,0
		c1.3,0,2.5,0,3.8,0c0.1,0,0.2,0,0.4,0c0.3,0,0.6-0.1,0.7,0.2l0,0c0,0,0,0.1,0,0.1c0,0,0,0.1,0,0.1c0,0,0,0,0,0c0,0.2,0,0.2-0.2,0.2
		c0,0-0.1,0-0.2,0.1c-0.3,0.2-0.6,0.3-0.9,0.4c-0.1,0-0.2,0.1-0.3,0.1c-0.2,0.1-0.4,0.1-0.6,0.2c-1.2,0.5-2.4,0.9-3.6,1.4
		c-0.1,0-0.1,0-0.2,0.1c-0.2,0.1-0.3,0.2-0.4,0.3c0,0,0,0.1,0,0.1c0,0,0,0,0,0c0.1,0.1,0.5,0.2,0.9,0.2c0.7,0,1.4,0.1,2.2,0.1
		c0,0,0.1,0,0.2,0c0.6,0,1.2,0.1,1.8,0.1c0.4,0,1.5-0.1,1.5,0.3c0,0,0,0.1,0,0.1c0,0,0,0.1-0.1,0.1c0,0-0.1,0.1-0.1,0.1
		c-0.2,0.2-0.6,0.4-1.1,0.5c-0.4,0.1-0.7,0.3-0.9,0.3c-0.2,0.1-0.3,0.1-0.4,0.1c-1.1,0.5-2.2,0.9-3.2,1.4l5.5,0.9
		c0.1,0,0.4,0,0.7,0.1c0.1,0,0.3,0,0.4,0c0,0,0,0,0,0c0.1,0,0.1,0,0.2,0c0.2,0,0.4,0.1,0.6,0.1c0,0,0,0,0.1,0c0,0,0,0,0.1,0
		c0,0,0.1,0,0.1,0.1c0,0.1,0.1,0.1,0.1,0.1c0,0.1,0,0.1,0,0.2c0,0,0,0,0,0c0,0,0,0,0,0c-0.2,0.2-0.9,0.2-1.4,0.2c-0.3,0-0.5,0-0.6,0
		c-1.7,0-3.3,0-5,0.3c-1.7,0.3-3.3,1-4.9,1.7c-3.1,1.5-5.9,3.6-8.2,6.3C112.3,245.7,111.3,247.1,110.7,248.7z M110.9,258.7
		c10.5-4.2,19.6-11,26.7-19.8c0,0.2,0.1,0.5,0.1,0.8c0.1,0.5,0.2,1,0.2,1.5c0.5,2.9,0.8,5.8,0.7,8.7c-0.2,3.9-1.6,7.2-4.4,9.6
		c-0.1,0.1-0.2,0.2-0.4,0.3c-0.4,0.3-0.9,0.7-1.3,0.9c-0.1,0-0.1,0.1-0.2,0.1c-0.2,0.2-0.5,0.3-0.7,0.5c-0.2,0.1-0.5,0.4-0.7,0.4
		c-0.1,0-0.2,0-0.2,0c-0.1,0-0.1,0-0.2-0.1c0,0-0.1,0-0.1-0.1c-0.1-0.1-0.2-0.2-0.3-0.3l0,0c0,0-0.1-0.1-0.1-0.1
		c-0.2-0.2-0.4-0.4-0.6-0.6c-0.3-0.3-0.6-0.6-0.8-0.9c-0.1-0.1-0.2-0.2-0.3-0.3c-0.1-0.1-0.2-0.2-0.3-0.4c0,0-0.1-0.1-0.1-0.1
		c0,0-0.1-0.1-0.1-0.1c-0.7-1.3-0.4-2.7,0.2-4c0.1-0.2,0.2-0.4,0.3-0.6c0,0,0,0,0,0c0.1-0.3,0.3-0.6,0.4-0.9
		c0.1-0.1,0.1-0.3,0.2-0.4C123.3,255.8,117.4,258.4,110.9,258.7z M121.8,270.5c5.5-0.4,11-1.9,15.3-5.4c4.5-3.6,7.1-8.8,8.4-14.3
		c0.4,0.9,0.7,1.7,1.1,2.6c0.5-0.8,1-1.7,1.5-2.5c1.6,3,1.1,6.7-0.2,9.8c-1.6,3.8-4.5,7.1-7.9,9.4c1-2.5,2-5,3-7.5
		C137,267.8,130.1,272.5,121.8,270.5z M133,279.8c7-2.7,12.9-7.2,17.3-13.2c4.3,5.9,8.6,11.8,12.9,17.8c0.5,0.7,1.1,1.5,1.7,2.3
		c0.1,0.1,0.2,0.3,0.3,0.4c0,0.1,0.1,0.1,0.1,0.2c0,0,0.1,0.1,0.1,0.1c0,0,0,0.1,0,0.1c0.1,0.2,0.2,0.4,0.3,0.6
		c0.1,0.1,0.1,0.3,0.2,0.4c0,0.1,0.1,0.2,0.1,0.3c0,0.1,0.1,0.2,0.1,0.3c0,0.1,0.1,0.2,0.1,0.2c0,0.1,0.1,0.3,0.1,0.4
		c0,0.1,0,0.3,0,0.4c0,0.6-0.2,1.1-0.5,1.7c-0.1,0.1-0.2,0.3-0.3,0.4c0,0.1-0.1,0.1-0.1,0.2c-0.2,0.3-0.5,0.6-0.8,1
		c-0.2,0.2-0.4,0.5-0.6,0.7c-0.2,0.2-0.4,0.5-0.6,0.7c-0.3,0.3-0.6,0.6-0.9,0.9c-1.2,1.3-2.5,2.6-3.7,3.9
		c-4.4-5.9-8.7-11.7-13.1-17.6c-0.5-0.7-1.1-1.4-1.6-2.2c-0.3-0.4-1-1.9-1.5-2c-0.1,0-0.1,0-0.2,0c-0.1,0-0.3,0.1-0.4,0.2
		c-0.2,0.1-0.3,0.2-0.5,0.2c-0.1,0-0.1,0.1-0.2,0.1c0,0-0.1,0-0.1,0.1c-0.1,0.1-0.3,0.1-0.3,0.2c-0.5,0.3-0.9,0.5-1.4,0.8
		c-1.8,1-3.6,1.8-5.5,1.1C133.7,280.2,133.4,280,133,279.8z M170.9,279.4c0.3,0.4,0.7,0.7,1.1,1.1c0.3,0.3,0.5,0.5,0.8,0.8
		c0.2,0.2,0.4,0.4,0.6,0.6c0.6,0.6,1.1,1.3,1.6,2c0.3,0.4,0.5,0.9,0.7,1.4c0.1,0.2,0.2,0.4,0.2,0.6c0.1,0.2,0.2,0.5,0.3,0.8
		c0.1,0.2,0.1,0.5,0.2,0.7c0.1,0.5,0.2,1,0.3,1.5c0,0.3,0,0.6,0.1,0.9c0,0.5,0,1,0,1.6c0,0.3,0,0.5-0.1,0.8c0,0.1,0,0.2,0,0.2
		c-0.8,6.6-5.2,11.9-11.1,14.9c0,0,0,0,0,0c-0.1,0.1-0.2,0.1-0.3,0.2c-0.3,0.1-0.5,0.3-0.8,0.4c-0.2,0.1-0.4,0.2-0.6,0.3
		c-0.5,0.2-1,0.4-1.5,0.5c-0.3,0.1-0.5,0.2-0.7,0.2c0,0,0,0,0,0c-0.2,0.1-0.4,0.1-0.6,0.1c0,0-0.1,0-0.1,0c-0.2,0-0.3,0.1-0.4,0.1
		c-1.1,0.3-2.2,0.4-3.3,0.5c-0.7,0.1-1.4,0.1-2.1,0c-0.7,0-1.4-0.1-2.1-0.2c-0.3,0-0.6-0.1-0.9-0.2c-0.3-0.1-0.6-0.1-0.9-0.2
		c-0.2,0-0.4-0.1-0.5-0.2c-0.3-0.1-0.6-0.2-0.8-0.3c-0.2-0.1-0.4-0.2-0.7-0.3c-0.1-0.1-0.2-0.1-0.3-0.1c-0.2-0.1-0.4-0.2-0.7-0.3
		c-0.5-0.2-1-0.5-1.4-0.8c7,0.5,13.7-1.7,19.1-6.2c2.9-2.4,5.6-5.3,6.5-9C173.2,287.7,171.6,283.4,170.9,279.4z M140.3,454.3
		c0.1-0.1,0.2-0.1,0.2-0.2c0.1-0.1,0.1-0.1,0.2-0.2l0.1-0.1c0.1-0.1,0.3-0.2,0.4-0.3c1.4-1,3.1-1.8,4.6-2.7c1.5-0.9,3.1-1.8,4.6-2.6
		c0.1-0.1,0.2-0.1,0.3-0.2c0.4-0.2,0.8-0.5,1.2-0.7c1-0.5,2.3-1.1,3-2.1c0.1-0.1,0.1-0.2,0.2-0.3c0-0.1,0.1-0.1,0.1-0.2
		c0-0.1,0-0.1,0.1-0.2c0-0.1,0-0.1,0-0.2c0-0.1,0-0.1,0-0.2c0,0,0-0.1,0-0.1c0.1-0.8-0.2-1.5-0.1-2.3l0-0.2c0.1-0.4,0.2-0.8,0.3-1.1
		c0.1-0.4,0.3-0.9,0.3-1.3c0.2,0.7,0.5,1.5,0.8,2.1c0.1,0.3,0.2,0.5,0.4,0.8c0,0.1,0.1,0.2,0.2,0.3c0.1,0.2,0.2,0.4,0.3,0.6
		c0.2,0.3,0.3,0.6,0.5,0.9c0.2,0.3,0.4,0.6,0.6,0.9c1.5,2.1,3.4,3.8,5.5,5.4c0.3,0.2,0.5,0.4,0.8,0.6c0.5,0.4,1,0.7,1.6,1
		c0.2,0.2,0.5,0.3,0.8,0.5c0.3,0.2,0.7,0.4,1,0.6c0.3,0.2,0.5,0.3,0.8,0.5c0.4,0.2,0.9,0.5,1.3,0.7c0.1,0.1,0.2,0.1,0.4,0.2
		c0.1,0,0.2,0.1,0.3,0.1c0.4,0.2,0.9,0.4,1.3,0.6c0.1,0,0.1,0.1,0.2,0.1c0.2,0.1,0.5,0.2,0.7,0.3c0.6,0.3,1.2,0.6,1.8,0.8
		c0.5,0.2,1,0.4,1.5,0.6c0.3,0.1,0.7,0.3,1,0.4c0,0,0.1,0,0.1,0c0.5,0.2,1.1,0.4,1.6,0.6c0.6,0.2,1.1,0.4,1.7,0.6
		c0.6,0.2,1.1,0.4,1.7,0.6c0.6,0.2,1.1,0.4,1.7,0.5c1.1,0.4,2.3,0.7,3.4,1c0.8,0.2,1.5,0.4,2.3,0.6c0.6,0.2,1.2,0.3,1.8,0.5
		c0.3,0.1,0.7,0.2,1,0.2c0.9,0.2,1.7,0.4,2.6,0.6c1.3,0.3,2.6,0.6,3.9,0.8c0.7,0.2,1.5,0.3,2.2,0.4c0.1,0,0.3,0.1,0.4,0.1
		c0.6,0.1,1.2,0.2,1.8,0.3c0.6,0.1,1.3,0.2,1.9,0.3c0.8,0.1,1.7,0.3,2.5,0.4c1.1,0.2,2.1,0.3,3.2,0.5c1.4,0.2,2.7,0.4,4.1,0.5
		c0.9,0.1,1.8,0.2,2.7,0.3c0.3,0,0.7,0.1,1,0.1c0.7,0.1,1.4,0.1,2.1,0.2c0.7,0.1,1.4,0.1,2.1,0.2c0.6,0,1.1,0.1,1.7,0.1
		c0.7,0,1.3,0.1,2,0.1c0.3,0,0.6,0,0.9,0c0.7,0,1.4,0.1,2.1,0.1c0.2,0,0.4,0,0.7,0c0.2,0,0.4,0,0.7,0c1.9,0,3.7-0.1,5.6-0.2
		c1.4-0.1,2.7-0.2,4.1-0.3c-0.3,0.2-0.6,0.4-1,0.5c-0.2,0.1-0.4,0.2-0.6,0.3c-0.4,0.1-0.7,0.3-1,0.4c-0.3,0.1-0.6,0.2-1,0.3
		c0,0-0.1,0-0.1,0c-2.1,0.6-4.4,0.8-6.5,0.9c-0.7,0.1-1.3,0.1-2,0.1c-0.7,0-1.3,0.1-2,0.1c-0.6,0-1.3,0-2,0c0,0-0.1,0-0.1,0
		c-7.3,0-14.8-0.7-22-1.9c-0.1,0-0.1,0-0.1,0c0,0,0,0,0,0c0,0,0,0,0,0c0,0,0,0,0,0c0,0,0,0,0,0c0,0,0,0,0,0c0,0,0,0,0,0l0,0
		c0,0,0,0,0,0c0,0,0,0,0,0c0,0,0,0,0,0c0,0,0,0,0,0c0,0,0,0,0,0c0,0,0,0,0,0c0,0,0,0,0,0c0,0,0,0,0,0c0,0,0,0,0,0c0,0,0,0,0,0
		c0,0,0,0,0,0c-2.6-0.4-5.1-0.9-7.6-1.4c-1.5-0.3-3.1-0.6-4.6-1c-0.5-0.1-1-0.2-1.4-0.3c-0.7-0.2-1.4-0.3-2-0.5
		c-0.9-0.2-1.8-0.5-2.7-0.7c-0.6-0.2-1.2-0.3-1.8-0.5c-0.9-0.3-1.8-0.5-2.7-0.8c-0.7-0.2-1.4-0.4-2.1-0.7c-2.1-0.7-4.3-1.5-6.4-2.4
		c-0.2-0.1-0.4-0.1-0.5-0.2c-0.3-0.1-0.5-0.2-0.8-0.4c-0.3-0.1-0.5-0.2-0.8-0.4c-0.2-0.1-0.5-0.2-0.7-0.3c-0.2-0.1-0.5-0.2-0.7-0.4
		c0,0-0.1,0-0.1,0c-0.6-0.3-1.1-0.6-1.6-0.9c-0.6-0.3-1.1-0.6-1.6-1c-1.6,1.5-3.3,2.9-5,4.4c-0.2,0.2-0.4,0.3-0.5,0.5
		c-0.4,0.3-0.7,0.7-1,1.1c-0.4,0.4-0.7,0.7-1.1,1.1c-0.2,0.2-0.5,0.5-0.7,0.7c-0.3,0.3-0.6,0.5-0.9,0.8c-1.2,0.9-2.5,0.9-3.8,0.1
		c-1.8-1-3.3-2.4-5-3.7c3.3-2.3,6.7-4.7,10-7.1c0.8-0.5,1.9-1.1,2.5-1.8c0.1,0,0.1-0.1,0.1-0.1c0,0,0,0,0.1-0.1
		c0.1-0.1,0.1-0.2,0.2-0.2c0-0.1,0-0.2-0.2-0.4c0,0,0,0,0,0c0,0-0.1-0.1-0.1-0.2c0-0.1-0.1-0.1-0.1-0.2l-0.1-0.1
		c-0.3-0.4-0.6-0.9-0.8-1.3c-0.2-0.3-0.4-0.8-0.7-1c-0.1-0.1-0.1-0.1-0.1-0.2c-0.1-0.1,0-0.1-0.3-0.1c-0.2,0-0.4,0.2-0.6,0.4
		c0,0-0.1,0-0.1,0.1c-0.4,0.3-0.8,0.5-1.2,0.8c-1,0.6-2,1.3-3,1.9c-2,1.2-3.9,2.5-5.9,3.7c-0.6,0.4-1.1,0.7-1.7,1.1
		c-0.5,0.3-1,0.8-1.5,1c0,0,0,0,0,0c0,0,0,0,0,0c0,0,0,0,0,0c-0.1,0-0.2,0.1-0.2,0.1c-0.1,0.1-0.1,0.1-0.3,0
		c-0.1-0.1-0.3-0.3-0.4-0.5c0,0,0-0.1-0.1-0.1c0,0,0,0,0-0.1c-0.1-0.1-0.3-0.4-0.5-0.6c-0.2-0.2-0.4-0.5-0.4-0.6c0,0,0-0.1,0-0.1
		c0,0,0,0,0,0c0-0.1,0-0.1,0.1-0.1C140.2,454.5,140.2,454.4,140.3,454.3z M166.1,432.6c6.6,4.1,13.7,7.6,21.1,10.2
		c0.9,0.3,1.8,0.6,2.7,0.9c0,0,0,0,0,0c1.8,0.6,3.6,1.1,5.4,1.6c0.5,0.1,1,0.3,1.4,0.4c0.2,0.1,0.4,0.1,0.6,0.2
		c0.3,0.1,0.6,0.2,0.9,0.2c0.1,0,0.3,0.1,0.4,0.1c0.4,0,0.5,0.1,0.3,0.5c0,0.1,0,0.1,0,0.2s0,0.1,0,0.2c0,0.4-0.2,0.8-0.2,1.1
		l-1.3,8.1c-4.3-1.2-8.7-2-12.9-3.5c-4.1-1.4-8-3.2-11.9-5.1c-2.7-1.3-6.4-2.5-7.6-5.6c-0.5-1.3-0.4-2.8,0-4.1
		C165.7,436.1,165.8,434.4,166.1,432.6z M210,448.1c1.5,0.2,2.9,0.3,4.4,0.5l-1.4,8.7c0,0,0,0.1,0,0.2c0,0.1,0,0.1,0,0.2
		c0,0.1,0,0.3,0,0.4c0,0.1,0,0.2,0,0.2c0,0,0,0,0,0.1c0,0,0,0-0.1,0c0,0-0.1,0-0.1,0c-0.1,0-0.3,0-0.4,0l-0.5-0.1
		c-0.6-0.1-1.3-0.1-1.9-0.2c-1.5-0.2-2.9-0.3-4.4-0.5l1.4-8.6c0-0.2,0-0.5,0.1-0.8c0-0.2,0.1-0.4,0.1-0.4c0.1-0.1,0.9,0.1,1,0.1
		c0.4,0,0.8,0.1,1.3,0.1C209.5,448.1,209.8,448.1,210,448.1z M244.7,455.4c-2.5,2.5-6.4,2.7-9.7,2.7c0.3-1.9,0.6-3.8,0.9-5.6
		c0.2-1.4,0.2-3.6,1.4-4.5c0.2-0.1,0.4-0.2,0.6-0.3c0.1,0,0.2-0.1,0.3-0.1c0.1,0,0.2-0.1,0.3-0.1c0.2-0.1,0.3-0.1,0.5-0.1
		c0.1,0,0.2,0,0.2-0.1c1-0.2,1.9-0.4,2.9-0.6c1.8-0.3,3.6-0.7,5.4-1C247.5,449,247.2,452.9,244.7,455.4z M242.1,488.2
		c-0.4,0.1-0.8,0.1-1.2,0.2c-0.1,0-0.1,0-0.2,0c-0.8,0.1-1.6,0.2-2.4,0.3c-1.1,0.1-2.1,0.3-3.2,0.4c-4.2,0.5-8.4,0.8-12.6,1
		c-7.6,0.3-15.2-0.1-22.7-1c-0.9-0.1-1.8-0.2-2.7-0.3c-1-0.1-2-0.3-3-0.4c-0.4-0.1-0.9-0.1-1.3-0.2c0,0,0,0,0,0c0,0,0,0,0,0
		c0,0,0,0,0,0c0,0,0,0,0,0l0,0c0,0,0,0,0,0c0,0,0,0,0,0c0,0,0,0,0,0l0,0c0,0,0,0,0,0l0,0c0,0,0,0,0,0c0,0,0,0,0,0c0,0,0,0-0.1,0
		c0,0,0,0,0,0c-0.2,0-0.4,0-0.6-0.1l-0.1,0l0,0l0,0c0,0,0,0,0,0c0,0,0,0,0,0c0,0,0,0,0,0c0,0,0,0,0,0c0,0,0,0,0,0c0,0,0,0,0,0
		c0,0,0,0,0,0c0,0,0,0,0,0c0,0,0,0,0,0c0,0,0,0,0,0c0,0,0,0,0,0c0,0,0,0,0,0c0,0,0,0,0,0c0,0,0,0,0,0c-1.5-0.3-3.1-0.6-4.6-0.9
		c-0.1,0-0.2,0-0.3-0.1c-0.9-0.2-1.9-0.4-2.8-0.6c-0.1,0-0.1,0-0.2,0c-1-0.2-2-0.5-2.9-0.7c-0.8-0.2-1.6-0.4-2.5-0.6
		c-2.5-0.7-5.1-1.4-7.6-2.3c-0.9-0.3-1.7-0.6-2.6-0.9c-3.4-1.2-6.8-2.4-10.1-3.8c-0.8-0.4-1.7-0.7-2.5-1.1c-0.2-0.1-0.4-0.2-0.6-0.2
		c-0.6-0.3-1.3-0.6-1.9-0.9c-0.9-0.4-1.7-0.8-2.6-1.2c-0.3-0.2-0.7-0.3-1-0.5c-0.6-0.3-1.2-0.6-1.8-0.9l-1.7,10.7
		c-2.1-0.6-4.5-1.6-5.7-3.6c-1.1-1.9-0.9-4.2-0.5-6.4c0.3-1.8,0.9-4,0.3-5.9c-0.6-2-2.6-3.5-4-5l-1.4,8.8c0,0.1,0,0.2,0,0.3
		c0,0.3,0,0.8-0.2,0.9c0,0-0.1,0-0.2,0c-0.2,0-0.5,0.1-0.7,0.1l0,0c-0.1,0-0.2,0-0.2,0c-0.2-0.1-0.4-0.9-0.5-1.4
		c0-0.2-0.1-0.3-0.1-0.4c-0.4-1.3-0.6-2.6-0.3-4c0.4-2.6,1.1-5.3,1.1-7.9c0,0,0,0,0-0.1c0,0,0-0.1,0-0.1c0,0,0-0.1,0-0.1
		c0-0.1,0-0.2,0-0.2c0-0.2,0-0.4-0.1-0.7c0-0.1,0-0.2-0.1-0.3c0-0.2-0.1-0.3-0.1-0.5c0-0.2-0.1-0.3-0.1-0.5c-0.1-0.5-0.3-1-0.4-1.5
		c-0.1-0.3-0.1-0.5-0.1-0.8c0-0.1,0-0.3,0-0.4c0-0.2,0-0.5,0-0.8c0-0.1,0-0.2,0-0.2c0-0.2,0-0.3,0.1-0.5l0.1-0.5
		c0-0.3,0.1-0.5,0.1-0.8c0.1,0.3,0.3,0.6,0.4,0.9c0.1,0.3,0.3,0.6,0.4,0.9c0.3,0.6,0.6,1.1,0.9,1.7c0.2,0.4,0.4,0.7,0.7,1.1
		c0.7,1,1.4,2,2.2,2.9c0.2,0.2,0.3,0.4,0.5,0.6c0.7,0.8,1.4,1.5,2.1,2.3c2.4,2.4,5,4.4,7.9,6.2c5.7,3.5,12,6.1,18.2,8.5
		c0.3,0.1,0.5,0.2,0.8,0.3c0.4,0.2,0.8,0.3,1.2,0.4c1.5,0.5,2.9,1.1,4.4,1.6c0.4,0.1,0.8,0.3,1.1,0.4c1.4,0.5,2.9,1,4.4,1.4
		c0.9,0.3,1.8,0.5,2.7,0.8c0.7,0.2,1.4,0.4,2.1,0.6c1.6,0.5,3.2,0.9,4.8,1.3c0.8,0.2,1.6,0.4,2.4,0.6c0.7,0.2,1.4,0.3,2.1,0.5
		c0.1,0,0.2,0,0.3,0.1c1.6,0.3,3.3,0.7,4.9,1c0.5,0.1,1.1,0.2,1.6,0.3c0.1,0,0.2,0,0.3,0.1l0.5,0.1c1.3,0.2,2.5,0.4,3.8,0.6l0.3,0
		c0.5,0.1,1,0.1,1.5,0.2c1,0.2,2.1,0.3,3.1,0.4c1,0.1,2.1,0.3,3.1,0.3c1,0.1,2.1,0.2,3.1,0.3c0.6,0.1,1.2,0.1,1.9,0.1
		c0.5,0,0.9,0.1,1.4,0.1c0.2,0,0.3,0,0.5,0c0.6,0,1.2,0.1,1.9,0.1c1.9,0.1,3.7,0.1,5.6,0.1c2.5,0,5,0,7.4-0.1c0.9,0,1.9-0.1,2.8-0.1
		c0.7,0,1.4-0.1,2-0.1c0.9,0,1.7-0.1,2.6-0.1c1.2-0.1,2.5-0.1,3.7-0.2C243.9,487.9,243,488.1,242.1,488.2z M312.3,301.7
		c0.4,0.8,0.7,1.5,1,2.3c0.3,0.6,0.5,1.2,0.7,1.8c0.2,0.6,0.5,1.2,0.7,1.8c0.2,0.6,0.4,1.1,0.7,1.7c0.6,1.7,1.2,3.5,1.8,5.2
		c0.1,0.4,0.2,0.7,0.3,1.1c0.1,0.4,0.2,0.8,0.3,1.2c0.3,1.1,0.6,2.2,0.9,3.3c0.4,1.8,0.8,3.6,1.2,5.5c0.1,0.5,0.2,0.9,0.3,1.4
		c0.3,1.8,0.6,3.5,0.8,5.3c0.1,0.5,0.1,1,0.2,1.5c0.1,0.5,0.1,1,0.2,1.5c0.1,1.5,0.2,3,0.3,4.6c0,0,0,0,0,0.1
		c0.1,3.6,0.1,7.2-0.1,10.8c-0.1,1-0.1,2-0.3,3.1c0,0.5-0.1,0.9-0.1,1.4c-0.1,0.5-0.1,1.1-0.2,1.6c-0.1,0.5-0.1,0.9-0.2,1.4
		c-0.1,0.6-0.2,1.2-0.3,1.8c-0.1,0.6-0.2,1.2-0.3,1.7c-0.1,0.4-0.1,0.8-0.2,1.3c-0.1,0.5-0.2,1.1-0.3,1.6c-0.2,1.1-0.4,2.1-0.7,3.1
		c0,0,0,0,0,0.1c-0.8,3.2-1.7,6.4-2.8,9.5c-0.3,0.8-0.6,1.6-0.8,2.3c-0.3,0.9-0.7,1.7-1,2.6c-0.4,0.9-0.7,1.7-1.1,2.6
		c-0.2,0.6-0.5,1.1-0.8,1.7c-0.2,0.4-0.4,0.8-0.5,1.1c-1,2-2,4-3.1,6c-0.6,1-1.2,2-1.8,3c0,0.1-0.1,0.1-0.1,0.2
		c-0.3,0.5-0.7,1.1-1,1.6c-0.3,0.5-0.6,1-1,1.5c-1,1.6-2.1,3.1-3.3,4.6c-0.4,0.5-0.7,1-1.1,1.5c-0.4,0.5-0.7,0.9-1.1,1.4
		c-0.8,1-1.6,1.9-2.4,2.8c-0.5,0.5-1,1.1-1.4,1.6c-0.4,0.4-0.7,0.8-1.1,1.2c-0.1,0.1-0.2,0.2-0.3,0.3c-0.4,0.4-0.8,0.8-1.2,1.2
		c-1.2,1.3-2.5,2.5-3.8,3.7c-4,3.7-8.3,7-12.8,9.9c-0.6,0.4-1.1,0.7-1.7,1c-0.6,0.3-1.1,0.7-1.7,1c-0.5,0.3-1.1,0.6-1.6,0.9
		c-0.5,0.3-1.1,0.6-1.6,0.9c-0.5,0.3-1.1,0.6-1.6,0.9c-1,0.5-1.9,1-2.9,1.5c-1.1,0.5-2.2,1-3.3,1.5c-0.5,0.2-1.1,0.5-1.7,0.7
		c-1.2,0.5-2.3,0.9-3.5,1.3c-0.8,0.3-1.7,0.6-2.5,0.9c-0.7,0.2-1.4,0.5-2.1,0.7c-0.7,0.2-1.4,0.5-2.2,0.7c-1.2,0.3-2.3,0.7-3.5,0.9
		c-0.5,0.1-0.9,0.2-1.4,0.4c-0.5,0.1-1,0.2-1.4,0.3c-0.2,0.1-0.4,0.1-0.7,0.1c-0.3,0.1-0.7,0.2-1,0.2c-0.7,0.1-1.3,0.3-2,0.4
		c-0.5,0.1-0.9,0.2-1.4,0.2c-0.4,0.1-0.8,0.1-1.2,0.2c-0.1,0-0.2,0-0.2,0c-0.9,0.1-1.8,0.3-2.7,0.4c-0.1,0-0.2,0-0.2,0
		c-0.9,0.1-1.8,0.2-2.7,0.3c-1,0.1-2,0.2-3.1,0.2c-0.9,0.1-1.7,0.1-2.6,0.1c-0.7,0-1.4,0-2.1,0.1c-0.4,0-0.8,0-1.2,0
		c-0.5,0-1,0-1.6,0c-0.4,0-0.7,0-1.1,0c-0.7,0-1.4,0-2.1-0.1c-0.4,0-0.8,0-1.2-0.1c-0.3,0-0.7,0-1-0.1c-1.8-0.1-3.6-0.3-5.4-0.5
		c-0.1,0-0.1,0-0.2,0c-0.6-0.1-1.2-0.2-1.8-0.2c-1.1-0.2-2.3-0.3-3.4-0.5c-0.1,0-0.1,0-0.2,0c-0.9-0.2-1.8-0.3-2.7-0.5
		c-0.2,0-0.5-0.1-0.7-0.1c-0.4-0.1-0.8-0.2-1.2-0.3c-1-0.2-2.1-0.5-3.1-0.8c-0.5-0.1-1-0.3-1.6-0.4c-1-0.3-2-0.6-3-0.9
		c-0.6-0.2-1.3-0.4-1.9-0.6c-0.6-0.2-1.3-0.4-1.9-0.7c-1-0.4-2.1-0.8-3.1-1.2c-0.5-0.2-1-0.4-1.5-0.6c-0.7-0.3-1.5-0.6-2.2-0.9
		c-6.4-2.8-12.5-6.4-18.1-10.5c-1-0.7-1.9-1.4-2.9-2.2c-0.5-0.4-0.9-0.7-1.4-1.1c-1.1-0.9-2.1-1.8-3.1-2.7c-1.6-1.4-3.1-2.8-4.6-4.3
		c-0.7-0.7-1.5-1.5-2.2-2.3c-0.7-0.7-1.4-1.5-2.1-2.3c-0.7-0.8-1.4-1.6-2.1-2.4c-0.5-0.6-1-1.2-1.4-1.8c-0.6-0.8-1.2-1.6-1.8-2.4
		c-0.4-0.5-0.7-0.9-1-1.4c0-0.1-0.1-0.1-0.1-0.2c-0.7-1-1.4-2.1-2.1-3.1c-0.7-1-1.3-2-2-3.1c-1.5-2.6-3-5.2-4.3-7.9
		c-0.3-0.5-0.5-1.1-0.8-1.6c-0.3-0.7-0.7-1.5-1-2.2c-0.3-0.7-0.6-1.5-0.9-2.2c-0.3-0.9-0.7-1.7-1-2.6c-0.1-0.3-0.2-0.5-0.3-0.8
		c-0.1-0.4-0.3-0.7-0.4-1.1c-0.2-0.7-0.5-1.4-0.7-2.1c0-0.2-0.1-0.3-0.2-0.5c-0.2-0.6-0.4-1.1-0.5-1.7c-0.2-0.6-0.3-1.2-0.5-1.7
		c-0.3-0.9-0.5-1.9-0.8-2.9c-0.1-0.5-0.3-1-0.4-1.6c-0.1-0.5-0.2-1-0.3-1.5c0-0.1-0.1-0.3-0.1-0.4c-0.3-1.6-0.6-3.3-0.9-4.9
		c-0.1-0.6-0.2-1.1-0.3-1.7c-0.1-0.6-0.2-1.1-0.2-1.7c-0.1-0.5-0.1-1-0.2-1.5c0-0.1,0-0.2,0-0.3c-0.1-0.7-0.1-1.4-0.2-2
		c0-0.5-0.1-0.9-0.1-1.4c-0.1-1.8-0.2-3.7-0.3-5.5c0-0.5,0-1,0-1.4c0-0.6,0-1.2,0-1.7c0-0.6,0-1.2,0-1.8c0-0.5,0-1,0-1.4
		c0-1,0.1-2,0.2-3c0-0.5,0.1-0.9,0.1-1.4c0.2-1.7,0.3-3.5,0.6-5.2c0.1-1,0.3-2,0.5-3c0.1-0.5,0.2-0.9,0.3-1.4
		c0.1-0.6,0.2-1.2,0.3-1.7c0.2-0.7,0.3-1.5,0.5-2.2c0.1-0.6,0.3-1.3,0.5-1.9c0.1-0.6,0.3-1.3,0.5-1.9c0.9-3.4,2-6.7,3.4-9.9
		c0.2-0.5,0.4-0.9,0.6-1.4c0.2-0.4,0.3-0.8,0.5-1.2c0.2-0.4,0.4-0.9,0.6-1.3c0.4-0.8,0.8-1.6,1.2-2.5c0.8-1.6,1.7-3.2,2.7-4.8
		c-0.2,0.9-0.4,1.8-0.6,2.7c-0.1,0.4-0.1,0.8-0.2,1.2c0,0.3-0.1,0.7-0.1,1c0,0.2,0,0.3,0,0.5c0,0.3,0,0.7,0,1c0,0.4,0,0.7,0,1.1
		c0,0.3,0,0.6,0.1,0.9c0,0.2,0,0.4,0.1,0.6c0.1,0.7,0.2,1.4,0.4,2.1c0,0.2,0.1,0.4,0.1,0.6c0.1,0.3,0.2,0.7,0.3,1
		c0,0.1,0.1,0.2,0.1,0.4c0.3,0.8,0.8,1.7,1.1,2.5c0,0,0,0,0,0c0.2,0.6,0.3,1.2,0.3,1.9c-0.1,0.6-0.2,1.3-0.4,1.9c0,0.1,0,0.1,0,0.2
		c-0.3,1.1-0.7,2.1-1,3.2c0,0,0,0,0,0c-0.1,0.2-0.1,0.4-0.2,0.6c-0.1,0.2-0.1,0.4-0.1,0.6c0,0.1,0,0.2-0.1,0.3
		c-0.2,0.6-0.3,1.2-0.4,1.8c0,0.2-0.1,0.4-0.1,0.6c-0.2,1-0.4,2.1-0.6,3.1c-0.2,1-0.3,2.1-0.5,3.1l-0.1,0.3c-0.1,0.7-0.2,1.3-0.2,2
		c0,0.3-0.1,0.6-0.1,1c0,0.3-0.1,0.6-0.1,1c0,0.1,0,0.1,0,0.2c-0.1,0.7-0.1,1.3-0.1,2c-0.1,0.7-0.1,1.4-0.1,2.1c0,0.7,0,1.4-0.1,2.1
		c0,0.7,0,1.4,0,2.1c0,0.7,0,1.4,0,2.1c0,0.6,0,1.2,0.1,1.8c0,0.6,0.1,1.2,0.1,1.8c0,0.6,0.1,1.3,0.1,1.9c0.1,0.6,0.1,1.1,0.2,1.6
		c0,0.4,0.1,0.7,0.1,1.1c0.2,1.6,0.2,3.7,0.9,5.4c0,0.1,0.1,0.1,0.1,0.2c0.1,0.2,0.2,0.4,0.3,0.6c-0.3-2.3-0.4-4.5-0.5-6.8
		c-0.1-1.9-0.1-3.8-0.1-5.7c0-0.8,0-1.6,0.1-2.4c0-0.9,0.1-1.7,0.1-2.5c0.2-2.8,0.5-5.6,0.9-8.4c0.1-0.6,0.2-1.2,0.3-1.8
		c0.1-0.6,0.2-1.2,0.3-1.8c0.1-0.4,0.2-0.8,0.3-1.2c0.1-0.3,0.1-0.5,0.2-0.8c0.1-0.5,0.2-1,0.4-1.6c0-0.1,0.1-0.3,0.1-0.4
		c0.1-0.4,0.2-0.9,0.3-1.3c0.3-1,0.5-2,0.8-2.9c0.3-1.1,0.7-2.3,1.1-3.4c0-0.1,0.1-0.2,0.1-0.3c0-0.1,0.1-0.3,0.1-0.4
		c0-0.1,0.1-0.1,0.1-0.1c0.1-0.1,0.2-0.1,0.3-0.1c0.1,0,0.2,0,0.3,0l0.1,0c0.1,0,0.3,0.2,0.4,0.3c0.1,0.1,0.2,0.2,0.3,0.3
		c0,0,0.1,0.1,0.1,0.1c0.6,0.5,1.3,1,2,1.4c0.3,0.2,0.6,0.4,0.9,0.5c0.1,0,0.1,0.1,0.2,0.1c0.3,0.2,0.7,0.3,1.1,0.5
		c0.4,0.2,0.8,0.3,1.2,0.5c0,0,0.1,0,0.1,0c0.4,0.2,0.8,0.3,1.3,0.4c0.4,0.1,0.8,0.2,1.2,0.3c0.1,0,0.2,0,0.3,0.1
		c0.4,0.1,0.8,0.2,1.2,0.2c0.3,0.1,0.7,0.1,1,0.1c0.3,0,0.7,0.1,1,0.1c0.5,0,0.9,0.1,1.4,0.1c0.4,0,0.8,0,1.2,0c0.2,0,0.4,0,0.5,0
		c0.2,0,0.5,0,0.7,0c0.3,0,0.7-0.1,1-0.1c0,0,0.1,0,0.1,0c0.4,0,0.8-0.1,1.1-0.2c0.4-0.1,0.8-0.1,1.1-0.2l0,0c0.3-0.1,0.7-0.1,1-0.2
		c0.3-0.1,0.6-0.2,1-0.2c0.3-0.1,0.7-0.2,1-0.3c4.2-1.3,8.1-3.4,11.5-6.1c0.7-0.5,1.3-1.1,2-1.7c0.7-0.6,1.3-1.3,1.9-1.9
		c0.4-0.4,0.8-0.9,1.2-1.4c0.3-0.3,0.5-0.6,0.7-0.9c0.2-0.3,0.5-0.6,0.7-1c0.2-0.3,0.5-0.7,0.7-1c0.1,0,0.1-0.1,0.1-0.2
		c0.2-0.2,0.3-0.5,0.4-0.8c0.2-0.2,0.3-0.5,0.4-0.7c1.4-2.4,2.4-5,2.9-7.7c0.1-0.6,0.2-1.2,0.3-1.8c0-0.2,0.1-0.5,0.1-0.7
		c0-0.2,0-0.3,0-0.5c0-0.2,0-0.3,0-0.5c0,0,0-0.1,0-0.1c0-0.2,0-0.5,0-0.7c0-1.6-0.2-3.1-0.6-4.7c-0.1-0.2-0.1-0.5-0.2-0.7
		c-0.2-0.7-0.4-1.3-0.7-1.9c-0.1-0.3-0.2-0.5-0.4-0.8c-0.4-0.7-0.8-1.5-1.3-2.2c-0.2-0.2-0.3-0.5-0.5-0.7c-0.1-0.2-0.3-0.3-0.4-0.5
		c-0.3-0.3-0.6-0.6-0.8-0.9c-0.2-0.2-0.4-0.4-0.6-0.6s-0.4-0.4-0.6-0.6c-0.2-0.2-0.4-0.3-0.7-0.5c-0.2-0.2-0.5-0.3-0.7-0.5
		c-0.6-0.4-1.2-0.8-1.8-1.1c-0.6-0.3-1.3-0.6-1.9-0.9c-0.3-0.1-0.5-0.2-0.8-0.3c-0.1-0.1-0.3-0.1-0.5-0.2c-0.2-0.1-0.4-0.1-0.5-0.2
		c-0.5-0.2-1-0.3-1.5-0.4c0.8-0.4,1.6-0.9,2.4-1.3c0.1-0.1,0.2-0.1,0.3-0.2c0.1-0.1,0.2-0.1,0.3-0.2c0.2-0.1,0.3-0.2,0.4-0.3
		c0.1,0,0.1-0.1,0.2-0.1c0.1,0,0.2-0.1,0.2-0.1c0,0,0.1,0,0.1,0c0,0,0.1,0,0.1,0l0.1,0c0.2,0,0.5,0.3,0.7,0.4c0,0,0.1,0.1,0.1,0.1
		c0.1,0.1,0.3,0.2,0.4,0.2c0.1,0.1,0.2,0.1,0.3,0.1c0.2,0.1,0.4,0.2,0.7,0.3c0.6,0.3,1.2,0.5,1.9,0.7c0.3,0.1,0.6,0.2,0.9,0.3
		c0.1,0,0.1,0,0.2,0.1c0.1,0,0.3,0.1,0.4,0.1c0.1,0,0.2,0.1,0.3,0.1c0.5,0.1,1.1,0.2,1.6,0.3l0,0c1.6,0.3,3.2,0.3,4.9,0.3
		c0.4,0,0.7,0,1.1-0.1c0.4,0,0.7-0.1,1.1-0.1c0.7-0.1,1.5-0.2,2.2-0.3c0.7-0.1,1.3-0.3,2-0.5c0.3-0.1,0.6-0.2,0.9-0.3
		s0.6-0.2,0.9-0.3c0.3-0.1,0.6-0.2,0.9-0.3c0.3-0.1,0.6-0.2,0.9-0.4c1-0.4,1.9-0.9,2.9-1.5c0.3-0.2,0.6-0.4,0.9-0.6
		c0.3-0.2,0.6-0.4,0.9-0.6c0.6-0.4,1.1-0.9,1.6-1.3c0.3-0.2,0.5-0.5,0.8-0.7c0,0,0.1,0,0.1-0.1c1.9-2,2.9-4.3,3-6.8
		c0-0.3,0-0.6,0-0.9c0-0.6,0-1.2-0.1-1.9c2.8-0.3,5.5-0.6,8.3-0.8c0.8-0.1,1.7-0.3,2.4-0.2c1.1,0.2,1.9,1.4,2.6,2.3c0,0,0,0,0,0.1
		c0.1,0.1,0.2,0.2,0.3,0.4c0.1,0.1,0.1,0.1,0.2,0.2c0.5,0.5,1,1.1,1.5,1.6c1.2,1.2,2.5,2.3,3.9,3.3c0.3,0.2,0.5,0.4,0.8,0.6
		c0.3,0.2,0.6,0.4,0.8,0.6c3,2.1,6.3,4,9.6,5.8c0.1,0,0.2,0.1,0.3,0.2c0.6,0.3,1.3,0.7,1.9,1c0.9,0.5,1.8,1,2.7,1.4
		c0.9,0.5,1.8,0.9,2.7,1.4c1.2,0.6,2.4,1.2,3.6,1.8c0.4,0.2,0.9,0.4,1.3,0.6c1.5,0.7,3,1.4,4.6,2.1c1.1,0.5,2.3,1,3.4,1.4
		c0.2,0.1,0.5,0.2,0.7,0.3c0.7,0.3,1.3,0.5,2,0.8c1.3,0.5,2.7,1,4,1.5c0.7,0.2,1.3,0.5,2,0.7c0.7,0.2,1.4,0.5,2.1,0.7c0,0,0,0,0.1,0
		c1.3,0.4,2.6,0.8,4,1.2c3,0.9,5.9,1.5,9,1.8c0.2,0,0.4,0,0.7,0.1c2.3,0.2,4.9,0.1,7.1,0.9c0.2,0.1,0.3,0.1,0.5,0.2
		c0.6,0.3,1.1,0.7,1.5,1.2c0.2,0.2,0.4,0.4,0.5,0.7c0.1,0.1,0.2,0.3,0.3,0.4c0.1,0.1,0.2,0.3,0.3,0.4c0,0,0.1,0.1,0.1,0.1
		c0.2,0.2,0.3,0.4,0.5,0.7c0.2,0.3,0.4,0.5,0.6,0.8c0.4,0.5,0.7,1.1,1.1,1.6c0.7,1.1,1.4,2.2,2.1,3.3c2.6,4.2,4.8,8.7,6.6,13.3
		c0.2,0.6,0.4,1.2,0.7,1.7c1.1,2.9,2,5.8,2.7,8.7c0.1,0.3,0.2,0.7,0.2,1c0.1,0.3,0.2,0.6,0.2,0.9c0.1,0.6,0.3,1.1,0.4,1.7
		c0.1,0.6,0.2,1.2,0.4,1.8c0.1,0.5,0.2,0.9,0.2,1.4c0.1,0.8,0.3,1.6,0.4,2.4c0.1,0.4,0.1,0.9,0.2,1.3c0.1,0.5,0.1,0.9,0.2,1.4
		c0,0.1,0,0.1,0,0.2c0.1,0.6,0.1,1.2,0.2,1.8c0,0.1,0,0.2,0,0.3c0.1,0.7,0.1,1.3,0.1,2c0,0.7,0.1,1.4,0.1,2.1c0,0.7,0,1.4,0.1,2.1
		c0,0.1,0,0.2,0,0.3c0,0.7,0,1.3,0,2c0,0.1,0,0.2,0,0.4c0,0.7,0,1.4-0.1,2.1c0,0.6-0.1,1.2-0.1,1.8c0,0.7-0.1,1.3-0.2,2
		c0,0,0,0.1,0,0.1c0,0.3,0,0.6-0.1,0.9c0,0.1,0,0.2,0,0.3c0,0.4-0.1,0.8-0.1,1.3c-0.2,1.4-0.3,2.7-0.5,4.1c-0.1,0.3-0.1,0.7-0.2,1
		s-0.1,0.7-0.2,1c-0.1,0.7-0.3,1.3-0.5,1.9c-0.1-2.1-0.2-4.3-0.3-6.4c-0.1-0.9-0.1-1.9-0.2-2.8c-0.1-0.7-0.1-1.4-0.2-2.1
		c-0.2-1.9-0.5-3.8-0.7-5.8c-0.8-5.5-2-11.2-3.6-16.7c-2.9-9.8-7.1-19.3-13.1-27.4c-0.6-0.9-1.3-1.7-2-2.6c-0.4-0.4-0.7-0.8-1.1-1.3
		c0.1,1.4,0.3,2.8,0.5,4.1c0,0.2,0.1,0.4,0.1,0.7c0.2,1.6,0.4,3.2,0.6,4.8c0.1,0.7,0.2,1.3,0.2,2c0.1,1.2,0.2,2.4,0.3,3.6
		c0,0.4,0.1,0.9,0.1,1.3c0,0.1,0,0.2,0,0.4c0,0.1,0,0.2,0,0.3c0,0.3,0,0.6,0,0.9c0,0,0,0,0,0.1c0,0.4,0,0.8,0,1.2c0,0,0,0.1,0,0.1
		c0,2.8-0.1,5.6-0.3,8.4c-0.1,1.4-0.3,2.8-0.4,4.2c-0.1,0.6-0.1,1.2-0.2,1.8c0,0.1,0,0.2,0,0.3c-0.2,1.4-0.4,2.8-0.6,4.2
		c-0.1,0.5-0.2,0.9-0.3,1.4c-0.2,1-0.4,2.1-0.6,3.1c-0.2,1.1-0.5,2.3-0.8,3.4c-0.2,1-0.5,1.9-0.7,2.9c-0.1,0.5-0.3,1-0.4,1.5
		c-0.1,0.4-0.2,0.9-0.4,1.3c-0.1,0.5-0.3,1-0.4,1.4c-0.1,0.5-0.3,1-0.5,1.5c-0.2,0.6-0.4,1.2-0.6,1.7c-0.2,0.6-0.4,1.2-0.6,1.9
		c-0.3,0.8-0.6,1.7-0.9,2.5c-0.4,1.2-0.9,2.3-1.4,3.5c0,0,0,0.1,0,0.1c-0.2,0.6-0.5,1.2-0.7,1.8c-0.3,0.7-0.6,1.3-0.9,2
		c-0.2,0.4-0.4,0.9-0.6,1.3c-0.2,0.4-0.4,0.9-0.6,1.3c-2.1,4.5-4.4,9-6.9,13.3c-0.4,0.6-0.7,1.2-1.1,1.8c-0.4,0.7-0.9,1.4-1.3,2.1
		c-0.5,0.8-1,1.6-1.6,2.4c-0.3,0.4-0.5,0.8-0.8,1.2c-0.4,0.6-0.8,1.1-1.2,1.7c-0.4,0.5-0.8,1.1-1.2,1.6c-0.4,0.5-0.8,1-1.1,1.5
		c-1.6,1.9-3.2,3.8-5,5.6c-0.8,0.8-1.6,1.6-2.5,2.4c-0.5,0.5-1,0.9-1.5,1.4c-0.5,0.4-0.9,0.8-1.4,1.2c-1.4,1.2-2.7,2.3-4.2,3.3
		c-1.2,0.9-2.5,1.8-3.8,2.6c-0.4,0.3-0.9,0.6-1.3,0.9c-0.4,0.3-0.8,0.5-1.2,0.8c0,0-0.1,0-0.1,0.1c-1.1,0.7-2.2,1.3-3.3,1.9
		c-0.4,0.2-0.7,0.4-1.1,0.6c-0.4,0.2-0.9,0.5-1.3,0.7c0,0-0.1,0-0.1,0.1c-0.6,0.3-1.1,0.6-1.7,0.8c-0.2,0.1-0.3,0.2-0.5,0.2
		c-0.4,0.2-0.8,0.4-1.2,0.6c-0.3,0.2-0.7,0.3-1,0.4c-0.5,0.2-1.1,0.5-1.6,0.7c-0.5,0.2-1,0.4-1.5,0.6c-0.9,0.3-1.8,0.6-2.6,0.9
		c-0.7,0.2-1.4,0.4-2.1,0.6c-0.7,0.2-1.4,0.4-2.1,0.6c-0.6,0.2-1.2,0.3-1.9,0.4c-0.4,0.1-0.8,0.2-1.3,0.3c-0.2,0-0.3,0.1-0.5,0.1
		c-0.5,0.1-0.9,0.2-1.4,0.3c-0.2,0-0.3,0.1-0.5,0.1c-0.3,0.1-0.7,0.1-1.1,0.2c-0.1,0-0.1,0-0.2,0c-0.6,0.1-1.3,0.2-1.9,0.3
		c-0.1,0-0.2,0-0.3,0c-0.1,0-0.2,0-0.2,0c-0.3,0-0.6,0.1-0.9,0.1c-0.4,0-0.8,0.1-1.2,0.1c-0.2,0-0.4,0-0.7,0c-0.2,0-0.4,0-0.6,0
		c0,0-0.1,0-0.1,0c-0.1,0-0.3-0.1-0.4-0.3c0-0.1-0.1-0.1-0.1-0.2c3.7-2.4,7.4-4.8,11.1-7.2c-0.7,0.2-1.4,0.3-2.1,0.5
		c-4.2,0.9-8.4,1.6-12.6,1.9c-8.1,0.7-16.4,0.1-24.3-2.1c-2-0.5-3.9-1.2-5.8-1.9c-0.6-0.2-1.2-0.4-1.7-0.7c-0.5-0.2-0.9-0.4-1.4-0.6
		c-0.7-0.3-1.4-0.7-2.1-1c-0.7-0.4-1.4-0.7-2.1-1.1c-0.5-0.3-0.9-0.5-1.4-0.8c-0.5-0.3-0.9-0.5-1.4-0.8c-0.4-0.2-0.8-0.5-1.1-0.7
		c-0.1-0.1-0.3-0.2-0.4-0.3c-0.4-0.2-0.7-0.5-1.1-0.7c-0.4-0.3-0.9-0.6-1.3-0.9c-0.9-0.6-1.7-1.2-2.6-1.9c0.4,0.5,0.9,1,1.3,1.6
		c2.7,3.2,5.3,6.3,8.4,9.1c0,0,0,0,0,0.1c0.4,0.4,0.9,0.7,1.3,1.1c0.9,0.7,1.8,1.5,2.8,2.2c0.3,0.2,0.5,0.4,0.8,0.6
		c0.4,0.3,0.8,0.6,1.2,0.8c0.4,0.3,0.8,0.5,1.2,0.8c0.1,0.1,0.2,0.2,0.4,0.2c0.4,0.3,0.8,0.5,1.3,0.8c0.7,0.5,1.5,0.9,2.3,1.3
		c2,1.1,4,2.1,6.1,3c0.5,0.2,1.1,0.4,1.6,0.7c1,0.4,2.1,0.8,3.1,1.2c1.1,0.4,2.1,0.7,3.2,1.1c0,0,0.1,0,0.1,0l1.4,0.4
		c0.8,0.2,1.7,0.5,2.5,0.7c1.7,0.4,3.4,0.9,5.1,1.2c0.9,0.2,1.7,0.4,2.6,0.5c1.7,0.3,3.3,0.6,5,0.8c0.9,0.1,1.8,0.2,2.7,0.3
		c0.7,0.1,1.4,0.2,2,0.2c1.2,0.1,2.5,0.2,3.8,0.3c1,0.1,2.1,0.1,3.1,0.1c0.1,0,0.3,0,0.4,0c0.9,0,1.8,0,2.7,0c0,0,0.1,0,0.1,0
		c2.8,0,5.5-0.1,8.3-0.3c3.4-0.3,6.8-0.8,10.1-1.5c0.7-0.1,1.3-0.3,2-0.4c0.7-0.2,1.4-0.3,2.1-0.5c0.4-0.1,0.7-0.2,1.1-0.3
		c0.4-0.1,0.8-0.2,1.2-0.3c0.6-0.2,1.2-0.3,1.8-0.5c1-0.3,2-0.6,3-1l0,0c1-0.3,1.9-0.7,2.9-1.1c0.5-0.2,1-0.4,1.4-0.6
		c0.5-0.2,1-0.4,1.6-0.6c0.5-0.2,1-0.4,1.5-0.6c2-0.9,3.9-1.8,5.8-2.8c2.1-1.1,4.2-2.3,6.3-3.6c1-0.7,2.1-1.3,3.1-2
		c0.6-0.4,1.2-0.8,1.8-1.3c0,0,0.1-0.1,0.2-0.1c0.1,0,0.1-0.1,0.2-0.1c0.1-0.1,0.3-0.2,0.6-0.4c0.2-0.2,0.4-0.3,0.4-0.5
		c0,0,0,0-0.1,0c-0.1,0-0.1,0-0.3-0.1c-0.1,0-0.1,0-0.2,0c-0.2,0-0.5-0.1-0.8-0.2c-0.1,0-0.2-0.1-0.3-0.1c-0.1,0-0.2-0.1-0.3-0.1
		c-0.1,0-0.2-0.1-0.3-0.1c-0.7-0.2-1.4-0.4-1.7-0.6c-0.1,0-0.1-0.1-0.2-0.1c-0.3-0.2-0.5-0.4-0.7-0.7c0-0.1-0.1-0.1-0.1-0.2
		c0,0,0-0.1-0.1-0.1c0-0.1-0.1-0.2-0.1-0.3c0-0.1-0.1-0.2-0.1-0.4c0-0.1,0-0.3,0-0.4c0-0.1,0-0.3,0-0.4c0-0.2,0-0.4,0-0.6
		c0-0.2,0-0.4,0.1-0.6c0-0.3,0.1-0.7,0.2-1c0-0.2,0.1-0.3,0.1-0.4c0-0.2,0.1-0.3,0.2-0.5c0-0.2,0.1-0.3,0.2-0.4
		c0.7-1.8,1.8-3.6,2.8-5.2c0.7-1.1,1.4-2.2,2.1-3.2c0.4-0.6,0.9-1.2,1.3-1.7c0,0,0,0,0,0c0.5-0.6,0.9-1.1,1.4-1.7
		c2-2.2,4.2-4.2,6.7-5.9c0,0,0.1-0.1,0.1-0.1c0.3-0.2,0.6-0.4,0.9-0.6c0.5-0.3,1-0.7,1.5-1c0.2-0.1,0.4-0.2,0.5-0.3c0,0,0.1,0,0.1,0
		c0.2-0.1,0.5-0.2,0.7-0.3c0,0,0.1,0,0.1-0.1c0.3-0.1,0.7-0.2,1-0.3c0.2,0,0.4-0.1,0.6-0.1c0.2,0,0.4-0.1,0.6-0.1c0.2,0,0.4,0,0.6,0
		c1-0.1,1.9-0.1,2.9-0.2c-0.3,1.4-0.5,2.7-0.8,4.1c-0.2,1-0.9,2.5-0.7,3.5c0.4-0.4,0.7-0.8,1.1-1.3c1.1-1.3,2.1-2.6,3-4
		c0.2-0.3,0.5-0.7,0.7-1c0.2-0.4,0.5-0.7,0.7-1.1c0.5-0.7,0.9-1.5,1.4-2.2c0.6-1.1,1.2-2.2,1.8-3.3c0.3-0.6,0.6-1.1,0.9-1.7
		c0.3-0.6,0.5-1.1,0.8-1.7c0.2-0.4,0.4-0.9,0.6-1.3c3.4-7.6,5.5-15.8,6.4-24.1c0.1-0.6,0.1-1.2,0.2-1.8c0.2-1.8,0.3-3.7,0.4-5.6
		c0-0.1,0-0.2,0-0.4c0-0.6,0-1.2,0-1.7c0-0.6,0-1.3,0-1.9c0-0.8,0-1.7,0-2.5c0-0.8-0.1-1.7-0.1-2.5c-0.1-1.6-0.2-3.3-0.4-4.9
		c-0.2-1.5-0.4-3-0.6-4.5c-0.9-5.9-2.4-11.7-4.5-17.3c-0.3-0.8-0.6-1.5-0.9-2.3c-0.3-0.7-0.6-1.5-0.9-2.2c-0.3-0.7-0.6-1.5-1-2.2
		c-0.3-0.7-0.7-1.4-1-2.1c-0.4-0.7-0.7-1.4-1.1-2.1c-0.6-1.2-1.3-2.4-2-3.6c-1.3-2.2-2.7-4.4-4.3-6.5c-0.9-1.3-1.9-2.5-2.9-3.8
		c0,0,0,0,0,0c-1-1.2-2-2.4-3.1-3.6c-0.5-0.6-1.1-1.2-1.6-1.8c-1.1-1.1-2.1-2.2-3.2-3.2c0-0.1-0.1-0.1-0.1-0.1
		c-1.2-1.1-2.3-2.1-3.5-3.2c-0.4-0.4-0.9-0.7-1.3-1.1c-1.1-0.9-2.3-1.8-3.4-2.7c-1.2-0.9-2.3-1.7-3.5-2.5c-0.7-0.5-1.4-0.9-2.1-1.4
		c-0.8-0.5-1.6-1-2.4-1.5c-0.7-0.4-1.4-0.8-2.1-1.2c-0.6-0.3-1.3-0.7-1.9-1c-0.5-0.3-1-0.5-1.4-0.7c-1-0.5-2.1-1-3.2-1.5
		c-1.1-0.5-2.1-1-3.2-1.4c-0.7-0.3-1.4-0.6-2.2-0.9c-0.6-0.2-1.2-0.5-1.9-0.7c-0.7-0.2-1.4-0.5-2-0.7c-0.6-0.2-1.1-0.4-1.7-0.6
		c-1.2-0.4-2.3-0.7-3.5-1c-0.3-0.1-0.7-0.2-1-0.3c-7.3-1.9-14.7-2.8-22.2-2.7c-0.7,0-1.4,0-2.1,0c-0.6,0-1.3,0-1.9,0.1
		c-0.3,0-0.7,0-1,0.1c-0.5,0-0.9,0-1.4,0.1c-0.4,0-0.7,0.1-1.1,0.1c-0.1,0-0.3,0-0.4,0c-0.7,0.1-1.5,0.1-2.2,0.2
		c-0.7,0.1-1.5,0.2-2.2,0.3c-0.6,0.1-1.2,0.2-1.8,0.3c-3.8,0.6-7.6,1.4-11.4,2.4c-0.4,0.1-0.9,0.2-1.3,0.4c-0.9,0.2-1.8,0.5-2.7,0.8
		c1.6,0.8,3.1,1.6,4.7,2.4c0.1,0.1,0.3,0.1,0.4,0.2c0.1,0,0.1,0.1,0.2,0.1c0.6,0.3,1.3,0.7,1.9,1.2c0,0,0.1,0.1,0.1,0.1
		c0.1,0.1,0.2,0.2,0.3,0.3c0.1,0.1,0.2,0.2,0.2,0.4c0,0.1,0.1,0.2,0.1,0.3c0,0.1,0,0.2,0.1,0.3c0,0,0,0.1,0,0.1
		c0.1,0.8-0.4,1.5-1,2.1c-0.1,0.1-0.1,0.1-0.2,0.2c-0.3,0.3-0.5,0.5-0.8,0.7c-0.6,0.6-1.3,1.1-2,1.6c-0.3,0.2-0.6,0.4-0.9,0.6
		c0,0-0.1,0-0.1,0.1c0,0,0,0,0,0c-0.4,0.3-0.9,0.5-1.3,0.7c-0.3,0.2-0.6,0.3-1,0.5c-2.1,1-4.3,1.5-6.5,1.9c-0.3,0.1-0.6,0.1-1,0.2
		c-0.2,0-0.3,0.1-0.5,0.1c0,0,0,0-0.1,0c-0.3,0-0.6,0.1-0.8,0.1c-1.5,0.2-3.9,0.6-5.4-0.2c-0.2-0.1-0.4-0.2-0.5-0.4
		c-0.1-0.1-0.2-0.1-0.2-0.2c-0.1-0.1-0.1-0.2-0.2-0.3c-0.1-0.1-0.2-0.3-0.2-0.4c-0.1-0.1-0.1-0.2-0.1-0.3c0-0.1-0.1-0.2-0.1-0.2
		c0-0.1-0.1-0.2-0.1-0.4c0-0.1,0-0.3-0.1-0.4c0-0.1,0-0.3,0-0.4c0-0.1,0-0.3,0-0.4c0-0.1,0-0.2,0-0.3c0-0.1,0-0.2,0-0.2
		c0-0.4,0-0.7,0.1-1.1c0-0.1,0-0.3,0-0.4c0,0,0-0.1,0-0.1c0-0.1,0-0.2,0-0.3c0,0,0,0,0,0l0,0c0,0,0-0.1,0-0.1c0,0,0-0.1-0.1-0.2
		c-0.1-0.2-0.2-0.4-0.3-0.5c-0.1-0.2-0.2-0.4-0.3-0.6c-4.6,3.7-9.2,7.4-13.8,11c-1-1.3-1.9-2.6-2.9-3.9c-0.4-0.6-0.9-1.2-1.3-1.8
		c-0.1-0.1-0.7-0.8-0.7-0.9c0,0,0-0.1,0.1-0.1c0,0,0.1-0.1,0.1-0.1c0,0,0.1-0.1,0.1-0.1c0.1,0,0.1-0.1,0.1-0.1c0,0,0.1,0,0.1-0.1
		c0.1-0.1,0.1-0.1,0.1-0.1c0.9-0.7,1.8-1.5,2.7-2.2c0.5-0.4,1-0.7,1.4-1.1c0.5-0.4,1-0.7,1.5-1.1l0.3-0.2c3-2.1,6.2-4.1,9.5-5.9
		c0.5-0.3,1.1-0.6,1.6-0.9c0.6-0.3,1.1-0.6,1.7-0.8c2.8-1.4,5.7-2.6,8.6-3.8c1.7-0.6,3.4-1.2,5.1-1.8c1.7-0.6,3.5-1.1,5.2-1.5
		c1.8-0.5,3.6-0.9,5.4-1.3c1.1-0.2,2.2-0.4,3.3-0.6c0.7-0.1,1.5-0.3,2.2-0.4c0.6-0.1,1.2-0.2,1.8-0.2c0.6-0.1,1.2-0.2,1.8-0.2
		c0.5-0.1,1-0.1,1.5-0.1c1.8-0.2,3.5-0.3,5.3-0.4c0.6,0,1.3,0,1.9-0.1c0.2,0,0.4,0,0.6,0c0.5,0,0.9,0,1.4,0c0.7,0,1.3,0,2,0
		c1.1,0,2.3,0.1,3.4,0.1c0.6,0,1.1,0.1,1.7,0.1c0.6,0,1.1,0.1,1.7,0.1c0.6,0.1,1.1,0.1,1.7,0.2c0.6,0.1,1.1,0.1,1.7,0.2
		c1.8,0.2,3.6,0.5,5.4,0.8c0.4,0.1,0.8,0.1,1.2,0.2c0.8,0.1,1.6,0.3,2.4,0.5l0.1,0c0.9,0.2,1.8,0.4,2.7,0.6c0.7,0.2,1.5,0.4,2.2,0.6
		c0.4,0.1,0.8,0.2,1.2,0.3c1,0.3,2,0.6,3,0.9c6.4,2.1,12.6,4.8,18.4,8.1c0.5,0.3,1,0.6,1.6,0.9c0.8,0.5,1.5,0.9,2.3,1.4
		c0.1,0.1,0.2,0.1,0.3,0.2c0.8,0.5,1.5,1,2.3,1.5c0.8,0.5,1.5,1,2.3,1.6c0.7,0.5,1.5,1.1,2.2,1.6c0.4,0.3,0.7,0.6,1.1,0.9
		c1,0.8,2.1,1.6,3.1,2.5c0.9,0.8,1.8,1.5,2.7,2.3c1,0.9,1.9,1.7,2.8,2.6c1.1,1.1,2.2,2.2,3.3,3.3c0.1,0.1,0.2,0.2,0.3,0.3
		c1,1.1,1.9,2.1,2.9,3.2c0.1,0.1,0.1,0.2,0.2,0.2c1.2,1.4,2.3,2.8,3.3,4.2c0.4,0.5,0.7,1,1.1,1.4c0.3,0.5,0.7,1,1,1.4
		c0.4,0.5,0.7,1,1,1.5c2.3,3.5,4.4,7,6.3,10.8C311.5,300,311.9,300.8,312.3,301.7z M421.8,72.1c0,0,0,0.1-0.1,0.1
		c-1.3,2.4-3.3,4.4-5.9,5.6c-0.4,0.2-0.8,0.4-1.2,0.5c-0.3,0.1-0.7,0.2-1.1,0.3c-0.4-1.4-0.7-2.9-1.1-4.3c-0.2-0.7-0.3-1.3-0.5-2
		c-0.1-0.4-0.2-0.8-0.3-1.2c-0.2-0.8-0.3-0.8,0.5-1.2c0.3-0.1,0.6-0.3,0.9-0.4c0.6-0.3,1.2-0.5,1.8-0.8c0.5-0.2,1.1-0.5,1.6-0.7
		c1.1-0.6,2.2-1.2,3-2.1c0,0,0.1,0,0.1-0.1c0.1-0.1,0.2-0.2,0.3-0.3c0.1-0.1,0.1-0.1,0.2-0.2c0.1-0.2,0.2-0.3,0.3-0.4
		c0.6-0.9,0.7-1.9,0.5-2.9c0-0.1,0-0.3-0.1-0.4c0-0.2-0.1-0.3-0.1-0.5c0-0.2-0.1-0.4-0.2-0.6c-0.1-0.3-0.2-0.6-0.4-0.9
		c0,0-0.1-0.1-0.1-0.2c-0.1-0.2-0.2-0.3-0.3-0.5c0-0.1-0.1-0.2-0.1-0.2c0,0,0,0,0,0c-0.2-0.3-0.3-0.6-0.5-0.9
		c-0.2-0.3-0.4-0.6-0.6-0.8c-0.1-0.1-0.1-0.2-0.2-0.3c-0.1-0.2-0.3-0.5-0.4-0.6c-0.1-0.4-0.3-0.4-0.6-0.1c-0.1,0.1-0.3,0.2-0.4,0.2
		c-0.5,0.3-1.1,0.7-1.6,1c-0.1,0.1-0.2,0.1-0.2,0.2c-1,0.6-2,1.3-3,1.9c-0.5,0.3-1.1,0.7-1.6,1c-0.5,0.3-1,0.6-1.5,0.9
		c-0.6,0.3-1.2,0.6-1.7,0.7c-0.1,0-0.2,0-0.3,0c-0.2,0-0.4,0-0.6-0.1c-0.1,0-0.2-0.1-0.3-0.1c-0.1,0-0.1-0.1-0.2-0.1
		c-1-0.5-1.7-1.5-2.4-2.3c-0.2-0.2-0.3-0.4-0.5-0.6c-0.1-0.1-0.3-0.3-0.4-0.4c-0.3-0.4-0.7-0.7-1.1-1.1c-1.5-1.5-3.1-3-4.8-4.4
		c-1-0.9-2.1-1.7-3.1-2.5c-0.8-0.6-1.6-1.2-2.5-1.8c-0.4-0.2-0.7-0.5-1.1-0.7c-0.6-0.4-1.2-0.8-1.8-1.2c-0.8-0.5-1.7-1.1-2.5-1.6
		c-0.5-0.3-1-0.6-1.6-0.9c-0.6-0.4-1.2-0.7-1.8-1c-0.8-0.5-1.6-0.9-2.4-1.3c-0.3-0.2-0.6-0.4-1-0.5c-1.4-0.8-2.9-1.6-4.3-2.3
		c-0.2-0.1-0.3-0.1-0.5-0.2c-0.3-0.1-0.7-0.3-1-0.3c-0.5-0.2-1-0.3-1.5-0.4c1.9,1.3,3.8,2.5,5.7,3.8c2.7,1.8,5.4,3.6,8,5.6
		c0.2,0.1,0.3,0.2,0.5,0.4c0.7,0.5,1.4,1,2,1.6c0.4,0.3,0.8,0.7,1.3,1c0.4,0.3,0.8,0.7,1.2,1c0.4,0.3,0.8,0.7,1.2,1.1
		c0.6,0.5,1.2,1.1,1.8,1.6c0.6,0.6,1.2,1.1,1.7,1.7c0.4,0.4,0.7,0.8,1.1,1.2c0.4,0.4,0.7,0.8,1.1,1.2c0.1,0.1,0.2,0.2,0.3,0.3
		c2.7,3,5.4,6.4,7.2,10.1c0.1,0.2,0.2,0.5,0.3,0.7c0.2,0.5,0.4,1,0.6,1.4c0.2,0.4,0.3,0.9,0.5,1.4c0,0,0,0.1,0.1,0.2
		c0.2,0.7,0.4,1.5,0.5,2.2c0.1,0.2,0.1,0.5,0.1,0.8c0.1,1,0.2,2,0.2,3c-0.1,2.9-0.9,5.5-2,8.1c0,0,0,0.1-0.1,0.1
		c-0.4,0.9-0.8,1.9-1.3,2.8c-1.1,2.3-2.2,4.6-3.3,6.8c-4.2,8.8-8.5,17.5-12.7,26.3c-1,2.1-2.1,4.3-3.1,6.4l-7.3,15.2
		c-5,10.3-9.9,20.7-14.9,31.1c-1,2.1-2.1,4.3-3.1,6.4c-8.5,17.6-16.9,35.3-25.4,52.9c-4.2,8.7-8.4,17.4-12.5,26.1
		c-0.2,0.3-0.3,0.7-0.5,1c-3.5,7.3-6.8,14.7-10.5,21.9c-0.1,0.1-0.2,0.3-0.2,0.5c-0.4,0.8-0.8,1.5-1.2,2.3c-1-1.4-2.1-2.7-3.2-4.1
		c-0.4-0.6-0.9-1.2-1.3-1.8c-0.1-0.1-0.1-0.2-0.2-0.3c0-0.1-0.1-0.1-0.1-0.2c0,0,0,0,0-0.1l-0.2-0.2c-0.1-0.1-0.1-0.2-0.2-0.2
		c0,0,0-0.1-0.1-0.1c-0.1-0.1-0.2-0.3-0.3-0.4c-0.2-0.2-0.3-0.5-0.4-0.8c-0.3-1.2,0.5-2.7,1-3.7c0.8-1.7,1.6-3.3,2.4-5
		c3.2-6.8,6.5-13.6,9.7-20.5c2.4-5.1,4.8-10.1,7.3-15.2c1.6-3.4,3.2-6.8,4.9-10.2c2.4-5.1,4.9-10.2,7.4-15.3
		c4.2-8.7,8.4-17.4,12.7-26.1c3.2-6.5,6.3-13,9.5-19.5c5.8-11.9,11.6-23.7,17.4-35.6c1.6-3.4,3.3-6.7,4.9-10.1
		c0.8-1.7,1.7-3.4,2.5-5.1c0.1-0.3,0.3-0.5,0.4-0.8c0.1-0.1,0.1-0.2,0.2-0.3c0.8-1.6,1.5-3.3,2.4-4.8c0.5-1,1.1-2,1.8-3
		c0.4-0.6,0.8-1.1,1.2-1.6c0.1-0.1,0.2-0.2,0.3-0.3c0.4-0.5,0.8-0.9,1.2-1.4c0.2-0.3,0.5-0.5,0.8-0.8c0.7-0.7,1.5-1.4,2.3-2.1
		c1.2-0.9,2.5-1.7,3.8-2.5c1.5-0.9,1.7-1.9,2.2-3.5c-0.5-0.1-1.1-0.4-1.7-0.4c-0.5,0-0.9,0.1-1.4,0.2c-1.3,0.2-2.6,0.4-3.9,0.6
		c-0.5,0-0.9,0.1-1.4,0.1c-0.5,0-1.1,0.1-1.6,0.1c-0.5,0-1.1,0-1.6,0c-1.5,0-3-0.1-4.5-0.2c-0.1,0-0.3,0-0.4,0
		c-0.7-0.1-1.5-0.2-2.2-0.3l-0.3,0c-2.2-0.3-4.5-0.8-6.7-1.4c-0.2,0-0.3-0.1-0.5-0.1c-0.7-0.2-1.3-0.4-2-0.6
		c-0.8-0.2-1.6-0.5-2.4-0.8c-0.6-0.2-1.2-0.4-1.8-0.6c-0.6-0.2-1.2-0.4-1.8-0.7c-1.1-0.4-2.1-0.9-3.2-1.3c0,0,0,0,0,0
		c-0.1,0-0.1-0.1-0.2-0.1c-0.8-0.3-1.6-0.9-2.4-1.2l0,0c-0.1,0-0.2-0.1-0.3-0.1c-0.1,0-0.2,0-0.2-0.1c0,0-0.1,0-0.1,0
		c-0.1,0-0.2,0-0.3,0c-0.2,0-0.3,0-0.5,0c-0.2,0-0.4,0-0.6,0.1c-0.7,0.1-0.7,0.1-0.7,0.8c0,0.4,0.1,0.8,0.2,1.2
		c0,0.1,0.1,0.2,0.1,0.3c0.1,0.2,0.2,0.4,0.3,0.6c0.1,0.1,0.1,0.2,0.2,0.3c0.1,0.1,0.2,0.2,0.3,0.3c0.1,0.2,0.3,0.4,0.4,0.5
		c0.2,0.2,0.3,0.4,0.5,0.6c0.2,0.2,0.3,0.4,0.5,0.6c0.3,0.4,0.6,0.9,0.8,1.3c0.5,0.9,0.9,1.9,1.1,2.9c0,0.1,0.1,0.3,0.1,0.4
		c0.1,0.2,0.1,0.5,0.1,0.7c0.1,0.7,0.2,1.4,0.2,2.2c0,1-0.1,1.9-0.3,2.8c0,0.1,0,0.2-0.1,0.3c-0.5,1.9-1.3,3.7-2.2,5.4
		c-0.1,0.2-0.2,0.4-0.3,0.6c-0.1,0.2-0.2,0.4-0.3,0.6c-0.3,0.6-0.7,1.3-1,1.9c-1.1,2.2-2.2,4.4-3.3,6.6c-4.4,8.9-8.8,17.7-13.2,26.6
		c-8.8,17.7-17.5,35.5-26.2,53.2c-2.2,4.4-4.3,8.8-6.5,13.2c-1.1,2.2-2.2,4.4-3.2,6.5c-0.2,0.5-0.5,1-0.7,1.4c0,0.1-0.1,0.1-0.1,0.2
		c-0.3,0.5-0.4,0.6-0.1,0.8c0,0,0,0,0,0c0,0,0.1,0.1,0.2,0.1c0,0,0,0,0,0c0,0,0.1,0,0.1,0.1c0.8,0.4,1.5,0.9,2.2,1.4
		c0.7,0.5,1.4,1,2,1.6c0.6,0.5,1.3,1.1,1.9,1.7c1.3,1.4,2.4,2.9,3.3,4.5c0.2,0.3,0.3,0.7,0.5,1c0.1,0.3,0.3,0.7,0.4,1
		c1,2.5,1.4,5.1,1.3,7.8c0,0.4-0.1,0.8-0.1,1.2l0,0.3c0,0.2,0,0.4-0.1,0.5c0,0.2-0.1,0.4-0.1,0.5l0,0.1c0,0,0,0.1,0,0.1
		c0,0.2-0.1,0.5-0.2,0.7c0,0,0,0,0,0c0,0.2-0.1,0.5-0.2,0.7c0,0,0,0,0,0c-0.1,0.5-0.3,1-0.4,1.4c0,0,0,0,0,0
		c-0.1,0.2-0.2,0.5-0.3,0.7c0,0,0,0,0,0c-0.1,0.2-0.2,0.5-0.3,0.7c0,0,0,0,0,0c-0.2,0.5-0.4,0.9-0.6,1.4c-0.5,1-1,1.9-1.6,2.8
		c-0.1,0.2-0.3,0.5-0.5,0.7c-0.1,0.1-0.1,0.1-0.1,0.2c-0.2,0.2-0.3,0.5-0.5,0.7c-0.4,0.5-0.8,1-1.3,1.5c-0.2,0.2-0.3,0.3-0.5,0.5
		c-0.2,0.2-0.4,0.4-0.6,0.6c-0.1,0.1-0.1,0.1-0.2,0.2c0,0.1-0.1,0.1-0.2,0.2c0,0-0.1,0.1-0.1,0.1c-0.2,0.2-0.4,0.3-0.6,0.5
		c0,0-0.1,0-0.1,0.1c-0.3,0.2-0.6,0.5-0.9,0.7c-0.3,0.2-0.5,0.3-0.8,0.5c-0.3,0.2-0.5,0.3-0.8,0.5c-0.2,0.1-0.3,0.2-0.5,0.3
		c-2.2,1.1-4.6,1.7-7,1.8c-0.4,0-0.7,0-1.1,0c-2.6,0-5.3-0.6-7.7-1.7c-0.3-0.1-0.6-0.3-0.9-0.4c0,0-0.1,0-0.1,0
		c-0.3-0.1-0.6-0.3-0.8-0.4c-0.3-0.2-0.7-0.3-1-0.5c-1,1.9-2,3.7-3,5.5c-0.8-0.5-1.6-1.1-2.4-1.6c-0.1-0.1-0.2-0.1-0.2-0.2
		c-0.6-0.4-1.2-0.7-1.7-1.1c-0.5-0.3-1.1-0.7-1.6-1c-1-0.6-2-1.1-2.9-1.7c-1.7-1-3.5-1.9-5.3-2.8c-4.3-2.1-8.8-3.9-13.3-5.4
		c-0.9-0.3-1.9-0.6-2.8-0.9c-0.6-0.2-1.3-0.4-2-0.6c-0.8-0.2-1.5-0.4-2.3-0.6c-0.6-0.1-1.2-0.3-1.7-0.4c0,0-0.1,0-0.1,0
		c-9.2-2.2-18.8-3.1-28.3-2.8c-1.6,0.1-3.3,0.1-4.9,0.3c0.4-1,0.9-2,1.3-3c0.1-0.3,0.3-0.6,0.4-0.9c0.2-0.4,0.4-0.9,0.6-1.3
		c3-6.2,5.9-12.3,8.9-18.5c3.9-8.2,7.9-16.4,11.8-24.5l23.5-48.9c7.8-16.4,15.7-32.7,23.6-49.1c1.2-2.4,2.3-4.8,3.5-7.2
		c7.1-14.7,14-29.6,21.2-44.2c0-0.1,0.1-0.1,0.1-0.2c0.5-1,1-2.1,1.6-3.1c0.2-0.3,0.4-0.7,0.5-1c0,0,0-0.1,0.1-0.1
		c0.1-0.3,0.3-0.5,0.5-0.8c0.2-0.4,0.5-0.7,0.7-1.1c0.2-0.3,0.4-0.6,0.6-0.8c0,0,0,0,0.1-0.1c0.2-0.2,0.4-0.5,0.6-0.7
		c0.3-0.4,0.7-0.7,1-1c0.1-0.1,0.3-0.3,0.5-0.4c0.2-0.2,0.3-0.3,0.5-0.4c0.3-0.2,0.5-0.4,0.8-0.6c0,0,0.1-0.1,0.1-0.1
		c0.3-0.2,0.6-0.4,1-0.6c0.3-0.2,0.5-0.3,0.8-0.4c0.1-0.1,0.3-0.1,0.4-0.2c2.4-1.1,5-1.7,7.6-2.1c8.4-1.3,16.7,0,25,1.3
		c-3.1-1-6.2-2-9.4-2.9c-0.5-0.1-1-0.3-1.5-0.4c-0.5-0.1-1-0.3-1.5-0.4c-0.5-0.1-1-0.2-1.5-0.3c-0.5-0.1-1-0.2-1.5-0.3
		c-1.2-0.2-2.3-0.4-3.5-0.5c-0.4,0-0.7-0.1-1-0.1c-0.2,0-0.5,0-0.7-0.1c-0.2,0-0.5,0-0.7-0.1c-0.4,0-0.9-0.1-1.3-0.1
		c-0.3,0-0.7,0-1,0c-0.9,0-1.8,0-2.7,0.1c-0.4,0-0.9,0.1-1.3,0.1c-0.9,0.1-1.7,0.2-2.6,0.3c-1.7,0.3-3.4,0.7-5,1.3
		c-0.5,0.2-0.9,0.3-1.4,0.5c-0.4,0.1-0.8,0.3-1.2,0.5c-0.1,0-0.2,0.1-0.3,0.1c-0.5,0.2-1,0.6-1.6,0.8c-0.2,0.1-0.4,0.2-0.6,0.2
		c-0.1,0-0.1,0-0.1,0c-0.2,0.1-0.2,0.1-0.2,0c0,0-0.1-0.1-0.2-0.2c0,0,0,0,0,0c0-0.1-0.1-0.1-0.1-0.2c-0.1-0.2-0.2-0.5-0.3-0.8
		c0,0,0-0.1-0.1-0.1c0-0.1,0-0.1-0.1-0.2c-0.1-0.4-0.2-0.7-0.3-1.1c0-0.2-0.1-0.3-0.1-0.5c0-0.1,0-0.2,0-0.2
		c-0.1-0.5-0.1-1.1-0.1-1.7l0,0c0-1.4,0.2-2.7,0.6-4c0.1-0.3,0.2-0.6,0.3-0.9c0.1-0.2,0.2-0.4,0.2-0.6c0.1-0.2,0.1-0.3,0.2-0.5
		c0.1-0.3,0.3-0.5,0.4-0.8c0-0.1,0.1-0.1,0.1-0.2c0.2-0.3,0.4-0.6,0.6-0.9c1.3-1.8,3.2-3.1,5.2-4.2c2.2-1.2,4.6-1.9,7.1-2.4
		c4.7-1,9.8-1,14.5-0.7c0.2,0,0.5,0,0.7,0.1c0.6,0,1.1,0.1,1.7,0.1c13.8,1.3,27.4,6.2,39.8,12.4c0.8,0.4,1.6,0.8,2.3,1.2
		c0.1,0,0.1,0.1,0.2,0.1c1.5,0.8,3,1.6,4.4,2.4c0,0,0.1,0,0.1,0.1c10.4,5.9,20.1,13.4,27.7,22.6c0.3,0.3,0.6,0.6,0.8,1
		c0.5,0.6,1,1.3,1.5,2c3.4,4.6,6.2,10.2,6.3,15.9C423.2,68.4,422.7,70.3,421.8,72.1z"/>
	<path d="M321.2,354.1c0-0.1,0-0.3,0-0.4c0,0.5-0.1,0.9-0.1,1.4C321.2,354.7,321.2,354.4,321.2,354.1z M321.6,339.8
		c0.1,3.6,0.1,7.2-0.1,10.8C321.7,347,321.8,343.4,321.6,339.8z M308.4,355.2c-0.2,1.4-0.3,2.7-0.5,4.1
		C308.1,357.9,308.3,356.6,308.4,355.2z M296.3,394c1.1-1.3,2.1-2.6,3-4c0.2-0.3,0.5-0.7,0.7-1C298.9,390.8,297.7,392.4,296.3,394z
		 M307.3,327.4c0,0,0-0.1,0-0.1c0.1,0.6,0.2,1.2,0.4,1.8C307.5,328.6,307.4,328,307.3,327.4z M310.7,298.3c-1.8-3.4-3.8-6.8-6-10
		c2.3,3.5,4.4,7,6.3,10.8C311,298.8,310.8,298.6,310.7,298.3z M291.5,388.2c-0.1,0-0.2,0.1-0.4,0.2c0.3-0.1,0.7-0.2,1-0.3
		c0.2,0,0.4-0.1,0.6-0.1C292.3,388,291.9,388.1,291.5,388.2z M287.3,390.7c0.3-0.2,0.6-0.4,0.9-0.6c0.5-0.3,1-0.7,1.5-1
		C288.9,389.6,288,390.2,287.3,390.7z M288.8,302.1c1.6,2.2,3.1,4.6,4.5,7c3.7,6.4,6.5,13.3,8.6,20.4
		C299,319.7,294.8,310.2,288.8,302.1z M273.2,414.6c0.1,0.1,0.2,0.1,0.3,0.2c0.1,0.1,0.7,0.2,1.4,0.4
		C274.2,415,273.5,414.8,273.2,414.6z M287.6,317.6c0,2.8-0.1,5.6-0.3,8.4C287.5,323.2,287.6,320.4,287.6,317.6z M275.5,369.1
		c0.1-0.2,0.2-0.5,0.3-0.7c0.1-0.2,0.2-0.4,0.3-0.6C275.9,368.2,275.7,368.7,275.5,369.1z M268.6,382.4c2.6-4.3,4.8-8.8,6.9-13.3
		C273.4,373.6,271.1,378.1,268.6,382.4z M250,439.9c0.3-0.1,0.7-0.2,1-0.3c0.4-0.1,0.8-0.3,1.1-0.4
		C251.4,439.5,250.7,439.7,250,439.9z M246.5,440.9c1.2-0.3,2.3-0.6,3.5-0.9C248.8,440.3,247.7,440.6,246.5,440.9z M247,392.4
		c0.1-0.1,0.2-0.2,0.3-0.3c0.5-0.5,1-1.1,1.5-1.7C248.2,391.1,247.6,391.7,247,392.4z M266.4,254.7c-4.4-2.2-9.1-4.1-13.8-5.6
		c6.4,2.1,12.6,4.8,18.4,8.1C269.6,256.3,268,255.5,266.4,254.7z M198.8,437.3c-0.2-0.1-0.4-0.1-0.6-0.2c-0.8-0.2-1.6-0.5-2.4-0.7
		c4.1,1.4,8.2,2.5,12.5,3.3c9.1,1.7,18.4,2.1,27.5,0.7c0.6-0.1,1.3-0.2,1.9-0.3c0.4-0.1,0.9-0.2,1.3-0.3
		C225.6,442.3,211.9,441.2,198.8,437.3z M221.9,434.3c2.8,0,5.5-0.1,8.3-0.3c3.4-0.3,6.8-0.8,10.1-1.5
		C234.3,433.7,228.1,434.3,221.9,434.3z M228.2,368.8c0-1.5-0.3-3-0.8-4.3c0.5,1.5,0.8,3,0.8,4.6
		C228.2,368.9,228.2,368.9,228.2,368.8z M244.9,254.3c-7.3-1.9-14.7-2.8-22.2-2.7c7.8,0,15.6,0.9,23.2,3
		C245.5,254.5,245.2,254.4,244.9,254.3z M214.1,422.8c0.2,0,0.4-0.1,0.7-0.1c0.2,0,0.5-0.1,0.7-0.1
		C215.1,422.6,214.6,422.7,214.1,422.8z M221.8,367.4c-0.2-1-0.5-1.9-0.9-2.7c0.6,1.2,1,2.6,1.1,3.9
		C221.9,368.2,221.8,367.8,221.8,367.4z M235.3,271.6c-2.7-1.5-5.4-3.1-7.9-4.8c3,2.1,6.3,4,9.6,5.8
		C236.4,272.3,235.8,272,235.3,271.6z M204.7,442.4c1.1,0.2,2.3,0.4,3.4,0.5C207,442.8,205.8,442.6,204.7,442.4z M206.2,423.3
		c0.1,0.2,0.2,0.3,0.4,0.3C206.4,423.6,206.3,423.5,206.2,423.3z M213.3,374.6c-0.4,0.2-0.8,0.4-1.3,0.5c1.3-0.3,2.8-1.1,3.2-2.1
		C215,373.7,214,374.3,213.3,374.6z M210.7,375.4c0.1,0,0.1,0,0.2,0c0.2,0,0.4,0,0.7-0.1C211.3,375.3,211,375.4,210.7,375.4z
		 M208.2,385.9c0.1,0,0.1,0,0.2,0c4.1,0.6,8.2-0.4,11.6-2.6C216.6,385.5,212.3,386.6,208.2,385.9z M194.6,430.7
		c1.7,0.4,3.4,0.9,5.1,1.2C197.9,431.5,196.2,431.1,194.6,430.7z M192.2,439.4c0.8,0.3,1.6,0.5,2.4,0.7c0.2,0.1,0.4,0.1,0.6,0.2
		C194.1,440,193.2,439.7,192.2,439.4z M201.9,374.7c-0.9-1.2-1.7-2.4-2.6-3.6c1.6,2.1,3,4.6,5,6.3c1.1,0.9,2.2,1.6,3.5,2
		C205.5,378.5,203.5,376.8,201.9,374.7z M204.6,370.6c-0.6-0.8-1.2-1.6-1.8-2.5c1,1.4,2,2.9,3.1,4.3
		C205.4,371.9,205,371.2,204.6,370.6z M219.8,260.1c0.1,0.1,0.2,0.2,0.3,0.4c0.1,0.1,0.1,0.1,0.2,0.2
		C220.2,260.5,220,260.3,219.8,260.1z M206.7,261.5c-0.2,2.6-1.3,4.9-3.1,6.9c0,0,0.1,0,0.1-0.1
		C205.5,266.4,206.5,264.1,206.7,261.5z M206.3,245.6c-0.3,0-0.5,0.1-0.8,0.1c0.7-0.1,1.5-0.3,2.2-0.4
		C207.3,245.4,206.8,245.5,206.3,245.6z M199.3,264.5c-0.6,0.6-1.3,1.1-2,1.6c1-0.7,2-1.4,2.8-2.3
		C199.8,264.1,199.5,264.3,199.3,264.5z M198.3,258.9c0.1,0,0.1,0.1,0.2,0.1c0.6,0.3,1.3,0.7,1.9,1.2
		C199.8,259.6,199,259.2,198.3,258.9z M196.8,247.6c1.8-0.5,3.6-0.9,5.4-1.3C200.5,246.7,198.6,247.1,196.8,247.6z M167,412.1
		c0.4,0.2,0.8,0.4,1.2,0.6c0.3,0.1,0.6,0.3,0.9,0.4C168.4,412.7,167.7,412.4,167,412.1z M184.7,293c0,0,0-0.1,0-0.1
		c0,0.2,0,0.4,0,0.6C184.7,293.3,184.7,293.1,184.7,293z M184.1,287.5c0.4,1.5,0.6,3.1,0.6,4.7C184.7,290.5,184.5,289,184.1,287.5z
		 M181.4,304.2c1.4-2.4,2.4-5,2.9-7.7C183.7,299.2,182.8,301.8,181.4,304.2z M185,270.3c-1.5,0.2-3.9,0.6-5.4-0.2
		c1.7,1,4.4,0.4,6.3,0.1C185.5,270.3,185.3,270.3,185,270.3z M181.8,275.1c1.6,0.3,3.2,0.3,4.9,0.3
		C185.1,275.5,183.4,275.4,181.8,275.1z M175.8,317.3c0,0-0.1,0-0.1-0.1c0,0.1,0.1,0.1,0.2,0.2c0.1,0.1,0.1,0.1,0.2,0.2
		C176.1,317.5,176,317.3,175.8,317.3z M175.3,317.3c0.1,0,0.2-0.1,0.2-0.1C175.5,317.2,175.4,317.2,175.3,317.3z M179.2,274.6
		c0.1,0,0.1,0,0.2,0.1c0.1,0,0.3,0.1,0.4,0.1C179.6,274.7,179.4,274.6,179.2,274.6z M170.6,323.7c-0.4-0.5-0.9-1.1-1.2-1.7
		c0.3,0.7,0.9,1.3,1.4,1.9C170.7,323.8,170.6,323.8,170.6,323.7z M178.8,269.5c0,0.1,0.1,0.1,0.2,0.2c0,0,0,0,0,0
		C179,269.6,178.9,269.6,178.8,269.5z M175.3,276.5c0.6,0.3,1.2,0.7,1.8,1.1C176.5,277.2,175.9,276.8,175.3,276.5z M172.8,273
		c0.1-0.1,0.2-0.1,0.3-0.2c0.2-0.1,0.3-0.2,0.4-0.3C173.3,272.7,173.1,272.8,172.8,273z M164.4,323.2c0.1,0,0.1,0,0.1,0
		C164.5,323.2,164.5,323.2,164.4,323.2z M162.2,323.9c0.3-0.1,0.5-0.2,0.8-0.2c0.4-0.1,0.8-0.3,1.2-0.4
		C163.6,323.3,162.8,323.7,162.2,323.9z M133.2,354.9c-0.2-1.3-0.3-2.5-0.5-3.8c0,0.4,0.1,0.7,0.1,1.1c0.2,1.6,0.2,3.7,0.9,5.4
		C133.4,356.7,133.3,355.8,133.2,354.9z M136.3,312.7c-0.1-0.2-0.1-0.4-0.2-0.6c0.2,0.6,0.3,1.2,0.3,1.9c-0.1,0.6-0.2,1.3-0.4,1.9
		C136.4,314.8,136.6,313.7,136.3,312.7z M134.8,319.8c-0.1,0.2-0.1,0.4-0.1,0.6c0.1-0.4,0.2-0.8,0.3-1.2
		C135,319.4,134.9,319.6,134.8,319.8z M123.6,359.9c0.3,1.6,0.6,3.3,0.9,4.9C124.2,363.2,123.9,361.6,123.6,359.9z M123,355
		c0,0.1,0,0.2,0,0.3c0,0.4,0.1,0.8,0.2,1.2C123.1,356,123,355.5,123,355z"/>
	<path d="M214.7,235.9c0.2-0.4,0.4-0.9,0.6-1.3c3-6.2,5.9-12.3,8.9-18.5C221,222.7,217.7,229.2,214.7,235.9z M235.3,226.2
		c0.1,0,0.2-0.1,0.3-0.3C235.5,226.1,235.4,226.1,235.3,226.2z M237.5,222.5c-0.3,0.6-0.6,1.1-0.9,1.7c0.4-0.8,0.9-1.6,1.3-2.4
		C237.8,222,237.6,222.2,237.5,222.5z M245.3,227.8c-0.8,1.9-1.6,3.8-2.3,5.7c0.9-2.2,1.7-4.5,2.7-6.7
		C245.6,227.1,245.4,227.5,245.3,227.8z M258.8,207.1c2.4-4.8,4.8-9.6,7.1-14.4C263.6,197.5,261.2,202.3,258.8,207.1z M268.4,250.2
		c-4.3-2.1-8.8-3.9-13.3-5.4c6.4,2.2,12.6,4.9,18.6,8.2C271.9,252.1,270.2,251.1,268.4,250.2z M309.3,28.3c0.1,0.1,0.1,0.2,0.2,0.2
		C309.5,28.4,309.4,28.4,309.3,28.3z M310.5,28.1c0.5-0.2,1.1-0.6,1.6-0.8C311.6,27.6,311.1,27.9,310.5,28.1z M275.9,238.5
		c-1.5-5.9,0.2-12.1,4.2-16.7c0.2-0.3,0.5-0.5,0.7-0.8c-2.6,2.6-4.4,6.1-5.1,9.7c-1,5,0.2,11.4,4.2,15
		C277.8,243.8,276.5,241.1,275.9,238.5z M311.9,34.7c0,0-0.1,0.1-0.1,0.2c0.2-0.2,0.4-0.5,0.6-0.7C312.2,34.3,312.1,34.5,311.9,34.7
		z M289,145.9c0.9-1.9,1.8-3.7,2.8-5.6c2-4.1,4.1-8.3,6.1-12.4C294.9,133.8,291.9,139.9,289,145.9z M279.3,137.6
		c4.5-9.3,9.1-18.7,13.6-28.1c5.4-11.1,10.8-22.2,16.2-33.3C299.2,96.7,289.3,117.1,279.3,137.6z M286.4,221.4
		C286.4,221.4,286.4,221.3,286.4,221.4C286.4,221.3,286.4,221.3,286.4,221.4z M285.4,217.7c-0.7,0.3-1.4,0.8-2.1,1.2
		c2.1-1.4,4.4-2.2,6.9-2.5C288.6,216.6,286.9,217,285.4,217.7z M287.5,220.6c0.1-0.1,0.2-0.1,0.3-0.2c0.1-0.1,0.2-0.1,0.4-0.2
		C287.9,220.3,287.7,220.5,287.5,220.6z M312,14.2c-0.5,0.5-0.9,1-1.3,1.5c1.3-1.8,3.2-3.1,5.2-4.2c2.2-1.2,4.6-1.9,7.1-2.4
		C318.9,9.8,315,11.3,312,14.2z M288.1,221.4c-0.2,0.1-0.9,0.7-1.2,0.8c0.5-0.1,1.9-1.2,2.4-1.5
		C288.9,220.9,288.5,221.1,288.1,221.4z M324,52.6c-0.3,0.1-0.5,0.5-0.4,1.1c0,0.1,0.1,0.2,0.1,0.4c-0.1-0.2-0.1-0.4-0.1-0.7
		C323.7,53,323.8,52.8,324,52.6z M291.9,252.9c0,0,0.1,0,0.1,0c0.2,0,0.3,0.1,0.5,0.1C292.3,253,292.1,252.9,291.9,252.9z
		 M297.7,218.4c-0.2,0-0.4,0-0.6,0c0.4,0,0.8,0,1.2,0C298.1,218.4,297.9,218.4,297.7,218.4z M294.3,218.8c0.9-0.2,1.9-0.3,2.8-0.4
		C296.1,218.4,295.2,218.5,294.3,218.8z M324.2,57c-0.1,0.3-0.3,0.7-0.4,1c0.2-0.4,0.4-0.9,0.6-1.3C324.3,56.8,324.3,56.9,324.2,57z
		 M324.4,56.5c0-0.1,0.1-0.1,0.1-0.2l0-0.2C324.5,56.3,324.4,56.4,324.4,56.5z M326.9,35.2c0.4,1.5,0.8,2.9,0.1,4.4
		c-0.4,0.9-0.9,1.7-1.3,2.6c0.6-1.1,1.2-2.1,1.6-3.3C327.7,37.7,327.2,36.5,326.9,35.2z M294.6,253.2c0.7,0,1.4,0,2.1-0.1
		C296,253.1,295.3,253.2,294.6,253.2z M288.4,254.4c0.7,0.3,1.4,0.6,2.1,0.8c1.9,0.6,3.8,0.9,5.7,0.9
		C293.5,256,290.9,255.4,288.4,254.4z M304.4,220.2c0.6,0.3,1.2,0.7,1.8,1.2C305.7,221,305.1,220.6,304.4,220.2z M304.3,279.5
		C304.3,279.5,304.3,279.5,304.3,279.5c0,0,0.1,0.1,0.1,0.2C304.4,279.6,304.4,279.6,304.3,279.5z M311.9,231.2
		c0.3,2.3,0.2,4.5-0.2,6.7C312.2,235.7,312.2,233.5,311.9,231.2z M311.8,230.8c0,0,0-0.1,0-0.2c0,0.1,0,0.2,0.1,0.3
		C311.9,231,311.9,230.9,311.8,230.8z M311.4,228.7c-0.6-2-1.6-3.8-3-5.3c1.5,1.7,2.6,3.7,3.2,6C311.5,229.2,311.4,229,311.4,228.7z
		 M315.9,234.2c-0.1-2.1-0.5-4.1-1.3-6c1,2.5,1.4,5.1,1.3,7.8C315.9,235.4,316,234.8,315.9,234.2z M344,28.6
		c-8-1.1-16.7-1.7-24.5,0.9c-0.7,0.2-1.3,0.5-2,0.8c2.4-1.1,5-1.7,7.6-2.1c8.4-1.3,16.7,0,25,1.3C348.1,29.2,346,28.9,344,28.6z
		 M339.1,67.4c2,1.3,4,2.6,6.1,3.8c2.8,1.6,5.6,3.1,8.5,4.4C348.6,73.3,343.8,70.5,339.1,67.4z M345.9,64.9c0.5,0.3,0.9,0.5,1.4,0.7
		c0.5,0.2,0.9,0.5,1.3,0.7C347.7,65.9,346.8,65.4,345.9,64.9z M357,85.8c0.1,0.2,0.2,0.4,0.3,0.6C357.2,86.2,357.1,86,357,85.8z
		 M360.6,91.7c-0.2-0.5-0.4-1-0.7-1.5c0.5,0.9,0.9,1.9,1.1,2.9C361,92.6,360.8,92.2,360.6,91.7z M358.9,104.9
		c0.5-1.1,1.1-2.1,1.5-3.2c0.3-0.7,0.5-1.4,0.7-2.2C360.6,101.4,359.8,103.2,358.9,104.9z M355.6,167.3c-2.3,4.8-4.7,9.7-7,14.5
		c3.2-6.5,6.3-13,9.5-19.5C357.2,164,356.4,165.6,355.6,167.3z M334.1,234.1c-4.2,8.7-8.4,17.4-12.5,26.1
		c5.2-10.9,10.5-21.8,15.7-32.8c7.4-15.4,14.8-30.8,22.2-46.2C351,198.9,342.6,216.5,334.1,234.1z M380.3,116.6
		c0.8-1.7,1.7-3.4,2.5-5.1c0.1-0.3,0.3-0.5,0.4-0.8L380.3,116.6z M383.2,90.8c0.7,0.1,1.4,0.1,2.1,0.2c0.8,0,1.6,0.1,2.4,0
		C386.2,91,384.7,90.9,383.2,90.8z M371.1,88.3c0.2,0.1,0.5,0.2,0.7,0.2c0.4,0.1,0.9,0.2,1.3,0.4C372.4,88.7,371.7,88.5,371.1,88.3z
		 M393.1,53.7c-0.5-0.5-1-0.9-1.5-1.3c0.6,0.5,1.2,1.1,1.8,1.6C393.3,53.9,393.2,53.8,393.1,53.7z M384.8,128.6l-7.3,15.2
		c3.5-7.2,6.9-14.4,10.4-21.6C386.8,124.3,385.8,126.5,384.8,128.6z M397.5,90c-0.5,0-0.9,0.1-1.4,0.2c1.2-0.2,1.9,0,3,0.2
		C398.6,90.3,398.1,90,397.5,90z M402.9,58.6c-0.1-0.1-0.3-0.3-0.4-0.4c0.3,0.3,0.6,0.7,0.9,1C403.3,59,403.1,58.8,402.9,58.6z
		 M403.9,89c-1.1,2.3-2.2,4.6-3.3,6.8c1.5-3.2,3.3-6.3,4.6-9.6C404.7,87.2,404.3,88.1,403.9,89z M406.6,72.9
		c-0.1-0.3-0.2-0.5-0.3-0.8c0.2,0.7,0.4,1.5,0.5,2.2C406.8,73.8,406.7,73.4,406.6,72.9z M409,61.1c-0.6,0.3-1.2,0.6-1.7,0.7
		c0.1,0,0.2,0,0.2,0c1.1-0.2,2.1-0.9,3-1.6C410,60.5,409.5,60.8,409,61.1z M418,56c0.1,0.1,0.1,0.2,0.2,0.3c0.1,0.1,0.2,0.2,0.2,0.3
		C418.3,56.4,418.1,56.1,418,56z M415.8,77.8c0.6-0.3,1.2-0.6,1.8-1c1.9-1.2,3.2-2.8,4.1-4.6C420.5,74.6,418.4,76.5,415.8,77.8z
		 M416.6,67.9c1.1-0.6,2.2-1.2,3-2.1C418.7,66.7,417.7,67.3,416.6,67.9z M421,61.9c0.1,1.2-0.1,2.3-0.9,3.3c0.1-0.2,0.2-0.3,0.3-0.4
		C421,63.9,421.1,62.9,421,61.9z"/>
	<path d="M132.9,452.4c-0.1,0.7-0.2,1.3-0.2,2C132.7,453.7,132.8,453.1,132.9,452.4z"/>
	<path d="M133.7,459.3c0,0,0,0.1,0,0.1c0-0.2,0-0.3,0-0.5C133.6,459.1,133.6,459.2,133.7,459.3z"/>
	<path d="M133.7,473.2c0.2,0,0.5-0.1,0.7-0.1C134.2,473.3,134,473.3,133.7,473.2z"/>
	<path d="M166.4,476.5c-6.2-2.4-12.5-5-18.2-8.5c-2.9-1.7-5.5-3.8-7.9-6.2c6.5,6.3,15.3,10.2,23.8,13.7
		C164.9,475.9,165.6,476.2,166.4,476.5z"/>
	<path d="M167.2,476.8c-0.3-0.1-0.5-0.2-0.8-0.3c0.6,0.2,1.3,0.5,1.9,0.7C168,477.1,167.6,477,167.2,476.8z"/>
	<path d="M187.8,483.4c-1.6-0.4-3.2-0.8-4.8-1.3C184.6,482.6,186.2,483,187.8,483.4z"/>
	<path d="M192.4,484.5c-0.7-0.2-1.4-0.3-2.1-0.5c0.8,0.2,1.6,0.4,2.4,0.6C192.6,484.5,192.5,484.5,192.4,484.5z"/>
	<path d="M153.1,475.8c13.1,6,26.9,10.3,41.1,12.6c-8.7-1.3-17.3-3.4-25.6-6.3C163.3,480.2,158.1,478.1,153.1,475.8z"/>
	<path d="M197.6,485.5c0.8,0.2,1.6,0.3,2.5,0.4l-0.5-0.1c-0.1,0-0.2,0-0.3-0.1C198.7,485.7,198.1,485.7,197.6,485.5z"/>
	<path d="M203.9,486.6c0.6,0.1,1.2,0.2,1.8,0.3c-0.5-0.1-1-0.1-1.5-0.2L203.9,486.6z"/>
	<path d="M216.9,488c0.6,0,1.2,0.1,1.9,0.1c-0.2,0-0.3,0-0.5,0C217.8,488.1,217.3,488.1,216.9,488z"/>
	<path d="M220.6,488.3c1.9,0.1,3.7,0.1,5.6,0.1C224.3,488.4,222.5,488.3,220.6,488.3z"/>
	<path d="M226.2,488.4c2.5,0,5,0,7.4-0.1C231.2,488.4,228.7,488.4,226.2,488.4z"/>
	<path d="M95.8,253.1c-0.2-1.6-0.6-3.3-0.2-5c0.1-0.4,0.2-0.8,0.4-1.2c0,0.2-0.1,0.3-0.1,0.5C95.2,249.4,95.6,251.1,95.8,253.1z"/>
	<path d="M98.6,241.7c-1,1.5-1.8,3-2.4,4.7c0.5-1.5,1.3-3,2.1-4.3C98.4,242,98.5,241.8,98.6,241.7z"/>
	<path d="M105.2,234c-2.1,2.1-4.1,4.3-5.8,6.7c-0.1,0.2-0.3,0.3-0.4,0.5C100.7,238.6,102.9,236.2,105.2,234z"/>
	<path d="M101.1,244.9c-0.5,0.8-1,1.6-1.4,2.4c-1.3,2.1-2.6,4.3-3.9,6.4c1.2-2.1,2.5-4.2,3.8-6.2
		C100.1,246.6,100.6,245.8,101.1,244.9z"/>
	<path d="M106.2,233c-0.4,0.3-0.7,0.7-1.1,1c0.1-0.1,0.3-0.3,0.4-0.4C105.8,233.4,106,233.2,106.2,233z"/>
	<path d="M105.1,251.2c-0.1,0-0.2,0-0.2-0.1C104.9,251.2,104.9,251.2,105.1,251.2z"/>
	<path d="M106,244.6c-0.8,1.1-2.7,3.7-3.8,4.8c0.1-0.2,0.3-0.4,0.3-0.5c0.4-0.5,0.8-1,1.2-1.5C104.5,246.5,105.2,245.6,106,244.6z"
		/>
	<path d="M106.2,250.1c-0.1,0.1-0.2,0.2-0.3,0.3C106,250.3,106,250.2,106.2,250.1C106.1,250.1,106.1,250.1,106.2,250.1z"/>
	<path d="M123.4,227.6c-0.1,0-0.1-0.1-0.2-0.3C123.3,227.5,123.3,227.6,123.4,227.6z"/>
	<path d="M124.7,227.7c-0.2,0-0.4,0-0.5,0c0.1,0,0.2,0,0.3,0C124.5,227.7,124.6,227.7,124.7,227.7z"/>
	<path d="M131.2,228.3C131.2,228.3,131.2,228.3,131.2,228.3c-0.2,0.2-0.7,0.4-1.1,0.5c0.3-0.1,0.6-0.2,0.9-0.4
		C131.1,228.3,131.1,228.3,131.2,228.3z"/>
	<path d="M131.3,228.1c0,0,0-0.1,0-0.1c0,0,0-0.1,0-0.1C131.4,227.9,131.4,228,131.3,228.1z"/>
	<path d="M131.6,231.8c0,0,0-0.1,0-0.1c0-0.5-1.1-0.3-1.5-0.3c-0.6,0-1.2-0.1-1.8-0.1c1,0,3.1-0.1,3.3,0.3
		C131.6,231.6,131.6,231.7,131.6,231.8z"/>
	<path d="M137.5,223.6c-1.8-0.9-3.1-1.9-5.1-2c-0.3,0-0.6,0-1,0c1,0,2.1-0.1,3,0.3C135.5,222.4,136.4,223.1,137.5,223.6z"/>
	<path d="M133.1,235.5c-0.2,0-0.4-0.1-0.6-0.1C132.8,235.4,133,235.4,133.1,235.5z"/>
	<path d="M133.4,235.9c0,0,0-0.1,0-0.2C133.4,235.8,133.4,235.8,133.4,235.9z"/>
	<path d="M140.1,454.5c0,0.1,0,0.1-0.1,0.1C140,454.6,140,454.7,140.1,454.5z"/>
	<path d="M141,456C141,456,141,456.1,141,456c-0.1-0.1-0.3-0.4-0.5-0.6C140.7,455.7,140.9,455.9,141,456z"/>
	<path d="M142,456.6C142,456.6,142,456.5,142,456.6c0,0.1-0.1,0.1-0.2,0.1C141.8,456.7,141.9,456.6,142,456.6z"/>
	<path d="M155.4,442c-0.1,0.8,0.2,1.5,0.1,2.3c0,0,0,0.1,0,0.1c0.1-0.7-0.1-1.4-0.1-2.1c0-0.5,0.2-1.1,0.4-1.6
		c-0.1,0.4-0.2,0.7-0.3,1.1L155.4,442z"/>
	<path d="M156.5,447.8c-0.2-0.2-0.4-0.1-0.8,0.2c-0.1,0-0.1,0.1-0.2,0.1c0.2-0.1,0.5-0.4,0.7-0.4
		C156.4,447.7,156.4,447.7,156.5,447.8z"/>
	<path d="M156.7,448.1c0,0-0.1-0.1-0.1-0.1c0.3,0.3,0.5,0.7,0.7,1C157.1,448.7,156.9,448.4,156.7,448.1z"/>
	<path d="M158.3,451.7c-0.7,0.7-1.7,1.2-2.5,1.8c0.4-0.3,0.9-0.6,1.3-0.9C157.5,452.3,158,452,158.3,451.7z"/>
	<path d="M158.5,450.8c0.1,0.2,0.2,0.3,0.2,0.4c0-0.1-0.1-0.1-0.1-0.3C158.6,450.9,158.5,450.9,158.5,450.8z"/>
	<path d="M170.7,459.1c2.1,0.9,4.3,1.6,6.4,2.4C175,460.8,172.8,460,170.7,459.1z"/>
	<path d="M194.6,466c2.5,0.5,5,1,7.6,1.4c-6.2-0.9-12.3-2.3-18.4-3.9C187.4,464.5,190.9,465.3,194.6,466z"/>
	<path d="M201.5,464c0.7,0.2,1.5,0.3,2.2,0.4c-0.6-0.1-1.2-0.2-1.8-0.3C201.8,464.1,201.6,464,201.5,464z"/>
	<path d="M230.7,467.3c2.1,0,4.1-0.1,6.2-0.2c-1.8,0.1-3.7,0.2-5.6,0.2C231.2,467.3,231,467.3,230.7,467.3z"/>
	<path d="M140.8,278.4c0.1-0.1,0.3-0.2,0.6-0.3c-0.2,0.1-0.4,0.2-0.5,0.3C140.9,278.4,140.9,278.4,140.8,278.4z"/>
	<path d="M141.9,277.8c0.1-0.1,0.3-0.1,0.4-0.2C142.2,277.7,142.1,277.8,141.9,277.8z"/>
	<path d="M144,279.7c-0.2-0.3-0.5-0.7-0.7-1c-0.1-0.1-0.6-0.9-0.7-1C143,277.8,143.7,279.2,144,279.7z"/>
	<path d="M189.9,443.7c1.8,0.6,3.6,1.1,5.4,1.6C193.5,444.9,191.7,444.3,189.9,443.7z"/>
	<path d="M131.6,261.2c-0.2,0.1-0.5,0.4-0.7,0.4c0.4-0.1,1-0.5,1.4-0.9C132.1,260.9,131.8,261.1,131.6,261.2z M138,241
		c0.5,2.9,0.8,5.8,0.7,8.7c-0.2,3.9-1.6,7.2-4.4,9.6c1.4-1.2,2.6-2.6,3.3-4.3C139.4,250.8,138.8,245.7,138,241z"/>
	<path d="M175,283.9c-0.5-0.7-1-1.4-1.6-2C174,282.5,174.5,283.2,175,283.9z"/>
	<path d="M176.7,291.2c0-0.5,0-1,0-1.6c0,0,0,0.1,0,0.1c0,0.7,0,1.5-0.1,2.2C176.7,291.7,176.7,291.5,176.7,291.2z"/>
	<path d="M256.8,485.8c-0.2,0.1-0.4,0.2-0.6,0C256.3,485.9,256.6,485.9,256.8,485.8z"/>
	<path d="M260.3,482.4c-0.6,0.5-1.3,1-1.9,1.5c-0.2,0.2-0.6,0.4-1.1,0.7C258.3,483.8,259.6,482.9,260.3,482.4z"/>
	<path d="M270.1,485.9c-0.1,0.4-0.1,0.7-0.2,1.1c0,0.1,0,0.1,0,0.2C269.9,486.8,270,486.4,270.1,485.9z"/>
	<path d="M212.2,458.3c0.3,0,0.5,0.1,0.6,0C212.8,458.4,212.5,458.4,212.2,458.3z"/>
	<path d="M214.4,448.6c-1.4-0.2-2.9-0.3-4.4-0.5c-0.3,0-0.5-0.1-0.8-0.1c0.2,0,0.4,0,0.6,0.1L214.4,448.6z"/>
	<path d="M212.9,458.3c0-0.1,0.1-0.3,0.1-0.6C213,458,212.9,458.2,212.9,458.3z"/>
	<path d="M228,371.6c-0.7,4.4-3.3,8.4-6.9,11c-0.3,0.3-0.7,0.5-1,0.7c-3.4,2.2-7.5,3.2-11.6,2.6c-0.3-0.1-0.7-0.1-1-0.2
		c-0.1,0-0.2,0-0.2,0c-0.3-0.1-0.5-0.1-0.8-0.2c-2.4-0.7-4.5-2-6.3-3.6c-0.2-0.2-0.5-0.4-0.7-0.6c-0.1-0.1-0.2-0.2-0.3-0.3
		c-0.2-0.2-0.4-0.4-0.6-0.6c-0.2-0.3-0.5-0.5-0.7-0.8c-0.4-0.5-0.7-0.9-1.1-1.4c-0.1-0.1-0.2-0.3-0.3-0.4c-4-5.5-8-11-12-16.5
		c-4.4-6.1-8.9-12.2-13.3-18.3c-1.6-2.2-3.3-4.5-4.9-6.7c-0.8-1.1-1.6-2.2-2.4-3.3c-0.8-1.1-1.6-2.3-2.4-3.4c-1.1-1.5-2.1-3-3.1-4.5
		c1.3-0.4,2.6-0.8,3.9-1.2c0.6-0.2,1.4-0.6,1.9-0.6c0,0,0.1,0,0.1,0c0.1,0,0.1,0,0.1,0c0,0,0,0,0,0c0.1,0,0.1-0.1,0.1,0
		c0,0,0,0,0.1,0.1c0,0,0.1,0.1,0.2,0.2c0.3,0.3,0.5,0.7,0.8,1.1c0.3,0.4,0.5,0.7,0.8,1.1c1.5,2,2.9,4.1,4.4,6.1
		c3.5,4.8,6.9,9.5,10.4,14.3c1.7,2.4,3.4,4.8,5.2,7.1c3.4,4.8,6.9,9.5,10.3,14.3c0.9,1.2,1.7,2.4,2.6,3.6c0.9,1.2,1.7,2.4,2.6,3.6
		c1.6,2.2,3.6,3.9,5.9,4.7c0.3,0.1,0.6,0.2,0.9,0.3c1.4,0.4,2.8,0.4,4.4,0c4.3-1,8.1-4.7,8.7-9.1c0-0.2,0.1-0.5,0.1-0.7c0,0,0,0,0,0
		l0,0c0-0.1,0-0.2,0-0.3c0,0,0,0,0-0.1c0-0.1,0-0.2,0-0.3c0-0.2,0-0.3,0-0.5c-0.1-1.4-0.5-2.7-1.1-3.9c-0.1-0.3-0.3-0.5-0.4-0.8
		c-1.3-2.3-3.1-4.4-4.6-6.5c-3.5-4.8-7-9.6-10.5-14.5l-11.8-16.3c-0.5-0.7-1-1.3-1.4-2c-2.5-3.5-4.9-7-7.5-10.3
		c-0.1-0.1-0.1-0.2-0.2-0.2c-0.3-0.4-0.6-0.8-0.9-1.2c-0.2-0.2-0.4-0.5-0.6-0.7c-0.4-0.4-0.7-0.9-1.1-1.3l3.7-5.8
		c0.8,1,1.6,1.9,2.3,2.9c0.4,0.5,0.8,1,1.1,1.5c0.4,0.5,0.7,1,1.1,1.5c2.4,3.3,4.8,6.7,7.2,10c0,0,0.1,0.1,0.1,0.1
		c4,5.5,8,11,12,16.5c4,5.5,8,11,12,16.5c0.8,1.1,1.6,2.2,2.4,3.3c1.2,1.7,2.3,3.4,3.1,5.2c0.1,0.2,0.2,0.5,0.3,0.7
		c0.1,0.3,0.2,0.6,0.3,0.9c0.5,1.4,0.7,2.8,0.8,4.3c0,0.1,0,0.2,0,0.2c0,0.2,0,0.3,0,0.5c0,0.2,0,0.5,0,0.7c0,0.2,0,0.5-0.1,0.7
		C228.1,371.2,228,371.4,228,371.6z"/>
	<path d="M215.3,373c-0.5,1-2,1.8-3.2,2.1c-0.2,0-0.3,0.1-0.4,0.1c-0.2,0.1-0.5,0.1-0.7,0.1c-0.1,0-0.1,0-0.2,0c0,0,0,0,0,0
		c-0.1,0-0.3,0-0.4,0c-0.3,0-0.6-0.1-0.8-0.1c-0.6-0.1-1.1-0.4-1.6-0.7c-0.2-0.1-0.3-0.2-0.4-0.3c-0.1-0.1-0.2-0.2-0.3-0.3
		c-0.1-0.1-0.3-0.3-0.4-0.4c-0.3-0.3-0.6-0.7-0.8-1c-1.1-1.4-2.1-2.9-3.1-4.3c-0.2-0.3-0.4-0.5-0.5-0.8c-1.5-2-3-4.1-4.4-6.1
		c-3-4.2-6.1-8.4-9.1-12.6c-3.3-4.6-6.7-9.2-10-13.8c-1.7-2.3-3.4-4.7-5.1-7c-0.9-1.2-1.7-2.4-2.6-3.6c-0.1-0.1-0.2-0.2-0.3-0.3
		c-0.5-0.6-1-1.2-1.4-1.9c0-0.1-0.1-0.1-0.1-0.2c0-0.1-0.1-0.2-0.1-0.3c0,0,0,0,0,0c0-0.1-0.1-0.2-0.1-0.3c1.8-1.1,3.6-2.3,5.4-3.4
		c0.2-0.1,0.4-0.3,0.6-0.4c0.1,0,0.1-0.1,0.2-0.1c0,0,0,0,0,0c0.1-0.1,0.2-0.1,0.2-0.1c0,0,0.1,0,0.2,0c0,0,0.1,0,0.1,0.1
		c0.1,0.1,0.2,0.2,0.3,0.4c0,0,0,0,0,0c0.1,0.2,0.2,0.4,0.3,0.5c0.3,0.5,0.7,1,1,1.5c0.3,0.4,0.6,0.8,0.9,1.3c0.5,0.7,1,1.3,1.4,2
		c3,4.2,6,8.3,8.9,12.5c6,8.4,12,16.8,18,25.1c1.5,2.1,2.9,4.1,4.4,6.1c0.8,1.1,1.6,2.2,2.3,3.3c0.4,0.5,0.7,1,1,1.4
		c0.1,0.2,0.2,0.4,0.4,0.5c0,0.1,0.1,0.1,0.1,0.2c0.1,0.1,0.2,0.2,0.2,0.3c0,0,0,0,0,0c0.1,0.1,0.1,0.2,0.2,0.3
		C215.4,372.7,215.4,372.9,215.3,373z"/>
	<path d="M268.5,349.2c-0.4,2.6-1,5.2-1.6,7.7c0,0,0,0.1,0,0.1c-0.2,0.8-0.4,1.6-0.7,2.3c-0.2,0.8-0.5,1.6-0.8,2.4
		c-0.3,0.8-0.5,1.6-0.8,2.4c-0.2,0.5-0.4,1-0.6,1.5c0,0.1-0.1,0.2-0.1,0.3c-0.2,0.5-0.4,0.9-0.6,1.3c-0.2,0.5-0.4,1-0.7,1.5
		c-0.3,0.8-0.7,1.6-1.1,2.3c-0.3,0.6-0.6,1.3-0.9,1.9c-0.1,0.1-0.1,0.3-0.2,0.4c-0.3,0.7-0.7,1.3-1.1,2c-0.1,0.1-0.1,0.2-0.2,0.3
		c-0.4,0.7-0.8,1.4-1.2,2.1c0,0,0,0,0,0c-0.8,1.4-1.7,2.8-2.7,4.1c0,0-0.1,0.1-0.1,0.1c-0.5,0.7-1,1.4-1.5,2.1
		c-0.3,0.5-0.7,1-1.1,1.4c-0.4,0.5-0.7,0.9-1.1,1.4c-0.3,0.4-0.6,0.8-1,1.2c-0.2,0.3-0.4,0.5-0.7,0.8c0,0.1-0.1,0.1-0.2,0.2
		c0,0,0,0,0,0c0,0,0,0,0,0c-0.3,0.4-0.6,0.7-1,1.1c-0.5,0.6-1,1.1-1.5,1.7c-0.1,0.1-0.2,0.2-0.3,0.3c-0.6,0.6-1.2,1.3-1.8,1.9l0,0
		c-0.6,0.6-1.3,1.2-1.9,1.8c-0.7,0.6-1.3,1.2-2,1.8c-0.3,0.3-0.7,0.6-1,0.9c-0.6,0.5-1.3,1-1.9,1.6c-0.4,0.3-0.8,0.6-1.2,0.9
		c-0.8,0.6-1.6,1.2-2.5,1.8c-0.7,0.5-1.4,0.9-2.1,1.4c-0.8,0.5-1.7,1.1-2.5,1.6c-0.6,0.4-1.2,0.7-1.9,1.1c1-1.1,2-2.3,3.1-3.4
		c0.7-0.8,1.4-1.6,2.1-2.4c0.9-1,1.8-2.1,2.7-3.2c0.8-0.9,1.5-1.8,2.3-2.8c0.5-0.7,1.1-1.3,1.6-2c0.8-1,1.5-1.9,2.2-2.9
		c0.5-0.6,0.9-1.2,1.4-1.8c0.1-0.2,0.3-0.4,0.4-0.5c0.5-0.6,0.9-1.2,1.3-1.9c0.3-0.4,0.6-0.9,0.9-1.3c1.6-2.3,3.1-4.6,4.5-7
		c2.4-4,4.5-8.2,6.4-12.5c0.3-0.7,0.6-1.4,0.9-2.1c0.2-0.4,0.3-0.8,0.5-1.2c0.4-0.9,0.7-1.7,1-2.6c0.3-0.9,0.7-1.8,1-2.7
		c0.2-0.4,0.3-0.8,0.4-1.2c0.2-0.7,0.5-1.4,0.7-2.1c0.3-0.8,0.5-1.6,0.7-2.4c0.1-0.2,0.1-0.5,0.2-0.7c0,0,0,0,0,0
		c0.2-0.8,0.4-1.6,0.6-2.4c0.5-1.9,1-3.8,1.4-5.7c1.2-6,2-12.1,2.4-18.2c0.1-1.3,0.1-2.6,0.2-3.9c0.3,1.1,0.6,2.1,0.9,3.2
		c0.1,0.3,0.1,0.6,0.2,0.9c0.5,2,0.8,4.1,1.1,6.2c0.1,0.4,0.1,0.9,0.1,1.3c0.1,0.9,0.2,1.8,0.2,2.6c0,0.4,0,0.7,0,1.1
		c0,0.4,0,0.8,0,1.2c0,0.4,0,0.8,0,1.2c0,0.3,0,0.6,0,0.9c0,1,0,1.9-0.1,2.9c0,0.5,0,0.9-0.1,1.3c0,0.4-0.1,0.9-0.1,1.3
		c0,0.2,0,0.5-0.1,0.7c0,0.3-0.1,0.7-0.1,1c0,0.4-0.1,0.8-0.2,1.2C268.7,347.8,268.6,348.5,268.5,349.2z"/>
	<path d="M262.7,430.9c-0.6,0.3-1.2,0.7-1.8,1c-1,0.5-2,1-3,1.5c-0.5,0.2-1,0.5-1.6,0.7c-0.6,0.3-1.3,0.6-2,0.9
		c-0.5,0.2-0.9,0.4-1.4,0.6c-0.6,0.2-1.1,0.4-1.7,0.7c-1.1,0.4-2.2,0.8-3.4,1.2c-0.5,0.2-1,0.3-1.6,0.5c-0.5,0.1-0.9,0.3-1.4,0.4
		c-0.5,0.1-0.9,0.3-1.4,0.4c-0.9,0.2-1.9,0.5-2.8,0.7c-1.7,0.4-3.3,0.7-5,1c-9.1,1.4-18.5,1.1-27.5-0.7c-4.2-0.8-8.4-1.9-12.5-3.3
		c-0.5-0.2-1.1-0.4-1.7-0.6c-0.5-0.2-1.1-0.4-1.6-0.6c2.2,0.4,4.3,0.7,6.5,1c0.7,0.1,1.5,0.2,2.2,0.3c0.9,0.1,1.8,0.2,2.6,0.3
		c0.4,0.1,0.8,0.1,1.3,0.1c0.6,0.1,1.2,0.1,1.9,0.2c0.5,0,0.9,0.1,1.4,0.1c0.7,0.1,1.5,0.1,2.2,0.1c0.5,0,0.9,0.1,1.4,0.1
		c1.1,0.1,2.2,0.1,3.3,0.1c1.1,0,2.3,0.1,3.4,0.1c9.9,0.1,19.7-0.7,29.4-2.8c2.7-0.6,5.3-1.2,8-1.9c0.7-0.2,1.3-0.4,2-0.6
		c0.4-0.1,0.9-0.2,1.3-0.4C260.5,431.6,261.6,431.3,262.7,430.9z"/>
	<path d="M306.6,299.5c-12-19.2-28.5-33.6-49.1-44.6C276.5,257.7,299.9,279.1,306.6,299.5z"/>
	<path d="M341.9,35.7c-0.4,1.6-1.3,3-2,4.5c-0.1,0.2-0.2,0.4-0.3,0.6c-0.2,0.5-0.5,1-0.7,1.6c-0.7,1.4-1.3,2.8-1.9,4.2
		c-6.7,14.7-13.8,29.2-20.8,43.7c-0.5,1-1,2-1.5,3c-0.9,1.9-1.8,3.7-2.7,5.6c-4.7,9.6-9.4,19.2-14.1,28.9c-2,4.1-4.1,8.3-6.1,12.4
		c-0.9,1.9-1.8,3.7-2.8,5.6c-6.7,13.7-13.4,27.4-20.2,41c-1,1.9-1.9,3.9-2.9,5.8c-2.3,4.8-4.7,9.6-7.1,14.4c-0.5,1-1,2-1.5,3
		c-1.9,3.7-3.9,7.4-6,11.1c-1,1.8-2.1,3.6-3.2,5.4c-1.1,1.8-2.2,3.6-3.3,5.4c-0.1,0.2-0.2,0.3-0.3,0.5c-1,1.6-2,3.2-3,4.9
		c0.2-0.5,0.4-1.1,0.6-1.6c0.3-0.7,0.6-1.5,0.8-2.3c0.7-1.9,1.4-3.8,2.3-5.7c0.1-0.3,0.3-0.6,0.4-1c1.2-2.8,2.5-5.6,3.8-8.4
		c2.8-6.2,5.6-12.5,8.4-18.7c0.7-1.5,1.3-3,2-4.5c2.2-4.8,4.3-9.6,6.5-14.4c2.8-6.3,5.7-12.6,8.5-18.9c0.7-1.5,1.3-3,2-4.5
		c10.7-23.6,21.5-47.1,32.8-70.4c3.3-6.9,6.7-13.8,10.1-20.7c1.3-2.8,2.9-5.6,4.1-8.4c0,0,0,0,0,0c0.1-0.3,0.3-0.7,0.4-1
		c0.1-0.1,0.1-0.2,0.1-0.3c0,0,0-0.1,0-0.1c0-0.1,0.1-0.2,0.1-0.4c0-0.1,0-0.1,0-0.2c0-0.3,0-0.5,0-0.8c-0.1-0.5-0.5-0.7-0.7-1.1
		c0,0,0,0,0,0c-0.1-0.1-0.1-0.2-0.1-0.4c-0.1-0.6,0.1-0.9,0.4-1.1c0,0,0.1,0,0.1-0.1c0.5-0.2,1.2,0,1.8,0.1c0.1,0,0.2,0,0.3,0
		c1.9-3.8,3.8-7.7,5.7-11.5c0.9-1.9,1.8-3.7,2.8-5.6c0.6-1.3,1.2-3,2.5-3.8c1.2-0.7,2.7-0.3,3.8,0.5c0.3,0.3,0.6,0.6,0.7,0.9
		c0.1,0.1,0.1,0.2,0.1,0.3C342.2,34.3,342.1,35,341.9,35.7z"/>
	<path d="M327.3,39c-0.4,1.1-1,2.2-1.6,3.3c0,0,0,0,0,0.1c-0.2,0.3-0.4,0.7-0.5,1c-1.6,3.2-3.1,6.4-4.7,9.6
		c-3.1,6.3-6.1,12.6-9.2,18.9c-0.7,1.5-1.4,2.9-2.1,4.4c-5.4,11.1-10.8,22.2-16.2,33.3c-4.5,9.3-9.1,18.7-13.6,28.1
		c-7.7,15.9-15.5,31.8-23.2,47.8c-3.4,7.1-6.9,14.2-10.3,21.3c-0.4,0.9-0.8,1.7-1.3,2.6c-1.3,2.6-2.5,5.1-3.9,7.6
		c-0.9,1.7-1.8,3.3-2.7,5c-0.4,0.8-0.9,1.6-1.3,2.4c0,0.1-0.1,0.2-0.1,0.2c-0.1,0.1-0.1,0.3-0.2,0.4c-0.1,0.3-0.3,0.5-0.4,0.8
		c-0.1,0.2-0.1,0.3-0.2,0.4c0,0,0,0,0,0c-0.1,0.2-0.2,0.2-0.3,0.3c-0.1,0-0.2,0-0.4,0c-0.1,0-0.2,0-0.3-0.1
		c5.5-12.7,10.9-25.3,16.8-37.8c0.3-0.6,0.6-1.3,0.9-1.9c5.7-12,11.4-24,17.1-36.1c6.7-14.1,13.4-28.2,20.1-42.4
		c5.3-11.1,10.5-22.2,15.8-33.3c2.7-5.7,5.4-11.4,8.1-17.1c0.6-1.4,1.3-2.7,1.9-4.1c1.7-3.5,3.3-7,5-10.5c0.6-1.3,1.3-2.7,1.9-4
		c0.2-0.4,0.4-0.8,0.6-1.2c0.1-0.1,0.1-0.2,0.1-0.3c0.2-0.4,0.3-0.7,0.5-0.9c0.1-0.1,0.1-0.1,0.2-0.2c0.1-0.1,0.3-0.2,0.5-0.4
		c0.8-0.4,1.6-0.8,2.4-1.2c0,0.2,0.1,0.3,0.1,0.5C327.2,36.5,327.7,37.7,327.3,39z"/>
	<path d="M311.9,231.2c0-0.1,0-0.1,0-0.2c0-0.1,0-0.1,0-0.2c0,0,0-0.1,0-0.2c0-0.2-0.1-0.4-0.1-0.5c0-0.2-0.1-0.5-0.2-0.7
		c-0.1-0.2-0.1-0.5-0.2-0.7c-0.6-2-1.6-3.8-3-5.3c-0.3-0.3-0.6-0.7-0.9-1c-0.2-0.1-0.3-0.3-0.5-0.4c-0.2-0.2-0.4-0.3-0.6-0.5
		c-0.1-0.1-0.1-0.1-0.2-0.1c-0.6-0.4-1.2-0.8-1.8-1.2c-0.3-0.2-0.7-0.4-1-0.5c-0.3-0.2-0.7-0.3-1-0.4c-0.5-0.2-1.1-0.4-1.6-0.5
		c-0.2-0.1-0.4-0.1-0.6-0.1c-0.4-0.1-0.8-0.1-1.2-0.2c0,0-0.1,0-0.1,0c-0.2,0-0.4,0-0.6,0c-0.2,0-0.4,0-0.6,0c-0.2,0-0.4,0-0.6,0
		c-1,0-1.9,0.1-2.8,0.4c-0.2,0-0.4,0.1-0.6,0.1c-0.2,0.1-0.4,0.1-0.6,0.2c-0.4,0.1-0.8,0.3-1.2,0.4c-0.2,0.1-0.3,0.1-0.5,0.2
		c0,0-0.1,0-0.1,0c-0.3,0.1-0.6,0.3-0.9,0.4c-0.3,0.1-0.6,0.3-0.9,0.5c0,0-0.1,0-0.1,0.1c-0.4,0.2-0.8,0.5-1.2,0.7
		c-0.2,0.1-0.9,0.7-1.2,0.8c0,0-0.1,0-0.1,0l0,0c-0.1,0-0.2-0.3-0.2-0.4c0,0-0.1-0.1-0.1-0.1c-0.1-0.1-0.1-0.2-0.1-0.2c0,0,0,0,0,0
		c0,0,0-0.1,0.1-0.1c0,0,0,0,0-0.1c0.1-0.2,0.5-0.4,0.8-0.5c0.1,0,0.1-0.1,0.2-0.1c0.1-0.1,0.2-0.1,0.3-0.2c0.1-0.1,0.2-0.1,0.4-0.2
		c0.3-0.2,0.6-0.4,0.9-0.6c1.8-1.1,3.5-2.1,5.3-3.2c-0.4-0.1-0.8-0.1-1.3-0.1c-0.3,0-0.6,0-0.9,0c-0.3,0-0.6,0-0.9,0
		c-0.4,0-0.7,0-1.1,0.1c-1.7,0.2-3.3,0.6-4.8,1.3c-0.7,0.3-1.4,0.8-2.1,1.2c-0.2,0.1-0.4,0.3-0.6,0.4c-0.2,0.1-0.4,0.3-0.5,0.4
		c-0.3,0.2-0.5,0.4-0.8,0.6c-0.3,0.2-0.5,0.5-0.7,0.7c-2.6,2.6-4.4,6.1-5.1,9.7c-1,5,0.2,11.4,4.2,15c0.1,0.1,0.2,0.2,0.3,0.3
		c0.2,0.2,0.4,0.3,0.6,0.4c-0.4-2.7-0.8-5.4-1.3-8.2c0.2-0.1,0.5-0.2,0.7-0.2c0.1,0.5,0.2,0.9,0.3,1.4c0.6,3,1.4,5.7,3.2,8.2
		c0.1,0.2,0.3,0.4,0.4,0.6c0.2,0.3,0.5,0.6,0.7,0.8c0.2,0.3,0.5,0.5,0.7,0.7c0.2,0.1,0.3,0.3,0.5,0.4c0.2,0.2,0.3,0.3,0.5,0.4
		c0.1,0.1,0.2,0.1,0.2,0.2c0.3,0.2,0.5,0.4,0.8,0.5c0.2,0.1,0.4,0.2,0.6,0.4c0.3,0.1,0.5,0.3,0.8,0.4c0.3,0.2,0.6,0.3,1,0.4
		c0.2,0.1,0.4,0.2,0.7,0.2c0.2,0.1,0.4,0.1,0.7,0.2c0.2,0.1,0.4,0.1,0.6,0.1c0,0,0.1,0,0.1,0c0.2,0,0.3,0.1,0.5,0.1l0.1,0
		c0.3,0,0.6,0.1,0.9,0.1c0.4,0,0.7,0,1.1,0.1c0.7,0,1.4,0,2.1-0.1c0.4-0.1,0.8-0.1,1.2-0.2l0,0c0.4-0.1,0.8-0.2,1.1-0.3
		c0.3-0.1,0.5-0.2,0.8-0.3c0.7-0.2,1.3-0.5,2-0.8c0.3-0.1,0.6-0.3,0.8-0.5c0,0,0,0,0.1,0c0.2-0.1,0.5-0.3,0.7-0.4
		c1.3-0.9,2.5-1.9,3.6-3c0.2-0.2,0.3-0.4,0.5-0.6c0.2-0.2,0.3-0.4,0.5-0.6c0,0,0.1,0,0.1-0.1c0.1-0.1,0.2-0.3,0.3-0.4
		c0.1-0.1,0.1-0.1,0.1-0.2c0.1-0.2,0.3-0.4,0.4-0.6c0.1-0.2,0.3-0.4,0.4-0.6c0.1-0.2,0.3-0.4,0.4-0.7c0.2-0.4,0.5-0.9,0.7-1.4
		c0.1-0.2,0.2-0.5,0.3-0.7c0.1-0.2,0.2-0.5,0.3-0.7c0.1-0.2,0.2-0.5,0.2-0.7c0.2-0.5,0.3-1,0.4-1.5c0.1-0.2,0.1-0.5,0.2-0.7
		c0,0,0,0,0,0C312.2,235.7,312.2,233.5,311.9,231.2z M307.1,238.1c-0.1,0.3-0.1,0.6-0.2,0.9c-0.1,0.3-0.2,0.5-0.3,0.8
		c0,0.2-0.1,0.3-0.2,0.4c-0.1,0.2-0.1,0.3-0.2,0.5c-0.1,0.1-0.1,0.2-0.2,0.3c-0.1,0.3-0.3,0.5-0.4,0.7c-0.2,0.3-0.3,0.6-0.5,0.8
		c-0.4,0.5-0.8,1-1.2,1.5c-0.2,0.2-0.5,0.5-0.7,0.7c-0.2,0.2-0.4,0.3-0.6,0.5c-0.2,0.1-0.4,0.3-0.6,0.4c-0.3,0.2-0.6,0.4-0.9,0.6
		c-0.3,0.2-0.5,0.3-0.8,0.4c-0.5,0.3-1.1,0.5-1.6,0.6c-0.1,0-0.2,0.1-0.3,0.1c-0.1,0-0.3,0.1-0.4,0.1c-0.7,0.1-1.3,0.2-2,0.2
		c-0.3,0-0.7,0-1,0c-0.4,0-0.7-0.1-1-0.2c-0.5-0.1-1.1-0.3-1.6-0.5c-0.2-0.1-0.3-0.1-0.5-0.2c-0.2-0.1-0.3-0.2-0.5-0.3
		c-0.2-0.1-0.4-0.2-0.6-0.3c-0.4-0.2-0.7-0.5-1.1-0.8c-0.2-0.2-0.3-0.3-0.5-0.5c-0.5-0.5-0.9-1-1.3-1.5c-0.2-0.3-0.4-0.5-0.5-0.8
		c0,0,0,0,0-0.1c-0.1-0.2-0.3-0.5-0.4-0.8c-0.1-0.2-0.2-0.5-0.3-0.7c-0.1-0.3-0.2-0.7-0.3-1.1c0-0.2-0.1-0.4-0.1-0.6
		c-0.8-4.1,0.7-8.5,3.7-11.4c0.3-0.3,0.7-0.6,1.1-0.9c0.2-0.1,0.3-0.2,0.4-0.3c2.1-1.5,4.7-2.2,7.2-1.9c0.2,0,0.3,0,0.5,0.1
		c0.5,0.1,1,0.2,1.5,0.4c0,0,0.1,0,0.1,0c0.2,0.1,0.5,0.2,0.7,0.3c0.2,0.1,0.4,0.2,0.5,0.3c0,0,0,0,0.1,0c0.1,0,0.1,0,0.1,0.1
		c0.1,0,0.1,0.1,0.2,0.1c0.3,0.2,0.6,0.4,0.9,0.6c0.4,0.3,0.8,0.7,1.2,1c0.3,0.3,0.6,0.7,0.9,1.1c0.2,0.2,0.3,0.5,0.5,0.7
		c0.3,0.6,0.6,1.1,0.8,1.8c0.1,0.2,0.2,0.4,0.2,0.6c0.1,0.2,0.1,0.4,0.2,0.7c0.1,0.3,0.1,0.7,0.2,1c0.1,0.3,0.1,0.6,0.1,0.9
		c0,0.2,0,0.3,0,0.5c0,0.5,0,1,0,1.4c0,0.1,0,0.3,0,0.4c0,0.2-0.1,0.4-0.1,0.6C307.3,237.5,307.2,237.8,307.1,238.1z"/>
	<path d="M394.2,83.7c-0.7,0-1.5,0.1-2.2,0.1c-0.7,0-1.4,0-2.1,0c-11.4,0-22.5-2.4-33-6.8c-0.6-0.3-1.2-0.5-1.8-0.8
		c-0.5-0.2-0.9-0.4-1.4-0.6c-2.9-1.3-5.7-2.8-8.5-4.4c-2.1-1.2-4.1-2.5-6.1-3.8c-0.4-0.3-0.9-0.6-1.3-0.8c-0.4-0.3-0.8-0.6-1.3-0.9
		c-1.3-0.9-2.5-1.8-3.7-2.7c0.7-1.4,1.3-2.9,2-4.3c2.8,1.6,5.6,3.2,8.4,4.7c0.9,0.5,1.8,1,2.7,1.4c0.9,0.5,1.8,0.9,2.7,1.4
		c0.9,0.5,1.9,0.9,2.8,1.4c1.9,0.9,3.8,1.8,5.7,2.7c0.9,0.4,1.9,0.9,2.9,1.3c1,0.4,1.9,0.8,2.9,1.3c1,0.4,1.9,0.8,2.9,1.2
		c0.9,0.4,1.8,0.7,2.7,1.1c0.2,0.1,0.4,0.2,0.6,0.2c0.8,0.3,1.6,0.6,2.4,0.9c1.3,0.5,2.6,1,3.8,1.4c0.5,0.2,1,0.3,1.4,0.5
		c0.6,0.2,1.2,0.4,1.9,0.6c0.6,0.2,1.3,0.4,1.9,0.6c0.1,0,0.1,0,0.2,0c1.1,0.4,2.1,0.7,3.2,1C387.4,81.8,390.8,82.8,394.2,83.7z"/>
	<path d="M137.6,252.9c-3.5-4.4-4-7.3-1.4-9.6C136.7,246.7,137.2,249.7,137.6,252.9z"/>
	<path d="M301.7,234.1c0-0.2-0.1-0.4-0.1-0.6c0,0.1,0,0.3,0,0.4c0,0.3,0,0.5,0.1,0.6C301.7,234.4,301.7,234.3,301.7,234.1z
		 M294.3,241.5c0.2,0,0.4,0,0.6,0c0,0,0.1,0,0.3,0c0.1,0,0.2,0,0.3,0c0.3,0,0.5,0,0.8-0.1C295.7,241.3,295,241.4,294.3,241.5z
		 M291.6,226.6c2.1-1.5,4.7-2.2,7.2-1.9C296.1,224.3,293.6,225.1,291.6,226.6z M288.1,243.4c0.4,0.6,0.8,1.1,1.3,1.5
		C288.9,244.4,288.5,243.9,288.1,243.4z"/>
	<path d="M292.4,243.7c0.8-0.3,1.5-0.6,2.3-1c0,0,0,0,0.1,0c0.5-0.2,2.4-0.8,2.5-1.1c0.1-0.2-0.2-0.3-0.5-0.3c0,0-0.1,0-0.1,0
		c-0.6,0-1.4,0.1-1.6,0.1c-0.2,0-0.4,0-0.6,0c-0.8,0.1-1.6,0.1-2.5,0.2c-2.5,0.2-3.1-2.3-3.1-4.5c0-0.3,0-0.5,0-0.8
		c0-0.3,0.1-0.6,0.1-0.8c0-0.1,0-0.2,0.1-0.3c0-0.2,0.1-0.3,0.1-0.5c0-0.1,0.1-0.2,0.1-0.3c0.1-0.3,0.2-0.6,0.3-0.9
		c0.1-0.2,0.1-0.3,0.2-0.5c0.1-0.2,0.1-0.3,0.2-0.5c0.1-0.1,0.1-0.2,0.2-0.3c0.1-0.3,0.3-0.6,0.5-0.8c0.1-0.2,0.2-0.3,0.3-0.5
		c0,0,0.1-0.1,0.1-0.1c0.2-0.2,0.3-0.4,0.5-0.6c0.2-0.2,0.4-0.4,0.6-0.6c0.2-0.2,0.4-0.3,0.6-0.5c0.1-0.1,0.2-0.2,0.3-0.3
		c0.1-0.1,0.3-0.2,0.4-0.3c0.1-0.1,0.3-0.2,0.4-0.3c0.1-0.1,0.3-0.2,0.4-0.3c0.1-0.1,0.3-0.2,0.5-0.2c0.1,0,0.2-0.1,0.3-0.1
		c0.5-0.2,1-0.4,1.4-0.5c0.1,0,0.3-0.1,0.4-0.1c0.2,0,0.3,0,0.4,0c0.1,0,0.2,0,0.2,0c0.1,0,0.2,0,0.3,0c0.3,0,0.6,0.1,0.9,0.1
		c0.3,0.1,0.5,0.2,0.8,0.4c0.1,0.1,0.2,0.2,0.3,0.2c0.1,0.1,0.2,0.2,0.3,0.3c0.1,0.1,0.2,0.2,0.3,0.3c0.2,0.3,0.4,0.7,0.6,1.1
		c0.3,0.8,0.5,1.6,0.6,2.3c0.1,0.6,0.2,1.1,0.2,1.7c0,0.2,0,0.4,0.1,0.6c0,0.2,0,0.3,0,0.4c0,0,0,0,0,0c0,0.1,0.1,0.2,0.2,0.2
		c0.1,0,0.1,0,0.2,0l0.7-4.7C309,236.5,300.4,248.9,292.4,243.7z"/>
</g>
</svg>
