<?xml version="1.0" encoding="utf-8"?>
<!-- Generator: Adobe Illustrator 22.0.0, SVG Export Plug-In . SVG Version: 6.00 Build 0)  -->
<svg version="1.1" id="Layer_1" xmlns="http://www.w3.org/2000/svg" xmlns:xlink="http://www.w3.org/1999/xlink" x="0px" y="0px"
	 viewBox="0 0 512 512" style="enable-background:new 0 0 512 512;" xml:space="preserve">
<g>
	<path d="M423.8,338.7c4.3-22.2,4.9-45.3-0.4-67.4c-2.6-11-6.7-21.6-12.2-31.5c-5.6-10.2-12.5-19.6-18.7-29.4
		c1.1-0.4,2.3-0.8,3.4-1.2c-0.3-0.5-0.6-1.3-1-1.7c-0.1-0.7-0.4-0.8-0.9-0.3c-0.2,0.1-0.3,0.2-0.5,0.2c-0.9,0.4-1.8,0.6-2.8,0.5
		c-1.7-0.1-3-1-4.2-2.1c-3.4-3.1-6.5-6.5-9.9-9.5c-3.8-3.4-7.7-6.6-11.8-9.6c-7.5-5.6-15.3-10.7-23.6-15.1
		c-16-8.6-33.4-14.7-51.4-17.9c-34.6-6.1-71.3-2.2-103.4,12.1c-15.6,7-30.1,16.3-43.1,27.3c-12.8,10.8-24.4,23.1-33.8,37
		c-20.3,30-30.3,66.3-27.2,102.4c0.9,10.5,2.9,20.9,5.9,31.1c1.5,5,3.2,9.9,5.2,14.8c0.5,1.3,0.8,2.6,1,4c0.1,1,0,2.5,0.4,3.5
		c0.4,1,1.7,2.1,2.3,3c0.8,1,1.5,2,2.2,3.1c2.8,4.2,5.1,8.7,7.7,13c2.7,4.5,6,8.3,9.6,12.2c7.3,8.2,14.3,16.8,21.4,25.2
		c0.5-0.4,0.9-0.9,1.3-1.3c-0.9,2-1.9,3.9-2.9,5.9c1.9-1,3.8-1.9,5.7-2.9c0.5,3.8,0.8,7.6,0.7,11.4c-0.2,7.6-2.1,15-6.8,21.2
		c-4,5.4-10,12.4-7.2,19.6c1.2,3.1,3.8,5.2,6.7,6.8c3.8,2.1,7.8,3.7,12,4.8c6.7,1.7,12.9-0.1,16.3-6.4c2-3.8,2.9-8,4.3-12
		c1.4-4,3.4-7.8,5.7-11.4c2-3.1,4.2-7,7.5-8.8c2.9-1.6,6.3-1.1,9.3-0.2c8.7,2.6,17.4,5.2,26.4,7.1c8.8,1.8,17.7,3.1,26.7,3.9
		c18.1,1.5,36.5,0.6,54.3-2.8c8.8-1.7,17.3-4.1,25.8-6.7c2.2-0.7,4.4-1.3,6.6-2c1-0.3,1.9-0.6,2.9-0.9c0.6-0.2,1.3-0.5,2-0.6
		c1.2-0.1,0.3-0.2,1,0.3c0.8,0.7,1.4,2.3,2,3.2c0.6,0.9,1.1,1.8,1.7,2.7c1.1,1.9,2.3,3.7,3.3,5.6c2.1,3.9,3.9,7.9,5.7,12
		c1.6,3.5,2.9,7.6,5.4,10.6c4.5,5.4,12.2,5.2,17.9,2c5.8-3.2,10.1-9.5,10.1-16.2c0-4.2-1.4-8.4-2.6-12.3c-1.4-4.5-2.8-8.9-4.3-13.3
		c-1.4-4.2-3.1-8.5-4.3-12.8c-1.2-4.2,1.2-6.6,4-9.3c5.9-5.6,11.3-11.8,16.1-18.4c10.5-14.4,17.1-30.8,24.5-46.9
		c1.4,0.7,2.8,1.3,4.2,2c-0.8-2.6-2.5-5.3-2.4-8c0.1-3.2,1.1-6.6,1.8-9.7C421,351.9,422.5,345.3,423.8,338.7z M410.6,259.1
		c0.3,0.2,0.7,2.1,0.8,2.5c0.3,0.8,0.5,1.6,0.8,2.4c0.5,1.7,1.1,3.3,1.6,5c-10.1,1.4-20.2,2.9-30.2,4.3c-0.9-2.3-1.9-4.5-2.8-6.8
		c6.7-1.7,13.3-3.3,20-5c1.7-0.4,3.5-0.9,5.2-1.3c0.7-0.2,1.3-0.3,2-0.5C408.4,259.7,410.3,258.9,410.6,259.1z M409.8,256.5
		c-6,1.5-11.9,3.1-17.9,4.5c-3,0.7-5.9,1.4-8.9,2c-1,0.2-1.8,0.5-2.7,0c-0.9-0.5-1.6-1.5-2.2-2.2c-0.5-0.6-1.1-1-1.4-1.6
		c-0.2-0.4-0.2-0.8,0-1.3c0.1-0.1,0.1-0.2,0.1-0.3c0.1-0.3,0.2-0.4,0.5-0.5c0.1,0,0.1-0.1,0.2-0.1c0.1-0.1,0.3-0.1,0.6-0.2
		c0.6-0.2,1.3-0.4,1.9-0.6c3-0.9,5.9-1.8,8.9-2.7c5.8-1.8,11.6-3.5,17.4-5.3C407.5,251,408.6,253.8,409.8,256.5z M404.7,245.9
		c-9.9,3-19.7,6.1-29.6,9.1c-1.3-2.3-2.7-4.5-4-6.8c4.4-1.9,8.7-3.8,13.1-5.6c3.9-1.6,7.8-2.6,11.8-3.5c1.7-0.4,3.9-1,5.4,0.2
		C403.1,240.8,403.9,243.9,404.7,245.9z M389.7,224.2c0.2,0.1,0.4,0.1,0.6,0.2c0.2,0.1,0.3,0.2,0.4,0.3c0.1,0.1,0.2,0.2,0.4,0.3
		c0.1,0.1,0.2,0.2,0.3,0.3c0.3,0.3,0.6,0.6,0.9,1c0.8,0.9,1.4,2,2,2.7c1.5,2,3,4,4.5,6c-9.9,3.5-19.8,7-29.7,10.5
		c-1.2-1.7-2.4-3.3-3.6-5c-0.3-0.3-0.5-0.7-0.8-1c-0.1-0.1-0.1-0.2-0.2-0.3c-0.5-0.6-0.6-0.7-0.3-1c0.1-0.1,0.1-0.1,0.2-0.2
		c0.1-0.1,0.1-0.1,0.2-0.2c0.7-0.6,1.4-1.3,2.1-1.9c0.1-0.1,0.2-0.2,0.3-0.3c3.4-2.8,7.3-5,11.2-6.9c1.5-0.7,3-1.4,4.6-2.1
		c0.5-0.2,1-0.4,1.5-0.7c0.6-0.3,1.4-0.7,2.3-1.1c0.2-0.1,0.4-0.2,0.6-0.3c0.2-0.1,0.4-0.2,0.6-0.2c0.4-0.1,0.9-0.2,1.3-0.2
		C389.3,224.1,389.5,224.1,389.7,224.2z M380,214.7c0.1,0,0.1,0,0.2,0c0.1,0,0.1,0,0.2,0c0.2,0.1,0.5,0.1,0.7,0.2
		c0.2,0.1,0.5,0.2,0.7,0.3h0c0.3,0.2,0.5,0.3,0.8,0.5c1.5,1,2.8,2.2,4.2,3.3c0.5,0.4,1.1,0.8,1.7,1.2c-5.2,2.8-10.3,5.7-15.5,8.6
		c-2.4,1.4-4.9,2.7-7.3,4.1c-0.1,0.1-0.3,0.2-0.4,0.2c-0.5,0.2-0.9,0.5-1.4,0.8c-0.2,0.1-0.5,0.4-0.9,0.6c0,0,0,0,0,0
		c-0.4,0.3-0.9,0.6-1.2,0.5c-0.4,0-1-0.8-1.4-1.2c-0.1-0.1-0.1-0.1-0.1-0.1c-0.2-0.2-0.4-0.3-0.6-0.5c0,0-0.1-0.1-0.1-0.1
		c-0.2-0.1-0.3-0.3-0.4-0.4c-0.2-0.2-0.4-0.4-0.6-0.6c-0.2-0.2-0.3-0.3-0.4-0.5c-0.1-0.1-0.2-0.2-0.2-0.3c-0.3-0.4-0.4-0.7-0.5-1.1
		c-0.1-0.1-0.1-0.3-0.1-0.4c-0.3-1.6,0.6-3,1.9-4.2c0.4-0.4,0.9-0.8,1.3-1.1c0.5-0.4,1.1-0.9,1.7-1.3s1.1-0.8,1.7-1.2
		c0.6-0.4,1.2-0.8,1.8-1.2c0.6-0.4,1.2-0.7,1.8-1.1c0.5-0.3,1.1-0.6,1.7-0.9c0.6-0.3,1.1-0.6,1.7-0.9c0.2-0.1,0.3-0.2,0.5-0.2
		c0.6-0.3,1.2-0.5,1.7-0.8c0.6-0.3,1.3-0.6,1.9-0.8c0.2-0.1,0.4-0.2,0.6-0.2c0.6-0.2,1.1-0.4,1.7-0.6c0.9-0.3,1.5-0.5,2.1-0.5
		c0.1,0,0.3,0,0.4,0C379.8,214.7,379.9,214.7,380,214.7z M378.2,211.5c-9.1,3.5-18.4,7.1-23.6,16c-2.5-2.3-5-4.6-7.4-6.9
		c7.5-6.2,14.9-12.4,22.4-18.5C372.5,205.3,375.4,208.4,378.2,211.5z M342.9,184.4c0.3-0.4,0.7-1,0.9-1.2c0.1,0,0.1-0.1,0.1-0.1
		c0.3-0.1,1.9,1.2,2.2,1.4c2.4,1.6,4.8,3.2,7.2,4.8c-3.1,3.9-6.2,7.8-9.3,11.6c-1.5,1.9-3.1,3.8-4.6,5.7c-0.7,0.9-1.4,1.7-2.1,2.6
		c-0.1,0.1-0.1,0.2-0.2,0.3c-0.2,0.3-0.4,0.5-0.4,0.6c0,0.1,0,0.2,0.1,0.3c0,0.1,0.1,0.2,0.2,0.3c0.3,0.4,0.9,0.8,1.3,1.1
		c5.9-6.9,11.8-13.8,17.6-20.7c3.8,3.1,7.7,6.3,11.5,9.4c-7.1,5.9-14.1,11.8-21.2,17.7c-0.2,0.2-0.3,0.3-0.4,0.4
		c-0.1,0-0.1,0.1-0.2,0.1c-0.1,0.1-0.3,0-0.6-0.1c-0.2-0.1-0.4-0.2-0.6-0.4c-0.3-0.2-0.6-0.5-0.8-0.6c-0.7-0.5-1.4-1-2.1-1.5
		c-1.6-1.2-3.2-2.3-4.8-3.5c-3.6-2.6-7.1-5.2-10.7-7.8c4.4-5.3,8.8-10.5,13.2-15.8c1.2-1.4,2.3-2.8,3.5-4.1
		C342.7,184.7,342.8,184.6,342.9,184.4z M341.8,181.5c-3.9,4.7-7.8,9.4-11.8,14.1c-1.9,2.3-3.8,4.6-5.8,6.9c-0.3,0.3-0.6,0.7-0.9,1
		c-0.1-0.1-0.3-0.1-0.4-0.2c0,0,0,0-0.1,0c-0.1,0-0.1-0.1-0.2-0.1c-0.1,0-0.3-0.1-0.4-0.2c-0.4-0.2-0.8-0.5-1.2-0.7
		c-1.3-0.7-2.5-1.4-3.8-2c2.3-4.2,4.7-8.4,7-12.6c1.1-2,2.2-4,3.3-5.9c0.6-1.1,1.2-2.2,1.8-3.3c0.3-0.5,0.6-1,0.8-1.5
		c0.1-0.2,0.2-0.3,0.3-0.5c0,0,0,0-0.1,0c0,0,0,0,0,0c0.1,0,0.1-0.1,0.1-0.1c0,0-0.1,0.1-0.1,0.1
		C334.3,178.2,338.1,179.8,341.8,181.5z M304.1,170C304.1,170,304.1,170,304.1,170c0.4-0.8,0.8-1.5,1.3-2c0.4-0.4,0.8-0.6,1.1-0.8
		c0,0,0.1-0.1,0.1-0.1c1.2-0.5,2.4,0.1,3.9,0.7c0.4,0.2,0.8,0.3,1.2,0.5c2.2,0.9,4.4,1.9,6.6,2.8c2.2,0.9,4.4,1.9,6.5,2.8
		c0.2,0.1,0.4,0.2,0.6,0.3c1.6,0.6,3.1,1.3,4.7,2c0,0,0,0,0.1,0c0.1,0,0.2,0.1,0.2,0.1c0,0,0,0,0,0s0,0,0,0
		c-0.1,0.1-0.2,0.1-0.3,0.2c-0.3,0.2-0.6,0.4-0.9,0.5c-0.3,0.2-0.6,0.3-0.9,0.5c-0.5,0.3-0.9,0.6-1.3,0.9c-0.1,0.1-0.1,0.1-0.2,0.2
		c-0.1,0.1-0.1,0.1-0.2,0.2c-0.2,0.2-0.4,0.4-0.6,0.7c-0.3,0.4-0.6,0.9-0.9,1.3c-0.2,0.3-0.3,0.6-0.5,0.8c-0.1,0.2-0.2,0.3-0.3,0.5
		c-1.8,3-3.5,6.1-5.2,9.1c-0.8,1.4-1.7,2.9-2.5,4.4c-0.1,0.2-0.2,0.4-0.3,0.6c-0.3,0.7-0.7,1.5-1.1,2c0,0,0,0,0,0
		c-0.2,0.2-0.2,0.3-0.3,0.3c0,0,0,0,0,0c-0.1,0.1-0.2,0.1-0.6-0.1c0,0,0,0-0.1,0c-0.1,0-0.1-0.1-0.2-0.1c-0.2-0.1-0.4-0.2-0.6-0.2
		c-0.1-0.1-0.2-0.1-0.3-0.1c-3.2-1.4-6.4-2.8-9.7-4.2c3.4-5.6,6.8-11.2,10.2-16.9c0.8-1.3,1.6-2.7,2.4-4c0.4-0.7,1-1.3-0.1-1.7
		c-0.6-0.2-0.6-0.1-1.3,0.4c-2.3,1.9-3.8,4.9-5.5,7.4c-1.8,2.7-3.5,5.4-5.1,8.2c-0.2,0.3-0.4,0.7-0.6,1.1c-0.2,0.4-0.4,0.7-0.6,1.1
		c-0.4,0.7-0.9,1.4-1.5,2c-2.3,2.2-6.3-0.7-8.5-1.8c2.3-4.2,4.6-8.3,6.9-12.5c1.2-2.1,2.3-4.1,3.5-6.2
		C303.7,170.9,303.9,170.4,304.1,170z M291.8,168c0-0.1,0.1-0.3,0.1-0.4c0.1-0.3,0.2-0.6,0.4-0.9c0.1-0.2,0.2-0.4,0.3-0.6
		c0.1-0.3,0.3-0.5,0.5-0.7c0.2-0.3,0.5-0.6,0.7-0.8c0.1-0.1,0.2-0.2,0.3-0.3c0.2-0.2,0.5-0.3,0.7-0.4c0.1,0,0.1-0.1,0.2-0.1
		c0.2-0.1,0.4-0.1,0.6-0.2c0.8-0.1,1.7-0.1,2.5,0.1c0.5,0.1,0.9,0.2,1.4,0.4c0.2,0.1,0.3,0.1,0.5,0.2c0.2,0.1,0.3,0.1,0.5,0.2
		c0.5,0.2,1,0.4,1.6,0.5c0.3,0.1,0.5,0.2,0.8,0.2c-4.2,8.2-8.4,16.4-12.6,24.6c-2.1-0.6-4.3-1.1-6.4-1.7c2.3-6,4.6-11.9,7.1-17.9
		c0.1-0.3,0.2-0.6,0.3-0.9C291.5,169,291.6,168.5,291.8,168z M274.6,160.4c5.5,0.6,11,1.3,16.5,1.9c-2.1,5.4-4.2,10.8-6.2,16.2
		c-1,2.7-2,5.3-3.1,7.9c-0.1,0.1-0.1,0.2-0.1,0.3c-0.1,0.2-0.2,0.4-0.2,0.6c0,0,0,0,0,0c0,0.1-0.1,0.2-0.1,0.3
		c-0.2,0-0.4-0.1-0.6-0.1c-0.5,0.1-1.1-0.1-1.6-0.2c-0.1,0-0.1,0-0.1,0c-1.5-0.2-2.9-0.5-4.4-0.7V160.4z M261.1,162.6
		c0.2-0.9,0.1-1.6,0.8-2c0.7-0.5,1.7-0.4,2.4-0.5c1.6-0.1,3.4-0.3,4.9,0.1c2.8,0.8,2.6,4.3,2.7,6.6c0.4,6.5,0.1,12.9,0.1,19.4
		c-5.2-0.3-10.4-0.7-15.6-1c1.3-6.7,2.7-13.4,4-20.1C260.8,164.3,260.9,163.5,261.1,162.6z M250.5,161.3c2.2-1.8,5.5-1,8.2-1
		c-1,5.4-1.9,10.7-3,16.1c-0.2,1.3-0.5,2.5-0.8,3.8c0,0.1-0.1,0.3-0.1,0.4c-0.1,0.4-0.2,1-0.3,1.4c0,0.1-0.1,0.3-0.1,0.4
		c-0.1,0.3-0.2,0.5-0.3,0.8c0,0.1-0.1,0.1-0.1,0.2c-0.1,0.1-0.1,0.2-0.2,0.3c0,0.1-0.1,0.2-0.2,0.2c-0.4,0.4-0.9,0.8-1.5,1.1
		c-0.2,0.1-0.3,0.2-0.5,0.3c-0.7,0.4-1.5,0.8-2.1,1.1c-0.2,0.1-0.4,0.2-0.6,0.4c0-6.2-0.1-12.4,0-18.6
		C249,165.8,248.4,163,250.5,161.3z M246.1,160.8v24.7c-1.3,0.1-2.5,0.3-3.8,0.4c-0.6,0.1-1.3,0.1-1.9,0.2c-0.1,0-0.2,0-0.3,0
		c-0.2,0-0.5,0-0.7,0.1c0,0,0,0,0,0c-0.1,0-0.2,0-0.3,0c0-0.2-0.1-0.4-0.1-0.6c-0.4-0.7-0.5-1.8-0.5-2.8c0-0.4-0.1-0.7-0.1-1.1
		c-0.2-1.3-0.5-2.5-0.7-3.8c-0.9-5.2-1.9-10.4-2.8-15.6C238.5,161.8,242.3,161.3,246.1,160.8z M229.8,163.3c0.1,0,0.3,0,0.4-0.1
		c0.1,0,0.2,0,0.3-0.1c0.1,0,0.2,0,0.3-0.1c0.1,0,0.2,0,0.3,0c0.1,0,0.2,0,0.3,0h0.1c0.4,0,0.6,0.1,0.7,0.2c0.1,0.1,0.1,0.3,0.1,0.7
		c0,0.1,0,0.2,0.1,0.3c0.5,2.8,1,5.5,1.5,8.3c0.5,2.7,0.9,5.4,1.4,8.1c0.1,0.2,0.1,0.5,0.1,0.8c0.3,1.2,0.8,2.6,0.6,3.7c0,0,0,0,0,0
		c0,0.4,0,0.6-0.1,0.7c-0.1,0.1-0.3,0.2-0.7,0.4c-0.4,0.2-0.8,0.4-1.2,0.5c-0.2,0.1-0.5,0.1-0.7,0.2c-0.4,0.1-0.8,0.1-1.1,0
		c-0.1,0-0.1,0-0.2-0.1c-0.1,0-0.1,0-0.1,0c-0.1,0-0.2-0.1-0.2-0.1c0,0,0,0-0.1,0c-0.1,0-0.2-0.1-0.3-0.2c-0.4-0.3-0.6-0.6-0.9-1.1
		c-0.1-0.1-0.2-0.3-0.2-0.5c-0.1-0.2-0.1-0.3-0.2-0.5c-0.2-0.5-0.3-1.1-0.4-1.6c-0.1-0.4-0.1-0.8-0.2-1.1c-0.1-0.5-0.1-1.1-0.2-1.5
		c-0.2-1.4-0.5-2.8-0.8-4.1c-0.4-2.1-0.9-4.1-1.3-6.2c-0.2-1-0.5-2.1-0.7-3.1c-0.2-1-0.5-2.1-0.7-3.1
		C227.2,163.6,228.5,163.5,229.8,163.3z M223.3,164.3c1.2,5.5,2.3,11,3.5,16.5c0.3,1.4,0.6,2.8,0.9,4.3c0,0.1,0.1,0.3,0.1,0.5
		c0.1,0.4,0.2,0.8,0.3,1.2c0,0.1,0.1,0.2,0,0.3c0,0.7,0,0.8-0.4,0.8c-0.1,0-0.1,0-0.2,0c-0.1,0-0.2,0-0.3,0.1
		c-2.4,0.6-4.9,1.2-7.4,1.7c-2.6-7.4-5.3-14.9-7.9-22.3C215.7,166.4,219.5,165.4,223.3,164.3z M206.3,169.1c0.5-0.2,1-0.3,1.5-0.5
		c0.3-0.1,0.7-0.2,1-0.3c0.5-0.3,0.7-0.2,0.7,0.5c0.6,1,0.9,2.5,1.3,3.7c0.1,0.2,0.1,0.3,0.2,0.5c2,5.8,4.1,11.6,6.1,17.5
		c-1.6,0.5-3.2,0.9-4.7,1.6c-0.2,0.1-0.3,0.2-0.5,0.2c-0.1,0.1-0.3,0.1-0.4,0.2c-0.3,0.1-0.5,0.2-0.8,0.3c-0.2,0.1-0.4,0.1-0.6,0.1
		c-0.2,0-0.4,0.1-0.6,0.1c-0.1,0-0.2,0-0.3,0c-1-0.1-1.9-0.5-2.5-1.2c-0.6-0.7-1.1-1.5-1.5-2.4c-2.5-5.7-4.3-11.7-6.4-17.5
		C201.2,170.8,203.8,169.9,206.3,169.1z M189.9,175.3c0.1-0.1,0.2-0.1,0.3-0.2c0.1-0.1,0.2-0.1,0.3-0.2c0.3-0.1,0.6-0.2,0.9-0.3
		c0.1,0,0.1,0,0.2-0.1c1.6-0.6,3.1-1.3,4.6-1.9c2.7,7.3,5.3,14.6,8,21.9c-1.2,0.5-2.4,1-3.6,1.4c-0.6,0.2-1.4,0.8-2,0.8
		c-0.5,0.5-0.8,0.3-0.9-0.4c-0.2-0.4-0.3-0.9-0.5-1.3c-1.2-3-2.4-5.9-3.6-8.9c-1.2-3-2.4-5.9-3.6-8.8c-0.2-0.4-0.3-0.9-0.5-1.3
		C189.1,175.6,189.2,175.3,189.9,175.3z M186.9,176.6c1.7,4.2,3.4,8.4,5.2,12.6c0.9,2.1,1.7,4.2,2.6,6.3c0,0.1,0.1,0.2,0.1,0.3
		c0.1,0.2,0.2,0.4,0.3,0.6c0.1,0.2,0.2,0.4,0.3,0.6c0.1,0.1,0.1,0.3,0.1,0.4c0.1,0.3,0.1,0.5,0.1,0.6c0,0.1-0.1,0.2-0.4,0.3
		c0,0-0.1,0-0.1,0.1c-0.1,0-0.1,0-0.2,0.1c-0.8,0.4-1.5,0.7-2.3,1.1c-0.1,0.1-0.2,0.1-0.3,0.2c-0.1,0-0.2,0.1-0.3,0.2
		c-0.3,0.2-0.7,0.4-1,0.6c0,0-0.1,0-0.1,0.1c-0.7,0.4-1.4,0.7-1.6,0.6c-0.5-0.2-1.1-2.1-1.4-2.8c-1-1.9-1.9-3.8-2.9-5.7
		c-2.1-4.1-4.1-8.2-6.2-12.3C181.4,179.1,184.1,177.9,186.9,176.6z M176.2,181.8c2,4,4.1,8,6.1,12c1,2,2,3.9,3,5.9
		c0,0.1,0.1,0.2,0.1,0.3c0,0.1,0.1,0.1,0.1,0.2c0.2,0.3,0.3,0.6,0.5,0.9c0.1,0.1,0.1,0.3,0.2,0.4c0,0.1,0.1,0.2,0.1,0.2
		c0.1,0.2,0.1,0.3,0.1,0.4c0,0.1-0.1,0.2-0.3,0.4c0,0.1-0.1,0.1-0.1,0.1c0,0-0.1,0-0.1,0.1c-0.6,0.5-1.3,1-2,1.2
		c-0.4,0.1-0.8,0.1-1.2,0c-0.2,0-0.3-0.1-0.5-0.1c-0.9-0.3-1.6-1.2-2.2-2c-0.3-0.4-0.6-0.9-0.9-1.3c-0.9-1.3-1.8-2.5-2.7-3.8
		c-2.6-3.6-5.1-7.3-7.7-10.9C171.2,184.5,173.7,183.2,176.2,181.8z M164,188.9c0,0,0.1,0,0.1-0.1c0,0,0.1,0,0.1-0.1
		c0.1,0,0.1-0.1,0.2-0.2c0.1,0,0.1-0.1,0.2-0.2c0.1-0.1,0.2-0.1,0.2-0.2c0.1-0.1,0.3-0.2,0.5-0.3c0.1-0.1,0.3-0.2,0.4-0.3
		c0.1-0.1,0.2-0.1,0.3-0.2c0.1,0,0.1-0.1,0.2-0.1c0.1,0,0.1,0,0.2,0c0.1,0,0.1,0,0.2,0.1c0,0,0.1,0,0.1,0.1c0.1,0.1,0.2,0.3,0.4,0.5
		c0.1,0.1,0.2,0.2,0.2,0.3c0.1,0.1,0.1,0.2,0.2,0.2c0.3,0.4,0.6,0.9,0.8,1.3c0.2,0.3,0.4,0.6,0.5,0.8c0.2,0.3,0.3,0.4,0.3,0.5
		c3.2,4.8,6.4,9.5,9.6,14.3c0.4,0.6,0.7,0.8,0.5,1.3c-0.1,0.1-0.3,0.3-0.5,0.4c-0.2,0.1-0.3,0.2-0.5,0.3c-0.1,0-0.1,0.1-0.1,0.1
		c-0.9,0.6-1.8,1.2-2.7,1.8c-0.1,0-0.2,0.1-0.3,0.2c-0.1,0.1-0.2,0.2-0.3,0.2c-0.1,0.1-0.2,0.1-0.3,0.2c-0.1,0.1-0.1,0.1-0.2,0.1
		c-0.1,0-0.1,0.1-0.2,0.1c-0.2,0.1-0.3,0.1-0.5,0c-0.1-0.1-0.3-0.2-0.5-0.3c0-0.1-0.1-0.1-0.1-0.2c-0.4-0.4-0.7-0.9-0.9-1.1
		c-0.9-0.9-1.7-1.8-2.5-2.7c-4-4.3-7.9-8.5-11.9-12.8C159.8,191.7,161.9,190.3,164,188.9z M154.5,195.4c0.2-0.2,0.4-0.3,0.5-0.4
		c0.1-0.1,0.2-0.1,0.3-0.2c0,0,0.1,0,0.1,0c0.2-0.1,0.2,0.1,0.6,0.3c0.1,0.1,0.1,0.1,0.2,0.2c0.1,0,0.1,0.1,0.1,0.1
		c0.3,0.3,0.5,0.6,0.8,0.9c1.6,1.7,3.1,3.4,4.7,5.1c3.2,3.5,6.4,6.9,9.6,10.4c-0.8,0.6-1.6,1.2-2.5,1.8c-0.5,0.3-0.9,0.7-1.4,1
		c-0.5,0.4-0.7,0.7-1.2,0.5c-0.2-0.1-0.4-0.3-0.6-0.5c-0.1-0.1-0.2-0.3-0.3-0.4c-0.3-0.3-0.5-0.7-0.7-1c-0.3-0.4-0.5-0.8-0.7-1
		c-0.8-1-1.6-1.9-2.3-2.9c-3.2-4-6.4-8-9.6-12C152.8,196.8,153.7,196.1,154.5,195.4z M149.7,198.9c2.4,3,4.9,6.1,7.3,9.1
		c1.2,1.4,2.3,2.9,3.4,4.3c0.1,0.2,0.3,0.3,0.4,0.5c0.5,0.6,1.2,1.3,1.5,1.9c0,0,0,0.1,0,0.1c0.1,0.2,0.2,0.3,0.2,0.4c0,0,0,0,0,0
		c0,0.1,0,0.1,0,0.2c0,0,0,0.1,0,0.1c0,0.1-0.1,0.2-0.2,0.3c0,0.1-0.1,0.2-0.2,0.4c-0.2,0.3-0.4,0.6-0.5,0.6c-0.2,0-0.5-0.2-0.9-0.4
		c-0.2-0.1-0.4-0.2-0.5-0.4c-0.2-0.2-0.4-0.3-0.5-0.4c-0.1-0.1-0.1-0.1-0.2-0.1c-0.8-0.5-1.6-1-2.4-1.5c-0.1-0.1-0.2-0.1-0.3-0.2
		c-1-0.6-2-1.3-3.1-1.9c-0.4-0.3-0.8-0.5-1.2-0.8c-3.4-2.1-6.8-4.2-10.1-6.3C145,202.9,147.4,200.9,149.7,198.9z M138.2,209.4
		c0.1-0.1,0.1-0.1,0.2-0.2c0,0,0,0,0,0c0.1-0.1,0.1-0.2,0.2-0.3c0,0,0.1-0.1,0.1-0.1c0.1-0.1,0.1-0.2,0.2-0.3
		c0.1-0.1,0.2-0.2,0.2-0.3c0.2-0.3,0.5-0.6,0.7-0.8c0,0,0,0,0,0c0.1-0.1,0.2-0.2,0.2-0.2c0.1-0.1,0.2-0.1,0.3-0.2
		c0.1-0.1,0.2-0.1,0.2-0.1h0.1c0.6,0,2.6,1.6,3.3,2.1c0,0,0.1,0.1,0.1,0.1c1.1,0.7,2.3,1.4,3.4,2.1c4.6,2.9,9.1,5.7,13.7,8.6
		c-1.4,1.3-2.8,2.5-4.2,3.8c-7.2-3.8-14.4-7.6-21.6-11.5C136.4,211.2,137.3,210.3,138.2,209.4z M119,231.5c0.1-0.2,0.2-0.5,0.4-0.7
		c0.1-0.2,0.3-0.5,0.4-0.7c0.1-0.2,0.3-0.5,0.4-0.7c0.3-0.6,0.7-1.3,1.1-1.9c0.1-0.1,0.1-0.2,0.2-0.3c0.2-0.3,0.4-0.5,0.6-0.8
		c0.1-0.1,0.2-0.2,0.2-0.3c0.4-0.6,0.9-1.1,1.4-1.6c0.1-0.1,0.3-0.2,0.4-0.3c0.2-0.1,0.3-0.2,0.5-0.3c0.2-0.2,0.5-0.3,0.7-0.4
		c0.1-0.1,0.2-0.1,0.3-0.1c0,0,0.1,0,0.2-0.1c0.1,0,0.2-0.1,0.3-0.1c0.1,0,0.2-0.1,0.2-0.1c0.1,0,0.2,0,0.3-0.1c0.1,0,0.2,0,0.3,0
		c0.2,0,0.5,0,0.7,0c0.9,0.1,1.9,0.2,2.8,0.5c0.6,0.1,1.2,0.3,1.7,0.4c0.1,0,0.1,0,0.2,0c0.3,0.1,0.6,0.2,0.9,0.3
		c0.5,0.2,1.1,0.3,1.6,0.4c0.6,0.2,1.3,0.3,1.9,0.5c2.2,0.6,4.4,1.3,6.6,2c0,0,0.1,0,0.1,0c1.1,0.3,2.2,0.6,3.4,0.8
		c0.6,0.1,1.2,0.2,1.8,0.3c-6-4.4-13.2-6.5-20.4-7.8c0.5-1,1.1-2.5,1.9-3.6c0.1-0.1,0.2-0.3,0.3-0.4c0.2-0.2,0.4-0.5,0.6-0.7
		c0.2-0.2,0.4-0.3,0.6-0.5c1.4-0.9,3.1,0,4.4,0.6c6.4,2.9,12.6,6.3,18.8,9.5c-2.3,2.6-4.6,5.3-6.9,7.9c-0.1,0.1-0.1,0.2-0.2,0.2
		c-1,1.2-2.1,2.5-3.2,3.6c0,0-0.1,0.1-0.1,0.1c-0.3,0.2-0.6,0.4-0.9,0.6c-0.2,0.1-0.4,0.1-0.6,0.2c-0.7,0.1-1.4,0-2.2-0.2
		c-7.4-1.8-14.8-3.7-22.2-5.5C118.7,232,118.9,231.7,119,231.5z M102.1,261.5c0.1-0.4,0.2-0.9,0.4-1.3c0-0.1,0.1-0.2,0.1-0.2
		c0.1-0.2,0.1-0.4,0.2-0.6c0.1-0.3,0.2-0.6,0.3-0.9c0.2-0.5,0.4-1.1,0.6-1.6c0.2-0.6,0.5-1.2,0.9-1.7c0,0,0-0.1,0.1-0.1
		c0.1-0.2,0.2-0.3,0.3-0.5c0.1-0.1,0.1-0.2,0.2-0.2c1.3-1.4,3.1-1.6,4.8-1.2c0.5,0.1,0.9,0.2,1.4,0.3c0.5,0.1,0.9,0.3,1.4,0.4
		c0.6,0.2,1.2,0.4,1.8,0.6c0.6,0.2,1.2,0.4,1.7,0.6c1,0.4,2,0.8,3,1.1c0.2,0.1,0.4,0.2,0.7,0.3c0.2,0.1,0.4,0.1,0.5,0.2
		c0.9,0.3,1.8,0.7,2.7,1c0.2,0.1,0.4,0.2,0.6,0.3c0,0,0.1,0,0.1,0.1c0.5,0.2,1.1,0.5,1.4,0.5c0.6,0,1.3-0.5,1.9-0.9
		c0.1-0.1,0.2-0.1,0.3-0.2c-3.2-1.6-6.4-3.4-9.7-4.7c-3.4-1.3-7-2.2-10.5-3.3c0.9-1.2,1.7-2.4,2.6-3.5c0.1-0.1,0.1-0.2,0.2-0.2
		c0.4-0.6,0.9-1.2,1.3-1.8c0.1-0.1,0.1-0.2,0.2-0.3c0,0,0,0,0-0.1c-0.1,0-0.1-0.1-0.2-0.1c0.1,0,0.1,0,0.2,0
		c0.1-0.2,0.1-0.4,0.2-0.6c0.1-0.5,0.3-1,0.4-1.5c0-0.1,0-0.1,0.1-0.2c0.1-0.3,0.2-0.7,0.3-1c0.1-0.3,0.2-0.6,0.4-0.9
		c0.2-0.4,0.4-0.9,0.7-1.3c0.2-0.4,0.5-0.7,0.8-1c0.2-0.2,0.3-0.4,0.5-0.5c0.2-0.1,0.4-0.3,0.6-0.4c0.2-0.1,0.3-0.2,0.5-0.3
		c0.5-0.2,1-0.3,1.5-0.4c0.3,0,0.5-0.1,0.8-0.1c0.1,0,0.3,0,0.4,0c0.3,0,0.6,0,0.9,0.1c0.2,0,0.4,0,0.7,0.1c0.4,0,0.8,0.1,1.1,0.2
		c0.5,0.1,1.1,0.2,1.6,0.3c0.6,0.1,1.1,0.2,1.6,0.4c1.2,0.3,2.4,0.6,3.5,0.9c4.3,1,8.5,2.1,12.8,3.1c-0.1,0.3-0.3,0.6-0.4,0.9
		c-0.1,0.3-0.3,0.6-0.4,0.9c-0.1,0.3-0.3,0.6-0.5,0.9c-0.2,0.3-0.3,0.6-0.5,0.9c-0.1,0.2-0.3,0.5-0.4,0.7c-0.1,0.2-0.3,0.4-0.5,0.6
		c-0.2,0.2-0.3,0.4-0.5,0.6c-1.2,1.1-2.7,0.9-4.2,0.7c-2.4-0.4-4.9-0.9-7.3-1.4c-0.8-0.2-1.6-0.3-2.4-0.4c0,0,0,0,0,0
		c-2.1-0.3-4.2-0.5-6.3-0.8c-2-0.2-4.1-0.5-6.1-0.7c0,0,0,0.1,0,0.1c1.7,1,2.9,1.9,4.8,2.3c2,0.4,3.9,0.8,5.9,1.2
		c4.2,0.9,8.5,1.7,12.7,2.5c-1.5,3.1-3,6.2-4.5,9.3c-0.2,0.4-0.4,0.7-0.6,1.1c-0.7,1.4-1.3,3.3-2.3,4.6c0,0,0,0,0,0.1
		c-0.7,0.9-1.5,1.5-2.7,1.7c-0.2,0-0.3,0-0.5,0h0c-2.8,0.1-5.9-0.6-8.8-1.1c-3.1-0.4-6.1-0.9-9.2-1.4c-0.8-0.1-1.6-0.2-2.3-0.3
		c0,0-0.1,0-0.2,0c-0.1,0-0.1,0-0.2,0c-0.4-0.1-1.9,0-2.1-0.4c0-0.1,0-0.2,0-0.4C101.8,262.4,102.1,261.8,102.1,261.5z M94.7,287.5
		V286c0-0.5,0-0.9,0.1-1.4c0-0.4,0.1-0.8,0.2-1.2c0.1-0.3,0.1-0.7,0.2-1c0,0,0-0.1,0-0.1c0.5-1.6,1.6-2.3,2.9-2.6
		c0.3-0.1,0.6-0.1,0.9-0.2c0.2,0,0.5-0.1,0.8-0.1c0,0,0,0,0.1,0c0.5,0,1.1,0,1.6,0c4,0.1,7.9,1.1,11.8,1.9c1.3,0.3,2.6,0.5,3.9,0.7
		c0.6,0.1,1.2,0.2,1.8,0.2c-6-5.8-14.3-4.9-21.9-5.7c0.3-1,0.5-2,0.8-3.1c0.2-0.7,0.4-1.4,0.6-2.1c0.1-0.3,0.2-0.6,0.3-0.9
		c0.1-0.3,0.2-0.6,0.3-0.8c0.1-0.1,0.1-0.3,0.2-0.4c0.1-0.3,0.3-0.6,0.5-0.8c1.6-2.4,4.3-1.6,6.7-1.4c6.4,0.6,12.7,1.3,19.1,2
		c-1.7,6-3.4,12.1-5.1,18.1c-0.1,0.2-0.1,0.3-0.1,0.5c-0.2,0.6-0.4,1.3-0.5,1.9c-0.1,0.2-0.1,0.7-0.2,1.1c-0.1,0.6-0.3,1.2-0.5,1.3
		c-0.2,0.2-1.4-0.1-1.9-0.2c-0.7-0.1-1.4-0.2-2.1-0.3c-3.2-0.4-6.5-0.9-9.8-1.3c-1.6-0.2-3.1-0.4-4.7-0.6c-1-0.1-2-0.3-3-0.4
		c-0.3-0.1-0.8,0-1.3-0.1c0,0,0,0,0,0c-0.4,0-0.8-0.1-1-0.2c0,0,0,0-0.1-0.1c-0.1-0.1-0.2-0.1-0.2-0.2c0,0,0,0,0,0
		c-0.1-0.1-0.1-0.2-0.1-0.3C94.6,288,94.7,287.7,94.7,287.5z M93.5,291.4c6,0.7,11.9,1.5,17.9,2.2c1.5,0.2,3,0.4,4.5,0.5
		c0.1,0,0.6,0,1,0.1c0.2,0,0.4,0,0.6,0.1c0.2,0,0.3,0.1,0.3,0.1c0.1,0.1,0.2,0.4,0.2,0.8c0.1,0.4,0.1,0.9,0.1,1.1
		c0,0.3,0.1,0.6,0.1,1c0,0.2,0.1,0.5,0.1,0.7c0,0.6,0,1.3-0.1,1.8c0,0.1-0.1,0.2-0.1,0.3c-1.1,2.4-6.5,1.5-8.4,1.5
		c-5.9,0-11.7,0-17.6,0C92.6,298.3,93,294.9,93.5,291.4z M91.5,309.6c0-0.3,0-0.7,0-1.1c0-1,0-2.1,0.2-2.9c0.1-0.2,0.1-0.3,0.1-0.5
		c0-0.1,0-0.1,0-0.2c0-0.1,0-0.1,0-0.2c0-0.1,0-0.1,0-0.2c0,0,0-0.1,0.1-0.1c0,0,0,0,0,0c0.1-0.1,0.3-0.1,0.7,0h23.3
		c1.1,0,1.4-0.3,1.4,0.9v3.8c0,1.2,0.3,3.2,0,4.4c0.2,0.7,0,0.9-0.6,0.7H91.1C91.2,312.7,91.3,311.2,91.5,309.6z M93.2,343.8
		c-0.5-4.2-0.9-8.4-1.4-12.6h22.4c0.6,0,1,0.1,1.3-0.2c0,0,0.1-0.1,0.1-0.2c0-0.2,0.1-0.5,0.1-0.8c0-0.1,0-0.2,0-0.2
		c-4-0.5-7.9-1.3-12-1.5c-4-0.2-8.1,0-12.1,0v-8.5c0-0.3-0.2-2.1,0-2.3c0.1-0.1,0.5-0.1,1-0.1c0.2,0,0.5,0,0.7,0c0.1,0,0.1,0,0.2,0
		h0.1c0,0,0.1,0,0.1,0s0.1,0,0.1,0c0.1,0,0.1,0,0.1,0h21.3c0.6,0,1.5-0.1,1.9,0.1c0,0,0.1,0.1,0.1,0.1c0,0,0.1,0,0.1,0.1
		c0.2,0.3,0.2,1.2,0.2,1.7c0.1,0.6,0.1,1.2,0.2,1.8c0.1,0.8,0.2,1.7,0.3,2.5c0.3,2.7,0.6,5.5,1,8.2c0,0.1,0,0.2,0,0.2
		c0.1,1.2,0.3,2.3,0.4,3.4c0,0.1,0,0.1,0,0.2c0,0.2,0,0.3,0.1,0.5c0,0.2,0.2,0.7,0.2,1.2c0,0.1,0,0.1,0,0.1c0.1,0.3,0.1,0.6,0,0.7
		c-0.2,0.2-1.2,0.3-1.7,0.4c-0.1,0-0.1,0-0.2,0c-1.9,0.4-3.8,0.8-5.7,1.2C105.7,341.2,99.4,342.5,93.2,343.8z M96.5,358.6
		c8.1-1.7,16.2-3.5,24.3-5.2c0.2,0,0.3-0.1,0.5-0.1c0.1,0,0.1,0,0.2-0.1h0.1c0,0,0,0,0,0c0.5,0.1,0.7-0.1,0.5-0.5
		c0-0.1,0-0.1-0.1-0.2c0-0.1,0-0.4-0.1-0.7c0-0.1,0-0.2-0.1-0.2c0,0,0,0,0,0c0,0,0-0.1,0-0.1c0,0,0,0,0-0.1c0.1-0.5-0.1-0.7-0.4-0.5
		c-0.1,0-0.2,0-0.2,0.1H121c-0.2,0.1-0.5,0.1-0.7,0.1c-0.1,0-0.2,0.1-0.4,0.1c-0.1,0-0.2,0.1-0.3,0.1c-2.2,0.4-4.5,0.8-6.7,1.2
		c-4,0.7-8.1,1.5-12.1,2.2c-1.1,0.2-2.3,0.4-3.4,0.6c-1.3,0.2-1.6,0.2-2.1-1c-0.2-0.6-0.4-1.3-0.5-1.9c-0.1-0.3-0.2-0.7-0.3-1
		c-0.1-0.2-0.1-0.4-0.1-0.6c-0.1-0.4-0.2-0.8-0.2-1.2c-0.2-1.4,0.2-2.5,1.5-3.3c0.6-0.3,1.3-0.6,2.1-0.9c0.1,0,0.2-0.1,0.3-0.1
		c1.5-0.5,3.1-0.7,4.5-1c0.2-0.1,0.5-0.1,0.7-0.2c1.8-0.4,3.6-0.8,5.4-1.1c1-0.2,1.9-0.4,2.9-0.5c1.1-0.2,2.2-0.4,3.3-0.6
		c1.1-0.2,2.2-0.4,3.3-0.6c0,0,0,0,0.1,0c0.1,0,0.2,0,0.3-0.1c0.1,0,0.2,0,0.3-0.1c0.1,0,0.1,0,0.2,0c0.2-0.1,0.4-0.1,0.6-0.1
		c0.9,0.1,0.7-0.1,1,0.9c0.1,0.2,0.1,0.3,0.2,0.5c0,0.1,0,0.1,0,0.1c0.4,1.2,0.7,2.3,1.1,3.5c1.3,4.1,2.5,8.2,3.8,12.3
		c-9.1,2-18.1,4-27.2,6C97.7,362.6,97.1,360.6,96.5,358.6z M105.9,383.9c0-0.1-0.1-0.2-0.1-0.3c-0.1-0.2-0.2-0.4-0.3-0.6
		c-0.2-0.2-0.3-0.5-0.4-0.7c-0.1-0.1-0.1-0.2-0.1-0.4c-0.5-0.4-0.4-0.8,0.2-0.9c0.3-0.2,0.7-0.4,1-0.6c2.3-1.4,4.7-2.5,7.3-3.4
		c5.3-1.8,10.9-2.5,16.5-3.3c-2.8-1.9-6.4-1.8-9.6-1.2c-5.9,1-11.6,3.4-17.1,5.8c-0.9-2.2-1.7-4.4-2.6-6.7c0-0.1-0.1-0.2-0.2-0.4
		c-0.3-0.9-1.3-2.5-0.8-3.1c0.3-0.3,0.9-0.6,1.5-0.9c0.4-0.2,0.8-0.3,1.1-0.4c0.1-0.1,0.2-0.1,0.3-0.1c0.1,0,0.2-0.1,0.2-0.1
		c0.5-0.2,1.1-0.4,1.6-0.6c1.1-0.4,2.2-0.8,3.3-1.1c0.6-0.2,1.3-0.4,2-0.6c0.4-0.1,0.8-0.2,1.2-0.3c0.1,0,0.1,0,0.2-0.1
		c0.7-0.2,1.4-0.3,2.1-0.5c1-0.2,2-0.4,3.1-0.5c2.2-0.3,4.4-0.5,6.7-0.7c0.3,0,0.7,0,1,0c0.3,0,0.6,0,0.9,0.1c0.1,0,0.1,0,0.2,0
		c0.1,0,0.1,0,0.2,0c0.1,0,0.3,0.1,0.4,0.1c0.2,0,0.3,0.1,0.5,0.2c0.3,0.2,0.6,0.3,0.9,0.6c0.2,0.1,0.3,0.3,0.4,0.4c0,0,0,0,0,0
		c0.1,0.2,0.3,0.3,0.4,0.6c0.3,0.5,0.7,1,1,1.6c0.3,0.6,0.6,1.2,0.9,1.7c0.2,0.3,0.4,0.7,0.5,1c0.2,0.5,0.5,0.9,0.7,1.4
		c0.4,0.9,0.8,1.7,1.2,2.6c0.8,1.7,1.6,3.5,2.4,5.1c-9,3.3-17.9,6.6-26.9,9.9C107.1,386.4,106.5,385.2,105.9,383.9z M124.4,413.3
		c-0.1,0-0.1-0.1-0.3-0.2c-0.1-0.1-0.2-0.2-0.3-0.3c0,0,0-0.1-0.1-0.1c0-0.1-0.1-0.1-0.1-0.2l0,0c-0.1-0.1-0.1-0.2-0.2-0.2
		c-0.2-0.3-0.3-0.5-0.5-0.7c-2-2.6-4-5.3-6-7.9c0.8-0.6,1.6-1.1,2.5-1.7c0.8-0.5,1.5-1,2.3-1.5c0.6-0.4,1.2-0.7,1.7-1.1
		c0.6-0.3,1.2-0.7,1.7-1c1.2-0.7,2.4-1.3,3.6-1.9c0.4-0.2,0.8-0.4,1.3-0.6c0.2-0.1,0.3-0.2,0.5-0.2c0.6-0.3,1.2-0.5,1.8-0.7
		c1.5-0.6,3-1.1,4.6-1.5c2.2-0.5,3.7-1.6,5.5-2.8c0,0,0,0,0.1,0c0.2-0.1,0.4-0.2,0.6-0.3c0,0,0-0.1-0.1-0.1c0,0,0,0,0,0
		c-7.3-0.1-13.9,2.8-20.1,6.4c-1.5,0.9-3,1.8-4.6,2.7c-0.2,0.1-0.5,0.3-0.7,0.5c-0.6,0.4-1.3,1-1.8,1c0,0-0.1,0-0.1,0
		c-0.1,0-0.2-0.1-0.3-0.2c0,0,0,0,0,0c-0.1-0.1-0.3-0.3-0.4-0.5c-0.2-0.3-0.3-0.6-0.5-0.9c-1.9-3.1-3.9-6.3-5.8-9.4
		c7-2.4,14-4.8,21.1-7.1c1.8-0.6,3.7-1.5,5.5-1.3c0.1,0,0.3,0,0.4,0.1c0.1,0,0.2,0.1,0.3,0.1c0.1,0,0.2,0.1,0.3,0.1
		c0.1,0,0.2,0.1,0.3,0.2c0.1,0,0.2,0.1,0.3,0.2c0.1,0.1,0.2,0.1,0.3,0.2c0.2,0.1,0.3,0.2,0.5,0.4c0.1,0.1,0.2,0.2,0.3,0.3
		c0.1,0.1,0.1,0.1,0.2,0.2c1.9,1.9,3.2,4.5,4.6,6.7c0,0.1,0.1,0.1,0.1,0.1c0.1,0.1,0.1,0.2,0.2,0.3h0.2c0,0,0,0,0,0
		c0,0-0.1,0.1-0.1,0.1c0,0,0,0-0.1,0c0,0,0,0,0,0c2,2.4,4.1,4.8,6.1,7.2c-6,3.9-12.1,7.8-18.2,11.6c-1.5,1-3,1.9-4.5,2.9
		c-0.1,0.1-0.1,0.1-0.2,0.2c0,0-0.1,0-0.1,0c-0.1,0-0.1,0.1-0.2,0.1c-0.1,0.1-0.2,0.1-0.3,0.2c-0.2,0.1-0.5,0.3-0.7,0.4
		c-0.1,0.1-0.2,0.1-0.3,0.2C124.5,413.4,124.5,413.4,124.4,413.3z M125.5,415.7c6.1-3.6,12-7.5,18.2-11c1.5-0.8,2.9-1.6,4.4-2.4
		c0.3-0.2,0.6-0.3,0.9-0.4c0.1-0.1,0.3-0.1,0.4-0.2c0.3-0.1,0.6-0.2,0.9-0.2c0.3,0,0.5,0.1,0.9,0.1c0,0,0.1,0,0.1,0c0,0,0.1,0,0.1,0
		c0.1,0.1,0.3,0.1,0.4,0.2c1.7,0.6,3.2,1.8,4.8,2.8c0.3,0.2,0.7,0.4,1,0.6c0.3,0.2,0.7,0.4,1,0.5c-7.4,6.7-14.9,13.4-22.3,20.1
		C132.7,422.5,129.1,419.1,125.5,415.7z M138,428.1c6.7-6,13.3-12,20-18c0.4-0.4,1.2-1.4,1.6-1.4c0.1,0,0.3,0.2,0.5,0.4
		c0.1,0.1,0.3,0.3,0.5,0.4c0.9,0.7,1.8,1.3,2.7,2c1.7,1.3,3.5,2.5,5.2,3.8c1.7,1.3,3.4,2.5,5.1,3.8c0.1,0.1,0.2,0.1,0.3,0.2
		c0.1,0.1,0.2,0.1,0.2,0.2c0.1,0,0.2,0.1,0.3,0.2c0,0,0.1,0.1,0.1,0.1c0.3,0.2,0.6,0.4,0.6,0.5c0,0.1-0.5,0.8-0.8,1.1
		c-0.7,0.9-1.3,1.9-2,2.8c-2.7,3.7-5.3,7.5-7.9,11.2c-1.2,1.8-2.5,3.5-3.7,5.3c-0.1,0.2-0.3,0.4-0.4,0.6c-0.1,0.2-0.4,0.6-0.6,1.1
		c-0.1,0.1-0.1,0.2-0.2,0.3c-0.3,0.6-0.7,1.1-1,1.1c-0.5,0.1-2-1-2.5-1.3c-0.7-0.4-1.4-0.8-2.1-1.2c-0.9-0.6-2-1.2-2.8-2.1
		c-0.2-0.2-0.4-0.4-0.6-0.7c-0.1-0.2-0.2-0.3-0.3-0.5c0,0,0,0,0,0c-0.2-0.3-0.3-0.7-0.4-1.1v-0.1c0-0.3,0-0.6,0-0.9
		c0.1-0.9,0.5-1.7,1-2.4c0.1-0.1,0.2-0.3,0.3-0.4c0.2-0.3,0.4-0.5,0.6-0.8c0.2-0.3,0.4-0.5,0.6-0.8c1.8-2,3.8-3.9,5.8-5.7
		c0.4-0.3,0.7-0.6,1.1-0.9c0.5-0.4,1-0.8,1.4-1.2c0.3-0.3,0.6-0.5,1-0.8c1-0.8,2-1.6,2.9-2.5l0,0c0.3-0.2,0.6-0.5,0.9-0.8
		c0.5-0.5,1.4-1.2,1.7-1.9c0,0,0,0,0-0.1c0-0.1,0.1-0.1,0.1-0.1c0.5-0.9,0.3-0.1-0.1-0.8c-0.1-0.2-0.3-0.4-0.6-0.7
		c-0.3-0.3-0.6-0.5-0.7-0.6c-4.8,4.4-9.5,8.9-14.3,13.3c-1.2,1.2-2.5,2.3-3.7,3.5c-0.5,0.5-1,0.9-1.5,1.4c-0.9,0.8-0.9,1.1-1.8,0.3
		C142.4,431.9,140.2,430,138,428.1z M175.7,424.3c0.4-0.6,0.9-1.7,1.5-2.1c0.2-0.7,0.5-0.7,1-0.2c0.4,0.2,0.8,0.5,1.1,0.7
		c1.4,0.9,2.9,1.8,4.3,2.6c0.6,0.4,1.7,0.8,2.1,1.3c0.6,0.2,0.7,0.5,0.2,0.9c-0.2,0.3-0.3,0.6-0.5,0.9c-3.4,6-6.8,12-10.2,18
		c-0.8,1.5-1.7,3-2.5,4.5c-0.2,0.4-0.5,0.8-0.7,1.2c-0.3-0.2-0.7-0.4-1-0.6c-0.7-0.4-1.4-0.8-2-1.1c-2.8-1.6-5.7-3.1-8.5-4.7
		c4-5.7,8.1-11.4,12.1-17C173.7,427.2,174.7,425.8,175.7,424.3z M161.2,484.9c-0.4,1.5-0.7,3.3-1.3,4.7c-0.3,0.5,0,0.6-0.6,0.7
		c0,0-0.1,0-0.1,0h-0.1c-0.4,0-1.1-0.3-1.5-0.4c-1.1-0.3-2.2-0.6-3.3-0.9c-2.1-0.6-4.3-1.1-6.4-1.7c-0.1,0-0.2-0.1-0.3-0.1
		c-1.1-0.3-2.3-0.8-3.4-0.9c0,0-0.1,0-0.1,0h-0.1c-0.3,0-0.4-0.1-0.5-0.1c-0.1,0-0.1,0-0.2,0.2c0,0.1-0.1,0.1-0.1,0.2
		c-0.3,0.4-0.3,1.1-0.5,1.5c3.6,1.1,7.2,2.3,10.8,3.4c1,0.3,2,0.6,2.9,0.9c0.1,0,0.2,0.1,0.3,0.1c0.6,0.2,0.8,0.2,1,0.6
		c0.1,0.2,0.1,1,0,1.2c-0.1,0.5-0.6,0.9-1.2,1.2c-0.1,0.1-0.3,0.2-0.5,0.2c-0.2,0.1-0.5,0.2-0.7,0.3c-0.3,0.1-0.5,0.2-0.8,0.2
		c-5,1.2-10.3-2.5-15.1,0.3c-0.2-0.4-0.3-0.8-0.4-1.2c-0.2-0.8-0.4-1.6-0.5-2.3c0-0.4-0.1-0.8-0.1-1.2c0-0.2,0-0.5,0-0.8
		c0-0.1,0-0.3,0-0.4c0-0.2,0-0.4,0.1-0.6c0.1-0.4,0.1-0.8,0.2-1.1c0-0.1,0-0.2,0.1-0.3c0-0.1,0.1-0.2,0.1-0.3
		c0.1-0.4,0.3-0.8,0.4-1.1c0.2-0.5,0.5-1,0.8-1.4c0.4-0.7,0.9-1.4,1.4-2.1c0.5-0.7,1-1.4,1.6-2c0.1-0.1,0.2-0.3,0.4-0.5
		c0.7-0.9,1.3-1.8,1.9-2.7c0,0,0,0,0-0.1c0.1-0.1,0.1-0.1,0.1-0.2v0c0,0-0.1-0.1-0.1-0.1c0.1,0,0.1,0,0.2,0c0,0,0,0.1,0,0.1
		c0.6,0.6,1.2,1.2,1.8,1.8c0.2,0.2,0.5,0.4,0.7,0.6c0.1,0.1,0.1,0.1,0.2,0.1c0.1,0,0.1,0.1,0.2,0.1c0.4,0.2,0.9,0.4,1.3,0.6
		c0.2,0.1,0.4,0.1,0.7,0.2c0,0,0.1,0,0.1,0c0.3,0.1,0.6,0.2,0.9,0.2c0.2,0,0.3,0.1,0.5,0.1c3,0.8,6.1,1.3,9.1,2
		C161.3,484.5,161.3,484.7,161.2,484.9z M163,460.4c-0.7-0.3-2-0.9-2.7-0.7c-0.3,0.1-1.2,0.8-1.1,1.3c0.1,0.3,1.8,1,2.1,1.2
		c3,1.7,5.9,3.4,8.9,5.1c-4.4,4-8.9-3-13.8-0.9c2.7,1.5,5.4,3,8.1,4.5c0.3,0.1,1,0.4,1.3,0.6c0.1,0,0.1,0.1,0.1,0.1
		c0.1,0.1,0.1,0.2,0,0.3c-0.1,0.1-0.1,0.2-0.2,0.4c-0.1,0.2-0.3,0.5-0.4,0.6c-0.2,0.3-0.5,0.7-0.8,0.9c-0.1,0.1-0.2,0.1-0.4,0.2
		c0,0-0.1,0-0.1,0c-0.1,0-0.2,0.1-0.3,0.1c-0.2,0-0.5,0.1-0.8,0c-0.1,0-0.2,0-0.4-0.1c-0.1,0-0.3,0-0.4-0.1c-0.1,0-0.3-0.1-0.4-0.1
		c-0.3-0.1-0.6-0.2-0.9-0.3c-0.8-0.3-1.5-0.6-2.1-0.9c-0.4-0.1-0.7-0.2-1.1-0.3c-1.2-0.3-2.4-0.6-3.6-0.9c-0.3-0.1-0.7-0.2-1.1-0.3
		c-0.1,0-0.3-0.1-0.4-0.1c-0.3-0.1-0.5-0.1-0.7-0.1c-0.2-0.1-0.3-0.2-0.4-0.2c-0.1,0-0.1,0-0.2,0v0c-0.1,0.1-0.2,0.3-0.2,0.6
		c-0.1,0.2-0.1,0.4-0.2,0.7c0,0.1-0.1,0.2-0.1,0.3c0.1,0.6,1,0.7,1.8,0.9c0.1,0.1,0.3,0.1,0.4,0.1c0.1,0,0.2,0.1,0.2,0.1
		c0.8,0.3,1.6,0.5,2.5,0.8c1.4,0.5,2.8,1,4.1,1.5c0.4,0.2,0.9,0.3,1.3,0.6c0.2,0.1,0.3,0.2,0.5,0.3c0.2,0.1,0.3,0.2,0.5,0.3
		c0.2,0.1,0.3,0.2,0.4,0.4c0.1,0.1,0.2,0.3,0.3,0.5c0.1,0.2,0.1,0.3,0.2,0.5c0,0,0,0,0,0.1c0,0.1,0,0.2,0,0.2c0,0.1,0,0.1,0,0.2
		c0,0.1,0,0.2-0.1,0.2c0,0,0,0.1,0,0.1c0,0.1,0,0.1-0.1,0.2c-0.1,0.2-0.2,0.4-0.2,0.6c-0.5,1.1-0.8,0.9-1.9,0.7
		c-0.3-0.1-0.6-0.1-1-0.2c-0.1,0-0.3-0.1-0.3-0.1c-1.5-0.3-3.1-0.5-4.6-0.8c-1.7-0.3-3.5-0.6-5.2-0.9c-0.9-0.2-1.7-0.3-2.6-0.5
		c-0.4-0.1-0.7-0.1-1.1-0.2c0.1-0.2,0.3-0.5,0.4-0.7c0.8-1.3,1.4-2.7,1.9-4.2c0.5-1.1,0.9-2.3,1.2-3.4c0.2-0.6,0.3-1.2,0.5-1.7
		c0.2-0.7,0.3-1.4,0.5-2c0.1-0.3,0.2-0.7,0.2-1c0.1-0.3,0.1-0.7,0.2-1c0.1-0.7,0.2-1.4,0.3-2.1c0.1-0.7,0.2-1.4,0.3-2.1
		c0.1-0.3,0.1-0.6,0.1-1c0.1-0.7,0.1-1.4,0.2-2.1c0.1-0.9,0.1-1.7,0.1-2.6c0.1-1.4,0.1-2.7,0.1-4.1c7.9,4.4,15.7,8.9,23.6,13.3
		C170.6,465.3,167.2,462.1,163,460.4z M189.1,459.5c-4.8-2-9.7-4-14.5-6c4.7-8.4,9.4-16.8,14.1-25.2c2.7,1.4,5.3,2.8,8,4.2
		c0.1,0,0.1,0.1,0.2,0.1c0,0,0.1,0,0.1,0.1c0.1,0.1,0.4,0.2,0.7,0.3c0.1,0.1,0.2,0.1,0.3,0.1c0.4,0.2,0.7,0.3,0.8,0.5
		c0.1,0.3-0.8,2.1-0.9,2.4c-0.6,1.5-1.1,3.1-1.7,4.6C193.7,446.8,191.4,453.1,189.1,459.5z M205.7,460.9c0,0.1-0.1,0.2-0.1,0.3
		c0,0.2-0.1,0.3-0.1,0.5c-0.1,0.4-0.2,0.9-0.3,1.3c0,0.1-0.1,0.2-0.1,0.3c0,0,0,0,0,0c-0.1,0.1-0.1,0.3-0.2,0.4
		c-0.1,0.2-0.2,0.3-0.3,0.4c-0.1,0.1-0.3,0-0.6,0c-0.5-0.1-1.2-0.4-1.7-0.6c-0.1-0.1-0.3-0.1-0.4-0.2c-0.1,0-0.2-0.1-0.2-0.1
		c-0.1,0-0.1,0-0.1-0.1c-1-0.3-2-0.6-3-0.9c-2.3-0.7-4.5-1.3-6.8-2c3.2-8.5,6.3-17.1,9.5-25.6c3.1,1.3,8.1,2.2,9.9,5.3
		c0.1,0.2,0.2,0.3,0.2,0.5c0.3,0.6,0.3,1.2,0.3,1.8c0,0.1,0,0.2,0,0.3c-0.1,0.7-0.3,1.4-0.6,2.1c0,0.1-0.1,0.2-0.1,0.3
		c-0.6,2-1.2,4.1-1.9,6.1c-0.7,2.1-1.3,4.1-2,6.2C206.5,458.5,206.1,459.7,205.7,460.9z M224.3,464.1c-0.1,0.2-0.1,0.4-0.2,0.6
		c-0.2,0.6-0.5,1.1-0.9,1.6c-0.1,0.1-0.3,0.3-0.4,0.4h0c-0.1,0.1-0.3,0.2-0.5,0.3h0c-0.2,0.1-0.3,0.2-0.5,0.2c0,0-0.1,0-0.1,0
		c-0.2,0.1-0.4,0.1-0.6,0.2c-2,0.3-4.5-0.6-6.5-1c-2.4-0.5-4.8-1.1-7.2-1.6c2.7-8.1,5.4-16.2,8.1-24.3c4.1,1.3,8.3,2.6,12.4,4
		c0.1,0,0.2,0.1,0.4,0.1c0.1,0,0.2,0,0.3,0.1c0.1,0,0.2,0,0.2,0.1c0,0,0,0,0,0c0.2,0,0.3,0.1,0.5,0.2c0,0,0,0,0,0
		c0.2,0.1,0.4,0.2,0.5,0.2c0.1,0.2-0.3,1.2-0.4,1.6c-0.3,1.2-0.6,2.3-0.9,3.4c-0.7,2.4-1.3,4.8-2,7.2
		C225.7,459.5,225,461.8,224.3,464.1z M241.3,455.1v0.5c0,0.9,0,1.7-0.1,2.5c0,1-0.1,2.1-0.2,3.1c0,0.3-0.1,0.7-0.1,1
		c0,0.2-0.1,0.5-0.1,0.7c-0.2,1.7-0.5,3.7-1.4,5.2c-0.1,0.1-0.1,0.2-0.2,0.3c-0.1,0.1-0.1,0.2-0.2,0.3c-0.1,0.1-0.2,0.2-0.4,0.3
		c-0.1,0.1-0.3,0.2-0.4,0.3c0,0,0,0-0.1,0.1c0,0-0.1,0-0.1,0.1c0,0-0.1,0-0.1,0.1c0,0-0.1,0.1-0.1,0.1c-0.1,0.1-0.1,0.1-0.2,0.1
		c-0.1,0.1-0.3,0.1-0.4,0.2c-1.3,0.4-2.7,0.2-4.1,0c-1.1-0.2-2.1-0.4-3.2-0.7c-0.1,0-0.1,0-0.2-0.1c0,0-0.1,0-0.1,0
		c-0.8-0.2-2.5-0.4-3.1-0.8c-0.1,0-0.1-0.1-0.1-0.1c-0.1-0.1-0.1-0.2,0-0.5c0-0.1,0-0.2,0.1-0.3c0,0,0,0,0,0
		c0.1-0.2,0.2-0.5,0.3-0.8c0-0.1,0.1-0.3,0.1-0.4c0-0.1,0.1-0.3,0.1-0.4c0-0.1,0.1-0.2,0.1-0.3c0.1-0.2,0.1-0.3,0.1-0.3
		c0.2-0.9,0.5-1.8,0.7-2.7c0.3-1.2,0.6-2.5,0.9-3.7c1.1-4.3,2.2-8.6,3.3-12.9c0.5,0.1,1,0.1,1.6,0.2c2.9,0.3,6.2,0.7,7.1,3.6
		c0,0.1,0,0.1,0.1,0.1c0,0.1,0,0.1,0,0.2c0.1,0.2,0.1,0.4,0.1,0.6c0,0.2,0.1,0.3,0.1,0.5c0,0.3,0.1,0.6,0.1,0.9c0,0.3,0,0.7,0,1
		C241.3,453.7,241.3,454.4,241.3,455.1z M254.3,471.1c-3.8-0.2-7.6-0.3-11.4-0.5c0.3-7.5,0.7-14.9,1.1-22.4c3.5,0.3,6.9,0.6,10.3,1
		V471.1z M262.4,470.5c-0.3,0.3-1.7,0.5-2.1,0.6c-0.2,0-0.4,0-0.6,0c-0.2,0-0.4,0-0.5-0.1c-0.2,0-0.3-0.1-0.4-0.1
		c-0.1,0-0.2-0.1-0.3-0.1c-0.1-0.1-0.2-0.1-0.3-0.2c-0.1-0.1-0.2-0.2-0.3-0.3c-0.1-0.2-0.2-0.3-0.3-0.5c-0.1-0.1-0.1-0.3-0.2-0.4
		c-0.1-0.1-0.1-0.2-0.1-0.3c-0.1-0.3-0.1-0.7-0.2-1c0-0.2,0-0.4,0-0.6c-0.1-0.9,0-1.8,0-2.6c0.1-5.1,0-10.1,0-15.2h3.6
		c0.1,0,0.4,0,0.7,0c0.4,0,0.8,0,1,0c0,0,0.1,0,0.1,0c0,0,0,0,0,0.1c0,0,0,0.1,0,0.1c0,0.2,0,0.4,0,0.6c0,0.2,0,0.4,0,0.6
		c0,0.3,0,0.5,0,0.6v15.1c0,0.2,0,0.6,0.1,1.1c0,0.2,0,0.3,0,0.5C262.6,469.3,262.6,470.3,262.4,470.5z M265.9,471v-18.6
		c0-0.6-0.2-1.5,0-2.1c0-0.1,0.1-0.2,0.1-0.3c0-0.1,0-0.1,0-0.2c0,0,0-0.1,0-0.1c0-0.1,0.1-0.1,0.1-0.1c0,0,0.1,0,0.1,0
		c0.1,0,0.1,0,0.2,0c0.1,0,0.2,0,0.3,0c2.4-0.1,4.8-0.2,7.1-0.4c0.7,7.1,1.3,14.1,2,21.2C272.6,470.7,269.2,470.9,265.9,471z
		 M286.5,469.2c-0.3,0.1-0.5,0.2-0.8,0.2c-0.8,0.2-1.7,0.3-2.5,0.3c-0.1,0-0.2,0-0.3,0c-0.6,0.1-1.4,0.2-2.1,0.3c-0.2,0-0.5,0-0.7,0
		c-0.1,0-0.3,0-0.4,0c-0.1,0-0.2,0-0.3,0c-0.3,0.1-0.5,0.2-0.6,0.1c-0.1,0-0.1-0.1-0.1-0.1c-0.1-0.1-0.1-0.3,0-0.6
		c0-0.2-0.1-0.5-0.1-0.7c-0.1-0.7-0.2-1.3-0.2-2c-0.2-1.6-0.3-3.1-0.5-4.7c-0.3-2.9-0.6-5.8-0.9-8.7c0-0.1,0-0.2,0-0.3
		c-0.2-1-0.7-3.2-0.4-3.8c0,0,0-0.1,0-0.1c0,0,0.1-0.1,0.1-0.1c0.1-0.1,0.2-0.1,0.4-0.1c0.3-0.1,0.7-0.2,1.2-0.2
		c0.2,0,0.5-0.1,0.7-0.1c0.2,0,0.3,0,0.5,0c0.1,0,0.2,0,0.3,0c0.1,0,0.2,0,0.3,0c0.3,0,0.6-0.1,0.7-0.1c2.6-0.4,5.2-0.8,7.8-1.2
		c0.4,5.8,0.9,11.6,1,17.4C289.3,466.8,288.5,468.4,286.5,469.2z M287.4,438.2c-0.5,0.1-1,0.2-1.5,0.3c-1.3,0.2-2.6,0.5-3.9,0.6
		c-1.3,0.2-2.6,0.4-3.9,0.5c-1.5,0.2-3,0.3-4.5,0.5c-0.7,0.1-1.5,0.1-2.2,0.2c-0.1,0-0.2,0-0.3,0c-1.2,0.1-2.4,0.1-3.6,0.2
		c-0.2,0-0.5,0-0.7,0c-0.4,0-0.8,0-1.1,0c-0.6,0-1.3,0-2,0c-1,0-1.9,0-2.9,0c-0.8,0-1.6,0-2.5-0.1c-0.1,0-0.2,0-0.3,0
		c-0.1,0-0.2,0-0.3,0c-0.1,0-0.1,0-0.2,0c-0.3,0-0.6,0-1-0.1c-0.6,0-1.2-0.1-1.8-0.1c-1.4-0.1-2.8-0.2-4.2-0.3
		c-0.9-0.1-1.9-0.2-2.8-0.3c-0.3,0-0.5-0.1-0.8-0.1c-0.8-0.1-1.7-0.2-2.5-0.3c-0.5-0.1-1-0.1-1.5-0.2c-2-0.3-3.9-0.6-5.8-1
		c-0.2,0-0.4-0.1-0.6-0.1c-0.7-0.1-1.3-0.3-2-0.4c-0.9-0.2-1.9-0.4-2.8-0.6c-1.8-0.4-3.5-0.9-5.3-1.3c-13.3-3.6-26.2-9-38.2-15.6
		c-7.2-4-13.9-8.6-20.2-13.7c-1.3-1-2.5-2.1-3.7-3.2c-2.7-2.4-5.2-4.8-7.7-7.4c-0.6-0.6-1.2-1.3-1.8-1.9c-0.6-0.7-1.2-1.3-1.8-2
		c-0.6-0.8-1.3-1.5-1.9-2.3c-1.3-1.5-2.5-3.1-3.7-4.7v0c-1.8-2.4-3.5-4.8-5.1-7.4c-0.5-0.8-1-1.7-1.6-2.5c-0.5-0.9-1-1.7-1.5-2.6
		c-0.5-0.9-1-1.9-1.5-2.8c-0.2-0.3-0.3-0.6-0.5-0.9c-0.6-1.2-1.2-2.3-1.7-3.5c-0.2-0.5-0.4-0.9-0.6-1.4c-0.3-0.7-0.6-1.4-0.9-2.1
		c-0.4-0.9-0.8-1.7-1.1-2.6c-0.1-0.3-0.2-0.6-0.3-0.9c-0.1-0.2-0.1-0.3-0.2-0.5c-0.3-0.8-0.6-1.6-0.9-2.4c-0.4-1.1-0.8-2.2-1.1-3.2
		c-0.4-1.1-0.7-2.2-1-3.3c-0.2-0.7-0.4-1.4-0.6-2.1c-0.4-1.4-0.7-2.8-1.1-4.1v0c-2.4-10.1-3.5-20.6-3.2-31.1
		c0.2-6.2,0.8-12.3,2-18.4c0.3-1.6,0.6-3.2,1-4.8c0,0,0-0.1,0-0.1c0.2-0.8,0.3-1.5,0.6-2.3c0.2-0.8,0.4-1.6,0.6-2.3
		c0.2-0.6,0.3-1.2,0.5-1.7c0.2-0.7,0.4-1.3,0.6-2c0.3-1.1,0.7-2.2,1.1-3.3c0.3-0.9,0.7-1.9,1-2.8c0-0.1,0-0.1,0.1-0.2
		c0.1-0.1,0.1-0.3,0.1-0.5c0-0.1,0.1-0.2,0.1-0.3c0-0.1,0.1-0.2,0.1-0.3c0.1-0.2,0.2-0.4,0.3-0.5c0.1-0.1,0.5,0,0.7,0c0,0,0,0,0,0
		c0.3,0,0.5-0.1,0.8-0.1c0.8-0.1,1.7,0,2.5,0c0.6,0,1.1,0.1,1.6,0.1c-1-0.9-1.9-1.8-2.9-2.7c0,0-0.1-0.1-0.1-0.1
		c-0.1-0.1-0.3-0.2-0.5-0.4c-0.3-0.2-0.6-0.5-0.6-0.7c-0.1-0.3,0-0.7,0.2-1.1c0-0.1,0.1-0.1,0.1-0.2c0.1-0.1,0.1-0.3,0.2-0.4
		c0-0.1,0.1-0.1,0.1-0.2c1.1-2.5,2.3-4.9,3.5-7.4c0.5-0.9,0.9-1.7,1.4-2.6c0.7-1.3,1.4-2.6,2.2-3.8c0.8-1.3,1.5-2.5,2.3-3.7
		c0,0,0,0,0,0c0.8-1.2,1.6-2.4,2.5-3.6c0.8-1.2,1.7-2.4,2.6-3.6c0,0,0.1-0.1,0.1-0.1c0.4-0.5,0.8-1,1.1-1.4c0.4-0.5,0.8-0.9,1.2-1.4
		c0.2-0.3,0.4-0.5,0.7-0.8c0.6-0.7,1.2-1.5,1.9-2.2c0.1-0.1,0.2-0.2,0.2-0.3c0.2-0.2,0.4-0.5,0.6-0.7c0.2-0.2,0.4-0.5,0.6-0.7
		c0.4-0.4,0.8-0.9,1.2-1.3c0,0,0,0,0,0c0.5-0.6,1-1.1,1.6-1.7l0.1-0.1c0,0,0,0,0,0c0.4-0.4,0.8-0.8,1.2-1.2c0.2-0.2,0.4-0.4,0.6-0.6
		l0.7-0.7c1.3-1.2,2.6-2.4,3.9-3.6c0.7-0.6,1.5-1.3,2.2-1.9c0.1-0.1,0.2-0.2,0.3-0.3c0.4-0.3,0.8-0.6,1.1-0.9c0.7-0.6,1.3-1.1,2-1.6
		c1.3-1,2.7-2,4-2.9c0.6-0.4,1.3-0.9,1.9-1.3c0.2-0.2,0.4-0.3,0.6-0.4c0.6-0.4,1.3-0.8,1.9-1.2c0.6-0.4,1.3-0.8,2-1.2
		c0.5-0.3,0.9-0.6,1.4-0.8c0.8-0.5,1.6-1,2.5-1.4c0.7-0.4,1.3-0.7,2-1.1c0.7-0.4,1.3-0.7,2-1.1c0.7-0.3,1.3-0.7,2-1
		c1.3-0.7,2.6-1.3,4-1.9c0.1-0.1,0.2-0.1,0.3-0.1c1.3-0.6,2.6-1.2,4-1.7c1.4-0.6,2.8-1.2,4.2-1.7c4.2-1.6,8.6-3,13-4.1
		c0.7-0.2,1.4-0.4,2.2-0.6c0.9-0.2,1.7-0.4,2.6-0.6c1-0.2,1.9-0.4,2.9-0.6c0.6-0.1,1.2-0.3,1.9-0.4c0.5-0.1,1-0.2,1.5-0.3
		c1.3-0.2,2.6-0.5,3.9-0.6c2.5-0.4,4.9-0.7,7.4-0.9c0.7-0.1,1.4-0.2,2.2-0.2c0.1,0,0.2,0,0.3,0c1.5-0.1,3-0.2,4.5-0.3
		c0.3,0,0.7-0.1,1.1-0.1c0.5,0,1-0.1,1.5-0.1c0.4,0,0.8,0,1.1,0c0.3,0,0.6,0,0.8,0.1c0.1,0,0.1,0,0.2,0c0.1,0,0.1,0,0.2,0
		c0.1,0,0.1,0,0.2,0.1c0,0,0,0,0,0c0,0,0,0,0,0c0.1,0,0.2,0.1,0.3,0.1c0.1,0,0.2,0.1,0.3,0.2c0.4,0.2,0.7,0.4,1.1,0.6
		c0.2,0.1,0.3,0.2,0.5,0.2c0.3,0.2,0.6,0.3,0.9,0.4c0.1,0,0.3,0.1,0.4,0.1c0.7,0,1.4-0.3,2.2-0.7c0.6-0.3,1.1-0.5,1.7-0.7
		c0.1,0,0.2-0.1,0.2-0.1c0.1,0,0.2,0,0.3-0.1c0.4-0.1,0.8-0.1,1.2-0.2c0.4,0,0.8-0.1,1.2-0.1c1,0,2,0.1,3,0.2c0.5,0,1,0.1,1.4,0.1
		c0.4,0,0.8,0.1,1.1,0.1c1.3,0.1,2.7,0.2,4,0.3c0.2,0,0.3,0,0.5,0.1c1.2,0.1,2.3,0.3,3.5,0.4c0,0,0,0,0.1,0c5.7,0.8,11.4,1.9,17,3.4
		c0.7,0.2,1.5,0.4,2.2,0.6c1.3,0.4,2.5,0.8,3.8,1.2c10.6,3.5,20.7,8.4,30,14.6c1,0.6,2,1.3,2.9,2c3.2,2.3,6.4,4.7,9.4,7.3
		c2.6,2.2,5.1,4.5,7.5,7c2.6,2.6,5.1,5.3,7.5,8.1c1.6,1.9,3.1,3.8,4.5,5.7c0.8,1,1.5,2,2.2,3c1.4,2,2.8,4,4.1,6.1
		c0.5,0.7,0.9,1.5,1.4,2.2c0.4,0.6,0.8,1.3,1.2,2c0.5,0.9,1,1.8,1.6,2.7c0,0,0,0.1,0.1,0.1c0.4,0.7,0.8,1.4,1.1,2.1
		c0.1,0.1,0.1,0.2,0.2,0.4c0.3,0.5,0.6,1,0.8,1.6c0.3,0.5,0.5,1,0.8,1.6c0.1,0.1,0.1,0.2,0.2,0.3c0.5,1,0.9,1.9,1.4,2.9
		c0.5,1.1,1,2.2,1.5,3.2c0,0.1,0.1,0.2,0.1,0.2c0,0.1,0.1,0.1,0.1,0.2c0.1,0.3,0.3,0.6,0.4,0.9c0.4,0.8,0.7,1.7,1.1,2.5
		c0.5,1.2,0.9,2.3,1.4,3.4c0.5,1.3,0.8,2.6,1,4c0.1,0.8,0.1,1.6,0.2,2.3c0.1,0.8,0.1,1.1-0.3,1.4c0,0.1-0.1,0.1-0.2,0.2
		c-0.1,0.1-0.3,0.2-0.5,0.3c2.3,1.4,3.7,4.1,4.2,6.7c0.2,1.2,0.2,2.5-0.1,3.8c0,0.1-0.1,0.2-0.1,0.3c-0.1,0.5-0.3,0.9-0.5,1.3
		c-0.1,0.1-0.4,0.5-0.6,0.8c-0.2,0.2-0.3,0.4-0.3,0.5c0,0.3,0.2,0.8,0.5,1.3c0,0.1,0.1,0.1,0.1,0.2c0.1,0.1,0.1,0.2,0.2,0.3
		c0.1,0.2,0.3,0.4,0.3,0.5c0.1,0.1,0.1,0.2,0.2,0.3c0,0,0,0,0,0c0,0.1,0.1,0.2,0.1,0.2c0.3,0.5,0.6,1,0.8,1.5
		c0.1,0.2,0.2,0.4,0.2,0.6c0.4,1.1,0.4,2.3,0.4,3.5c-0.1,0.8-0.1,1.5-0.2,2.3c0,0.1,0,0.2,0,0.3c-0.1,2.1-0.2,4.2-0.3,6.2
		c-0.1,1.1-0.2,2.2-0.2,3.3c-0.2,2.2-0.4,4.4-0.7,6.5c0,0.3-0.1,0.6-0.1,0.9c-0.4,3-0.9,5.9-1.5,8.9c-1.1,5.3-2.7,10.5-4.6,15.6
		c0,0.1-0.1,0.2-0.1,0.2c-1.1,3-2.3,5.9-3.5,8.9c-1.1,2.6-2.3,5.3-3.5,7.9c-0.2,0.5-0.4,0.9-0.7,1.4c-0.5,1-1,2-1.5,2.9
		c-1.8,3.6-3.8,7.1-5.8,10.5c-5.2,8.6-11.6,16.5-18.9,23.4c-0.7,0.7-1.5,1.4-2.2,2.1c-1.3,1.2-2.6,2.4-4,3.5
		c-2.5,2.1-5.1,4.1-7.7,5.9c-5.2,3.6-10.7,6.8-16.4,9.4c-0.2,0.1-0.5,0.2-0.8,0.3c-0.5,0.2-1.1,0.5-1.6,0.7
		c-0.7,0.3-1.4,0.6-2.1,0.9c-0.4,0.1-0.8,0.3-1.1,0.5c-3.8,1.5-7.6,2.7-11.5,3.8c-0.8,0.2-1.6,0.4-2.3,0.6c-0.5,0.1-1,0.3-1.5,0.4
		c-0.7,0.2-1.4,0.3-2.1,0.5C289.2,437.9,288.3,438.1,287.4,438.2z M357.6,441.1c-0.8,0.6-1.5,1.1-2.3,1.7c-0.3,0.2-0.7,0.6-1,0.9
		c0,0-0.1,0.1-0.1,0.1c-0.3,0.3-0.7,0.5-0.9,0.5c-0.1,0-0.2,0-0.2,0c0,0,0,0,0,0c-0.1,0-0.2-0.1-0.3-0.1c0,0,0,0,0,0
		c-0.1-0.1-0.2-0.2-0.3-0.4c0,0,0-0.1-0.1-0.1c-0.3-0.4-0.6-0.7-0.9-1.1c-0.6-0.7-1.1-1.5-1.7-2.2c-1.3-1.6-2.5-3.3-3.8-4.9
		c-2.4-3.1-4.8-6.2-7.2-9.3c-0.1-0.1-0.1-0.2-0.2-0.2c0,0,0,0,0-0.1c0,0,0,0-0.1-0.1c0,0,0,0-0.1-0.1c-0.1-0.1-0.2-0.3-0.3-0.4
		c0,0,0,0,0,0h0c-0.1-0.1-0.1-0.1-0.2-0.2c0,0,0,0,0-0.1c-0.1-0.1-0.2-0.2-0.2-0.3c0-0.1-0.1-0.1-0.1-0.2c0-0.1-0.1-0.1-0.1-0.1
		c0,0,0,0,0,0c-0.1-0.2-0.1-0.2,0-0.3c0.1-0.1,0.1-0.2,0.2-0.3c0.2-0.2,0.5-0.5,0.7-0.7c0.1-0.1,0.2-0.2,0.3-0.2
		c0.3-0.2,0.7-0.5,0.9-0.6c1.4-1.2,2.9-2.5,4.3-3.7c6.1,6.4,12.1,12.8,18.2,19.2c-1.4,1-2.8,2.1-4.3,3.1
		C357.7,441,357.7,441.1,357.6,441.1z M306.6,465.3c-0.6,0.2-1.3,0.3-2,0.4c-1.3,0.3-2.6,0.6-3.9,0.9c-2.7,0.6-5.5,1.2-8.2,1.9
		c-0.4-5.4-0.8-10.9-1.1-16.3c-0.1-0.8-0.1-1.6-0.2-2.4c-0.1-0.6-0.2-1.3-0.1-2v-0.1c0-0.1,0-0.2,0.1-0.3c0,0,0-0.1,0-0.1
		c0.1-0.2,0.2-0.3,0.4-0.3c0,0,0,0,0,0c0.1-0.1,0.3-0.1,0.5-0.2c0.3-0.1,0.7-0.3,1.1-0.4c0,0,0,0,0,0c0.4-0.2,0.9-0.4,1.3-0.5
		c0.2-0.1,0.4-0.1,0.6-0.2c0.3-0.1,0.7-0.2,1-0.3c0.2,0,0.3-0.1,0.5-0.1c0.2-0.1,0.3-0.1,0.5-0.1c0.1,0,0.2,0,0.3,0
		c0.2,0,0.3,0,0.5,0c2.4,0.3,3.4,3.7,4.2,5.5c0.1,0.3,0.2,0.5,0.3,0.8c0.5,1,0.9,2,1.3,3.1c0.5,1.2,1,2.4,1.5,3.6
		c0.8,2,1.8,3.9,2.2,6C307.5,465,307.6,465,306.6,465.3z M311.7,463.7c-1.3,0.4-1.1,0.3-1.7-0.9c-0.3-0.6-0.5-1.3-0.8-1.9
		c-0.6-1.4-1.2-2.9-1.8-4.3c-1.3-3-2.6-6.1-3.9-9.1c-0.3-0.8-0.7-1.6-1-2.4c-0.1-0.1-0.1-0.2-0.1-0.3c-0.1-0.2-0.1-0.3-0.2-0.4
		c0,0,0,0,0,0c-0.1-0.2-0.1-0.4,0.3-0.7c0.7-0.6,2.2-1,3-1.4c0.2-0.1,0.4-0.2,0.6-0.2c1-0.3,2-0.6,3-0.2c1.2,0.5,1.9,1.7,2.5,2.8
		c0.1,0.1,0.1,0.2,0.2,0.3c0.4,0.7,0.9,1.4,1.3,2.2c0.3,0.6,0.7,1.3,1,1.9c0.7,1.3,1.4,2.6,2,3.9c1.4,2.7,2.7,5.4,4.1,8.1
		C317.4,461.9,314.6,462.8,311.7,463.7z M328.3,457.7c-1.3,0.6-2.6,1.1-3.9,1.7c-0.1,0-0.2,0.1-0.4,0.2c-0.1,0.1-0.2,0.1-0.3,0.2
		c0,0,0,0,0,0c-0.1,0.1-0.2,0.1-0.3,0.2c-0.1,0-0.2,0.1-0.2,0.1c-0.1,0-0.1,0-0.2,0c-0.3-0.1-1.1-2.1-1.3-2.4
		c-3.2-5.9-6.3-11.8-9.5-17.7c2.5-1.3,5-2.6,7.5-3.9c0.7-0.4,1.4-0.8,2.2-1.1c0.1-0.1,0.3-0.2,0.5-0.3c0.1-0.1,0.2-0.2,0.3-0.2
		c0.1-0.1,0.3-0.2,0.4-0.2c0.1-0.1,0.2-0.1,0.3-0.2c0.2-0.1,0.4-0.2,0.5-0.2c0.1-0.1,0.2-0.1,0.3-0.1c0,0,0.1,0,0.1,0.1
		c0.2,0.2,0.5,0.8,0.7,1.2c0.1,0.2,0.1,0.3,0.2,0.3c0.4,0.7,0.9,1.4,1.3,2.2c3.4,5.6,6.8,11.2,10.1,16.8
		C333.9,455.3,331.1,456.5,328.3,457.7z M342.3,450.9c-0.5,0.3-1.1,0.6-1.6,1c-0.4,0.2-0.7,0.4-1.1,0.6c-0.4,0.5-0.7,0.4-0.9-0.2
		c-0.2-0.2-0.5-0.5-0.7-0.8c0,0,0,0,0,0c-0.2-0.3-0.4-0.7-0.6-1c0,0,0,0,0,0c-0.2-0.4-0.4-0.8-0.6-1.1c-0.2-0.4-0.3-0.7-0.5-1
		c-3.2-5.4-6.5-10.9-9.8-16.3c2.3-1.6,4.7-3.2,7-4.8c0.2-0.2,1.3-1.2,1.6-1.1c0.4,0.1,1.4,1.8,1.6,2.1c0.9,1.1,1.7,2.3,2.6,3.4
		c3.7,4.8,7.5,9.7,11.2,14.5C347.8,447.6,345,449.3,342.3,450.9z M371.3,473.4c-6,2-11.9,3.1-15.4,9c5.4-2.2,10.9-4.5,16.3-6.7
		c0.3,1.2,0.7,2.4,1,3.6c0.2,0.6,0.3,1.2,0.5,1.8c0,0.1,0.1,0.2,0.1,0.2c0.1,0.2,0.1,0.4,0.1,0.5c0,0,0,0,0,0.1
		c0,0.2-0.2,0.2-0.5,0.4h0c-0.1,0-0.2,0.1-0.3,0.1c-1.4,0.5-2.8,0.9-4.2,1.4c-1.6,0.5-3.2,1-4.8,1.6c-0.8,0.2-1.5,0.5-2.3,0.7
		c-0.2,0.1-0.3,0.1-0.5,0.2c-0.3,0.1-0.5,0.2-0.6,0.3c0,0,0,0,0,0c-0.2,0.2-0.2,0.5,0.2,1.1c0.1,0.2,0.1,0.4,0.1,0.6
		c0.1,0,0.2,0,0.3-0.1c0.2,0,0.5-0.1,1-0.2c0.8-0.2,1.5-0.3,2.3-0.5c3.2-0.7,6.4-1.4,9.5-2.1c0.4,3.8-1.5,5.7-5,6.6
		c-1.4,0.3-2.9,0.5-4.2,1.2c-0.6,0.3-1.1,0.7-1.6,1.2c-0.2,0.3-0.3,0.7-0.5,0.9c-0.1,0.2-0.1,0.4-0.2,0.5c-0.4-0.1-0.9-0.2-1.3-0.2
		c-5.4-11.1-10.7-22.1-16-33.2c0.3-0.1,0.5-0.2,0.8-0.3c0.5-0.3,0.9-0.7,1.3-1.1c0.2-0.2,0.4-0.4,0.6-0.6c1.2-1,2.5-1.6,4.1-1.4
		c0.6,0.1,1.1,0.3,1.7,0.5c0.1,0,0.2,0.1,0.3,0.1c0.1,0,0.2,0.1,0.3,0.1c0.1,0,0.1,0,0.2,0c0.3,0,0.6,0,0.8-0.1
		c0.2-0.1,0.4-0.1,0.6-0.2c0.4-0.2,0.8-0.4,1.2-0.6c2.1-1.1,3.9-2.5,6-3.6c0.7,1.5,1.3,3,2,4.5c-2.4,1-4.9,2-7.4,3
		c-1.1,0.5-2.2,0.9-3.3,1.4c-0.1,0-0.1,0.1-0.2,0.1c0,0-0.1,0-0.1,0.1c-0.2,0.1-0.6,0.2-1,0.3c-0.1,0-0.1,0-0.2,0.1
		c-0.3,0.1-0.5,0.2-0.6,0.3c0,0,0,0,0,0.1c0,0.1,0,0.2,0.1,0.4c0,0,0,0,0,0c0.2,0.5,0.5,1.1,0.5,1.2c0.1,0.1,0.2,0.1,0.2,0.2
		c0.1,0,0.3,0,0.4,0c0.1,0,0.2-0.1,0.3-0.1c0.1-0.1,0.2-0.1,0.4-0.2c0.6-0.2,1.2-0.4,1.8-0.6c1.2-0.4,2.4-0.8,3.7-1.2
		c1.1-0.3,2.4-0.9,3.6-1c1.1-0.1,2.2,0.3,3.3,0.5c-0.6,0.8-1.1,1.7-1.9,2.4c-0.8,0.7-1.8,1.1-2.7,1.6c-2.2,1.1-4.5,2-6.8,3.1
		c0.1,0.2,0.2,0.4,0.2,0.6c0,0.1,0.1,0.2,0.1,0.3c0.1,0.3,0.2,0.5,0.3,0.6c0.1,0,0.1,0.1,0.1,0.1c0,0,0,0,0,0
		c0.1,0.1,0.1,0.1,0.1,0.1h0c0.1,0.1,0.2,0,0.5-0.1c0,0,0.1,0,0.1,0c0.1,0,0.1-0.1,0.2-0.1c0.6-0.2,1.2-0.5,1.8-0.7
		c0.1,0,0.2-0.1,0.3-0.1c1.7-0.6,3.5-1.3,5.2-1.9c0.8-0.3,1.7-0.6,2.5-0.9c0.1,0,0.1,0,0.2-0.1c0,0,0.1,0,0.1,0
		c0.1,0,0.2-0.1,0.4-0.2c0.1,0,0.1-0.1,0.2-0.1c0.1,0,0.1,0,0.2-0.1c0.2-0.1,0.5-0.2,0.6-0.1c0.1,0,0.3,0.5,0.4,0.8
		c0,0,0.1,0.1,0.1,0.1c0,0,0,0.1,0,0.1c0.6,1.2,1.2,2.4,1.9,3.5C371.2,473,371.2,473.2,371.3,473.4z M364.3,436.1L352.8,424
		c-1.8-1.9-3.6-3.8-5.5-5.7c-0.1-0.1-0.4-0.4-0.8-0.7c-0.3-0.3-0.5-0.7-0.4-1c0-0.1,0.1-0.2,0.2-0.3c0.1-0.1,0.1-0.1,0.1-0.1
		c0.2-0.3,0.5-0.5,0.7-0.7c0.8-0.9,1.6-1.7,2.4-2.6c0.8-0.9,1.6-1.7,2.4-2.6c0.1-0.1,0.2-0.2,0.2-0.2c0.1-0.2,0.3-0.3,0.4-0.5
		c0,0,0-0.1,0.1-0.1l0,0c0.2-0.5,0.5-0.5,0.8-0.1c0,0,0,0,0,0c0,0,0.1,0.1,0.1,0.1c0.2,0.1,0.4,0.2,0.6,0.4c0.1,0.1,0.1,0.1,0.2,0.2
		c0.3,0.3,0.5,0.6,0.7,0.7c2,1.8,3.9,3.6,5.9,5.4c4.1,3.8,8.2,7.6,12.3,11.4C370.3,430.5,367.3,433.3,364.3,436.1z M375.3,425.8
		c-6.8-6.3-13.6-12.5-20.3-18.8c2-2.4,3.9-4.9,5.9-7.3c0.3-0.3,1.3-2,1.6-2.1h0c0.1,0,0.3,0.2,0.6,0.3c0.1,0.1,0.2,0.1,0.3,0.2h0
		c0.2,0.1,0.3,0.3,0.5,0.4c0.1,0.1,0.2,0.2,0.3,0.2c1.4,1,2.8,2.1,4.3,3.1c5.6,4.1,11.3,8.1,16.9,12.2
		C382,418,378.7,421.9,375.3,425.8z M386.9,411.9c-7.6-5.5-15.2-11-22.8-16.6c0.8-1.2,1.6-2.4,2.5-3.7c0.5-0.8,1-1.8,1.6-2.6
		c0.3-0.5,0.6-0.9,1-1.2c0.1-0.3,0.2-0.5,0.4-0.5h0c0.1,0,0.3,0.1,0.5,0.3c0.2,0.1,0.4,0.2,0.5,0.4c0.8,0.5,1.5,1,2.2,1.5
		c1.3,0.9,2.6,1.7,3.9,2.6c5.4,3.6,10.8,7.2,16.2,10.8C390.9,405.9,388.9,408.9,386.9,411.9z M394.3,400.6c-4.5-3-8.9-6-13.4-9
		c-2.2-1.5-4.4-3-6.6-4.4c-0.2-0.1-0.6-0.3-1.1-0.6c-0.2-0.1-0.3-0.2-0.5-0.3c-0.5-0.3-1.1-0.6-1.4-0.9c-0.2-0.1-0.3-0.3-0.3-0.4
		c0-0.1,0-0.2,0.1-0.3c0-0.1,0.1-0.2,0.1-0.2c0-0.1,0.1-0.1,0.1-0.2c0-0.1,0.1-0.1,0.1-0.2c0-0.1,0.1-0.2,0.1-0.2
		c0-0.1,0.1-0.2,0.2-0.2c0.5-0.7,1-1.5,1.2-1.8c0.1-0.2,0.3-0.5,0.4-0.8c0.5-0.9,0.9-1.8,1.5-2.5c0.3-0.3,0.4-0.4,0.6-0.4
		c0,0,0,0,0,0c0.2,0,0.4,0.2,0.9,0.5c0.6,0.3,1.2,0.6,1.8,0.9c2.4,1.3,4.8,2.5,7.2,3.8c4.8,2.5,9.6,5,14.3,7.5
		C398,394,396.2,397.3,394.3,400.6z M405.5,377.1c-1.1-0.4-2.1-0.8-3.2-1.2c-6.9-2.6-13.8-5.2-20.7-7.8c-0.6-0.2-1.2-0.4-1.8-0.6
		c0.9,0.9,1.7,2,2.7,2.8c1.2,0.8,2.6,1.3,3.9,1.9c2.9,1.4,5.8,2.7,8.8,4.1c1.4,0.6,2.8,1.3,4.2,1.9c0.8,0.4,1.6,0.8,2.4,1.1
		c0.4,0.2,2.3,0.8,2.5,1.1c0.1,0.1,0,0.4-0.1,0.7c-0.1,0.2-0.1,0.3-0.2,0.5c-0.4,1-1.2,2.4-1.4,2.7c-0.6,1.3-1.1,2.6-1.7,3.9
		c-5.5-2.9-11-5.7-16.6-8.6c-1-0.5-2-1-3-1.6c-0.2-0.1-0.5-0.3-0.8-0.4c-0.1-0.1-0.2-0.1-0.3-0.2c-0.6-0.3-1.2-0.6-1.7-0.9
		c0,0-0.1,0-0.1-0.1c-0.3-0.1-0.9-0.4-1.3-0.6c-0.2-0.1-0.4-0.2-0.3-0.4c0-0.5,0.5-1.6,1-2.6c0.1-0.1,0.1-0.3,0.2-0.4
		c0.1-0.1,0.1-0.2,0.2-0.3c0-0.1,0.1-0.2,0.1-0.2c0.1-0.2,0.2-0.4,0.2-0.5c0.1-0.2,0.1-0.4,0.2-0.6c0.4-1,0.8-2,1.2-3.1
		c0-0.1,0.1-0.2,0.1-0.3c0-0.1,0-0.1,0.1-0.2c0.1-0.1,0.1-0.3,0.2-0.4c0.5-1.3,1.2-2.5,1.9-3.7c0.4-0.8,0.8-1.5,1.2-2.3
		c0.1-0.2,0.2-0.4,0.3-0.5c0,0,0,0,0-0.1c0.1-0.1,0.1-0.2,0.2-0.3c0.1-0.2,0.3-0.2,0.6-0.1c0.3,0.1,0.5,0.2,0.8,0.2
		c0.6,0.2,1.3,0.4,1.9,0.6c1.5,0.5,3,1,4.4,1.4c5.7,1.9,11.5,3.8,17.3,5.7C407.6,370.9,406.5,374,405.5,377.1z M409.6,365.1
		c-4.9-1.6-9.9-3.2-14.8-4.8c-2.5-0.8-4.9-1.6-7.4-2.4c-0.6-0.2-1.1-0.3-1.6-0.5c-0.3-0.1-0.7-0.2-1-0.3c-0.2-0.1-0.2-0.2-0.1-0.6
		c0-0.1,0-0.1,0-0.1c0-0.1,0.1-0.2,0.1-0.3c0.3-1.1,0.7-2.3,1.1-3.4c0-0.1,0.1-0.2,0.1-0.2c0.2-0.5,0.3-1.1,0.5-1.6
		c0.1-0.2,0.1-0.4,0.2-0.6c0,0,0-0.1,0-0.1c0.1-0.2,0.1-0.3,0.3-0.4c0,0,0.1-0.1,0.1-0.1c0.1-0.1,0.3-0.1,0.5-0.1
		c0.6-0.1,1.3-0.1,2-0.1c0.1,0,0.2,0,0.3,0c0.2,0,0.4,0,0.5,0c0.1,0,0.2,0,0.3,0h22.8C412,354.8,410.8,360,409.6,365.1z M415,340.3
		c-0.1,0.8-0.2,1.7-0.3,2.5c-0.1,0.9-0.1,2-0.4,2.9c0,0,0,0.1,0,0.1c0,0.1,0,0.1,0,0.2c-0.1,0.2-0.1,0.3-0.1,0.3c0,0,0,0,0,0.1
		c0,0.1,0,0.1-0.3,0.2c-0.3,0.2-1,0-1.4,0h-21c-0.6,0-1.4,0.1-2,0.1c-0.2,0-0.3,0-0.4-0.1c-0.2,0-0.3-0.1-0.4-0.1
		c-0.1,0-0.1,0-0.2-0.1c-0.1,0-0.1-0.1-0.2-0.1c-0.1,0-0.1-0.1-0.1-0.1c0-0.1-0.1-0.1-0.1-0.2c0-0.1-0.1-0.3-0.1-0.5v-0.2
		c-0.1-0.9,0.3-2,0.5-2.9c0.1-0.5,0.2-1,0.3-1.5c0.1-0.2,0.1-0.5,0.1-0.7c0-0.2,0.1-0.4,0.1-0.5c0.4-2.2,1-3.2,3.3-3.3
		c0.5,0,1-0.1,1.6-0.1c0,0,0,0,0,0c0,0,0,0,0,0c4.7-0.1,9.6,0,14.3,0c-0.1-0.8-0.1-1.7-0.1-2.5h-17.8c0.2-3.6,0.5-7.1,0.8-10.7
		c0-0.5,0.1-1,0.1-1.5c0-0.5,0.1-0.9,0.1-1.4c0-0.2,0-0.8,0-1.4c0-0.1,0-0.2,0-0.4c0-0.5,0.1-0.8,0.2-0.9c0.3-0.3,2.1,0.1,2.5,0.1
		c0.9,0.1,1.7,0.1,2.5,0.1c7.2,0.3,14.4,0.7,21.5,1L415,340.3z M417,303.7C417.1,303.7,417.1,303.7,417,303.7L417,303.7
		c0.1,0,0.1,0,0.1,0c0.5-0.2,0.7,0,0.6,0.5c0,0.1,0,0.1-0.1,0.2c0.1,0.3,0.1,0.9,0,1.3c0,0.2,0,0.5,0,0.6v7c0,0.1,0,0.2,0,0.2
		c0,0.2,0,0.5,0.1,0.7v0.1c0,0.3,0,0.5,0,0.7c0,0,0,0,0,0c0,0,0,0.1,0,0.1c-0.1,0.2-0.3,0.3-0.6,0.3c-0.3,0-0.7,0-1,0h-24.7
		c-0.3-3.9-0.6-7.8-0.8-11.8H417z M392.9,300.6c-0.4,0-2.3,0.3-2.6,0c-0.3-0.3-0.3-1.9-0.4-2.3c-0.6-3.2-1.2-6.3-1.7-9.5h24.5
		c0.3,0,1.5,0.1,2.2,0.1c0.1,0,0.2,0,0.3,0h0c0,0,0.1,0,0.1-0.1c0.1-0.1,0.1-1.3,0.1-1.7c0-0.1,0-0.1,0-0.1
		c-0.1-0.1-0.2-0.1-0.4-0.2c-0.1,0-0.2-0.1-0.4-0.1c-0.1,0-0.3-0.1-0.4-0.1c-0.6-0.1-1.1-0.2-1.3-0.2c-0.6-0.1-1.3-0.1-1.9-0.2
		c-1.7,0-3.4-0.1-5.1-0.1c-3.3-0.1-6.5-0.1-9.8,0c-2.2,0.1-4.6,0.6-6.7-0.1c-1.6-0.5-2.6-1.6-3.2-3.2c-0.3-0.8-0.4-1.5-0.5-2.3
		c0-0.3-0.1-0.5-0.1-0.8c-0.1-0.3-0.1-0.6-0.2-0.9c-0.3-0.9-0.6-1.9-0.9-2.8c5.1-0.7,10.2-1.4,15.3-2.2c2.4-0.3,4.7-0.7,7.1-1
		c0.6-0.1,1.1-0.2,1.7-0.3c0.9-0.2,1.8-0.3,2.7-0.4c0.6-0.1,1.2-0.1,1.8-0.1h0.2c0.4,0,1.1,0,1.3,0.1c0.1,0.1,0.1,0.1,0.2,0.2
		c0,0,0.1,0,0.1,0.1c0.1,0.1,0.1,0.2,0.1,0.4c0,0.2,0,0.4,0.1,0.7c0.2,1.2,0.3,2.5,0.5,3.7c0.3,2.6,0.6,5.2,0.9,7.8
		c0.6,5.2,1.3,10.4,1.9,15.5H392.9z"/>
	<path d="M394.9,119.2c-3.2-11.9-10.1-22.6-19.5-30.5c-2.5-2.1-5-4.1-6.5-7c-1.4-2.7-1.8-5.7-1.8-8.6c0-2.1,0.2-4.7-1.1-6.4
		c-1.3-1.7-3.7-2.3-5.6-2.8c-2.7-0.7-5.6-1.2-8.1,0.4c-3,1.8-4.1,5.6-5.3,8.7c-0.4,1-0.8,2-1.2,3c-0.6,1.4-0.6,1.2-2.1,1.2
		c-1.5,0-3.1,0.1-4.6,0.3c-3.1,0.3-6.1,0.8-9.1,1.6c-12.2,3.4-22,11.8-28.4,22.5c-8.4-5.7-17.5-10.4-27.3-13.4
		c-26.2-8.2-58.5-3.6-76.2,19.2c-1.7-0.7-2.9-2.2-4.3-3.4c-1.3-1.1-2.7-2.2-4.1-3.2c-2.9-2.1-5.9-4.1-9-5.7
		c-6-3.2-12.6-5.5-19.4-6.3c-3.6-0.4-7.3-0.5-10.9-0.1c-3.7,0.4-7.2,1.4-10.9,2.2c-3.1,0.7-6.3,0.5-9.3-0.7
		c-3.1-1.3-5.5-3.6-8.3-5.5c-5.1-3.4-11.5,2.1-12.8,7.1c-0.9,3.4,0.3,6.2,1.9,9.2c0.5,0.9,1.1,1.9,1.6,2.8c0.3,0.5,1.7,2.3,1.6,2.8
		c-0.1,0.5-1.1,1.4-1.5,1.8c-0.6,0.8-1.2,1.5-1.7,2.3c-4.2,5.8-7.4,12.3-8.6,19.4c-1.3,7.5,0.1,14.5,2.3,21.7
		c2.6,8.4,5.7,16.7,8.9,24.9c0.8,2.1,1.6,4.2,2.5,6.3c0.7,1.7,1.2,3.6,2.1,5.2c1.2,2,3.7,3,6,3.2c2.3,0.2,4.9-0.1,6.7-1.6
		c1.2-0.9,2-2.4,2.9-3.6c1.1-1.4,2.3-2.9,3.5-4.2c10.3-11.4,24.1-19.2,38.1-25.2c7.2-3.1,14.7-5.6,22.3-7.4
		c3.9-0.9,7.9-1.6,11.8-2.2c1.8-0.2,5-0.4,5.9-2.4c1-2.3-1-5.8-1.8-7.8c-1.5-4-3-7.9-4.5-11.8c-0.8-2.1-1.6-4.2-2.4-6.3
		c-0.5-1.4-2.2-4.2-1.7-5.5c0.5-1.2,1.7-2.4,2.5-3.4c0.9-1,1.7-2,2.7-2.9c15.5-15.5,40.3-16.7,60.2-10.8c5.1,1.5,10,3.5,14.7,6
		c2.1,1.2,4.2,2.5,6.2,3.9c1,0.7,2,1.5,3,2.3c0.5,0.4,0.9,0.8,1.4,1.2c0.7,0.6,0.8,0.6,0.3,1.6c-2.1,3.6-4,7.4-6.1,11
		c-1.1,1.9-2.2,3.7-3.3,5.6c-0.9,1.4-2.1,2.8-2.4,4.4c-0.6,2.7,1.4,4.9,2.4,7.2c0.5,1,0.3,2.1,1.4,2.7c1.2,0.6,2.8,0.8,4.1,0.9
		c3.9,0.5,8,0.5,11.9,0.8c4.1,0.3,8.1,0.9,12.1,1.9c7.2,1.8,14.1,4.2,20.9,7.2c6.7,3,13.2,6.7,19.4,10.8c6.2,4.2,11.8,9,17.5,13.8
		c1.9,1.6,4.1,3,6.4,1.4c2.5-1.7,4.3-4.7,6-7.1c3.5-5.2,6.2-10.9,8-16.8C397.9,143.2,398.1,130.8,394.9,119.2z M117.7,163.8
		c0.2-0.4,0.3-0.9,0.5-1.3c0.1-0.4,0.3-0.8,0.4-1.2c0,0,0-0.1,0.1-0.1c0.2-0.4,0.3-0.8,0.6-1.2c0.1-0.2,0.2-0.4,0.3-0.6
		c0.1-0.1,0.1-0.2,0.2-0.3c0.1-0.1,0.1-0.2,0.2-0.2c0.2-0.3,0.5-0.6,0.8-1c0.8-0.9,1.6-1.9,2.4-2.7c0.9-0.9,1.7-1.7,2.7-2.6
		c0.3-0.3,0.6-0.5,0.9-0.8c0.2-0.2,0.3-0.3,0.5-0.5c0.4-0.3,0.8-0.7,1.2-1l0,0c0.4-0.3,0.8-0.6,1.2-0.9c0.5-0.4,1-0.8,1.5-1.1
		c5.6-3.9,11.8-6.8,18.2-9C138.9,147.5,128.3,155.6,117.7,163.8z M205.1,138.8c-9.6,1.4-19,4.2-28,7.8c-4.4,1.8-8.8,3.7-13.1,5.8
		c-2.2,1-4.3,2.1-6.4,3.2c-1.1,0.6-2.2,1.2-3.4,1.7c-0.1,0.1-0.2,0.1-0.3,0.2c-0.1,0.1-0.2,0.1-0.3,0.2c-0.1,0.1-0.3,0.2-0.4,0.2
		c-0.3,0.1-0.5,0.2-0.6,0.2c-0.2,0-0.5-0.4-0.7-0.8c-0.1-0.1-0.2-0.2-0.2-0.3c-0.1-0.1-0.1-0.1-0.2-0.2c1.8-0.9,3.5-1.7,5.3-2.6
		c-0.3-0.3-1.3-2-1.8-2.1c-0.4-0.1-1.8,1.2-2.2,1.4c-1.4,1-2.9,2-4.3,3c-2.8,1.9-5.5,3.9-8.2,6c-5.5,4.2-10.8,8.5-16.1,12.8
		c8.9-13.4,22.7-22.1,34.9-32.1c-14.3,6.9-26.8,17.1-37,29.2c-4.2-4.1,0.8-8.5,3.8-11.6c3.5-3.6,7.4-6.8,11.5-9.7
		c4.1-2.9,8.4-5.5,12.8-8c4.7-2.7,9.7-5.1,14.1-8.4c-18.9,0.5-35.5,9.3-47.8,23.4c-0.1-0.1-0.1-0.1-0.2-0.1c-0.4-0.4-0.7-0.6-0.7-1
		c0-0.2,0.4-0.6,0.5-0.8c0.3-0.6,0.7-1.1,1.1-1.6c0,0,0,0,0,0c0.1-0.1,0.1-0.1,0.1-0.2c0.1-0.1,0.2-0.2,0.2-0.3
		c0.1-0.1,0.3-0.3,0.4-0.4c0.2-0.2,0.5-0.4,0.7-0.6c0.7-0.6,1.5-1.1,2.3-1.7c0.1-0.1,0.2-0.1,0.3-0.2c2.9-2.2,5.9-4.4,8.9-6.6
		c3-2.2,5.9-4.4,8.9-6.5c0.1-0.1,0.2-0.1,0.3-0.2c1.2-0.9,2.5-1.7,3.7-2.7c0.3-0.2,0.6-0.5,0.9-0.8c0.2-0.2,0.3-0.3,0.5-0.5
		c0.1-0.1,0.2-0.2,0.3-0.3c0.1-0.1,0.2-0.2,0.3-0.3c0.1-0.2,0.2-0.3,0.3-0.5c0.1-0.2,0.2-0.3,0.3-0.5c0.1-0.2,0.2-0.4,0.2-0.6
		c-1.1,0.5-2.1,1-3.2,1.6c-0.3,0.1-0.5,0.3-0.8,0.4c-0.9,0.5-1.7,0.9-2.6,1.4c-0.2,0.1-0.3,0.2-0.5,0.3c-0.7,0.4-1.4,0.8-2.1,1.2
		c-0.1,0.1-0.3,0.2-0.4,0.2c-0.4,0.2-0.8,0.5-1.2,0.7c-0.7,0.4-1.4,0.9-2.1,1.3c-0.5,0.3-1,0.6-1.5,1c-0.2,0.1-0.4,0.2-0.6,0.4
		c-0.3,0.2-0.6,0.4-0.9,0.6c0,0,0,0,0,0c-0.5,0.3-1,0.7-1.6,1.1c-1.7,1.2-3.3,2.4-4.9,3.6c-0.8,0.6-1.6,1.3-2.4,1.9
		c-0.5,0.4-1,0.8-1.5,1.3c-0.4,0.3-0.7,0.6-1.1,1c-0.2,0.2-0.4,0.3-0.6,0.5c-0.1,0.1-0.1,0.1-0.2,0.2c-0.7,0.8-1.9,2.2-2.6,2.4
		c0,0-0.1,0-0.3-0.1h0c-0.2-0.1-0.5-0.2-0.7-0.3h0c-0.2-0.1-0.3-0.1-0.3-0.2c-0.1-0.1,0.1-0.6,0.3-1c0,0,0,0,0-0.1
		c0.1-0.3,0.2-0.5,0.2-0.6c0.5-1.5,1.3-2.5,2.3-3.4c0.1-0.1,0.2-0.2,0.4-0.3c0.6-0.5,1.2-0.9,1.9-1.5c6.5-4.9,12.9-9.9,19.6-14.4
		c0,0,0,0,0,0c2.3-1.6,4.6-3,7-4.4c0.3-0.2,0.6-0.3,0.9-0.5c-0.5-0.1-1.1-0.1-1.6-0.1c-0.3,0-0.6,0-1,0.1c-0.8,0.1-1.5,0.2-2.3,0.4
		c-0.2,0-0.3,0.1-0.5,0.1c-0.2,0-0.3,0.1-0.5,0.2c-0.5,0.2-0.9,0.3-1.4,0.5c-0.5,0.2-0.9,0.4-1.4,0.6s-0.9,0.4-1.3,0.7
		c-0.9,0.5-1.7,1-2.6,1.5c-7.8,4.8-14.8,10.9-21.7,16.9c0.3-2,0.6-3.9,1.1-5.7c0.1-0.2,0.1-0.5,0.2-0.8c0.1-0.3,0.2-0.5,0.3-0.8
		c0.1-0.2,0.2-0.5,0.3-0.7c0.1-0.2,0.2-0.5,0.3-0.7c0.2-0.3,0.3-0.7,0.5-1c0.1-0.2,0.2-0.4,0.4-0.6c0.1-0.2,0.3-0.4,0.4-0.6
		c0.2-0.2,0.3-0.5,0.5-0.7c0.2-0.2,0.3-0.4,0.5-0.6c0.2-0.3,0.4-0.5,0.7-0.8c0.3-0.3,0.5-0.6,0.8-0.8c0.3-0.3,0.6-0.6,1-0.9
		c0.2-0.2,0.4-0.4,0.6-0.6c0.2-0.1,0.3-0.2,0.5-0.4c0.5-0.4,1-0.8,1.6-1.2c0.2-0.1,0.3-0.2,0.5-0.3c0.4-0.3,0.8-0.5,1.1-0.7
		c6.8-4.1,14.7-6.7,22.1-9.6c-2.4-0.7-5-0.2-7.3,0.5c-3.3,0.9-6.4,2.2-9.4,3.7c-6.4,3.2-12.8,7.2-17.9,12.2c0.1-0.2,0.2-0.5,0.3-0.8
		c0.2-0.6,0.3-1.1,0.5-1.7c0.1-0.2,0.1-0.3,0.2-0.5c0.1-0.2,0.1-0.3,0.2-0.5c0.1-0.2,0.1-0.3,0.2-0.5c0,0,0-0.1,0.1-0.1
		c0,0,0-0.1,0.1-0.1c0.1-0.1,0.1-0.2,0.2-0.3c0.1-0.2,0.2-0.3,0.4-0.5c0.5-0.6,1.1-1,1.7-1.5c0.4-0.3,0.9-0.6,1.3-1c3-2.4,6-4.8,9-7
		c0.7-0.5,1.5-1.1,2.2-1.6c0.2-0.2,0.4-0.3,0.6-0.5c0.4-0.3,0.9-0.6,1.3-0.9c0.5-0.3,1-0.6,1.4-1c0.1-0.1,0.1-0.1,0.2-0.1
		c0.7-0.5,1.4-0.9,2.1-1.3c0.4-0.2,0.8-0.5,1.2-0.7c0.1-0.1,0.2-0.1,0.3-0.2c0.3-0.2,0.7-0.3,1-0.5c0.1-0.1,0.3-0.2,0.5-0.2
		c0.7-0.4,1.4-0.7,2.2-1.1c0.8-0.4,1.6-0.8,2.4-1.2c0.1-0.1,0.3-0.1,0.4-0.2l1.6-0.8c0.7-0.3,1.4-0.7,2.2-1.1
		c-3.3-1.6-8.2,1-11.1,2.4c-7.3,3.5-14.1,8.1-20.8,12.7c7.5-8.2,17.2-14,27.5-18.1c-8.9-0.2-16.1,5.4-23.4,9.8
		c0.3-0.4,0.6-0.9,0.9-1.3c0.4-0.6,0.9-1.2,1.3-1.8c0.4-0.5,0.8-0.9,1.2-1.4c0.2-0.3,0.5-0.6,0.8-0.8c0.1-0.2,0.3-0.3,0.5-0.5
		c1.2-1.2,2.4-2.4,3.7-3.5c0.4-0.3,0.8-0.6,1.2-1c0.5-0.3,0.9-0.7,1.4-1c0.5-0.3,1-0.7,1.5-1c0,0,0,0,0,0c0.5-0.3,1-0.6,1.5-0.9
		c0.4-0.2,0.8-0.5,1.3-0.7c0.3-0.2,0.7-0.4,1.1-0.6c0.4-0.2,0.9-0.5,1.3-0.7c0.3-0.2,0.6-0.3,0.9-0.4c0.4-0.2,0.7-0.3,1.1-0.5
		c0,0,0.1,0,0.1,0c0.2-0.1,0.4-0.2,0.6-0.2c0.8-0.3,1.6-0.6,2.4-0.9c0.4-0.2,0.9-0.3,1.3-0.4c0.6-0.2,1.3-0.4,1.9-0.5
		c0.1,0,0.1-0.1,0.2-0.1c0.6-0.2,1.3-0.3,1.9-0.5c0.8-0.2,1.6-0.3,2.4-0.4c8.8-1.3,17.9-0.1,26.2,3.4c0.1,0,0.2,0.1,0.3,0.1
		c0.6,0.2,1.1,0.5,1.7,0.8c0,0,0,0,0,0c0.3,0.2,0.6,0.3,1,0.5l0,0c0.3,0.2,0.6,0.3,1,0.5c0.5,0.2,1,0.5,1.4,0.8
		c0.8,0.5,1.6,0.9,2.4,1.4c0.8,0.5,1.6,1,2.3,1.6c1.1,0.8,2.2,1.6,3.2,2.4c0.3,0.3,0.6,0.5,1,0.8c0.6,0.5,1.2,1,1.7,1.5
		c0.1,0.1,0.3,0.3,0.4,0.4c0.5,0.5,1.1,1,1.6,1.6c0.3,0.3,0.7,0.7,1,1c3.2,3.3,5.9,7,8,11c0.3,0.5,0.5,0.9,0.7,1.4
		c0.5,0.9,0.9,1.8,1.3,2.8c0.2,0.5,0.4,0.9,0.6,1.4c0.4,0.9,0.7,1.9,1,2.9c0.2,0.5,0.3,0.9,0.4,1.3
		C204.6,136.7,204.9,137.7,205.1,138.8z M301.2,134.2c-1.6-0.1-3.1-0.2-4.7-0.3c-0.3,0-0.6,0-1,0c-0.2,0-0.5,0-0.7-0.1
		c-0.1,0-0.2,0-0.3-0.1h0c-0.3-0.1-0.5-0.2-0.7-0.3c-0.2-0.2-0.2-0.6,0.1-1.1c0.1-0.1,0.1-0.2,0.2-0.2c0,0,0,0,0.1,0
		c0.1-0.1,0.2-0.1,0.3-0.2c0.1-0.1,0.3-0.1,0.4-0.1c0.1,0,0.3-0.1,0.5-0.1c0.5-0.1,1-0.1,1.5,0c0.3,0,0.5,0,0.8,0.1
		c0.9,0.1,1.9,0.3,2.7,0.5c0.3,0.1,0.6,0.2,0.9,0.2c0.2,0,0.3,0.1,0.5,0.1c0,0,0.1,0,0.1,0c0.1,0,0.2,0,0.2,0.1
		c0.6,0.1,1.2,0.3,1.7,0.5c1.3,0.4,2.6,0.8,3.9,1.2c0.8,0.2,1.5,0.4,2.3,0.6C307.1,134.7,304.1,134.4,301.2,134.2z M388.4,137.7
		c0,0.7-0.1,1.4-0.1,2.1c0,0.1,0,0.3,0,0.4c0,0.1,0,0.1,0,0.2c0,0.2,0,0.4-0.1,0.6c-0.4,4.1-1.2,8.2-2.5,12.2
		c-0.2,0.5-0.3,1-0.5,1.5c-0.2,0.5-0.3,1-0.6,1.5c-0.6,1.5-1.2,2.9-1.9,4.3c-1.1,2.2-2.4,4.4-3.9,6.4c-0.4,0.5-0.8,1-1.1,1.5
		c-14.5-12.7-31.6-21.7-49.2-29.4c0.2,0,0.4,0.1,0.6,0.1c0.9,0.1,1.8,0.2,2.6,0.3c0.4,0.1,1.1,0.2,1.7,0.3h0.1
		c0.5,0.1,0.9,0.1,1.2,0c0,0,0.1,0,0.1,0h0c0.1-0.1,0.2-0.1,0.2-0.2c0-0.1,0.1-0.2,0.1-0.3c0-0.1,0.1-0.2,0.1-0.4
		c0.1-0.3,0-0.6-0.2-0.8c-0.1-0.1-0.2-0.2-0.3-0.2c-0.1,0-0.1-0.1-0.2-0.1c-0.6-0.2-1.4-0.4-2-0.6c-3.8-1.3-7.6-2.3-11.4-3.3
		c-7.6-1.9-15.3-3.4-22.9-5.3c1.4-0.1,2.9-0.1,4.3-0.1c0.8,0,1.7,0,2.5,0.1c0.1,0,0.2,0,0.3,0c0.3,0,0.7,0,1,0c0.2,0,0.3,0,0.5,0
		c1.3,0.1,2.7,0.2,4,0.3c0.6,0.1,1.3,0.1,1.9,0.2c2.7,0.3,5.4,0.8,8.1,1.3c0.3,0.1,0.7,0.1,1,0.2c1.1,0.2,2.1,0.5,3.2,0.7
		c0.1,0,0.2,0.1,0.4,0.1c1,0.2,2.1,0.5,3.1,0.8c1.1,0.3,2.2,0.6,3.3,0.9c1.1,0.3,2.2,0.6,3.3,0.9c1.5,0.4,2.9,0.8,4.4,1.3h0
		c0.9,0.3,1.9,0.5,2.8,0.8c0.3,0.1,0.8,0.3,1.2,0.5c0,0,0,0,0.1,0c0.3,0.1,0.6,0.2,0.9,0.2c0,0,0,0,0.1,0c0,0,0,0,0,0
		c0.1,0,0.2-0.1,0.3-0.2c0,0,0,0,0,0c0.2-0.3,0.4-0.7,0.5-1.2v-0.1c0-0.7,0.2-0.3-0.5-0.7c-0.1,0-0.1-0.1-0.2-0.1c0,0,0,0,0,0
		c-0.3-0.1-0.7-0.2-1-0.3c-1.4-0.5-2.8-0.9-4.1-1.4c-1.5-0.5-3-1-4.5-1.5c-1.5-0.5-3-0.9-4.6-1.3c-1.5-0.4-3.1-0.8-4.6-1.1
		c-1.6-0.3-3.1-0.7-4.7-1c-0.3-0.1-0.5-0.1-0.8-0.1c-0.6-0.1-1.3-0.2-1.9-0.3c-5.5-1-11.1-1.4-16.6-1.9c-0.9-0.1-1.9-0.2-2.8-0.3
		c0.5-4.8,4.8-4.6,8.7-4.4c1.1,0.1,2.1,0.1,3.2,0.2c0.4,0,0.8,0.1,1.2,0.1c1,0.1,2,0.3,3,0.4c0.9,0.1,1.7,0.3,2.6,0.5
		c0.4,0.1,0.8,0.1,1.2,0.2c0.6,0.1,1.2,0.3,1.8,0.4c0.3,0.1,0.5,0.1,0.8,0.2c0.9,0.2,1.7,0.4,2.6,0.7c0.7,0.2,1.3,0.4,2,0.6
		c1.3,0.4,2.6,0.8,3.9,1.2c3.2,1,6.4,2.2,9.6,3.5c0.1,0,0.2,0.1,0.3,0.1c0.2,0.1,0.4,0.2,0.6,0.3c0.1,0,0.2,0.1,0.3,0.1
		c4.2,1.8,8.7,4.3,13.3,4.7c0.3,0,0.7,0.1,1,0.1c-12.7-13.9-29.8-21.6-48.5-22.8c13.5-1.3,26,4.8,39.1,7c-0.3-0.2-0.7-0.4-1-0.5
		c-0.3-0.2-0.7-0.3-1-0.5c-2.7-1.4-5.4-2.6-8.3-3.6c-0.7-0.3-1.4-0.5-2.1-0.8c-1.4-0.5-2.9-0.9-4.3-1.4c-1.1-0.3-2.3-0.6-3.4-0.9
		c-3.2-0.8-6.4-1.5-9.6-2.1c-0.7-0.1-1.4-0.3-2.1-0.4c-1-0.2-3.1-0.2-4-0.7c0,0-0.1-0.1-0.1-0.1c0,0-0.1,0-0.1-0.1
		c-0.1-0.1-0.2-0.3-0.3-0.5l0,0c-0.1-0.2-0.1-0.4,0-0.6c0,0,0-0.1,0-0.1c0-0.1,0.1-0.1,0.1-0.1c0,0,0,0,0,0c0.2-0.2,0.4-0.2,0.8-0.3
		c0,0,0,0,0,0c0.2-0.1,0.5-0.1,0.7-0.2c0.5-0.1,0.9-0.3,1.4-0.4c0.2-0.1,0.5-0.1,0.7-0.1c0.5-0.1,0.9-0.1,1.4,0
		c1.3,0.2,2.6,0.6,3.9,0.9c1.3,0.3,2.7,0.7,4,1c0.8,0.2,1.6,0.4,2.3,0.6c2.6,0.7,5.2,1.4,7.7,2.1c3.2,0.9,6.3,1.7,9.5,2.6
		c0.4,0.1,0.9,0.2,1.3,0.3c2.4,0.7,4.4,1.7,6.6,2.7c-1.8-5-8.1-6.9-12.6-8.3c-8.2-2.5-16.6-3.9-25-5.6c1.9-1,3.6-1.9,5.4-2.6
		c0.2-0.1,0.4-0.1,0.6-0.2c0.6-0.2,1.3-0.4,2-0.6c0.3-0.1,0.7-0.2,1.1-0.2c0.2-0.1,0.5-0.1,0.8-0.1c0.3,0,0.5-0.1,0.8-0.1
		c0.2,0,0.4,0,0.5,0c0.5,0,0.9,0,1.3,0c0.6,0,1.1,0,1.7,0.1c2.3,0.2,4.5,0.7,6.6,1.4c7.4,2.5,13.6,7.9,21.4,9.5
		c-10.8-7.1-21.4-15.2-34.9-14.4c0.4-0.1,0.7-0.2,1.1-0.4c0.3-0.1,0.7-0.3,1.1-0.4c0.3-0.1,0.6-0.2,0.9-0.3c0.1-0.1,0.3-0.1,0.4-0.1
		c0.2-0.1,0.5-0.2,0.7-0.2c0.2-0.1,0.5-0.1,0.7-0.2c0.1,0,0.3-0.1,0.4-0.1c0,0,0.1,0,0.1,0c0.1,0,0.1,0,0.2,0
		c0.3-0.1,0.6-0.1,0.9-0.1c0.8-0.1,1.7-0.1,2.5,0c0.6,0,1.2,0.1,1.8,0.1c1.4,0.1,2.7,0.3,4.1,0.6c0.4,0.1,0.9,0.2,1.3,0.3
		c0.3,0.1,0.5,0.1,0.8,0.2c0.3,0.1,0.6,0.2,1,0.3c1.2,0.3,2.4,0.7,3.6,1.1c1.7,0.6,3.4,1.3,5.1,2c1.6,0.7,3.2,1.4,4.7,2.1
		c0.2,0.1,0.4,0.2,0.6,0.3c0.6,0.3,1.3,0.6,2,0.9c0.6,0.3,1.3,0.6,2,0.8c0.4,0.2,0.9,0.3,1.3,0.5c0.9,0.3,1.8,0.6,2.8,0.8
		c0.4,0.1,0.7,0.1,1.1,0.1c0.1,0,0.1,0,0.2,0c0.3,0,0.5,0.1,0.8,0.1c-9.6-6.3-20.1-11.3-31.5-13.1c0.3-1.3,0.2-1.3,1.5-1.1
		c0.6,0.1,1.3,0.2,1.9,0.3c1.5,0.2,2.9,0.4,4.4,0.7c2.8,0.6,5.6,1.5,8.3,2.5c5.4,2,10.2,4.8,15.2,7.5c-0.9-2.3-1.9-4-4-5.3
		c-4.9-3-10.6-4.8-15.9-6.9c0.8-0.2,1.7-0.3,2.5-0.4c0.5-0.1,0.9-0.1,1.4-0.1c0.5,0,0.9,0,1.3,0c0.5,0,1.1,0,1.6,0.1
		c0.5,0,1.1,0.1,1.6,0.1c0.5,0.1,0.9,0.1,1.4,0.2c0.6,0.1,1.1,0.2,1.7,0.3c0.6,0.1,1.1,0.3,1.7,0.4c0.3,0.1,0.5,0.1,0.8,0.2
		c0.6,0.2,1.1,0.3,1.7,0.5c0.7,0.2,1.5,0.5,2.2,0.8c0.7,0.3,1.3,0.5,2,0.8c0.6,0.3,1.3,0.6,1.9,0.9c13.6,7.1,22.2,20.1,24.6,35.1
		c0.4,2.3,0.6,4.6,0.7,7c0,0.8,0.1,1.6,0.1,2.3C388.4,135.9,388.4,136.8,388.4,137.7z M303.6,116.6c5.3-4.6,27.2,0.6,37.7,8.9
		C329.5,122.7,316.5,119.6,303.6,116.6z"/>
	<path d="M420.1,102.8c-1-1.3-2.9-2.3-2.7-4.2c0.3-2.1,1.8-3.9,3.7-4.5c5-1.6,10.2-2.8,15.4-3.8c10.8-2,21.8-3.5,32.7-5
		c2.7-0.4,5.5-0.7,8.2-1.1c2.1-0.3,4.6-1.1,6.7-0.2c3,1.2,5.8,5.4,1.8,7.4c-1.9,0.9-4.3,1-6.3,1.3c-2.7,0.4-5.5,0.8-8.2,1.2
		c-5.5,0.8-10.9,1.5-16.4,2.3c-6,0.9-12,1.6-17.9,2.8C431.4,100,425.8,101.6,420.1,102.8z"/>
	<path d="M454.9,145.9c-4.7,0-9.4,0-14.1,0c-2.2,0-4.3,0-6.5,0c-1.4,0-3,0.1-4.3-0.5c-2.5-1.1-2.9-5.1-1-7c2.2-2.1,6.8-1.3,9.5-1.3
		c9.2,0,18.4,0,27.6,0c2.3,0,4.6,0,6.9,0c1.7,0,3.5-0.2,5.2,0.3c2.8,0.7,4.1,3.7,2.9,6.3c-1.5,3.4-7.4,2.2-10.3,2.2
		C465.5,145.8,460.2,145.9,454.9,145.9z"/>
	<path d="M92,14.3c1,0.9,2.1,1.6,2.9,2.7c1.2,1.6,2.2,3.4,3.2,5c2.2,3.5,4.4,7,6.6,10.5c2.2,3.5,4.4,7,6.5,10.5
		c1,1.6,2.1,3.3,3.1,4.9c0.9,1.4,2,2.9,2.4,4.5c0.7,2.9-1.7,4.3-4.3,4c-3.5-0.5-4.6-2.8-6.4-5.5c-4.5-6.8-8.8-13.7-13.1-20.7
		c-1.2-1.9-2.4-3.9-3.5-5.8c-0.9-1.5-2.3-3.2-2.7-5C86.1,16.2,89.1,14.3,92,14.3z"/>
	<path d="M66.4,169.5c2.9,0,6.4-0.9,9.2,0.3c1.3,0.5,2.2,1.7,3.1,2.7c0.4,0.4,1.2,1,1.1,1.4c-0.1,0.4-1.1,1.3-1.4,1.7
		c-0.7,1-1.5,2.1-2.7,2.4c-1.8,0.5-3.8,0.5-5.7,0.8c-3.9,0.5-7.8,1-11.7,1.4c-3.9,0.4-7.8,0.8-11.7,1.2c-2,0.2-3.9,0.4-5.9,0.5
		c-1.5,0.1-2.9,0.4-4.3-0.2c-2-0.9-4.9-3.4-3.5-5.9c1.4-2.4,5.6-2.4,7.9-2.7C49.4,172,57.9,170.8,66.4,169.5z"/>
	<path d="M434.9,29.3c-1,1.3-1.8,2.7-2.9,3.8c-1.4,1.3-2.9,2.6-4.2,4c-2.5,2.5-4.8,5.3-6.8,8.1c-2.1,2.9-3.9,5.9-5.5,9.1
		c-0.8,1.6-1.5,3.1-2.2,4.7c-0.6,1.4-1.2,2.8-2.4,3.7c-2,1.5-6.1,0.8-6.9-1.8c-0.7-2.4,1.4-5.6,2.4-7.6c3.1-6.5,6.8-12.7,11.5-18.2
		c2.4-2.8,5.2-6.2,8.3-8.1c1.5-0.9,3.5-1.3,5.2-1.1C433.1,26.1,433.8,28,434.9,29.3z"/>
	<path d="M451.3,215.6c-1,1-1.7,2.6-3.2,3.1c-1.4,0.4-3-0.5-4-1.4c-1.1-1-1.3-2.4-1.7-3.8c-0.5-1.6-1.2-3.2-1.9-4.7
		c-2.9-5.7-7.7-10-13.7-12.2c-2.9-1.1-6.5-1.2-7.3-4.9c-0.6-3,3.6-4.7,5.9-4.5c6.2,0.5,11.9,4.5,16.2,8.8
		C446.7,201,451.2,208.1,451.3,215.6z"/>
	<path d="M37.4,101.1c7.4,1.8,14.9,3.4,22.2,5.3c2.3,0.6,4.9,1.6,5.1,4.3c0.2,2.3-1.2,5-3.7,4.9c-2.7,0-5.6-1.6-8.2-2.4
		c-3.4-1-6.8-1.8-10.2-2.3c-3.4-0.5-6.8-0.6-10.2-0.3c-1.4,0.1-2.7,0.5-4.1,0.1c-1.3-0.4-2.5-1.4-3.3-2.4c-1.8-2.3-0.7-4.6,1.9-5.4
		c1.6-0.5,3.4-0.5,5-0.6c1.1-0.1,2.2-0.1,3.3-0.2c0.4,0,1,0,1.3-0.1C37.2,101.9,37.1,102,37.4,101.1z"/>
	<path d="M170,21.8c-0.3,6.8-0.6,13.6-1,20.4c-0.2,3.5-0.2,7.1-0.7,10.5c-0.2,1.7-2,4-3.9,4.1c-1.6,0.1-3.7-1.9-4.1-3.4
		c-0.4-1.3,0-3.2,0.1-4.6c0.1-1.7,0.2-3.5,0.2-5.2c0.4-7.1,0.9-14.1,1.5-21.1c0.1-1.3,0-2.7,0.8-3.8c0.7-0.8,1.7-1.5,2.7-1.9
		c2.6-1,4.2,2.4,5.7,4C170.9,21.3,170.4,21.5,170,21.8z"/>
	<path d="M197.8,63.4c2.1-6.1,4.1-12.3,6.2-18.4c1-2.8,2-5.7,3-8.5c0.9-2.4,1.5-3.8,4.2-4.5c2.1-0.5,3.3,1,4.1,2.8
		c1,2.4-0.5,5.4-1.2,7.8c-1.8,6.2-3.7,12.3-5.7,18.5c-0.9,2.7-1.4,5.6-4.5,6.5C201.4,68.3,199.4,64.8,197.8,63.4z"/>
	<path d="M341.2,24.4c0.4-3,0.8-6.1,1.2-9.1c0.4-2.9,0.3-6.4,1.4-9.2c1.6-4.3,7.8-2.6,8.2,1.6c0.2,3-0.4,6.3-0.7,9.3
		c-0.3,3.5-0.6,6.9-0.8,10.4c-0.2,3,0,6.4-0.8,9.4c-0.5,2-1.9,3.4-4.1,2.9C339.3,38.2,341.2,28.8,341.2,24.4z"/>
	<path d="M304.6,58c-1.4,1.8-1.9,3.3-4.5,3.3c-2.6,0-4.7-2.3-6.6-3.9c-2.4-1.9-4.8-3.9-7-5.9c-1.7-1.6-3.2-2.8-2.9-5.4
		c0.2-1.8,1.8-2.9,3.4-3.4c1.1-0.4,1.4,0,2.3,0.7c1.2,1,2.5,1.9,3.7,2.9c2.4,2,4.9,4,7.2,6c1.2,1,2.4,2,3.6,3.1
		C304.6,56.2,304.4,56.8,304.6,58z"/>
	<path d="M135.9,306.9c-0.4,0.4-0.7,1-0.8,1.6c0,0.2,0,0.4,0.1,0.6c-0.1-0.3-0.1-0.6,0-0.8C135.3,307.8,135.6,307.3,135.9,306.9z
		 M135.2,309.2c0.1,0.3,0.2,0.6,0.4,0.9C135.4,309.8,135.3,309.5,135.2,309.2z M135.9,365c0.4,0.9,0.9,1.9,1.3,2.8
		c0.1,0.2,0.2,0.4,0.3,0.6c0,0.1,0.1,0.1,0.1,0.1C137.1,367.3,136.5,366.2,135.9,365z M147.8,384.7c1.2,1.6,2.4,3.1,3.7,4.7
		C150.2,387.8,149,386.3,147.8,384.7z M142.7,377.3c1.6,2.5,3.3,5,5.1,7.4C146,382.3,144.3,379.8,142.7,377.3z M146.7,245.4
		c-2.5,3.5-4.7,7.2-6.8,11c0.7-1.3,1.4-2.6,2.2-3.8c0.8-1.3,1.5-2.5,2.3-3.7c0,0,0,0,0,0c0.8-1.2,1.6-2.4,2.5-3.6
		c0.8-1.2,1.7-2.4,2.6-3.6C148.5,242.9,147.6,244.1,146.7,245.4z M155.3,234.7c0.2-0.2,0.4-0.5,0.6-0.7c0.4-0.4,0.8-0.9,1.2-1.3
		C156.5,233.4,155.9,234,155.3,234.7z M159.1,307.2c0-0.1-0.6-0.5-0.9-0.8c0.4,0.3,0.8,0.6,0.8,1c0,0.1,0,0.1-0.1,0.2
		C159,307.4,159.1,307.3,159.1,307.2z M178,387.8c-0.1,0.3-0.1,0.7,0,1.1C177.9,388.5,177.9,388.1,178,387.8z M180,391.9
		c0.3,0.1,0.5,0.1,0.9,0C180.6,391.9,180.3,391.9,180,391.9z M181.4,391.8c0.1,0,0.2,0,0.2,0c0.1,0,0.1,0,0.2-0.1
		C181.7,391.8,181.5,391.8,181.4,391.8z M186.8,249c-0.3-0.3-0.5-0.5-0.8-0.8c0.3,0.3,0.7,0.6,1,1
		C186.9,249.1,186.9,249.1,186.8,249z M189.3,252.7c0.1,0.3,0.1,0.5,0,0.8c0,0,0-0.1,0-0.1C189.4,253.2,189.4,252.9,189.3,252.7z
		 M203.6,202.3c4.2-1.6,8.6-3,13-4.1C212.1,199.3,207.8,200.6,203.6,202.3z M206.5,370.6c0.7-0.6,1.4-1.4,2-2.3
		c0.1-0.1,0.1-0.1,0.1-0.2C207.9,369,207.3,369.9,206.5,370.6z M250.6,411.4c-0.3,2-0.2,4.2-0.1,6.2
		C250.5,415.6,250.4,413.4,250.6,411.4z M251.7,193.9c0.4,0.2,0.7,0.4,1.1,0.6C252.4,194.3,252.1,194,251.7,193.9z M253.2,194.7
		c0.3,0.2,0.6,0.3,0.9,0.4C253.9,195,253.6,194.9,253.2,194.7z M255.2,430.2c0.5-0.4,0.9-0.8,1.3-1.3
		C256.1,429.4,255.6,429.8,255.2,430.2z M258.2,329.5c-1.1,1-2.2,2-3.3,2.9c3-2.4,6-5,8.1-8C261.6,326.3,259.8,328,258.2,329.5z
		 M260.3,203.1c-1.8-1.9-6-2.4-8.5-0.9c0.9-0.4,2-0.6,3.1-0.7c4.9-0.3,6.7,2.8,7.7,6.9C262.2,206.5,261.7,204.5,260.3,203.1z
		 M264.7,306.7c0-0.5,0.1-0.9,0.1-1.4V305C264.8,305.5,264.8,306.1,264.7,306.7z M264.7,219.9c0-0.1,0-0.1,0-0.2
		c0.1,0.9,0.2,1.8,0.3,2.7C264.9,221.5,264.8,220.7,264.7,219.9z M265,294.2c-0.1,3.6-0.1,7.1-0.2,10.7c0.1-7.1,0.3-14.2,0.4-21.3
		C265.1,287.2,265.1,290.7,265,294.2z M254.9,440.2c-1.4-0.1-2.8-0.2-4.2-0.3c-0.9-0.1-1.9-0.2-2.8-0.3c-0.3,0-0.5-0.1-0.8-0.1
		c-0.8-0.1-1.7-0.2-2.5-0.3c-0.5-0.1-1-0.1-1.5-0.2c-2-0.3-3.9-0.6-5.8-1c2.5,0.5,5,1,7.6,1.3c3.4,0.5,6.9,0.8,10.3,1
		c0.1,0,0.2,0,0.4,0c0.4,0,0.8,0.1,1.2,0.1C256.1,440.3,255.5,440.3,254.9,440.2z M296.1,436.2c0.2,0,0.3-0.1,0.5-0.1
		c3.8-1,7.4-2.3,11-3.7C303.8,433.9,300,435.1,296.1,436.2z M336.7,394.4c1.1,0,2.2-0.4,2.8-1.3
		C338.8,393.8,337.8,394.3,336.7,394.4z M339.4,389.6c-0.2-0.3-0.5-0.5-0.8-0.8c0.3,0.3,0.6,0.7,0.9,1
		C339.5,389.7,339.5,389.7,339.4,389.6z M343.9,308.3c0.1-0.2,0.3-0.4,0.5-0.7C344.2,307.9,344,308.1,343.9,308.3z M355.3,238.8
		c1.6,1.9,3.1,3.8,4.5,5.7C358.4,242.6,356.9,240.7,355.3,238.8z M362,247.5c1.4,2,2.8,4,4.1,6.1C364.8,251.5,363.5,249.4,362,247.5
		z M373.9,363c-1.1,2.6-2.3,5.3-3.5,7.9c2.6-5.4,5-11,7-16.7C376.3,357.2,375.1,360.1,373.9,363z M372,263.5
		c-0.1-0.2-0.2-0.4-0.3-0.6c0.3,0.5,0.6,1,0.8,1.6C372.3,264.2,372.1,263.8,372,263.5z M367.5,255.7c-0.5-0.8-0.9-1.5-1.4-2.2
		c0.9,1.4,1.7,2.8,2.6,4.2C368.3,257.1,367.9,256.4,367.5,255.7z M382.3,301.7c0-0.2,0.1-0.4,0.2-0.7c-0.2,0.2-0.3,0.4-0.3,0.5
		c0,0.3,0.2,0.8,0.5,1.3C382.5,302.4,382.3,302,382.3,301.7z M383.6,328.5c0.1-1,0.2-2,0.3-3c0.1-1.2,0.2-2.4,0.3-3.6
		C384.1,324.2,383.9,326.3,383.6,328.5z M384.9,312.1c0.1-0.7,0.1-1.5,0.2-2.3C385,310.6,384.9,311.4,384.9,312.1z"/>
	<path d="M372,263.5c-0.1-0.2-0.2-0.4-0.3-0.6c0.3,0.5,0.6,1,0.8,1.6C372.3,264.2,372.1,263.8,372,263.5z M367.5,255.7
		c-0.5-0.8-0.9-1.5-1.4-2.2c0.9,1.4,1.7,2.8,2.6,4.2C368.3,257.1,367.9,256.4,367.5,255.7z M254.9,440.2c0.1,0,0.2,0,0.3,0
		c0.1,0,0.2,0,0.4,0c0.4,0,0.8,0.1,1.2,0.1C256.1,440.3,255.5,440.3,254.9,440.2z M202.2,370.7c0.3,0.3,0.6,0.5,0.9,0.6
		C202.8,371.1,202.5,370.9,202.2,370.7z M135.9,365c0.5,1.1,1.1,2.2,1.6,3.3c0,0.1,0.1,0.1,0.1,0.1
		C137.1,367.3,136.5,366.2,135.9,365z"/>
	<path d="M414.9,272.5c0.1,0.1,0.1,0.2,0.1,0.4C415.1,272.7,415,272.6,414.9,272.5z"/>
	<path d="M391.1,320.1c0,0.5-0.1,1-0.1,1.4c0-0.4,0.1-0.7,0.1-1.1c0-0.4,0-1.1,0-1.7C391.1,319.3,391.1,319.9,391.1,320.1z"/>
	<path d="M388.9,339.6c0,0.2-0.1,0.4-0.1,0.5c0.3-1.7,0.6-3.6,2.6-3.8c0.8-0.1,1.6-0.1,2.3-0.1c-0.5,0-1,0-1.6,0.1
		C389.9,336.4,389.3,337.5,388.9,339.6z"/>
	<path d="M391.4,346.6h2.8c-1.5,0-3.3,0.3-4.8,0.1C390,346.7,390.7,346.6,391.4,346.6z"/>
	<path d="M414.2,345.8c0,0.2-0.1,0.4-0.1,0.5c0-0.1,0-0.2,0.1-0.3C414.2,345.9,414.2,345.8,414.2,345.8z"/>
	<path d="M311.8,168.4c-0.4-0.2-0.8-0.3-1.2-0.5c-1.5-0.6-2.7-1.2-3.9-0.7c0.1,0,0.1-0.1,0.2-0.1
		C308.4,166.4,310.4,167.8,311.8,168.4z"/>
	<path d="M314.3,198.7c-0.2-0.1-0.5-0.2-0.8-0.3c0.2,0.1,0.4,0.1,0.6,0.2C314.1,198.6,314.2,198.6,314.3,198.7z"/>
	<path d="M315.2,198.4c-0.1,0.2-0.2,0.3-0.3,0.3C315,198.7,315,198.6,315.2,198.4z"/>
	<path d="M327.1,178.7c-0.1,0.1-0.3,0.2-0.4,0.4c0.1-0.1,0.1-0.2,0.2-0.2C326.9,178.8,327,178.7,327.1,178.7z"/>
	<path d="M330.7,176.4c-0.1,0-0.1,0.1-0.1,0.1h0c-0.1,0-0.2-0.1-0.2-0.1C330.4,176.4,330.6,176.4,330.7,176.4z"/>
	<path d="M158.1,425.9c-2,1.8-4,3.7-5.8,5.7c-0.2,0.2-0.4,0.5-0.6,0.8C153.5,430,155.8,427.9,158.1,425.9z"/>
	<path d="M156.1,442.5c-1.6-0.9-3.6-1.9-4.9-3.3c0.8,0.9,1.9,1.5,2.8,2.1C154.6,441.7,155.4,442.1,156.1,442.5z"/>
	<path d="M160.8,440.7c-0.3,0.5-0.7,1.1-1,1.7c0.3-0.5,0.5-0.9,0.6-1.1C160.5,441.1,160.6,440.9,160.8,440.7z"/>
	<path d="M167.1,417.6c-0.4,0.7-1.2,1.4-1.7,1.9c-0.3,0.3-0.6,0.6-0.9,0.8c0.9-0.8,1.6-1.6,2.4-2.5
		C166.9,417.9,167,417.8,167.1,417.6z"/>
	<path d="M174.5,419.7c-0.1-0.1-0.3-0.2-0.3-0.2c-0.1-0.1-0.2-0.1-0.2-0.2C174.1,419.4,174.4,419.5,174.5,419.7z"/>
	<path d="M93.2,317.4c0.3,0,0.7,0.1,0.9,0.1h-0.3C93.7,317.5,93.5,317.5,93.2,317.4z"/>
	<path d="M116.8,317.5c0.1,0,0.2,0.1,0.2,0.1c-0.4-0.3-1.3-0.1-1.9-0.1h-2.4C113.8,317.5,115.9,317.1,116.8,317.5z"/>
	<path d="M118.6,329.6c0.1,0.8,0.2,1.5,0.3,2.3c-0.3-2.7-0.6-5.4-1-8.2C118.1,325.7,118.4,327.7,118.6,329.6z"/>
	<path d="M119.6,337.5c-0.1-0.5-0.2-1-0.2-1.2c0-0.2,0-0.3-0.1-0.5C119.4,336.3,119.6,336.9,119.6,337.5z"/>
	<path d="M94.8,288.4c0,0.1,0.1,0.2,0.2,0.2C94.8,288.6,94.8,288.7,94.8,288.4z"/>
	<path d="M97.4,289c1,0.1,2,0.3,3,0.4c-1.3-0.2-3-0.2-4.3-0.5C96.6,289,97.1,289,97.4,289z"/>
	<path d="M99.9,279.4c4.5-0.1,8.9,1,13.3,1.9c-3.9-0.8-7.8-1.7-11.8-1.9c-0.5,0-1.1,0-1.6,0C99.8,279.4,99.9,279.4,99.9,279.4z"/>
	<path d="M120.2,287.6c-0.2,1-0.4,2.1-0.8,3.1c0.1-0.5,0.2-0.9,0.2-1.1C119.8,288.9,120,288.3,120.2,287.6z"/>
	<path d="M352.6,464.8c0.1-0.1,0.3-0.2,0.6-0.3c-0.1,0.1-0.3,0.1-0.3,0.2C352.7,464.7,352.6,464.8,352.6,464.8z"/>
	<path d="M352.8,465.5c0.1,0.3,0.2,0.6,0.3,1c-0.1-0.1-0.4-0.7-0.5-1.2C352.6,465.4,352.7,465.4,352.8,465.5z"/>
	<path d="M356,472.2c0.1,0.2,0.2,0.3,0.3,0.4c0,0-0.1,0-0.1-0.1c-0.2-0.1-0.3-0.5-0.4-0.9C355.8,471.9,355.9,472.1,356,472.2z"/>
	<path d="M356.5,472.7c0.1,0,0.2-0.1,0.5-0.1C356.7,472.7,356.6,472.7,356.5,472.7z"/>
	<path d="M360.8,487.3c0,0.1,0.1,0.2,0.1,0.3c-0.3-0.6-0.4-0.9-0.2-1.1C360.6,486.6,360.7,486.9,360.8,487.3z"/>
	<path d="M361.3,488.1c-0.1,0-0.2,0.1-0.3,0.1c0-0.2-0.1-0.4-0.1-0.6C361,488,361.1,488.1,361.3,488.1z"/>
	<path d="M367,468.9c0.2-0.1,0.6-0.3,0.9-0.4c-0.2,0.1-0.5,0.2-0.6,0.3C367.3,468.8,367.2,468.9,367,468.9z"/>
	<path d="M369.2,469.3C369.2,469.3,369.2,469.2,369.2,469.3c0.7,1,1.3,2.3,1.9,3.5C370.4,471.6,369.8,470.5,369.2,469.3z"/>
	<path d="M373.1,482.3c0.1,0,0.2-0.1,0.3-0.1c-1.2,0.8-3.2,1-4.6,1.5C370.3,483.2,371.7,482.7,373.1,482.3z"/>
	<path d="M374,481.7c0-0.1,0-0.3-0.1-0.5C374,481.5,374,481.7,374,481.7z"/>
	<path d="M99.7,368.2c-0.4,0.5,0.5,2.2,0.8,3.1c-0.4-0.9-1.3-2.6-1.1-2.9c0.2-0.4,1-0.7,1.8-1C100.6,367.5,100,367.8,99.7,368.2z"/>
	<path d="M94.2,349.7c-0.1-1-0.1-1.9,0.6-2.7c0.7-0.8,1.8-1.2,2.9-1.5c-0.7,0.2-1.4,0.5-2.1,0.9C94.4,347.2,94.1,348.2,94.2,349.7z"
		/>
	<path d="M97.5,355.4c1.1-0.2,2.3-0.4,3.4-0.6c-1,0.2-2,0.4-3,0.6c-1,0.2-1.7,0.6-2.3-0.5c-0.5-0.9-0.7-2.3-1-3.4
		c0.1,0.3,0.2,0.7,0.3,1c0.2,0.6,0.3,1.3,0.5,1.9C95.8,355.6,96.2,355.6,97.5,355.4z"/>
	<path d="M114.9,342.1c1.1-0.2,2.2-0.4,3.4-0.6c0,0-0.1,0-0.1,0C117.1,341.7,116,341.9,114.9,342.1z"/>
	<path d="M120.2,341.2c0.2,0.1,0.4,1.1,0.5,1.5c-0.1-0.2-0.1-0.3-0.2-0.5c-0.3-1,0-0.7-1-0.9c-0.1,0-0.3,0-0.6,0.1
		C119.4,341.2,120,341,120.2,341.2z"/>
	<path d="M121.1,351c0.1,0,0.2,0,0.2-0.1c0.4-0.2,0.5,0,0.4,0.5C121.4,350.8,122.2,351,121.1,351z"/>
	<path d="M121.6,353.2c0.2-0.1,0.4-0.2,0.5-0.4c0,0,0-0.1,0-0.1C122.3,353.1,122.1,353.3,121.6,353.2z"/>
	<path d="M102.1,261.5c-0.1,0.3-0.3,0.8-0.4,1.3c0.1-0.7,0.6-2,0.8-2.5C102.4,260.6,102.3,261.1,102.1,261.5z"/>
	<path d="M103.8,263.6c0.1,0,0.1,0,0.2,0c-0.6-0.1-2-0.1-2.2-0.3c0,0,0-0.1-0.1-0.1C101.9,263.5,103.4,263.5,103.8,263.6z"/>
	<path d="M111.5,243.5c0.1,0,0.1,0.1,0.2,0.1c0,0,0,0,0,0.1c-0.1,0.1-0.1,0.2-0.2,0.3C111.5,243.8,111.6,243.7,111.5,243.5z"/>
	<path d="M125.3,258.6c-0.3,0-0.9-0.2-1.4-0.5c0.2,0.1,0.5,0.2,0.8,0.2c1,0.3,1.6-0.2,2.5-0.6C126.6,258.1,125.9,258.6,125.3,258.6z
		"/>
	<path d="M127.7,264.7c-0.3,0.6-0.8,1.2-1.5,1.4c-0.4,0.2-0.8,0.2-1.2,0.3C126.2,266.2,127,265.6,127.7,264.7z"/>
	<path d="M229.2,444.8c-0.3-0.1-0.7-0.2-1-0.3C228.5,444.6,228.9,444.7,229.2,444.8z"/>
	<path d="M363.4,398.2c-0.3-0.3-0.7-0.5-0.8-0.5C362.7,397.6,363,397.9,363.4,398.2z"/>
	<path d="M197.9,433c-0.4-0.2-0.8-0.3-1-0.4c0,0-0.1,0-0.1-0.1C197.1,432.6,197.5,432.8,197.9,433z"/>
	<path d="M364.5,239.1c0.1,0.1,0.1,0.2,0.2,0.3c-0.3-0.4-0.5-0.7-0.8-1.1c0.1-0.1,0.2-0.2,0.3-0.2
		C363.9,238.4,364,238.5,364.5,239.1z"/>
	<path d="M364.5,237.7c-0.1,0.1-0.2,0.2-0.2,0.2c0.6-0.8,1.6-1.5,2.4-2.1C365.9,236.4,365.2,237,364.5,237.7z"/>
	<path d="M365.4,240.4c1.2,1.7,2.4,3.3,3.6,5c-1.2-1.6-2.3-3.2-3.5-4.7c-0.3-0.4-0.6-0.9-0.9-1.3
		C364.9,239.7,365.2,240.1,365.4,240.4z"/>
	<path d="M384.1,226c0.7-0.3,1.6-0.8,2.5-1.2c-0.8,0.4-1.6,0.8-2.3,1.1c-0.5,0.2-1,0.4-1.5,0.7C383.2,226.4,383.6,226.2,384.1,226z"
		/>
	<path d="M145.6,478.4c0.1,0,0.1,0,0.2,0c0,0,0,0.1-0.1,0.1v0L145.6,478.4z"/>
	<path d="M145.8,478.5c0.9-1.6,1.7-3.2,2.4-4.8c-0.5,1.4-1.2,2.8-1.9,4.2C146.1,478,146,478.2,145.8,478.5L145.8,478.5z"/>
	<path d="M148.2,473.6c0.5-1.1,0.9-2.3,1.2-3.4C149,471.4,148.6,472.5,148.2,473.6z"/>
	<path d="M151.1,471.7c0-0.3,0-0.5,0.2-0.6C151.2,471.3,151.1,471.5,151.1,471.7z"/>
	<path d="M152.9,471.4c0.4,0.1,0.8,0.2,1.1,0.3c-0.1,0-0.2-0.1-0.4-0.1C153.5,471.6,153.2,471.5,152.9,471.4z"/>
	<path d="M162.5,480.3c0.1-0.2,0.2-0.4,0.2-0.6c-0.1,0.5-0.5,1.4-0.8,1.5c-0.3,0.2-1.6-0.2-2.3-0.4c0.3,0.1,0.6,0.1,1,0.2
		C161.7,481.2,162,481.4,162.5,480.3z"/>
	<path d="M163.9,474.2C163.9,474.2,164,474.2,163.9,474.2C164,474.2,164,474.2,163.9,474.2C163.9,474.2,163.9,474.2,163.9,474.2z"/>
	<path d="M150.4,401.6c-0.3,0-0.6,0.1-0.9,0.2C149.8,401.7,150.1,401.6,150.4,401.6z"/>
	<path d="M325,434.8c-0.2-0.4-0.5-1-0.7-1.2C324.5,433.8,324.8,434.4,325,434.8z"/>
	<path d="M417.1,303.7C417.1,303.7,417.1,303.7,417.1,303.7l-1.1,0C416.4,303.7,416.8,303.7,417.1,303.7z"/>
	<path d="M417.8,315.2c0.1,0.4-0.1,0.5-0.6,0.4C417.4,315.5,417.6,315.4,417.8,315.2C417.7,315.2,417.8,315.2,417.8,315.2z"/>
	<path d="M417.7,304.4c0-0.1,0-0.1,0.1-0.2c0.1,0.4,0,1,0,1.5C417.8,305.3,417.8,304.8,417.7,304.4z"/>
	<path d="M124.1,413.1c0.1,0.1,0.2,0.2,0.3,0.2c0,0-0.1,0-0.1,0c-0.2-0.1-0.6-0.6-0.8-1C123.7,412.6,123.9,412.9,124.1,413.1z"/>
	<path d="M125,413.1c0.2-0.1,0.5-0.3,0.7-0.4c-0.3,0.3-0.7,0.5-1,0.6C124.8,413.2,124.9,413.2,125,413.1z"/>
	<path d="M126.2,412.4C126.2,412.4,126.2,412.3,126.2,412.4c0,0-0.1,0.1-0.2,0.1C126,412.4,126.1,412.4,126.2,412.4z"/>
	<path d="M149.1,397.6c-2-2.4-4-4.8-6.1-7.2c0,0,0,0,0,0c-0.2,0.1-0.4,0.2-0.6,0.3c0.2-0.1,0.4-0.3,0.5-0.4c0,0,0,0,0,0
		c0,0,0.1,0,0.1,0c0,0,0,0,0,0h0c0,0,0,0,0,0s0,0,0,0.1c0,0,0,0,0,0.1C145.1,392.9,147.1,395.2,149.1,397.6z"/>
	<path d="M115.3,400.8c0.1,0.1,0.2,0.2,0.3,0.2C115.4,401.1,115.5,401,115.3,400.8z"/>
	<path d="M143.2,390.3H143c-0.1-0.1-0.1-0.2-0.2-0.3C142.9,390.2,143,390.3,143.2,390.3C143.1,390.3,143.1,390.3,143.2,390.3
		L143.2,390.3C143.1,390.3,143.2,390.3,143.2,390.3z"/>
	<path d="M346.5,417.5c-0.3-0.3-0.6-0.6-0.6-0.8c0-0.1,0.2-0.3,0.4-0.5c-0.1,0.1-0.1,0.2-0.2,0.3C346,416.9,346.2,417.2,346.5,417.5
		z"/>
	<path d="M352,410.3c0.3-0.3,0.5-0.6,0.7-0.8c0,0,0,0.1-0.1,0.1c-0.1,0.2-0.3,0.3-0.4,0.5C352.2,410.1,352.1,410.2,352,410.3z"/>
	<path d="M353.6,409.4c0.2,0.1,0.4,0.3,0.7,0.6c-0.2-0.2-0.4-0.3-0.6-0.4C353.6,409.5,353.6,409.4,353.6,409.4z"/>
	<path d="M384.7,357.1c-0.1,0-0.2-0.1-0.3-0.1c0.1-0.2,0.1-0.3,0.2-0.5C384.4,356.9,384.4,357,384.7,357.1z"/>
	<path d="M384.5,356.4c0.1-1.2,0.8-2.6,1.2-3.7c-0.4,1.2-0.7,2.3-1.1,3.4C384.6,356.2,384.6,356.3,384.5,356.4z"/>
	<path d="M385.7,352.7c0.2-0.6,0.4-1.7,0.7-2.4c0,0.1-0.1,0.3-0.2,0.6C386.1,351.5,385.9,352.1,385.7,352.7z"/>
	<path d="M389.3,349.6c-0.7,0-1.4-0.1-2,0.1c-0.2,0.1-0.4,0.1-0.5,0.1c0.1-0.1,0.1-0.1,0.2-0.1C387.5,349.4,388.4,349.5,389.3,349.6
		z"/>
	<path d="M359.1,225.6c-1.7,1.7-2.8,3.7-1,6c-0.7-0.8-1.2-1.8-1-2.8C357.1,227.5,358.1,226.4,359.1,225.6z"/>
	<path d="M363.9,233.9c0.5-0.3,0.9-0.5,1.4-0.8c-0.8,0.5-1.5,1-2.3,1.4C363.3,234.3,363.7,234,363.9,233.9z"/>
	<path d="M375.5,215.8c1.4-0.6,2.8-1.2,4.2-1.1c-0.1,0-0.3,0-0.4,0c-0.6,0.1-1.3,0.2-2.1,0.5C376.6,215.4,376,215.6,375.5,215.8z"/>
	<path d="M380.4,214.8c0.5,0.1,0.9,0.2,1.4,0.5C381.3,215,380.8,214.8,380.4,214.8z"/>
	<path d="M386.8,219.1c-1.4-1.1-2.8-2.3-4.2-3.3C384,216.7,385.4,218,386.8,219.1z"/>
	<path d="M281.8,186.4c-0.2,0.5-0.2,0.8-0.4,1C281.5,187,281.6,186.7,281.8,186.4z"/>
	<path d="M369.6,387.3c-0.2,0-0.3,0.2-0.4,0.5C369.3,387.4,369.4,387.3,369.6,387.3z"/>
	<path d="M371.3,385.4c0.5,0.4,1.3,0.8,1.9,1.2C372.5,386.3,371.7,385.8,371.3,385.4z"/>
	<path d="M373.4,380.9c0.4-0.9,0.9-1.9,1.5-2.5C374.2,379.1,373.8,380,373.4,380.9z"/>
	<path d="M375.4,377.9c-0.2,0-0.3,0.1-0.6,0.4c0.1-0.2,0.2-0.4,0.3-0.6C375.3,377.8,375.3,377.9,375.4,377.9z"/>
	<path d="M227.4,464.8c0.5-2,1-4,1.5-6.1c-0.3,1.2-0.6,2.5-0.9,3.7c-0.2,0.9-0.5,1.8-0.7,2.7c-0.1,0.3-0.6,1.8-0.8,2.6
		C226.6,466.9,227.2,465.2,227.4,464.8z"/>
	<path d="M237.3,469.8c-2.3,0.8-5.2,0-7.5-0.7c0.1,0,0.2,0,0.2,0.1c1,0.3,2.1,0.5,3.2,0.7C234.5,470.1,236,470.2,237.3,469.8z"/>
	<path d="M237.9,469.6c0.1-0.1,0.2-0.1,0.4-0.2c0,0.1-0.1,0.1-0.1,0.1C238,469.5,238,469.6,237.9,469.6z"/>
	<path d="M240.9,463c0-0.2,0.1-0.5,0.1-0.7c-0.1,1.9-0.4,4.3-1.5,5.8C240.4,466.7,240.7,464.7,240.9,463z"/>
	<path d="M240.7,448.9c0.3,0.7,0.5,1.4,0.5,2.2c0-0.2,0-0.3-0.1-0.5c0-0.2-0.1-0.4-0.1-0.6c0-0.1,0-0.1,0-0.2c0,0,0-0.1-0.1-0.1
		c-0.9-2.9-4.3-3.4-7.1-3.6C236.4,446.2,239.6,446.6,240.7,448.9z"/>
	<path d="M293,446.3c-0.4,0.1-0.7,0.3-1.1,0.4c-0.2,0.1-0.3,0.1-0.5,0.2C291.9,446.6,292.6,446.5,293,446.3z"/>
	<path d="M300.7,466.6c1.3-0.3,2.6-0.6,3.9-0.9c-0.9,0.2-1.7,0.4-2.6,0.6c-3.2,0.7-6.4,1.4-9.6,2.1
		C295.2,467.8,298,467.2,300.7,466.6z"/>
	<path d="M307.3,464.1c-0.4-2.1-1.4-4.1-2.2-6c-0.5-1.2-1-2.4-1.5-3.6c0.2,0.5,0.4,0.9,0.6,1.4c1,2.3,2.2,4.7,2.9,7.2
		C307.2,463.4,307.3,463.7,307.3,464.1z"/>
	<path d="M91.8,305c-0.1-0.2,0-0.4,0.1-0.5C91.8,304.6,91.8,304.8,91.8,305z"/>
	<path d="M322.8,203.2c0.1,0,0.1,0.1,0.2,0.1c-0.2,0-0.4-0.1-0.6-0.2C322.6,203.1,322.7,203.2,322.8,203.2z"/>
	<path d="M330.6,176.5c-0.1,0.2-0.2,0.3-0.3,0.5c0.1-0.2,0.1-0.4,0.2-0.5C330.5,176.5,330.5,176.5,330.6,176.5
		C330.5,176.5,330.5,176.5,330.6,176.5L330.6,176.5C330.6,176.5,330.6,176.5,330.6,176.5C330.6,176.5,330.6,176.5,330.6,176.5z"/>
	<path d="M206.7,191.6c-0.7-0.7-1.2-1.5-1.5-2.4C205.5,190,206,190.9,206.7,191.6z"/>
	<path d="M210.8,172.4c-0.4-1.2-0.7-2.7-1.3-3.7C210.2,169.6,210.5,171.2,210.8,172.4z"/>
	<path d="M337.8,423.9c-0.1,0.2-0.2,0.2-0.2,0.3c0,0,0-0.1,0-0.1c0.2-0.4,0.7-0.8,1.2-1.2C338.4,423.2,338,423.6,337.8,423.9z"/>
	<path d="M338.6,425.9c0.1,0.1,0.1,0.2,0.2,0.3c-0.4-0.5-1-1.2-1.2-1.7c0,0.1,0.1,0.2,0.2,0.3C337.9,425.2,338.3,425.6,338.6,425.9z
		"/>
	<path d="M352.7,444.2c0.1,0.1,0.2,0.1,0.3,0.1C352.9,444.3,352.8,444.3,352.7,444.2z"/>
	<path d="M357.8,440.9c-1.1,0.8-2.3,2-3.6,2.8c0.4-0.3,0.8-0.7,1-0.9c0.8-0.5,1.5-1.1,2.3-1.7C357.7,441.1,357.7,441,357.8,440.9z"
		/>
	<path d="M376.7,259.3c-0.2-0.4-0.2-0.8,0-1.3C376.5,258.4,376.6,258.9,376.7,259.3z"/>
	<path d="M379.8,367.4c0-0.1,0.1-0.1,0.1-0.1C379.9,367.3,379.9,367.4,379.8,367.4L379.8,367.4L379.8,367.4z"/>
	<path d="M382,363.1c0.4-1,0.9-2.1,1.5-2.8c-0.1,0.1-0.2,0.3-0.3,0.5C382.8,361.6,382.4,362.3,382,363.1z"/>
	<path d="M384.3,359.8c-0.3-0.1-0.5-0.1-0.6,0.1c0.1-0.1,0.1-0.2,0.1-0.3C384,359.7,384.2,359.7,384.3,359.8z"/>
	<path d="M228.1,186.7c-0.1-0.4-0.2-0.8-0.3-1.2C227.9,186,228.1,186.4,228.1,186.7z"/>
	<path d="M279.4,470.1c-0.3,0.2-0.5,0.2-0.6,0.1C278.9,470.2,279.1,470.2,279.4,470.1z"/>
	<path d="M283.2,469.8c-1,0.1-2.5,0.4-3.6,0.3c1,0.1,2.3-0.2,3.3-0.3C283,469.8,283.1,469.8,283.2,469.8z"/>
	<path d="M138.7,493.2c0.1,0.8,0.2,1.6,0.5,2.3C138.9,494.8,138.8,494,138.7,493.2z"/>
	<path d="M140.3,486.1c0.4-0.7,0.9-1.4,1.4-2.1C141.2,484.7,140.8,485.4,140.3,486.1c-0.3,0.5-0.5,1-0.7,1.4
		C139.8,487.1,140,486.6,140.3,486.1z"/>
	<path d="M143.6,486.3c-0.1,0-0.1,0.1-0.2,0.2C143.5,486.3,143.5,486.3,143.6,486.3z"/>
	<path d="M145.7,478.5c0,0.1-0.1,0.1-0.1,0.2c0-0.1,0-0.2,0-0.3C145.7,478.5,145.7,478.5,145.7,478.5L145.7,478.5z"/>
	<path d="M144.2,486.4c1.1,0.1,2.3,0.6,3.4,0.9c-1.1-0.3-2.1-0.6-3.2-0.8C144.3,486.4,144.3,486.4,144.2,486.4z"/>
	<path d="M148.3,480.9c0.1,0.1,0.3,0.2,0.4,0.3c-0.1,0-0.1-0.1-0.2-0.1C148.4,481,148.4,481,148.3,480.9z"/>
	<path d="M159.9,489.6c-0.1,0.3-0.1,0.7-0.2,0.8c-0.1,0-0.2,0-0.5-0.1c0.1,0,0.1,0,0.1,0C159.9,490.2,159.6,490.1,159.9,489.6z"/>
	<path d="M240,186.2c-0.3,0.1-0.5,0.1-0.7,0.1C239.6,186.2,239.8,186.2,240,186.2z"/>
	<path d="M378,372.1c0.2-0.5,0.4-0.9,0.5-1.3c-0.1,0.2-0.1,0.4-0.2,0.6C378.3,371.5,378.2,371.7,378,372.1z"/>
	<path d="M379.8,367.4c0,0.1-0.1,0.2-0.1,0.3C379.8,367.6,379.8,367.5,379.8,367.4L379.8,367.4z"/>
	<path d="M111.5,243.5c0.1,0,0.1,0,0.2,0c0,0,0,0.1,0,0.1c0,0,0,0,0,0.1C111.6,243.6,111.6,243.6,111.5,243.5z"/>
	<path d="M118.2,299.9c0.2-0.6,0.2-1.2,0.1-1.8C118.4,298.7,118.4,299.3,118.2,299.9z"/>
	<path d="M302.5,443.7c-0.4,0.3-0.4,0.5-0.3,0.7C301.9,444,302,443.7,302.5,443.7z"/>
	<path d="M164,188.9c0.1-0.1,0.4-0.3,0.7-0.5c-0.2,0.2-0.3,0.3-0.5,0.3C164.2,188.8,164.1,188.8,164,188.9z"/>
	<path d="M168.3,189.8c0.2,0.3,0.4,0.6,0.5,0.8C168.6,190.4,168.5,190.1,168.3,189.8z"/>
	<path d="M175,209.5c-0.4,0.3-1,0.8-1.2,0.8c-0.2,0-0.5-0.3-0.8-0.7c0.2,0.2,0.4,0.4,0.6,0.5C174.1,210.3,174.5,209.9,175,209.5z"/>
	<path d="M194.6,195.5c0.1,0.3,0.3,0.6,0.4,0.9c-0.1-0.2-0.2-0.4-0.3-0.6C194.7,195.7,194.6,195.6,194.6,195.5z"/>
	<path d="M194.8,198.5c0.1,0,0.1-0.1,0.2-0.1c-0.7,0.5-1.6,0.8-2.4,1.2C193.3,199.2,194.1,198.8,194.8,198.5z"/>
	<path d="M195.5,198.1c0-0.1-0.1-0.3-0.1-0.6C195.5,197.9,195.6,198,195.5,198.1z"/>
	<path d="M254.9,180.2c-0.1,0.5-0.2,1.2-0.3,1.9c0.1-0.5,0.2-1.1,0.3-1.6C254.9,180.4,254.9,180.3,254.9,180.2z"/>
	<path d="M185.5,200.1c-0.1-0.1-0.1-0.2-0.1-0.3c0.1,0.2,0.2,0.3,0.2,0.5C185.6,200.2,185.5,200.1,185.5,200.1z"/>
	<path d="M185.9,202.8C185.9,202.7,186,202.7,185.9,202.8c-0.4,0.5-1.3,1.1-2,1.2C184.7,203.8,185.3,203.3,185.9,202.8z"/>
	<path d="M186.4,202.2c0-0.1,0-0.2-0.1-0.4C186.4,202,186.5,202,186.4,202.2z"/>
	<path d="M140.5,207c-0.6,0.4-1.7,1.8-2.1,2.2c-0.1,0.1-0.1,0.1-0.2,0.2C138.7,208.9,139.8,207.4,140.5,207z"/>
	<path d="M230.2,163.2c0.4-0.1,0.9-0.2,1.3-0.2C231.1,163,230.6,163.1,230.2,163.2z"/>
	<path d="M232.2,163.3c-0.1-0.2-0.3-0.2-0.7-0.2c0.2,0,0.4-0.1,0.6-0.1C232.2,163.1,232.2,163.2,232.2,163.3z"/>
	<path d="M233.4,187c-0.4,0.1-0.8,0.1-1.1,0C232.7,187.1,233,187.1,233.4,187z"/>
	<path d="M236,185.9c0.1-0.1,0.1-0.3,0.1-0.7C236.1,185.6,236.1,185.7,236,185.9z"/>
	<path d="M168.9,213.8c-0.4,0.3-2,1.8-2.4,1.8c-0.2,0-0.5-0.3-0.8-0.8c0.2,0.2,0.4,0.4,0.6,0.5c0.5,0.2,0.7-0.1,1.2-0.5
		C168,214.4,168.4,214.1,168.9,213.8z"/>
	<path d="M162.7,215.2c-0.1-0.1-0.1-0.2-0.2-0.4C162.6,215,162.7,215.1,162.7,215.2z"/>
	<path d="M162.7,215.5C162.7,215.5,162.7,215.5,162.7,215.5c0,0.2-0.2,0.4-0.4,0.7c0.1-0.2,0.2-0.3,0.2-0.4
		C162.6,215.7,162.7,215.5,162.7,215.5z"/>
	<path d="M262.4,449.7c-0.1-0.1-0.6-0.1-1,0C261.8,449.6,262.3,449.6,262.4,449.7z"/>
	<path d="M262.5,468.3c-0.1-0.6-0.1-1.3-0.1-1.6v-0.3C262.4,466.8,262.5,467.5,262.5,468.3z"/>
	<path d="M262.4,450.5c0-0.3,0-0.6,0-0.8C262.5,449.9,262.5,450.2,262.4,450.5z"/>
	<path d="M309.5,107c-0.2-0.1-0.2-0.3-0.3-0.5C309.3,106.7,309.4,106.9,309.5,107z"/>
	<path d="M309.4,105.7c0,0-0.1,0.1-0.1,0.1C309.2,105.7,309.1,105.7,309.4,105.7z"/>
	<path d="M320.3,127.6c-6.1-1.1-12.3-1.7-18.5-2.2c5.6,0.5,11.1,0.9,16.6,1.9C319,127.3,319.6,127.5,320.3,127.6z"/>
	<path d="M322,97.4c-0.3,0-0.5,0.1-0.8,0.1c0.2-0.1,0.4-0.1,0.6-0.1C321.9,97.4,321.9,97.4,322,97.4z"/>
	<path d="M334.3,137.7c-0.7-0.2-1.7-0.5-2-0.6C332.9,137.3,333.7,137.4,334.3,137.7z"/>
	<path d="M334.5,139.7C334.5,139.8,334.5,139.8,334.5,139.7c-0.3,0.1-0.8,0.1-1.2,0c0.3,0,0.6,0,0.8,0
		C334.3,139.7,334.4,139.7,334.5,139.7z"/>
	<path d="M344.5,134.3c-0.2-0.1-0.4-0.1-0.4-0.1c-0.2-0.1-0.4-0.1-0.6-0.2C343.8,134.1,344.2,134.2,344.5,134.3z"/>
	<path d="M344.4,136.6C344.4,136.6,344.3,136.6,344.4,136.6c-0.3,0.1-0.6,0-0.9-0.1c0.2,0,0.4,0.1,0.6,0.1
		C344.2,136.5,344.3,136.5,344.4,136.6z"/>
	<path d="M345.2,135.2c0,0.5-0.2,0.9-0.5,1.2c0-0.1,0.1-0.1,0.1-0.2c0.1-0.1,0.2-0.6,0.2-0.8C345.1,135.4,345.1,135.3,345.2,135.2z"
		/>
	<path d="M353.9,133.9c-4.6-0.5-9-3-13.3-4.7c2.1,0.8,4.3,1.7,6.4,2.6C349.3,132.7,351.5,133.6,353.9,133.9z"/>
	<path d="M388.4,132.7c-0.1-2.3-0.3-4.7-0.7-7c-2.4-15-11-28.1-24.6-35.1c-5.4-2.8-11.7-4.8-17.8-4.5c12.5-0.8,25.5,7.4,32.8,16.7
		C384.7,111.3,388,122,388.4,132.7z"/>
	<path d="M114.1,152.4c0.2,0.1,0.5,0.2,0.7,0.3C114.6,152.7,114.3,152.6,114.1,152.4z"/>
	<path d="M116.6,147.2c-1,0.9-1.9,1.8-2.3,3.4c0,0.1-0.1,0.3-0.2,0.6c0.2-0.6,0.5-1.4,0.6-1.7C115.1,148.4,115.8,147.8,116.6,147.2z
		"/>
	<path d="M115.7,136.1c-0.1,0.2-0.3,0.4-0.4,0.6c0.1-0.1,0.2-0.3,0.3-0.5C115.6,136.2,115.6,136.1,115.7,136.1z"/>
	<path d="M118.5,149.6c-0.2,0.2-0.4,0.3-0.6,0.5c0.1-0.1,0.1-0.1,0.1-0.1C118.2,149.9,118.3,149.8,118.5,149.6z"/>
	<path d="M121.1,151.5c3-2.3,6.1-4.5,9.1-6.8c-3,2.2-5.9,4.4-8.9,6.6C121.3,151.4,121.2,151.4,121.1,151.5z"/>
	<path d="M130.4,140.5c0.2-0.1,0.3-0.2,0.5-0.3c-0.3,0.2-0.6,0.4-0.9,0.6C130.2,140.6,130.3,140.5,130.4,140.5z"/>
	<path d="M145.6,126.6c-2.4,1.4-4.7,2.8-7,4.4c0.3-0.2,0.6-0.5,0.9-0.7C141.4,128.9,143.5,127.8,145.6,126.6z"/>
	<path d="M175.3,102.3c0.6,0.3,1.3,0.6,1.9,1C176.6,102.9,175.9,102.6,175.3,102.3C175.3,102.3,175.3,102.3,175.3,102.3z"/>
	<path d="M154.3,97.4c7.3,0,14.4,1.8,20.9,4.9c-0.5-0.3-1.1-0.5-1.7-0.8c-0.1,0-0.2-0.1-0.3-0.1c-8.3-3.5-17.4-4.7-26.2-3.4
		C149.5,97.6,151.9,97.4,154.3,97.4z"/>
	<path d="M177.3,103.3c1.3,0.7,2.6,1.4,3.8,2.2c-0.8-0.5-1.6-1-2.4-1.4C178.2,103.8,177.7,103.5,177.3,103.3z"/>
	<path d="M149.4,139.3c-10.6,8.2-21.1,16.3-31.7,24.5c0.7-1.6,1-3.3,2.1-4.8c1-1.4,2.2-2.7,3.4-3.9c2.4-2.5,5.1-4.8,8-6.8
		C136.8,144.4,143,141.5,149.4,139.3z"/>
	<path d="M303.6,116.6c5.3-4.6,27.2,0.7,37.7,8.9C329.5,122.7,316.5,119.6,303.6,116.6z"/>
	<path d="M310,134.9c-2.9-0.2-5.8-0.4-8.7-0.6c-1.6-0.1-3.1-0.2-4.7-0.3c-0.6,0-1.5,0-2-0.1c-0.6,0.2-0.9,0-0.6-0.6
		c0-0.3,0-0.5,0.1-0.8c1-1.4,6.2-0.1,7.8,0.2C304.5,133.2,307.2,134.2,310,134.9z"/>
	<path d="M265.9,237.9c0-0.2,0-0.3,0-0.5c0-1-0.1-2.1-0.1-3.2c0-0.1,0-0.2,0-0.4c-0.1-1.2-0.1-2.3-0.2-3.5c-0.1-2.7-0.3-5.3-0.6-8
		c-0.1-0.8-0.2-1.6-0.3-2.4c0-0.1,0-0.1,0-0.2c-0.4-3.4-1-6.8-1.8-10.2c-0.1-0.4-0.2-0.8-0.3-1.1c-0.4-1.9-0.9-3.9-2.3-5.3
		c-1.8-1.9-6-2.4-8.5-0.9c-0.1,0-0.2,0.1-0.3,0.2c-0.1,0.1-0.2,0.1-0.3,0.2c0,0,0,0,0,0c-0.1,0.1-0.2,0.2-0.3,0.3
		c-0.1,0.1-0.2,0.2-0.3,0.3c-0.2,0.3-0.5,0.6-0.6,1c-0.1,0.1-0.1,0.3-0.1,0.4c-0.7,2.3-0.2,5.2-0.2,7.5c0,3.5,0,7,0,10.5v4.8
		c0,4.6,0,9.3,0,14c-0.2,3.5-0.4,7-0.7,10.5c-0.4,6.6-0.9,13.2-1.3,19.8c-0.2,3.3-0.4,6.6-0.6,9.9c-0.2,3.3-0.4,6.6-0.6,9.8v0.1
		c-0.2,3.1-0.4,6.3-0.5,9.4c0,0.4,0,0.7-0.1,1.1c0,0.5,0,0.9,0,1.4c0,0.4,0,0.7,0,1.1c0,0.4,0,0.7,0,1.1c0,0.7-0.1,1.5-0.2,2.2
		c0,0.4-0.1,0.7-0.2,1.1c0,0.2-0.1,0.3-0.1,0.5c0,0.1,0,0.2-0.1,0.3c0,0.1,0,0.1-0.1,0.2c0,0.1-0.1,0.2-0.1,0.3
		c-0.1,0.3-0.2,0.5-0.3,0.7c-0.2,0.3-0.3,0.7-0.5,1c-0.1,0.3-0.3,0.5-0.5,0.8c-0.5,0.8-1.2,1.6-1.8,2.4c-0.4,0.5-0.9,1-1.3,1.5
		c-2.4,2.7-4.7,5.3-7.1,8c-4.8,5.4-9.6,10.8-14.3,16.2c-4.7,5.4-9.4,10.8-14.2,16.1c-1.2,1.4-2.4,2.8-3.6,4.2
		c-0.5,0.5-0.9,1-1.3,1.6c-0.1,0.1-0.2,0.2-0.2,0.3c-0.1,0.1-0.1,0.2-0.2,0.3c-0.1,0.2-0.2,0.3-0.3,0.5c-0.1,0.2-0.2,0.3-0.2,0.5
		c-0.1,0.2-0.1,0.4-0.1,0.6c-0.2,1.3,0.2,2.6,1,3.6c0.2,0.2,0.3,0.4,0.5,0.6c0.2,0.2,0.4,0.4,0.6,0.6c0.4,0.4,0.8,0.8,1.2,1.1
		c0.3,0.3,0.6,0.5,0.9,0.6c0.1,0.1,0.2,0.1,0.3,0.1c0.5,0.2,1,0.2,1.5,0.1c0.4-0.1,0.8-0.3,1.2-0.6c0.1-0.1,0.3-0.2,0.4-0.3
		c0.7-0.6,1.4-1.4,2-2.3c0.1-0.1,0.1-0.1,0.1-0.2c0.1-0.1,0.1-0.1,0.1-0.2c0-0.1,0.1-0.1,0.1-0.1c0.1-0.2,0.3-0.3,0.4-0.5
		c0.3-0.3,0.6-0.6,0.9-0.9c0.3-0.3,0.6-0.6,1-0.8c0.3-0.3,0.7-0.5,1-0.8c1.1-0.8,2.3-1.6,3.4-2.4c0.1-0.1,0.3-0.2,0.4-0.3
		c0.1-0.1,0.2-0.2,0.4-0.3c0.1-0.1,0.2-0.1,0.3-0.2c8.7-6.7,17.5-13.3,26.3-19.9l7.5-5.8c1.4-1.1,3-2.3,4.5-3.5c3-2.4,6-5,8.1-8
		c0.2-0.3,0.4-0.5,0.6-0.8c0.2-0.3,0.4-0.6,0.6-1c0.1-0.1,0.2-0.3,0.2-0.5c0.1-0.3,0.2-0.6,0.3-0.9c0.2-0.8,0.4-1.6,0.5-2.5
		c0.1-1.4,0.1-2.8,0.1-4.1c0-0.4,0-0.8,0-1.1c0-0.2,0-0.5-0.1-0.7c-0.1-0.5-0.1-0.9-0.2-1.4c-0.1-0.3-0.1-0.6-0.1-0.9
		c0-0.1,0-0.2-0.1-0.3c0-0.2-0.1-0.5-0.1-0.7c0-0.3,0-0.7,0-1c0-0.6,0-1.3,0.1-1.9c0-0.5,0.1-0.9,0.1-1.4V305
		c0.1-7.1,0.3-14.2,0.4-21.3c0.1-3.7,0.1-7.5,0.2-11.2c0.1-3.5,0.1-6.9,0.2-10.4C265.8,254,266,245.9,265.9,237.9z M236.6,337
		c-0.1,0-0.2,0.1-0.3,0.1c-0.5,0.2-1,0.5-1.6,0.7c-0.1,0-0.2,0.1-0.3,0.1c-0.1,0-0.2,0.1-0.3,0.1c-1.4,0.6-2.8,1.2-4.2,1.9
		c-0.3-0.9-0.7-1.8-1-2.7c1.4-0.5,2.9-1,4.3-1.6c0.1,0,0.2-0.1,0.3-0.1c0.6-0.3,1.5-0.7,2.1-0.8c0.1,0,0.2-0.1,0.2-0.1
		c0.1-0.1,0.3-0.1,0.5-0.2c0,0.1,0.1,0.2,0.1,0.3c0.1,0.2,0.1,0.4,0.3,0.8c0.1,0.2,0.2,0.4,0.2,0.5c0,0.1,0.1,0.2,0.1,0.2
		C237.1,336.7,237,336.8,236.6,337C236.6,337,236.6,337,236.6,337z M236,333.6c3.4-8,4.1-8.2,11-3.2
		C243.3,331.5,239.7,332.5,236,333.6z M252.6,297.2c0-0.3,0-0.6-0.1-0.9c0-0.7-0.1-1.3-0.1-2c0-1.1,0.1-2.1,1.1-2.8
		c1.1-0.7,2.5-1,3.6-1.5v8.3c-0.3,0-0.6-0.1-1-0.1c-1,0-2.2,0-3-0.3C252.6,298,252.4,297.8,252.6,297.2z M253,321
		c0.5-2.5,1-5.1,1.6-7.6c0.6,0.4,1.4,0.7,2,1.1c0.1,0.1,0.2,0.1,0.3,0.2c0.4,0.2,0.8,0.5,1.1,0.9c0.1,0.1,0.2,0.2,0.2,0.3
		c0.1,0.1,0.1,0.2,0.2,0.4c0.1,0.1,0.1,0.2,0.1,0.4c0.1,0.4,0.1,0.9-0.1,1.4C258,320.3,255,320.8,253,321z"/>
	<path d="M371,308.4c0,0,0,0.1,0,0.1c0,0.1-0.1,0.1-0.1,0.2c-0.1,0.2-0.2,0.4-0.3,0.6c-0.4,0.6-1.1,1.2-1.6,1.6
		c-0.1,0-0.1,0.1-0.2,0.1c-0.1,0.1-0.1,0.1-0.2,0.1c-0.1,0.1-0.2,0.2-0.4,0.2c-0.1,0.1-0.3,0.1-0.4,0.1c-0.7,0.2-1.4,0.1-2.2,0.2
		c-2.8,0.1-5.6,0.2-8.4,0.2c-2.8,0-5.6-0.1-8.5-0.2c-0.2,0-0.4,0-0.5,0c-0.1,0-0.3,0-0.4,0c-0.1,0-0.3,0-0.4-0.1
		c-0.1,0-0.2-0.1-0.3-0.1c-0.1,0-0.2,0-0.2-0.1c-0.1,0-0.2-0.1-0.3-0.1c-0.1,0-0.1-0.1-0.2-0.1c-0.1-0.1-0.2-0.1-0.3-0.2
		c-0.1-0.1-0.1-0.1-0.2-0.2c-0.1-0.1-0.2-0.2-0.3-0.3c-0.1-0.1-0.1-0.1-0.2-0.2c-0.1-0.1-0.3-0.3-0.5-0.4c-0.1-0.1-0.2-0.2-0.2-0.2
		c-0.1-0.1-0.2-0.2-0.2-0.3c-0.1-0.1-0.2-0.2-0.3-0.3c0,0,0,0,0,0c-0.1-0.1-0.2-0.2-0.2-0.3c-0.1-0.1-0.2-0.3-0.2-0.3
		c0,0,0-0.1,0-0.1c0-0.1,0.1-0.1,0.1-0.2c0.1-0.2,0.3-0.4,0.5-0.7c0.1-0.1,0.1-0.1,0.2-0.2c0.1-0.2,0.2-0.3,0.4-0.4
		c0.1-0.1,0.1-0.1,0.2-0.2l0.3-0.3c0.1-0.1,0.1-0.1,0.2-0.2l0.1-0.1c0,0,0.1-0.1,0.1-0.1c0.1-0.1,0.2-0.2,0.3-0.2
		c0.1-0.1,0.2-0.2,0.3-0.2c0.1-0.1,0.1-0.1,0.2-0.1c0.1-0.1,0.2-0.1,0.3-0.1c0.1,0,0.3-0.1,0.4-0.1c0.5-0.1,1.1-0.1,1.7-0.2
		c2.9-0.2,5.8,0,8.7,0c2.8,0,5.6-0.3,8.3,0c0.5,0.1,1,0.1,1.3,0.2c0.1,0,0.2,0.1,0.3,0.1c0,0,0,0,0.1,0c0.1,0.1,0.2,0.1,0.3,0.2
		c0.2,0.1,0.3,0.2,0.5,0.4c0.1,0.1,0.2,0.2,0.3,0.3c0.5,0.4,0.8,0.9,1.2,1.4c0.1,0.1,0.2,0.2,0.2,0.2c0.1,0.1,0.1,0.1,0.2,0.2
		c0,0,0,0,0,0C370.9,308.3,371,308.3,371,308.4z"/>
	<path d="M258.2,417.4c-0.2,2.8-0.1,5.6-0.5,8.4c-0.1,0.5-0.1,0.9-0.2,1.4c-0.1,0.4-0.2,0.7-0.4,1c-0.1,0.2-0.2,0.4-0.4,0.6
		c-0.1,0.1-0.1,0.1-0.2,0.2c-0.4,0.5-0.9,0.9-1.3,1.3c-0.1,0.1-0.2,0.2-0.3,0.3c-0.2,0.2-0.4,0.3-0.5,0.5c-0.6-0.6-1.3-1.2-2-1.9
		c-0.7-0.6-1.2-1.3-1.4-2.3c-0.4-2-0.4-4.2-0.4-6.3c0-0.7,0-1.3,0-1.9c0-0.3,0-0.7,0-1c-0.1-2-0.2-4.2,0.1-6.2c0-0.3,0.1-0.7,0.2-1
		c0.1-0.3,0.2-0.6,0.3-0.9c0.1-0.3,0.3-0.5,0.5-0.8c0.7-1,1.8-1.9,2.6-2.9c1.2,1.6,2.9,2.8,3.4,4.9c0.3,1.1,0.3,2.3,0.2,3.5
		c0,0.6-0.1,1.3-0.1,2c0,0.6-0.2,1,0.1,1.2C257.8,417.3,257.9,417.4,258.2,417.4z"/>
	<path d="M159.1,307.2c0,0.1-0.1,0.2-0.2,0.4c0,0,0,0,0,0c-0.1,0.1-0.2,0.2-0.2,0.3v0c-0.1,0.2-0.2,0.3-0.3,0.4
		c-0.2,0.2-0.3,0.5-0.5,0.8c-0.1,0.2-0.2,0.4-0.4,0.6c-0.1,0.1-0.1,0.2-0.2,0.3c-0.1,0.1-0.1,0.2-0.2,0.2c-0.1,0.2-0.3,0.3-0.4,0.4
		c-0.1,0.1-0.2,0.1-0.3,0.2c-0.2,0.1-0.3,0.1-0.5,0.2c-0.3,0.1-0.7,0.1-1.1,0.1c-0.2,0-0.4,0-0.6,0c-0.3,0-0.6,0-0.8,0
		c-2.8,0.2-5.6,0.4-8.3,0.5c-1.4,0-2.9,0.1-4.3,0.1c-0.8,0-1.7,0.1-2.5,0c-0.2,0-0.5-0.1-0.7-0.2c-0.2-0.1-0.4-0.2-0.6-0.3
		c-0.5-0.3-0.9-0.7-1.3-1.2c-0.2-0.3-0.3-0.6-0.4-0.9c-0.1-0.2-0.1-0.4-0.1-0.6c0.1-0.6,0.4-1.2,0.8-1.6c0.1-0.2,0.2-0.3,0.4-0.4
		c0.3-0.3,0.7-0.5,1.1-0.8c0.2-0.1,0.5-0.2,0.7-0.3c0.2-0.1,0.5-0.1,0.7-0.2c0.2-0.1,0.5-0.1,0.7-0.1c0.1,0,0.2,0,0.4,0
		c0.5,0,1.2,0,2.1,0c1.3,0,2.8,0,3.9,0c0.3,0,0.5,0,0.7,0c0.1,0,0.2,0,0.3,0c0.1,0,0.1,0,0.1,0c0.1,0,0.1,0,0.2,0c0,0,0,0,0,0
		c2.5-0.2,5.9-1.2,8.4-0.5c0.9,0.3,1.6,1,2.3,1.7c0,0,0.1,0,0.1,0.1c0,0,0.1,0.1,0.2,0.1C158.5,306.6,159.1,307,159.1,307.2z"/>
	<path d="M189.3,253.4C189.3,253.4,189.3,253.5,189.3,253.4c-0.1,0.2-0.1,0.2-0.1,0.3c-0.1,0.1-0.1,0.2-0.2,0.3
		c-0.1,0.1-0.1,0.1-0.2,0.2c-0.2,0.1-0.3,0.3-0.5,0.5c-0.1,0.1-0.2,0.1-0.3,0.2c-0.4,0.3-0.7,0.5-0.9,0.7c-1.1,0.8-2.2,1.5-3.3,2.3
		c-1.8-1.5-3.5-2.8-5-4.7c-1.4-1.8-2.8-3.6-4.1-5.5c-0.2-0.3-0.4-0.6-0.6-0.9c-0.1-0.1-0.1-0.2-0.2-0.3c-0.6-0.9-1.2-1.9-1.5-2.9
		c-0.1-0.2-0.1-0.3-0.2-0.5c-0.3-0.9-0.3-1.7-0.2-2.6c0.1-0.2,0.1-0.4,0.1-0.5c0,0,0-0.1,0.1-0.1c0,0,0.1,0,0.2-0.1
		c0.1,0,0.3,0,0.5-0.1c0.5-0.1,1-0.3,1.4-0.4c0.6-0.1,1.1-0.2,1.6-0.2c0.1,0,0.3,0,0.4,0.1c0.1,0,0.3,0.1,0.4,0.1
		c0.5,0.2,0.9,0.5,1.4,0.9c1.3,1.1,2.5,2.7,3.5,3.8c0.7,0.8,1.5,1.5,2.3,2.1c0.7,0.6,1.4,1.3,2.1,1.9c0.3,0.3,0.6,0.5,0.8,0.8
		c0.1,0.1,0.1,0.1,0.2,0.2c0.2,0.2,0.4,0.4,0.6,0.6c0.3,0.3,0.6,0.7,0.9,1.2c0.1,0.1,0.1,0.2,0.2,0.3c0.1,0.1,0.1,0.2,0.2,0.3
		c0.2,0.3,0.3,0.5,0.4,0.8c0.1,0.1,0.1,0.3,0.1,0.4C189.4,252.9,189.4,253.2,189.3,253.4z"/>
	<path d="M197.6,378.5c-3.2,3.5-6.5,6.5-10.3,9.5c-0.7,0.5-1.3,1.2-2.1,1.7c-0.2,0.2-0.5,0.4-0.7,0.6c-0.6,0.5-1.3,0.9-2,1.2
		c-0.1,0.1-0.3,0.1-0.4,0.2c-0.1,0.1-0.3,0.1-0.4,0.1c-0.1,0-0.1,0.1-0.2,0.1c-0.1,0-0.2,0-0.2,0c-0.2,0-0.3,0.1-0.5,0.1
		c-0.3,0.1-0.6,0.1-0.9,0c-0.1,0-0.3-0.1-0.4-0.1c-0.3-0.1-0.6-0.3-0.9-0.7c-0.1-0.2-0.2-0.4-0.3-0.6c-0.1-0.2-0.2-0.5-0.3-0.8
		c-0.1-0.3-0.2-0.6-0.2-0.8c-0.1-0.4-0.1-0.8,0-1.1c0-0.2,0.1-0.3,0.1-0.4c0-0.1,0.1-0.2,0.1-0.3c0,0,0-0.1,0.1-0.1
		c0.1-0.1,0.2-0.2,0.3-0.4c0.3-0.4,0.8-0.8,1.4-1.4c2.1-1.9,4.2-3.6,6.4-5.3c1-0.8,2-1.6,3.1-2.3c0.2-0.1,0.4-0.3,0.6-0.5
		c0.2-0.2,0.5-0.4,0.7-0.6c0.2-0.2,0.5-0.4,0.8-0.5c0,0,0,0,0,0c0.1-0.1,0.2-0.1,0.3-0.2c0.1-0.1,0.2-0.1,0.3-0.1
		c0.3,0,0.7,0,1.1,0.2c0.1,0,0.2,0.1,0.3,0.1c0.2,0.1,0.5,0.2,0.7,0.4C195.7,377,196.8,378,197.6,378.5z"/>
	<path d="M339.7,238c-3.3,3.7-6.5,7.5-9.9,11.1c-0.2,0.2-0.4,0.4-0.6,0.6c-0.2,0.2-0.4,0.3-0.6,0.5h0c-0.1,0.1-0.3,0.2-0.5,0.3
		c0,0-0.1,0-0.1,0c-0.5,0.2-1.1,0.2-1.9-0.2c-0.3-0.1-0.5-0.3-0.7-0.5c-0.1-0.1-0.2-0.2-0.3-0.4c-0.1-0.1-0.1-0.2-0.2-0.4
		c-0.1-0.2-0.1-0.3-0.2-0.5c0-0.1-0.1-0.2-0.1-0.3c-0.1-0.6-0.2-1.2-0.1-1.7c0.1-0.5,0.3-1.1,0.6-1.6c0.1-0.1,0.1-0.2,0.2-0.3
		c0.3-0.4,0.6-0.9,0.9-1.3c0.2-0.3,0.5-0.6,0.7-0.9c0.1-0.1,0.1-0.1,0.1-0.1c0.2-0.2,0.4-0.5,0.6-0.7c1.4-1.8,2.8-3.6,4.3-5.3
		c1.2-1.4,2.6-2,4.5-1.6C338.2,234.9,338.8,236.8,339.7,238z"/>
	<path d="M339.6,393C339.5,393,339.5,393,339.6,393c-0.7,1-1.7,1.4-2.8,1.4h-0.1c-0.2,0-0.3,0-0.5,0c-1.6-0.2-3.3-1.8-4.5-2.8
		c-0.3-0.3-0.7-0.6-1.1-0.8c-0.4-0.3-0.9-0.6-1.3-1h0c-0.3-0.2-0.5-0.5-0.8-0.7c-0.3-0.3-0.5-0.5-0.7-0.8c-0.1-0.1-0.2-0.3-0.3-0.4
		c0,0,0-0.1-0.1-0.1c-0.1-0.1-0.1-0.2-0.2-0.3c-0.1-0.1-0.1-0.2-0.1-0.3c-0.1-0.3-0.2-0.6-0.2-0.9c-0.1-0.2,0-0.4,0-0.6
		c0-0.2,0-0.3,0.1-0.4c0.2-0.6,0.5-1.1,1-1.6c0.2-0.2,0.4-0.4,0.6-0.6c0.2-0.2,0.4-0.4,0.6-0.6c0.6-0.5,1.1-0.9,1.6-1.3
		c1.5,1.4,3,2.8,4.4,4.3c0.7,0.7,1.5,1.4,2.2,2.2c0.4,0.4,0.8,0.8,1.2,1.2c0.3,0.3,0.5,0.5,0.8,0.8c0.1,0.1,0.1,0.1,0.2,0.2
		c0.1,0.1,0.1,0.2,0.2,0.2c0.1,0.1,0.2,0.3,0.2,0.4c0.1,0.1,0.1,0.3,0.2,0.4C340.3,391.5,340.1,392.1,339.6,393z"/>
	<path d="M236.3,337.2c0.1-0.1,0.2-0.1,0.3-0.1c-0.5,0.4-1.4,0.7-2.1,0.9C235.1,337.7,235.6,337.4,236.3,337.2z"/>
	<path d="M237.1,336.8c-0.2,0.1-0.3,0.2-0.5,0.2c0.4-0.2,0.5-0.3,0.4-0.5C237.1,336.6,237.1,336.7,237.1,336.8z"/>
</g>
</svg>
