<?xml version="1.0"?><svg width="570" height="512" xmlns="http://www.w3.org/2000/svg" xmlns:xlink="http://www.w3.org/1999/xlink">
 <defs>
  <linearGradient id="linearGradient37658">
   <stop id="stop37660" offset="0" stop-color="#2f7aff"/>
   <stop id="stop37662" offset="1" stop-color="#0000b3"/>
  </linearGradient>
  <linearGradient id="linearGradient20137">
   <stop id="stop20139" offset="0" stop-color="#00bf00"/>
   <stop id="stop20141" offset="1" stop-color="#007500"/>
  </linearGradient>
  <radialGradient cx="202.06305" cy="297.1124" fx="205.17723" fy="298.37747" gradientTransform="scale(0.893959,1.118620)" gradientUnits="userSpaceOnUse" id="radialGradient20143" r="188.61865" xlink:href="#linearGradient20137"/>
  <radialGradient cx="221.61394" cy="270.08732" fx="221.61394" fy="270.08732" gradientTransform="scale(0.806632,1.239722)" gradientUnits="userSpaceOnUse" id="radialGradient37664" r="112.3373" xlink:href="#linearGradient37658"/>
  <radialGradient cx="202.06305" cy="297.1124" fx="205.17723" fy="298.37747" gradientTransform="scale(0.893959,1.118620)" gradientUnits="userSpaceOnUse" id="radialGradient1902" r="188.61865" xlink:href="#linearGradient20137"/>
  <radialGradient cx="202.06305" cy="297.1124" fx="205.17723" fy="298.37747" gradientTransform="scale(0.893959,1.118620)" gradientUnits="userSpaceOnUse" id="radialGradient1904" r="188.61865" xlink:href="#linearGradient20137"/>
  <radialGradient cx="202.06305" cy="297.1124" fx="205.17723" fy="298.37747" gradientTransform="scale(0.893959,1.118620)" gradientUnits="userSpaceOnUse" id="radialGradient1906" r="188.61865" xlink:href="#linearGradient20137"/>
  <radialGradient cx="202.06305" cy="297.1124" fx="205.17723" fy="298.37747" gradientTransform="scale(0.893959,1.118620)" gradientUnits="userSpaceOnUse" id="radialGradient1908" r="188.61865" xlink:href="#linearGradient20137"/>
  <radialGradient cx="202.06305" cy="297.1124" fx="205.17723" fy="298.37747" gradientTransform="scale(0.893959,1.118620)" gradientUnits="userSpaceOnUse" id="radialGradient1910" r="188.61865" xlink:href="#linearGradient20137"/>
  <radialGradient cx="202.06305" cy="297.1124" fx="205.17723" fy="298.37747" gradientTransform="scale(0.893959,1.118620)" gradientUnits="userSpaceOnUse" id="radialGradient1912" r="188.61865" xlink:href="#linearGradient20137"/>
  <radialGradient cx="202.06305" cy="297.1124" fx="205.17723" fy="298.37747" gradientTransform="scale(0.893959,1.118620)" gradientUnits="userSpaceOnUse" id="radialGradient1914" r="188.61865" xlink:href="#linearGradient20137"/>
  <radialGradient cx="202.06305" cy="297.1124" fx="205.17723" fy="298.37747" gradientTransform="scale(0.893959,1.118620)" gradientUnits="userSpaceOnUse" id="radialGradient1916" r="188.61865" xlink:href="#linearGradient20137"/>
  <radialGradient cx="202.06305" cy="297.1124" fx="205.17723" fy="298.37747" gradientTransform="scale(0.893959,1.118620)" gradientUnits="userSpaceOnUse" id="radialGradient1918" r="188.61865" xlink:href="#linearGradient20137"/>
  <radialGradient cx="202.06305" cy="297.1124" fx="205.17723" fy="298.37747" gradientTransform="scale(0.893959,1.118620)" gradientUnits="userSpaceOnUse" id="radialGradient1920" r="188.61865" xlink:href="#linearGradient20137"/>
 </defs>
 <desc>wmf2svg</desc>
 <g>
  <title>Layer 1</title>
  <circle fill="#0070c0" stroke="#ffffff" stroke-width="0.6875" stroke-dasharray="null" stroke-linejoin="round" stroke-linecap="round" cx="284" cy="261" r="133.416626" id="svg_1"/>
  <g transform="matrix(1.44042 0 0 1.47474 12.5375 -194.137)" fill-rule="evenodd" fill="url(#radialGradient1902)" id="Continents">
   <polyline points="191.6060028076172,365.5409851074219 191.26699829101562,366.510986328125 191.1439971923828,370.781005859375 190.25900268554688,372.7460021972656 187.03799438476562,373.9020080566406 185.64700317382812,376.6189880371094 185.71200561523438,380.58599853515625 188.23199462890625,382.5010070800781 192.03199768066406,384.79400634765625 196.19400024414062,388.875 198.91000366210938,392.0559997558594 201.0679931640625,392.1809997558594 201.27499389648438,394.5220031738281 200.2239990234375,396.87799072265625 200.61700439453125,398.4960021972656 200.84500122070312,398.6759948730469 210.17999267578125,396.8330078125 219.17799377441406,394.1310119628906 227.8459930419922,390.4989929199219 238.0679931640625,384.8630065917969 247.12600708007812,378.2340087890625 247.28500366210938,375.5480041503906 248.8280029296875,371.55499267578125 251.6580047607422,367.56201171875 253.2469940185547,365.1969909667969 250.89999389648438,363.42999267578125 249.6439971923828,363.2560119628906 246.6230010986328,364.57598876953125 240.70799255371094,365.91900634765625 235.8719940185547,366.5639953613281 231.89100646972656,361.947998046875 225.6020050048828,362.0679931640625 220.9499969482422,361.2640075683594 215.54200744628906,358.9989929199219 211.2519989013672,359.9840087890625 205.35499572753906,360.0820007324219 203.03399658203125,361.19000244140625 198.71099853515625,359.6759948730469 195.8509979248047,360.9809875488281 193.38600158691406,362.989990234375 192.00399780273438,364.4169921875 189.79200744628906,363.9530029296875 186.37899780273438,363.65399169921875 183.48699951171875,361.5459899902344 182.9459991455078,360.10400390625 183.7969970703125,357.5840148925781 183.96099853515625,355.43701171875 181.97300720214844,354.0060119628906 178.9290008544922,353.1759948730469 175.5240020751953,353.22698974609375 175.13099670410156,351.6090087890625 176.1929931640625,349.60198974609375 176.69700622558594,346.17999267578125 174.68800354003906,344.96600341796875 172.0229949951172,345.8970031738281 170.96499633789062,347.71600341796875 169.01400756835938,348.2909851074219 166.47900390625,347.43499755859375 163.03199768066406,344.63800048828125 162.65499877929688,341.0469970703125 163.12899780273438,337.7969970703125 165.9720001220703,333.9649963378906 169.7220001220703,333.177001953125 172.06399536132812,333.4930114746094 173.67100524902344,334.3800048828125 175.2830047607422,334.1659851074219 177.08099365234375,333.22698974609375 180.1179962158203,333.52099609375 182.9949951171875,334.74200439453125 185.01800537109375,337.7569885253906 186.64599609375,340.0679931640625 188.43600463867188,339.5069885253906 187.87399291992188,336.6390075683594 186.7550048828125,334.302001953125 187.26499938964844,331.4169921875 188.6649932861328,329.04998779296875 192.1959991455078,326.4859924316406 194.32699584960938,324.6499938964844 194.48199462890625,321.239013671875 195.87899780273438,317.4200134277344 197.63099670410156,314.8529968261719 198.88099670410156,314.4880065917969 199.59100341796875,312.6809997558594 201.3300018310547,309.9519958496094 202.93600463867188,309.20001220703125 204.55999755859375,310.05999755859375 205.79800415039062,308.6199951171875 208.4739990234375,307.125 210.41900634765625,306.010986328125 209.67999267578125,304.2170104980469 206.9929962158203,304.6369934082031 205.74000549316406,304.2760009765625 205.55299377441406,302.3290100097656 203.75100708007812,301.81500244140625 201.9759979248047,303.2640075683594 200.01800537109375,304.21600341796875 199.81500244140625,303.3269958496094 201.76100158691406,301.29901123046875 204.95899963378906,299.63299560546875 206.94700622558594,299.42401123046875 209.63299560546875,298.2770080566406 210.49000549316406,296.29400634765625 209.56199645996094,293.77099609375 206.84500122070312,290.59100341796875 201.95199584960938,286.89300537109375 199.07400512695312,286.5849914550781 197.45599365234375,286.2619934082031 195.82400512695312,284.1400146484375 190.9759979248047,282.07000732421875 189.18499755859375,282.6310119628906 189.20799255371094,285.6960144042969 189.4340057373047,289.64898681640625 190.71499633789062,291.0580139160156 189.66099548339844,292.68798828125 189.1840057373047,296.12701416015625 188.6699981689453,299.20001220703125 186.6719970703125,297.4209899902344 185.23199462890625,295.11199951171875 185.01400756835938,292.4219970703125 182.67100524902344,291.3800048828125 179.06300354003906,290.5409851074219 177.77499389648438,288.5950012207031 178.08999633789062,284.44500732421875 180.21499633789062,281.1570129394531 183.58399963378906,277.8800048828125 186.6060028076172,275.6470031738281 187.9949951171875,273.843994140625 186.3730010986328,272.07000732421875 184.22999572753906,272.8320007324219 181.89700317382812,272.1390075683594 181.50100708007812,269.7950134277344 181.28900146484375,267.6419982910156 179.68099975585938,267.66900634765625 179.19400024414062,270.7590026855469 177.7550048828125,272.0350036621094 176.5240020751953,271.15399169921875 176.4550018310547,267.3739929199219 175.53700256347656,264.89599609375 173.54200744628906,263.8420104980469 171.91700744628906,261.3420104980469 169.23300170898438,261.57501220703125 167.62899780273438,263.0530090332031 169.61700439453125,264.7879943847656 170.01600646972656,266.9440002441406 172.36199951171875,268.71099853515625 172.03399658203125,271.0610046386719 164.781005859375,265.4330139160156 160.99600219726562,262.0820007324219 158.98699951171875,259.2279968261719 158.9709930419922,256.70098876953125 158.197998046875,253.3220062255859 156.55999755859375,252.60600280761716 153.531005859375,252.66200256347653 152.2729949951172,253.40299987792966 150.65499877929688,253.08099365234372 148.8730010986328,253.2649993896484 148.19000244140625,255.0899963378906 147.47500610351562,256.3590087890625 144.05099487304688,255.71200561523435 141.92799377441406,257.1719970703125 140.71200561523438,259.7300109863281 140.01300048828125,261.885986328125 138.04600524902344,261.57501220703125 136.04400634765625,259.9849853515625 136.78799438476562,262.3160095214844 139.86599731445312,263.70098876953125 143.2779998779297,264.9129943847656 146.16400146484375,266.4840087890625 147.27499389648438,269.50299072265625 147.4949951171875,272.91900634765625 146.31199645996094,277.97698974609375 144.75,283.2170104980469 144.43600463867188,287.3680114746094 144.48399353027344,289.7229919433594 145.05299377441406,292.2130126953125 142.9250030517578,294.7749938964844 140.98699951171875,298.0660095214844 139.0780029296875,302.40399169921875 138.24000549316406,307.63800048828125 137.61300659179688,315.0260009765625 138.36599731445312,317.7070007324219 139.86399841308594,322.72100830078125 140.9739990234375,326.65301513671875 142.64999389648438,331.3190002441406 144.81399536132812,333.62200927734375 146.62899780273438,334.2969970703125 144.8090057373047,332.1709899902344 143.8679962158203,329.48699951171875 143.30999755859375,326.4320068359375 142.74400329589844,323.75299072265625 144.15499877929688,323.375 144.90199279785156,325.51800537109375 146.20899963378906,330.7170104980469 148.9720001220703,336.25201416015625 149.73500061035156,339.2829895019531 149.02099609375,341.27801513671875 150.69000244140625,343.76800537109375 153.9250030517578,345.3269958496094 158.82000732421875,349.75201416015625 161.85800170898438,350.9580078125 166.55599975585938,352.4779968261719 171.93699645996094,354.72698974609375 174.65899658203125,356.5 177.18800354003906,358.76300048828125 179.21600341796875,363.2300109863281 183.1739959716797,364.7829895019531 185.70899963378906,365.6390075683594 188.5679931640625,365.24798583984375 191.6060028076172,365.5409851074219 " stroke-linejoin="round" stroke-linecap="round" stroke-width="0.444585" stroke="#e5e5e5" fill="#ffffff" id="svg_3"/>
   <polyline points="181.50599670410156,345.2130126953125 183.65199279785156,344.2640075683594 187.07200622558594,345.0989990234375 191.02000427246094,346.3030090332031 194.05799865722656,346.59600830078125 196.77499389648438,347.83099365234375 196.07200622558594,349.2619934082031 192.84800720214844,349.6919860839844 190.1580047607422,347.74700927734375 186.89599609375,346.1719970703125 181.50599670410156,345.2130126953125 " stroke-linejoin="round" stroke-linecap="round" stroke-width="0.444585" stroke="#e5e5e5" fill="#ffffff" id="svg_4"/>
   <polyline points="197.6739959716797,348.697998046875 197.53500366210938,350.135986328125 199.86599731445312,351.0169982910156 202.02000427246094,351.3299865722656 205.76699829101562,350.7309875488281 203.24200439453125,349.3089904785156 203.41400146484375,348.42498779296875 201.9600067138672,347.9010009765625 197.6739959716797,348.697998046875 " stroke-linejoin="round" stroke-linecap="round" stroke-width="0.444585" stroke="#e5e5e5" fill="#ffffff" id="svg_5"/>
   <polyline points="211.0290069580078,296.0979919433594 212.2969970703125,297.34600830078125 214.65699768066406,299.27398681640625 217.17300415039062,301.3760070800781 217.9149932861328,302.9830017089844 213.95700073242188,303.0710144042969 211.43899536132812,300.24200439453125 210.51699829101562,298.2560119628906 211.0290069580078,296.0979919433594 " stroke-linejoin="round" stroke-linecap="round" stroke-width="0.444585" stroke="#e5e5e5" fill="#ffffff" id="svg_6"/>
   <polyline points="194.18600463867188,281.47900390625 191.8520050048828,280.7860107421875 188.97799682617188,280.2900085449219 191.82200622558594,278.0979919433594 191.9600067138672,275.02099609375 190.67300415039062,273.0740051269531 187.2570037841797,272.04998779296875 184.91299438476562,271.00799560546875 182.5590057373047,267.97698974609375 184.50100708007812,266.1369934082031 187.21099853515625,266.83599853515625 190.62899780273438,268.58599853515625 193.8769989013672,270.3059997558594 195.16299438476562,273.1659851074219 196.25100708007812,274.0350036621094 198.93899536132812,275.2539978027344 200.6009979248047,278.1199951171875 199.17100524902344,279.7439880371094 198.6820068359375,282.1090087890625 196.5469970703125,282.4939880371094 194.18600463867188,281.47900390625 " stroke-linejoin="round" stroke-linecap="round" stroke-width="0.444585" stroke="#e5e5e5" fill="#ffffff" id="svg_7"/>
   <polyline points="207.24000549316406,278.7139892578125 210.47999572753906,280.80999755859375 211.93099975585938,281.52398681640625 215.1490020751953,280.5559997558594 219.05299377441406,279.21600341796875 215.2790069580078,277.85400390625 214.00900268554688,275.8800048828125 214.3260040283203,272.4549865722656 214.60899353027344,266.531005859375 216.74200439453125,264.5069885253906 216.70700073242188,261.2820129394531 213.27099609375,257.91900634765625 209.6490020751953,255.27999877929685 205.31100463867188,253.91000366210935 201.7259979248047,251.63800048828122 197.5850067138672,251.53399658203122 194.3800048828125,252.66200256347653 192.7830047607422,254.67700195312497 190.98300170898438,254.8899993896484 190.81900024414062,253.45300292968747 188.29800415039062,253.48300170898435 185.2779998779297,254.80200195312497 185.82400512695312,256.7829895019531 184.43600463867188,260.2250061035156 185.90699768066406,262.3630065917969 188.76199340820312,264.1050109863281 189.99200439453125,259.7619934082031 191.3939971923828,258.1199951171875 192.3459930419922,261.15301513671875 194.85400390625,263.6319885253906 197.197998046875,264.67498779296875 200.83299255371094,267.4739990234375 203.9149932861328,270.3110046386719 204.68099975585938,275.7070007324219 206.8509979248047,276.9070129394531 207.24000549316406,278.7139892578125 " stroke-linejoin="round" stroke-linecap="round" stroke-width="0.444585" stroke="#e5e5e5" fill="#ffffff" id="svg_8"/>
   <polyline points="219.41700744628906,263.92401123046875 219.83200073242188,266.96600341796875 220.90499877929688,268.5880126953125 222.87600708007812,269.43701171875 225.37100219726562,266.531005859375 226.38699340820312,262.8949890136719 224.22500610351562,261.3179931640625 221.89500427246094,262.0769958496094 220.84500122070312,263.5190124511719 219.41700744628906,263.92401123046875 " stroke-linejoin="round" stroke-linecap="round" stroke-width="0.444585" stroke="#e5e5e5" fill="#ffffff" id="svg_9"/>
   <polyline points="257.4230041503906,249.0359954833984 258.7049865722656,252.08500671386716 258.5559997558594,255.1190032958984 259.2969970703125,257.6390075683594 261.8340148925781,259.22100830078125 261.6570129394531,261.2080078125 259.5320129394531,261.9410095214844 258.0979919433594,261.80999755859375 256.1570129394531,262.7349853515625 260.11199951171875,264.47601318359375 259.593994140625,266.09698486328125 256.0010070800781,266.14599609375 256.3869934082031,268.1400146484375 257.30499267578125,270.6189880371094 257.3580017089844,273.510986328125 258.9960021972656,276.1719970703125 260.27301025390625,278.6830139160156 262.2699890136719,280.4630126953125 261.3840026855469,281.7019958496094 261.04400634765625,282.97698974609375 260.3599853515625,285.7149963378906 258.2330017089844,287.3630065917969 254.80599975585938,285.2640075683594 254.60699462890625,283.2720031738281 252.5919952392578,281.5199890136719 252.5760040283203,278.9939880371094 254.33099365234375,277.1520080566406 254.14100646972656,274.47900390625 250.88099670410156,273.6289978027344 249.2729949951172,273.656005859375 248.18699645996094,271.87298583984375 248.50100708007812,267.72198486328125 246.125,263.2669982910156 243.77499389648438,261.68701171875 243.00799560546875,258.8450012207031 242.40699768066406,254.8869934082031 239.50799560546875,250.60099792480466 238.74899291992188,247.38200378417966 236.4010009765625,246.52900695800778 233.9040069580078,245.12399291992185 232.4409942626953,244.24999999999997 231.55499267578125,245.18499755859372 232.83700561523438,246.59399414062497 230.7100067138672,248.24200439453122 232.6719970703125,248.74200439453122 234.86099243164062,250.33500671386716 237.21400451660156,252.64100646972653 240.10000610351562,254.21099853515622 237.24000549316406,255.51600646972653 236.3699951171875,257.3370056152344 233.843994140625,256.8299865722656 230.79800415039062,255.27400207519528 228.4010009765625,251.33900451660153 226.58299255371094,249.94000244140622 222.45799255371094,247.86300659179685 219.38400268554688,246.28999328613278 217.21800231933594,243.26100158691403 219.68899536132812,241.7910003662109 224.16299438476562,240.99499511718747 223.61599731445312,239.0149993896484 221.81500244140625,238.50199890136716 221.2899932861328,239.58599853515622 218.2169952392578,239.65299987792966 218.7429962158203,237.65400695800778 216.77099609375,236.80700683593747 215.4969940185547,235.02099609374997 211.88499450683594,232.73100280761716 206.4550018310547,229.03999328613278 205.3719940185547,229.62300109863278 204.3520050048828,230.89399719238278 202.0229949951172,231.65299987792966 200.55599975585938,230.96699523925778 197.86900329589844,230.47399902343747 194.3000030517578,230.72799682617185 192.51699829101562,231.82600402832028 188.77000427246094,232.42599487304685 185.36000061035156,231.9389953613281 183.01199340820312,231.08599853515622 182.64999389648438,229.2960052490234 179.04400634765625,229.18400573730466 177.6320037841797,230.47700500488278 173.87600708007812,230.72700500488278 170.4739990234375,231.50399780273435 170.5019989013672,233.46600341796872 168.71800231933594,234.56500244140622 164.95700073242188,235.00399780273435 163.5489959716797,236.10800170898435 164.0989990234375,237.89999389648435 162.49000549316406,238.84100341796872 158.0189971923828,239.4470062255859 157.68800354003906,241.07099914550778 157.53799438476562,243.07499694824216 156.1060028076172,243.97399902343747 153.6300048828125,246.54699707031247 151.84800720214844,248.37199401855466 149.5570068359375,250.2230072021484 146.69500732421875,250.80200195312497 147.40699768066406,249.72099304199216 148.8040008544922,247.5410003662109 148.4199981689453,246.27299499511716 146.11599731445312,246.32299804687497 144.8419952392578,244.5379943847656 143.72799682617188,242.73800659179685 145.49600219726562,240.75199890136716 147.43499755859375,239.10099792480466 149.0469970703125,238.8849945068359 150.48199462890625,236.15800476074216 150.06700134277344,233.11700439453122 152.21299743652344,232.16700744628903 155.22000122070312,230.6869964599609 155.37600708007812,227.27600097656247 153.73599243164062,225.83399963378903 152.12100219726562,225.3240051269531 160.46800231933594,222.33000183105466 167.48399353027344,220.37499999999997 174.29400634765625,219.05499267578122 182.82200622558594,218.08000183105466 190.406005859375,217.8899993896484 199.28900146484375,218.4730072021484 210.31700134277344,220.35400390624997 221.09800720214844,223.60600280761716 228.44400024414062,226.77499389648435 236.0279998779297,230.77900695800778 242.43600463867188,234.9649963378906 248.4510040283203,239.47799682617185 253.72900390625,244.44599914550778 257.27398681640625,248.17999267578122 257.4230041503906,249.0359954833984 " stroke-linejoin="round" stroke-linecap="round" stroke-width="0.444585" stroke="#e5e5e5" fill="#ffffff" id="svg_10"/>
   <polyline points="236.58700561523438,260.0270080566406 234.9810028076172,260.7799987792969 235.6959991455078,262.3689880371094 237.36500549316406,264.8590087890625 237.9149932861328,266.6499938964844 238.66799926757812,269.33099365234375 241.21200561523438,271.45098876953125 242.9770050048828,271.5989990234375 242.26300048828125,270.0090026855469 240.06399536132812,268.0660095214844 239.88099670410156,266.96099853515625 242.05099487304688,267.85699462890625 244.4080047607422,269.0589904785156 246.55499267578125,269.75 246.54100036621094,267.9490051269531 246.61599731445312,267.7669982910156 246.69200134277344,267.5849914550781 246.74000549316406,267.385986328125 246.7429962158203,267.1990051269531 246.75100708007812,266.8210144042969 246.71400451660156,266.4549865722656 246.6320037841797,266.1000061035156 246.5709991455078,265.8330078125 246.51300048828125,265.6820068359375 246.49400329589844,265.5929870605469 245.0570068359375,264.7359924316406 240.55299377441406,262.8429870605469 238.5709991455078,261.95098876953125 236.58700561523438,260.0270080566406 " stroke-linejoin="round" stroke-linecap="round" stroke-width="0.444585" stroke="#e5e5e5" fill="#ffffff" id="svg_11"/>
   <polyline points="263.5979919433594,256.0880126953125 263.44000244140625,258.468994140625 264.1940002441406,261.14898681640625 263.4750061035156,262.60699462890625 262.2409973144531,262.6400146484375 263.3280029296875,264.4219970703125 265.5150146484375,267.2349853515625 265.7279968261719,271.02801513671875 263.7659912109375,270.52801513671875 262.50201416015625,270.73199462890625 262.20098876953125,275.0429992675781 262.42999267578125,278.8089904785156 261.90899658203125,280.6180114746094 262.114990234375,283.87298583984375 261.0559997558594,285.6919860839844 260.3970031738281,288.0260009765625 261.4880065917969,291.260009765625 263.33099365234375,295.5360107421875 263.1929931640625,298.614013671875 263.09100341796875,304.9179992675781 263.8840026855469,310.635009765625 265.3710021972656,315.29901123046875 267.7489929199219,320.4809875488281 270.8370056152344,323.85400390625 274.44500732421875,324.6929931640625 276.5429992675781,321.3869934082031 277.9670104980469,319.22601318359375 279.9179992675781,318.3450012207031 280.3919982910156,312.5400085449219 280.4490051269531,307.1619873046875 280.21600341796875,301.6400146484375 279.5260009765625,295.14801025390625 278.0639953613281,287.5260009765625 276.24798583984375,281.01800537109375 274.2019958496094,275.2430114746094 271.64801025390625,269.4949951171875 269.0299987792969,264.3940124511719 265.8500061035156,259.28399658203125 263.5979919433594,256.0880126953125 " stroke-linejoin="round" stroke-linecap="round" stroke-width="0.444585" stroke="#e5e5e5" fill="#ffffff" id="svg_12"/>
  </g>
 </g>
</svg>