<svg xmlns="http://www.w3.org/2000/svg" viewBox="0 0 52 52"><title>cloud-network</title><g id="cloud-network"><g id="cloud-network-2" data-name="cloud-network"><rect x="24.5" y="30" width="3" height="18" fill="#40495a"/><rect x="14" y="45.5" width="24" height="3" rx="1.5" ry="1.5" fill="#575f6e"/><circle cx="26" cy="47" r="3" fill="#ff6e40"/><circle cx="26" cy="47" r="1" fill="#40495a"/><path d="M40.71,33A9.29,9.29,0,0,0,50,23.68c0-4.6-3.1-8.52-7.74-8.52,0-3.87-2.32-7-7-7h-.77A12.2,12.2,0,0,0,23.68,2,12.39,12.39,0,0,0,11.29,14.39a9.29,9.29,0,0,0,0,18.58Z" fill="#26c6da"/><path d="M23.68,5.65c-4.66,0-8.74,4.45-8.74,9.52a1,1,0,0,0,2,0c0-4.3,3.56-7.52,6.74-7.52a1,1,0,0,0,0-2Z" fill="#80deea"/></g></g></svg>