<?xml version="1.0" ?><svg xmlns="http://www.w3.org/2000/svg" xmlns:xlink="http://www.w3.org/1999/xlink" version="1.1" viewBox="0 0 512 512" style="enable-background:new 0 0 512 512;" xml:space="preserve"><g id="_x33_2_Cloud_Network"><g><linearGradient id="SVGID_1_" gradientUnits="userSpaceOnUse" x1="285.5213" y1="-214.4167" x2="226.0146" y2="892.4079"><stop offset="0" style="stop-color:#EAE9FE"/><stop offset="0.4236" style="stop-color:#EEEEFE"/><stop offset="0.8967" style="stop-color:#FBFBFF"/><stop offset="1" style="stop-color:#FFFFFF"/></linearGradient><path style="fill:url(#SVGID_1_);" d="M472.914,264.717c-9.683-7.535-21.378-14.027-25.882-25.439    c-6.125-15.52,3.665-32.176,9.439-47.831c17.628-47.798-4.996-104.402-45.589-135.186    C333.444-2.466,182.282,18.119,161.159,99.289c-8.936,34.337,7.073,73.513-9.306,104.987    c-20.667,39.713-75.492,42.391-110.802,60.05c-43.746,21.878-52.499,69.515-21.125,105.783    c11.521,13.318,26.262,22.493,36.829,37.044c15.288,21.055,23.863,44.338,44.319,61.705c28.805,24.456,76.964,30.52,102.464,2.636    c14.36-15.702,19.032-38.836,34.706-53.226c20.633-18.942,53.243-16.394,79.499-6.639c26.255,9.755,50.606,25.505,78.261,29.944    c43.239,6.94,89.601-18.431,107.066-58.591S507.476,291.611,472.914,264.717z"/><path style="fill:#EDEDED;" d="M470.596,208.766c0,44.223-35.748,80.029-79.911,80.029h-267.18    c-44.164,0-80.029-35.806-80.029-80.029c0-44.105,35.865-79.911,80.029-79.911c0.059,0,0.117,0,0.117,0    c5.395,0,9.901-4.209,9.604-9.543c-0.475-10.198,0.415-20.748,3.676-32.072c11.441-40.194,46.831-70.248,88.506-73.626    c39.777-3.259,75.049,16.479,94.197,47.364c1.957,3.144,5.691,4.626,9.367,4.032c3.498-0.651,7.113-0.949,10.79-0.949    c33.849,0,61.592,26.676,64.794,59.698c0.356,3.676,3.023,6.817,6.579,7.763c16.066,4.27,30.234,13.399,40.608,25.73    C463.482,171.182,470.596,189.143,470.596,208.766z"/><path style="fill:#2769FD;" d="M422.809,474.638c0,13.269-10.706,24.052-23.979,24.052c-13.346,0-24.052-10.784-24.052-24.052    c0-13.269,10.706-24.052,24.052-24.052C412.102,450.586,422.809,461.369,422.809,474.638z"/><path style="fill:#F9BB40;" d="M281.052,474.638c0,13.269-10.706,24.052-23.979,24.052c-13.346,0-24.052-10.784-24.052-24.052    c0-13.269,10.706-24.052,24.052-24.052C270.346,450.586,281.052,461.369,281.052,474.638z"/><path style="fill:#5EDB6B;" d="M139.296,474.638c0,13.269-10.706,24.052-23.979,24.052c-13.346,0-24.052-10.784-24.052-24.052    c0-13.269,10.706-24.052,24.052-24.052C128.59,450.586,139.296,461.369,139.296,474.638z"/><path style="fill:#FF5859;" d="M355.719,263.266l-6.473-0.744c-4.532-0.518-8.415-3.463-10.163-7.703    c0-0.065-0.032-0.098-0.064-0.13c-1.716-4.208-1.068-8.999,1.747-12.559l4.078-5.146c3.948-5.016,3.528-12.169-0.97-16.668    l-18.384-18.384c-4.498-4.531-11.684-4.92-16.668-0.97l-4.887,3.851c-3.593,2.848-8.448,3.496-12.655,1.748    c-0.13-0.065-0.292-0.13-0.421-0.194c-4.175-1.715-7.088-5.632-7.606-10.098l-0.744-6.214c-0.712-6.344-6.084-11.1-12.46-11.1    h-26.022c-6.376,0-11.749,4.757-12.461,11.1l-0.68,5.762c-0.518,4.531-3.463,8.447-7.703,10.162    c-0.292,0.098-0.551,0.228-0.809,0.324c-4.175,1.748-8.998,1.068-12.558-1.779l-4.531-3.561    c-5.017-3.981-12.169-3.561-16.669,0.939L170.2,220.316c-4.499,4.499-4.92,11.652-0.971,16.668l3.431,4.305    c2.849,3.592,3.528,8.447,1.748,12.622c-0.162,0.356-0.324,0.713-0.453,1.068c-1.716,4.208-5.632,7.121-10.131,7.638l-5.47,0.648    c-6.344,0.744-11.101,6.118-11.101,12.493v25.99c0,6.344,4.757,11.715,11.101,12.461l5.47,0.646    c4.498,0.518,8.415,3.431,10.131,7.638c0.129,0.357,0.291,0.713,0.453,1.068c1.78,4.207,1.101,9.03-1.748,12.591l-3.431,4.336    c-3.949,5.018-3.528,12.17,0.971,16.668l18.416,18.417c4.499,4.498,11.652,4.918,16.669,0.97l4.563-3.625    c3.561-2.816,8.351-3.496,12.557-1.748c0.259,0.098,0.486,0.228,0.778,0.324c4.239,1.715,7.185,5.631,7.735,10.13l0.647,5.794    c0.744,6.312,6.118,11.102,12.493,11.102h25.99c6.376,0,11.748-4.79,12.46-11.102l0.744-6.214    c0.518-4.499,3.431-8.382,7.606-10.098c0.13-0.065,0.258-0.096,0.388-0.161c4.208-1.781,9.03-1.133,12.623,1.683l4.952,3.916    c4.984,3.948,12.169,3.527,16.668-0.97l18.384-18.384c4.498-4.499,4.919-11.684,0.97-16.668l-4.078-5.147    c-2.815-3.561-3.495-8.382-1.747-12.557c0.032-0.065,0.064-0.13,0.064-0.161c1.748-4.208,5.632-7.186,10.163-7.704l6.473-0.743    c6.344-0.746,11.101-6.118,11.101-12.494v-25.957C366.82,269.35,362.063,264.01,355.719,263.266z M257.037,336.578    c-26.409,0-47.84-21.432-47.84-47.84c0-26.437,21.432-47.84,47.84-47.84c26.408,0,47.84,21.403,47.84,47.84    C304.877,315.145,283.445,336.578,257.037,336.578z"/><path style="fill:#386E93;" d="M257.037,336.578c-26.409,0-47.84-21.432-47.84-47.84c0-26.437,21.432-47.84,47.84-47.84    c26.408,0,47.84,21.403,47.84,47.84C304.877,315.145,283.445,336.578,257.037,336.578z"/><g><path style="fill:#332E8E;" d="M349.805,319.83l6.487-0.742c8.802-1.036,15.439-8.504,15.439-17.373v-8.009h18.954     c46.772,0,84.822-38.103,84.822-84.94c0-38.184-25.726-72.063-63.109-81.989c-1.581-0.422-2.796-1.858-2.953-3.491     c-3.97-40.932-42.605-70.302-81.257-63.123c-1.835,0.297-3.557-0.406-4.407-1.771c-57.085-92.076-200.56-48.379-195.456,61.192     c0.075,1.349-0.539,2.299-1.066,2.858c-0.905,0.956-2.23,1.503-3.752,1.503c-46.836,0-84.94,38.052-84.94,84.822     c0,46.837,38.105,84.94,84.94,84.94h18.836v8.044c0,8.85,6.637,16.302,15.436,17.335l5.485,0.649     c5.996,0.688,9.338,8.627,5.545,13.373l-3.438,4.345c-5.48,6.963-4.896,16.925,1.357,23.176l18.417,18.418     c0.484,0.484,1.027,0.872,1.552,1.288v16.043l-55.66,53.992c-4.529-2.959-9.922-4.696-15.719-4.696     c-15.971,0-28.964,12.993-28.964,28.966c0,15.969,12.993,28.962,28.964,28.962c15.93,0,28.889-12.993,28.889-28.962     c0-6.609-2.243-12.689-5.974-17.568l56.793-55.092c0.953-0.924,1.491-2.196,1.491-3.523v-14.335     c4.129,0.228,8.346-0.995,11.821-3.729l4.556-3.619c4.615-3.658,12.404-0.637,13.143,5.397l0.649,5.825     c1.039,8.798,8.507,15.436,17.371,15.436h7.702v42.754c-13.437,2.505-23.649,14.3-23.649,28.455     c0,15.969,12.993,28.962,28.962,28.962c15.93,0,28.889-12.993,28.889-28.962c0-14.431-10.591-26.396-24.381-28.577v-42.632h8.466     c8.893,0,16.347-6.647,17.336-15.426l0.748-6.238c0.662-5.757,7.914-9.038,12.691-5.285l4.951,3.913     c3.455,2.735,7.659,3.961,11.783,3.737v14.324c0,1.327,0.539,2.599,1.491,3.523l56.802,55.101     c-3.736,4.878-5.983,10.954-5.983,17.56c0,15.969,12.993,28.962,28.962,28.962c15.93,0,28.889-12.993,28.889-28.962     c0-15.973-12.959-28.966-28.889-28.966c-5.82,0-11.234,1.741-15.779,4.708l-55.673-54.004V380.36     c0.537-0.423,1.09-0.82,1.584-1.314l18.383-18.383c6.273-6.273,6.851-16.241,1.348-23.192l-4.076-5.144     C340.79,327.484,344.055,320.491,349.805,319.83z M115.318,493.78c-10.555,0-19.143-8.587-19.143-19.141     c0-10.557,8.587-19.144,19.143-19.144c10.514,0,19.067,8.587,19.067,19.144C134.385,485.193,125.831,493.78,115.318,493.78z      M398.83,455.495c10.514,0,19.067,8.587,19.067,19.144c0,10.554-8.554,19.141-19.067,19.141     c-10.554,0-19.141-8.587-19.141-19.141C379.689,464.083,388.276,455.495,398.83,455.495z M142.343,275.758v8.127h-18.836     c-41.42,0-75.119-33.697-75.119-75.119c0-41.354,33.699-75.001,75.236-75.001c4.094,0,8.02-1.669,10.769-4.578     c2.622-2.769,3.948-6.375,3.741-10.103C133.483,19.218,263.768-19.76,315.438,63.573c2.956,4.744,8.571,7.213,14.43,6.263     c33.249-6.167,66.388,19.192,69.801,54.395c0.553,5.72,4.653,10.557,10.205,12.037c33.155,8.806,55.812,38.842,55.812,72.497     c0,41.422-33.645,75.119-75.001,75.119h-18.954v-8.127c0-8.872-6.639-16.34-15.44-17.37c-0.003,0-0.006,0-0.01,0l-6.477-0.745     c-5.935-0.677-8.878-7.799-5.189-12.462l4.087-5.16c5.478-6.96,4.895-16.925-1.357-23.176l-18.369-18.37     c-6.255-6.301-16.23-6.887-23.195-1.368l-4.895,3.859c-4.849,3.844-12.083,0.55-12.758-5.282l-0.74-6.177     c-0.99-8.818-8.444-15.464-17.341-15.464h-26.021c-8.896,0-16.352,6.647-17.339,15.436l-0.681,5.784     c-0.694,6.062-8.54,9.093-13.156,5.4l-4.513-3.546c-6.957-5.525-16.932-4.959-23.193,1.314l-18.417,18.415     c-6.252,6.25-6.835,16.216-1.34,23.198l3.424,4.3c3.832,4.828,0.382,12.714-5.566,13.399l-5.462,0.646     C148.981,259.417,142.343,266.886,142.343,275.758z M276.141,474.639c0,10.554-8.554,19.141-19.067,19.141     c-10.554,0-19.141-8.587-19.141-19.141c0-10.557,8.587-19.144,19.141-19.144C267.587,455.495,276.141,464.083,276.141,474.639z      M336.916,338.424l4.078,5.147c2.407,3.037,2.153,7.401-0.593,10.148l-18.383,18.383c-2.743,2.75-7.107,3.005-10.149,0.591     l-4.97-3.929c-10.699-8.394-26.964-1.669-28.521,11.855l-0.75,6.25c-0.433,3.843-3.691,6.739-7.58,6.739h-25.989     c-3.888,0-7.161-2.909-7.614-6.733l-0.652-5.844c-1.631-13.364-18.07-20.598-28.999-11.957l-4.545,3.613     c-3.053,2.401-7.422,2.155-10.16-0.585l-18.418-18.422c-2.737-2.734-2.986-7.098-0.59-10.144l3.414-4.316     c8.534-10.668,1.63-27.662-12.095-29.241l-5.473-0.649c-3.854-0.451-6.762-3.712-6.762-7.58v-25.992     c0-3.891,2.906-7.161,6.768-7.615l5.453-0.646c13.691-1.579,20.689-18.466,12.115-29.266l-3.413-4.284     c-2.404-3.053-2.153-7.42,0.583-10.157l18.418-18.415c2.738-2.74,7.096-2.983,10.16-0.55l4.5,3.536     c10.573,8.449,27.449,1.752,29.012-11.967l0.683-5.79c0.432-3.843,3.691-6.739,7.582-6.739h26.021     c3.891,0,7.15,2.897,7.585,6.775l0.742,6.196c1.578,13.598,17.891,20.313,28.601,11.836l4.896-3.859     c3.048-2.417,7.404-2.168,10.146,0.595l18.383,18.383c2.737,2.737,2.988,7.104,0.593,10.144l-4.079,5.151     c-8.474,10.711-1.796,26.766,11.77,28.317l6.466,0.745c3.853,0.451,6.759,3.721,6.759,7.612v25.957     c0,3.891-2.908,7.165-6.749,7.615l-6.476,0.742C335.249,311.619,328.35,327.592,336.916,338.424z"/></g><path style="fill:#332E8E;" d="M204.286,288.738c0,29.087,23.663,52.749,52.75,52.749s52.75-23.662,52.75-52.749    s-23.663-52.752-52.75-52.752S204.286,259.651,204.286,288.738z M257.037,245.807c23.671,0,42.929,19.259,42.929,42.931    s-19.258,42.927-42.929,42.927s-42.929-19.256-42.929-42.927S233.366,245.807,257.037,245.807z"/></g></g><g id="Layer_1"/></svg>